<?xml version="1.0" encoding="UTF-8"?>
<!DOCTYPE svg PUBLIC "-//W3C//DTD SVG 1.1//EN" "http://www.w3.org/Graphics/SVG/1.1/DTD/svg11.dtd">
<svg version="1.2" width="16.07mm" height="10.1mm" viewBox="15834 1649 1607 1010" preserveAspectRatio="xMidYMid" fill-rule="evenodd" stroke-width="28.222" stroke-linejoin="round" xmlns="http://www.w3.org/2000/svg" xmlns:ooo="http://xml.openoffice.org/svg/export" xmlns:xlink="http://www.w3.org/1999/xlink" xmlns:presentation="http://sun.com/xmlns/staroffice/presentation" xmlns:smil="http://www.w3.org/2001/SMIL20/" xmlns:anim="urn:oasis:names:tc:opendocument:xmlns:animation:1.0" xmlns:svg="urn:oasis:names:tc:opendocument:xmlns:svg-compatible:1.0" xml:space="preserve">
 <defs class="EmbeddedBulletChars">
  <g id="bullet-char-template-57356" transform="scale(0.00048828125,-0.00048828125)">
   <path d="M 580,1141 L 1163,571 580,0 -4,571 580,1141 Z"/>
  </g>
  <g id="bullet-char-template-57354" transform="scale(0.00048828125,-0.00048828125)">
   <path d="M 8,1128 L 1137,1128 1137,0 8,0 8,1128 Z"/>
  </g>
  <g id="bullet-char-template-10146" transform="scale(0.00048828125,-0.00048828125)">
   <path d="M 174,0 L 602,739 174,1481 1456,739 174,0 Z M 1358,739 L 309,1346 659,739 1358,739 Z"/>
  </g>
  <g id="bullet-char-template-10132" transform="scale(0.00048828125,-0.00048828125)">
   <path d="M 2015,739 L 1276,0 717,0 1260,543 174,543 174,936 1260,936 717,1481 1274,1481 2015,739 Z"/>
  </g>
  <g id="bullet-char-template-10007" transform="scale(0.00048828125,-0.00048828125)">
   <path d="M 0,-2 C -7,14 -16,27 -25,37 L 356,567 C 262,823 215,952 215,954 215,979 228,992 255,992 264,992 276,990 289,987 310,991 331,999 354,1012 L 381,999 492,748 772,1049 836,1024 860,1049 C 881,1039 901,1025 922,1006 886,937 835,863 770,784 769,783 710,716 594,584 L 774,223 C 774,196 753,168 711,139 L 727,119 C 717,90 699,76 672,76 641,76 570,178 457,381 L 164,-76 C 142,-110 111,-127 72,-127 30,-127 9,-110 8,-76 1,-67 -2,-52 -2,-32 -2,-23 -1,-13 0,-2 Z"/>
  </g>
  <g id="bullet-char-template-10004" transform="scale(0.00048828125,-0.00048828125)">
   <path d="M 285,-33 C 182,-33 111,30 74,156 52,228 41,333 41,471 41,549 55,616 82,672 116,743 169,778 240,778 293,778 328,747 346,684 L 369,508 C 377,444 397,411 428,410 L 1163,1116 C 1174,1127 1196,1133 1229,1133 1271,1133 1292,1118 1292,1087 L 1292,965 C 1292,929 1282,901 1262,881 L 442,47 C 390,-6 338,-33 285,-33 Z"/>
  </g>
  <g id="bullet-char-template-9679" transform="scale(0.00048828125,-0.00048828125)">
   <path d="M 813,0 C 632,0 489,54 383,161 276,268 223,411 223,592 223,773 276,916 383,1023 489,1130 632,1184 813,1184 992,1184 1136,1130 1245,1023 1353,916 1407,772 1407,592 1407,412 1353,268 1245,161 1136,54 992,0 813,0 Z"/>
  </g>
  <g id="bullet-char-template-8226" transform="scale(0.00048828125,-0.00048828125)">
   <path d="M 346,457 C 273,457 209,483 155,535 101,586 74,649 74,723 74,796 101,859 155,911 209,963 273,989 346,989 419,989 480,963 531,910 582,859 608,796 608,723 608,648 583,586 532,535 482,483 420,457 346,457 Z"/>
  </g>
  <g id="bullet-char-template-8211" transform="scale(0.00048828125,-0.00048828125)">
   <path d="M -4,459 L 1135,459 1135,606 -4,606 -4,459 Z"/>
  </g>
  <g id="bullet-char-template-61548" transform="scale(0.00048828125,-0.00048828125)">
   <path d="M 173,740 C 173,903 231,1043 346,1159 462,1274 601,1332 765,1332 928,1332 1067,1274 1183,1159 1299,1043 1357,903 1357,740 1357,577 1299,437 1183,322 1067,206 928,148 765,148 601,148 462,206 346,322 231,437 173,577 173,740 Z"/>
  </g>
 </defs>
 <g class="Page">
  <g class="Group">
   <g class="com.sun.star.drawing.PolyPolygonShape">
    <g id="id3">
     <rect class="BoundingBox" stroke="none" fill="none" x="15834" y="1649" width="1607" height="1010"/>
     <path fill="rgb(204,255,153)" stroke="none" d="M 15860,2632 L 17414,2632 17414,1675 15860,1675 15860,2632 Z"/>
     <path fill="none" stroke="rgb(15,15,15)" stroke-width="51" stroke-linejoin="round" d="M 15860,2632 L 17414,2632 17414,1675 15860,1675 15860,2632 Z"/>
    </g>
   </g>
   <g class="com.sun.star.drawing.LineShape">
    <g id="id4">
     <rect class="BoundingBox" stroke="none" fill="none" x="15859" y="2153" width="480" height="3"/>
     <path fill="none" stroke="rgb(141,141,141)" d="M 15860,2154 L 16337,2154"/>
    </g>
   </g>
   <g class="com.sun.star.drawing.PolyPolygonShape">
    <g id="id5">
     <rect class="BoundingBox" stroke="none" fill="none" x="16337" y="2063" width="182" height="182"/>
     <path fill="rgb(141,141,141)" stroke="none" d="M 16338,2243 L 16338,2064 16517,2154 16338,2243 Z"/>
     <path fill="none" stroke="rgb(141,141,141)" d="M 16338,2243 L 16338,2064 16517,2154 16338,2243 Z"/>
    </g>
   </g>
   <g class="com.sun.star.drawing.PolyPolygonShape">
    <g id="id6">
     <rect class="BoundingBox" stroke="none" fill="none" x="16337" y="2063" width="182" height="182"/>
     <path fill="none" stroke="rgb(141,141,141)" d="M 16517,2154 L 16338,2243 16338,2064 16517,2154 Z"/>
    </g>
   </g>
   <g class="com.sun.star.drawing.PolyPolygonShape">
    <g id="id7">
     <rect class="BoundingBox" stroke="none" fill="none" x="16944" y="1745" width="173" height="87"/>
     <path fill="rgb(15,15,15)" stroke="none" d="M 17115,1830 L 17029,1746 16945,1830 17115,1830 Z"/>
     <path fill="none" stroke="rgb(15,15,15)" d="M 17115,1830 L 17029,1746 16945,1830 17115,1830 Z"/>
    </g>
   </g>
   <g class="com.sun.star.drawing.PolyPolygonShape">
    <g id="id8">
     <rect class="BoundingBox" stroke="none" fill="none" x="16944" y="1829" width="173" height="87"/>
     <path fill="rgb(15,15,15)" stroke="none" d="M 17115,1830 L 16945,1830 17029,1914 17115,1830 Z"/>
     <path fill="none" stroke="rgb(15,15,15)" d="M 17115,1830 L 16945,1830 17029,1914 17115,1830 Z"/>
    </g>
   </g>
   <g class="com.sun.star.drawing.PolyPolygonShape">
    <g id="id9">
     <rect class="BoundingBox" stroke="none" fill="none" x="16944" y="1745" width="173" height="171"/>
     <path fill="none" stroke="rgb(15,15,15)" d="M 17029,1914 L 17115,1830 17029,1746 16945,1830 17029,1914 Z"/>
    </g>
   </g>
   <g class="com.sun.star.drawing.PolyPolygonShape">
    <g id="id10">
     <rect class="BoundingBox" stroke="none" fill="none" x="17148" y="2067" width="171" height="89"/>
     <path fill="rgb(15,15,15)" stroke="none" d="M 17317,2154 L 17233,2068 17149,2154 17317,2154 Z"/>
     <path fill="none" stroke="rgb(15,15,15)" d="M 17317,2154 L 17233,2068 17149,2154 17317,2154 Z"/>
    </g>
   </g>
   <g class="com.sun.star.drawing.PolyPolygonShape">
    <g id="id11">
     <rect class="BoundingBox" stroke="none" fill="none" x="17148" y="2153" width="171" height="87"/>
     <path fill="rgb(15,15,15)" stroke="none" d="M 17317,2154 L 17149,2154 17233,2238 17317,2154 Z"/>
     <path fill="none" stroke="rgb(15,15,15)" d="M 17317,2154 L 17149,2154 17233,2238 17317,2154 Z"/>
    </g>
   </g>
   <g class="com.sun.star.drawing.PolyPolygonShape">
    <g id="id12">
     <rect class="BoundingBox" stroke="none" fill="none" x="17148" y="2067" width="171" height="173"/>
     <path fill="none" stroke="rgb(15,15,15)" d="M 17233,2238 L 17317,2154 17233,2068 17149,2154 17233,2238 Z"/>
    </g>
   </g>
   <g class="com.sun.star.drawing.PolyPolygonShape">
    <g id="id13">
     <rect class="BoundingBox" stroke="none" fill="none" x="16944" y="2391" width="173" height="87"/>
     <path fill="rgb(15,15,15)" stroke="none" d="M 17115,2476 L 17029,2392 16945,2476 17115,2476 Z"/>
     <path fill="none" stroke="rgb(15,15,15)" d="M 17115,2476 L 17029,2392 16945,2476 17115,2476 Z"/>
    </g>
   </g>
   <g class="com.sun.star.drawing.PolyPolygonShape">
    <g id="id14">
     <rect class="BoundingBox" stroke="none" fill="none" x="16944" y="2475" width="173" height="89"/>
     <path fill="rgb(15,15,15)" stroke="none" d="M 17115,2476 L 16945,2476 17029,2562 17115,2476 Z"/>
     <path fill="none" stroke="rgb(15,15,15)" d="M 17115,2476 L 16945,2476 17029,2562 17115,2476 Z"/>
    </g>
   </g>
   <g class="com.sun.star.drawing.PolyPolygonShape">
    <g id="id15">
     <rect class="BoundingBox" stroke="none" fill="none" x="16944" y="2391" width="173" height="173"/>
     <path fill="none" stroke="rgb(15,15,15)" d="M 17029,2562 L 17115,2476 17029,2392 16945,2476 17029,2562 Z"/>
    </g>
   </g>
   <g class="com.sun.star.drawing.LineShape">
    <g id="id16">
     <rect class="BoundingBox" stroke="none" fill="none" x="16515" y="1790" width="562" height="276"/>
     <path fill="none" stroke="rgb(15,15,15)" d="M 17075,1791 L 16516,2064"/>
    </g>
   </g>
   <g class="com.sun.star.drawing.LineShape">
    <g id="id17">
     <rect class="BoundingBox" stroke="none" fill="none" x="16635" y="2153" width="684" height="3"/>
     <path fill="none" stroke="rgb(15,15,15)" d="M 17317,2154 L 16636,2154"/>
    </g>
   </g>
   <g class="com.sun.star.drawing.LineShape">
    <g id="id18">
     <rect class="BoundingBox" stroke="none" fill="none" x="16515" y="2212" width="556" height="312"/>
     <path fill="none" stroke="rgb(15,15,15)" d="M 17069,2522 L 16516,2213"/>
    </g>
   </g>
   <g class="com.sun.star.drawing.PolyPolygonShape">
    <g id="id19">
     <rect class="BoundingBox" stroke="none" fill="none" x="16591" y="2107" width="93" height="93"/>
     <path fill="rgb(15,15,15)" stroke="none" d="M 16682,2198 L 16682,2108 16592,2154 16682,2198 Z"/>
     <path fill="none" stroke="rgb(15,15,15)" d="M 16682,2198 L 16682,2108 16592,2154 16682,2198 Z"/>
    </g>
   </g>
   <g class="com.sun.star.drawing.PolyPolygonShape">
    <g id="id20">
     <rect class="BoundingBox" stroke="none" fill="none" x="16591" y="2107" width="93" height="93"/>
     <path fill="none" stroke="rgb(15,15,15)" d="M 16592,2154 L 16682,2198 16682,2108 16592,2154 Z"/>
    </g>
   </g>
   <g class="com.sun.star.drawing.PolyPolygonShape">
    <g id="id21">
     <rect class="BoundingBox" stroke="none" fill="none" x="16475" y="2008" width="104" height="87"/>
     <path fill="rgb(15,15,15)" stroke="none" d="M 16577,2087 L 16533,2009 16476,2093 16577,2087 Z"/>
     <path fill="none" stroke="rgb(15,15,15)" d="M 16577,2087 L 16533,2009 16476,2093 16577,2087 Z"/>
    </g>
   </g>
   <g class="com.sun.star.drawing.PolyPolygonShape">
    <g id="id22">
     <rect class="BoundingBox" stroke="none" fill="none" x="16475" y="2008" width="104" height="87"/>
     <path fill="none" stroke="rgb(15,15,15)" d="M 16476,2093 L 16577,2087 16533,2009 16476,2093 Z"/>
    </g>
   </g>
   <g class="com.sun.star.drawing.PolyPolygonShape">
    <g id="id23">
     <rect class="BoundingBox" stroke="none" fill="none" x="16511" y="2208" width="104" height="87"/>
     <path fill="rgb(15,15,15)" stroke="none" d="M 16613,2215 L 16567,2293 16512,2209 16613,2215 Z"/>
     <path fill="none" stroke="rgb(15,15,15)" d="M 16613,2215 L 16567,2293 16512,2209 16613,2215 Z"/>
    </g>
   </g>
   <g class="com.sun.star.drawing.PolyPolygonShape">
    <g id="id24">
     <rect class="BoundingBox" stroke="none" fill="none" x="16511" y="2208" width="104" height="87"/>
     <path fill="none" stroke="rgb(15,15,15)" d="M 16512,2209 L 16613,2215 16567,2293 16512,2209 Z"/>
    </g>
   </g>
  </g>
 </g>
</svg>