<?xml version="1.0" encoding="UTF-8"?>
<!DOCTYPE svg PUBLIC "-//W3C//DTD SVG 1.1//EN" "http://www.w3.org/Graphics/SVG/1.1/DTD/svg11.dtd">
<svg version="1.2" width="16.07mm" height="10.1mm" viewBox="4416 4426 1607 1010" preserveAspectRatio="xMidYMid" fill-rule="evenodd" stroke-width="28.222" stroke-linejoin="round" xmlns="http://www.w3.org/2000/svg" xmlns:ooo="http://xml.openoffice.org/svg/export" xmlns:xlink="http://www.w3.org/1999/xlink" xmlns:presentation="http://sun.com/xmlns/staroffice/presentation" xmlns:smil="http://www.w3.org/2001/SMIL20/" xmlns:anim="urn:oasis:names:tc:opendocument:xmlns:animation:1.0" xmlns:svg="urn:oasis:names:tc:opendocument:xmlns:svg-compatible:1.0" xml:space="preserve">
 <defs class="EmbeddedBulletChars">
  <g id="bullet-char-template-57356" transform="scale(0.00048828125,-0.00048828125)">
   <path d="M 580,1141 L 1163,571 580,0 -4,571 580,1141 Z"/>
  </g>
  <g id="bullet-char-template-57354" transform="scale(0.00048828125,-0.00048828125)">
   <path d="M 8,1128 L 1137,1128 1137,0 8,0 8,1128 Z"/>
  </g>
  <g id="bullet-char-template-10146" transform="scale(0.00048828125,-0.00048828125)">
   <path d="M 174,0 L 602,739 174,1481 1456,739 174,0 Z M 1358,739 L 309,1346 659,739 1358,739 Z"/>
  </g>
  <g id="bullet-char-template-10132" transform="scale(0.00048828125,-0.00048828125)">
   <path d="M 2015,739 L 1276,0 717,0 1260,543 174,543 174,936 1260,936 717,1481 1274,1481 2015,739 Z"/>
  </g>
  <g id="bullet-char-template-10007" transform="scale(0.00048828125,-0.00048828125)">
   <path d="M 0,-2 C -7,14 -16,27 -25,37 L 356,567 C 262,823 215,952 215,954 215,979 228,992 255,992 264,992 276,990 289,987 310,991 331,999 354,1012 L 381,999 492,748 772,1049 836,1024 860,1049 C 881,1039 901,1025 922,1006 886,937 835,863 770,784 769,783 710,716 594,584 L 774,223 C 774,196 753,168 711,139 L 727,119 C 717,90 699,76 672,76 641,76 570,178 457,381 L 164,-76 C 142,-110 111,-127 72,-127 30,-127 9,-110 8,-76 1,-67 -2,-52 -2,-32 -2,-23 -1,-13 0,-2 Z"/>
  </g>
  <g id="bullet-char-template-10004" transform="scale(0.00048828125,-0.00048828125)">
   <path d="M 285,-33 C 182,-33 111,30 74,156 52,228 41,333 41,471 41,549 55,616 82,672 116,743 169,778 240,778 293,778 328,747 346,684 L 369,508 C 377,444 397,411 428,410 L 1163,1116 C 1174,1127 1196,1133 1229,1133 1271,1133 1292,1118 1292,1087 L 1292,965 C 1292,929 1282,901 1262,881 L 442,47 C 390,-6 338,-33 285,-33 Z"/>
  </g>
  <g id="bullet-char-template-9679" transform="scale(0.00048828125,-0.00048828125)">
   <path d="M 813,0 C 632,0 489,54 383,161 276,268 223,411 223,592 223,773 276,916 383,1023 489,1130 632,1184 813,1184 992,1184 1136,1130 1245,1023 1353,916 1407,772 1407,592 1407,412 1353,268 1245,161 1136,54 992,0 813,0 Z"/>
  </g>
  <g id="bullet-char-template-8226" transform="scale(0.00048828125,-0.00048828125)">
   <path d="M 346,457 C 273,457 209,483 155,535 101,586 74,649 74,723 74,796 101,859 155,911 209,963 273,989 346,989 419,989 480,963 531,910 582,859 608,796 608,723 608,648 583,586 532,535 482,483 420,457 346,457 Z"/>
  </g>
  <g id="bullet-char-template-8211" transform="scale(0.00048828125,-0.00048828125)">
   <path d="M -4,459 L 1135,459 1135,606 -4,606 -4,459 Z"/>
  </g>
  <g id="bullet-char-template-61548" transform="scale(0.00048828125,-0.00048828125)">
   <path d="M 173,740 C 173,903 231,1043 346,1159 462,1274 601,1332 765,1332 928,1332 1067,1274 1183,1159 1299,1043 1357,903 1357,740 1357,577 1299,437 1183,322 1067,206 928,148 765,148 601,148 462,206 346,322 231,437 173,577 173,740 Z"/>
  </g>
 </defs>
 <g class="Page">
  <g class="Group">
   <g class="com.sun.star.drawing.PolyPolygonShape">
    <g id="id3">
     <rect class="BoundingBox" stroke="none" fill="none" x="4416" y="4426" width="1607" height="1010"/>
     <path fill="rgb(204,255,153)" stroke="none" d="M 4442,5409 L 5996,5409 5996,4452 4442,4452 4442,5409 Z"/>
     <path fill="none" stroke="rgb(15,15,15)" stroke-width="51" stroke-linejoin="round" d="M 4442,5409 L 5996,5409 5996,4452 4442,4452 4442,5409 Z"/>
    </g>
   </g>
   <g class="com.sun.star.drawing.PolyPolygonShape">
    <g id="id4">
     <rect class="BoundingBox" stroke="none" fill="none" x="5486" y="5110" width="123" height="123"/>
     <path fill="rgb(179,179,179)" stroke="none" d="M 5487,5231 L 5571,5195 5607,5111 5487,5231 Z"/>
     <path fill="none" stroke="rgb(179,179,179)" d="M 5487,5231 L 5571,5195 5607,5111 5487,5231 Z"/>
    </g>
   </g>
   <g class="com.sun.star.drawing.PolyPolygonShape">
    <g id="id5">
     <rect class="BoundingBox" stroke="none" fill="none" x="5486" y="4744" width="123" height="489"/>
     <path fill="rgb(179,179,179)" stroke="none" d="M 5487,5231 L 5607,5111 5607,4745 5487,5231 Z"/>
     <path fill="none" stroke="rgb(179,179,179)" d="M 5487,5231 L 5607,5111 5607,4745 5487,5231 Z"/>
    </g>
   </g>
   <g class="com.sun.star.drawing.PolyPolygonShape">
    <g id="id6">
     <rect class="BoundingBox" stroke="none" fill="none" x="5486" y="4660" width="123" height="573"/>
     <path fill="rgb(179,179,179)" stroke="none" d="M 5487,5231 L 5607,4745 5571,4661 5487,5231 Z"/>
     <path fill="none" stroke="rgb(179,179,179)" d="M 5487,5231 L 5607,4745 5571,4661 5487,5231 Z"/>
    </g>
   </g>
   <g class="com.sun.star.drawing.PolyPolygonShape">
    <g id="id7">
     <rect class="BoundingBox" stroke="none" fill="none" x="5486" y="4624" width="87" height="608"/>
     <path fill="rgb(179,179,179)" stroke="none" d="M 5487,5230 L 5571,4661 5487,4625 5487,5230 Z"/>
     <path fill="none" stroke="rgb(179,179,179)" d="M 5487,5230 L 5571,4661 5487,4625 5487,5230 Z"/>
    </g>
   </g>
   <g class="com.sun.star.drawing.PolyPolygonShape">
    <g id="id8">
     <rect class="BoundingBox" stroke="none" fill="none" x="4948" y="4624" width="541" height="608"/>
     <path fill="rgb(179,179,179)" stroke="none" d="M 5487,5230 L 5487,4625 4949,4625 5487,5230 Z"/>
     <path fill="none" stroke="rgb(179,179,179)" d="M 5487,5230 L 5487,4625 4949,4625 5487,5230 Z"/>
    </g>
   </g>
   <g class="com.sun.star.drawing.PolyPolygonShape">
    <g id="id9">
     <rect class="BoundingBox" stroke="none" fill="none" x="4864" y="4624" width="625" height="608"/>
     <path fill="rgb(179,179,179)" stroke="none" d="M 5487,5230 L 4949,4625 4865,4661 5487,5230 Z"/>
     <path fill="none" stroke="rgb(179,179,179)" d="M 5487,5230 L 4949,4625 4865,4661 5487,5230 Z"/>
    </g>
   </g>
   <g class="com.sun.star.drawing.PolyPolygonShape">
    <g id="id10">
     <rect class="BoundingBox" stroke="none" fill="none" x="4830" y="4660" width="659" height="573"/>
     <path fill="rgb(179,179,179)" stroke="none" d="M 5487,5231 L 4865,4661 4831,4745 5487,5231 Z"/>
     <path fill="none" stroke="rgb(179,179,179)" d="M 5487,5231 L 4865,4661 4831,4745 5487,5231 Z"/>
    </g>
   </g>
   <g class="com.sun.star.drawing.PolyPolygonShape">
    <g id="id11">
     <rect class="BoundingBox" stroke="none" fill="none" x="4830" y="4744" width="659" height="489"/>
     <path fill="rgb(179,179,179)" stroke="none" d="M 5487,5231 L 4831,4745 4831,5111 5487,5231 Z"/>
     <path fill="none" stroke="rgb(179,179,179)" d="M 5487,5231 L 4831,4745 4831,5111 5487,5231 Z"/>
    </g>
   </g>
   <g class="com.sun.star.drawing.PolyPolygonShape">
    <g id="id12">
     <rect class="BoundingBox" stroke="none" fill="none" x="4830" y="5110" width="659" height="123"/>
     <path fill="rgb(179,179,179)" stroke="none" d="M 5487,5231 L 4831,5111 4865,5195 5487,5231 Z"/>
     <path fill="none" stroke="rgb(179,179,179)" d="M 5487,5231 L 4831,5111 4865,5195 5487,5231 Z"/>
    </g>
   </g>
   <g class="com.sun.star.drawing.PolyPolygonShape">
    <g id="id13">
     <rect class="BoundingBox" stroke="none" fill="none" x="4864" y="5194" width="625" height="39"/>
     <path fill="rgb(179,179,179)" stroke="none" d="M 5487,5231 L 4865,5195 4949,5231 5487,5231 Z"/>
     <path fill="none" stroke="rgb(179,179,179)" d="M 5487,5231 L 4865,5195 4949,5231 5487,5231 Z"/>
    </g>
   </g>
   <g class="com.sun.star.drawing.PolyPolygonShape">
    <g id="id14">
     <rect class="BoundingBox" stroke="none" fill="none" x="4830" y="4624" width="779" height="608"/>
     <path fill="none" stroke="rgb(15,15,15)" d="M 4949,5230 L 5487,5230 5607,5111 5607,4745 5487,4625 4949,4625 4831,4745 4831,5111 4949,5230 Z"/>
    </g>
   </g>
   <g class="com.sun.star.drawing.PolyPolygonShape">
    <g id="id15">
     <rect class="BoundingBox" stroke="none" fill="none" x="5356" y="5065" width="123" height="123"/>
     <path fill="rgb(15,15,15)" stroke="none" d="M 5357,5186 L 5443,5150 5477,5066 5357,5186 Z"/>
     <path fill="none" stroke="rgb(15,15,15)" d="M 5357,5186 L 5443,5150 5477,5066 5357,5186 Z"/>
    </g>
   </g>
   <g class="com.sun.star.drawing.PolyPolygonShape">
    <g id="id16">
     <rect class="BoundingBox" stroke="none" fill="none" x="5356" y="4788" width="123" height="400"/>
     <path fill="rgb(15,15,15)" stroke="none" d="M 5357,5186 L 5477,5067 5477,4789 5357,5186 Z"/>
     <path fill="none" stroke="rgb(15,15,15)" d="M 5357,5186 L 5477,5067 5477,4789 5357,5186 Z"/>
    </g>
   </g>
   <g class="com.sun.star.drawing.PolyPolygonShape">
    <g id="id17">
     <rect class="BoundingBox" stroke="none" fill="none" x="5356" y="4704" width="123" height="484"/>
     <path fill="rgb(15,15,15)" stroke="none" d="M 5357,5186 L 5477,4789 5443,4705 5357,5186 Z"/>
     <path fill="none" stroke="rgb(15,15,15)" d="M 5357,5186 L 5477,4789 5443,4705 5357,5186 Z"/>
    </g>
   </g>
   <g class="com.sun.star.drawing.PolyPolygonShape">
    <g id="id18">
     <rect class="BoundingBox" stroke="none" fill="none" x="5356" y="4668" width="89" height="520"/>
     <path fill="rgb(15,15,15)" stroke="none" d="M 5357,5186 L 5443,4705 5357,4669 5357,5186 Z"/>
     <path fill="none" stroke="rgb(15,15,15)" d="M 5357,5186 L 5443,4705 5357,4669 5357,5186 Z"/>
    </g>
   </g>
   <g class="com.sun.star.drawing.PolyPolygonShape">
    <g id="id19">
     <rect class="BoundingBox" stroke="none" fill="none" x="4992" y="4668" width="367" height="520"/>
     <path fill="rgb(15,15,15)" stroke="none" d="M 5357,5186 L 5357,4669 4993,4669 5357,5186 Z"/>
     <path fill="none" stroke="rgb(15,15,15)" d="M 5357,5186 L 5357,4669 4993,4669 5357,5186 Z"/>
    </g>
   </g>
   <g class="com.sun.star.drawing.PolyPolygonShape">
    <g id="id20">
     <rect class="BoundingBox" stroke="none" fill="none" x="4908" y="4668" width="451" height="520"/>
     <path fill="rgb(15,15,15)" stroke="none" d="M 5357,5186 L 4993,4669 4909,4705 5357,5186 Z"/>
     <path fill="none" stroke="rgb(15,15,15)" d="M 5357,5186 L 4993,4669 4909,4705 5357,5186 Z"/>
    </g>
   </g>
   <g class="com.sun.star.drawing.PolyPolygonShape">
    <g id="id21">
     <rect class="BoundingBox" stroke="none" fill="none" x="4872" y="4704" width="487" height="484"/>
     <path fill="rgb(15,15,15)" stroke="none" d="M 5357,5186 L 4909,4705 4873,4789 5357,5186 Z"/>
     <path fill="none" stroke="rgb(15,15,15)" d="M 5357,5186 L 4909,4705 4873,4789 5357,5186 Z"/>
    </g>
   </g>
   <g class="com.sun.star.drawing.PolyPolygonShape">
    <g id="id22">
     <rect class="BoundingBox" stroke="none" fill="none" x="4872" y="4788" width="487" height="400"/>
     <path fill="rgb(15,15,15)" stroke="none" d="M 5357,5186 L 4873,4789 4873,5067 5357,5186 Z"/>
     <path fill="none" stroke="rgb(15,15,15)" d="M 5357,5186 L 4873,4789 4873,5067 5357,5186 Z"/>
    </g>
   </g>
   <g class="com.sun.star.drawing.PolyPolygonShape">
    <g id="id23">
     <rect class="BoundingBox" stroke="none" fill="none" x="4872" y="5065" width="487" height="123"/>
     <path fill="rgb(15,15,15)" stroke="none" d="M 5357,5186 L 4873,5066 4909,5150 5357,5186 Z"/>
     <path fill="none" stroke="rgb(15,15,15)" d="M 5357,5186 L 4873,5066 4909,5150 5357,5186 Z"/>
    </g>
   </g>
   <g class="com.sun.star.drawing.PolyPolygonShape">
    <g id="id24">
     <rect class="BoundingBox" stroke="none" fill="none" x="4908" y="5149" width="451" height="39"/>
     <path fill="rgb(15,15,15)" stroke="none" d="M 5357,5186 L 4909,5150 4993,5186 5357,5186 Z"/>
     <path fill="none" stroke="rgb(15,15,15)" d="M 5357,5186 L 4909,5150 4993,5186 5357,5186 Z"/>
    </g>
   </g>
   <g class="com.sun.star.drawing.PolyPolygonShape">
    <g id="id25">
     <rect class="BoundingBox" stroke="none" fill="none" x="4872" y="4668" width="606" height="520"/>
     <path fill="none" stroke="rgb(15,15,15)" d="M 4993,5186 L 5357,5186 5476,5066 5476,4789 5357,4669 4993,4669 4873,4789 4873,5066 4993,5186 Z"/>
    </g>
   </g>
   <g class="com.sun.star.drawing.PolyPolygonShape">
    <g id="id26">
     <rect class="BoundingBox" stroke="none" fill="none" x="5509" y="5099" width="35" height="68"/>
     <path fill="rgb(15,15,15)" stroke="none" d="M 5542,5100 L 5510,5132 5542,5165 5542,5100 Z"/>
     <path fill="none" stroke="rgb(15,15,15)" d="M 5542,5100 L 5510,5132 5542,5165 5542,5100 Z"/>
    </g>
   </g>
   <g class="com.sun.star.drawing.PolyPolygonShape">
    <g id="id27">
     <rect class="BoundingBox" stroke="none" fill="none" x="5541" y="5099" width="35" height="68"/>
     <path fill="rgb(15,15,15)" stroke="none" d="M 5542,5100 L 5542,5165 5574,5132 5542,5100 Z"/>
     <path fill="none" stroke="rgb(15,15,15)" d="M 5542,5100 L 5542,5165 5574,5132 5542,5100 Z"/>
    </g>
   </g>
   <g class="com.sun.star.drawing.PolyPolygonShape">
    <g id="id28">
     <rect class="BoundingBox" stroke="none" fill="none" x="5509" y="5131" width="66" height="3"/>
     <path fill="none" stroke="rgb(15,15,15)" d="M 5573,5132 L 5510,5132"/>
    </g>
   </g>
   <g class="com.sun.star.drawing.PolyPolygonShape">
    <g id="id29">
     <rect class="BoundingBox" stroke="none" fill="none" x="5509" y="5002" width="35" height="68"/>
     <path fill="rgb(15,15,15)" stroke="none" d="M 5542,5003 L 5510,5035 5542,5068 5542,5003 Z"/>
     <path fill="none" stroke="rgb(15,15,15)" d="M 5542,5003 L 5510,5035 5542,5068 5542,5003 Z"/>
    </g>
   </g>
   <g class="com.sun.star.drawing.PolyPolygonShape">
    <g id="id30">
     <rect class="BoundingBox" stroke="none" fill="none" x="5541" y="5002" width="35" height="68"/>
     <path fill="rgb(15,15,15)" stroke="none" d="M 5542,5003 L 5542,5068 5574,5035 5542,5003 Z"/>
     <path fill="none" stroke="rgb(15,15,15)" d="M 5542,5003 L 5542,5068 5574,5035 5542,5003 Z"/>
    </g>
   </g>
   <g class="com.sun.star.drawing.PolyPolygonShape">
    <g id="id31">
     <rect class="BoundingBox" stroke="none" fill="none" x="5509" y="5034" width="66" height="3"/>
     <path fill="none" stroke="rgb(15,15,15)" d="M 5573,5035 L 5510,5035"/>
    </g>
   </g>
   <g class="com.sun.star.drawing.PolyLineShape">
    <g id="id32">
     <rect class="BoundingBox" stroke="none" fill="none" x="4916" y="4733" width="531" height="348"/>
     <path fill="none" stroke="rgb(0,255,0)" d="M 4917,5079 L 4959,5035 5045,4734 5089,5068 5121,5035 5262,5014 5348,4734 5413,5079 5445,5045"/>
    </g>
   </g>
  </g>
 </g>
</svg>