<?xml version="1.0" encoding="UTF-8"?>
<!DOCTYPE svg PUBLIC "-//W3C//DTD SVG 1.1//EN" "http://www.w3.org/Graphics/SVG/1.1/DTD/svg11.dtd">
<svg version="1.2" width="16.05mm" height="10.1mm" viewBox="18765 1649 1605 1010" preserveAspectRatio="xMidYMid" fill-rule="evenodd" stroke-width="28.222" stroke-linejoin="round" xmlns="http://www.w3.org/2000/svg" xmlns:ooo="http://xml.openoffice.org/svg/export" xmlns:xlink="http://www.w3.org/1999/xlink" xmlns:presentation="http://sun.com/xmlns/staroffice/presentation" xmlns:smil="http://www.w3.org/2001/SMIL20/" xmlns:anim="urn:oasis:names:tc:opendocument:xmlns:animation:1.0" xmlns:svg="urn:oasis:names:tc:opendocument:xmlns:svg-compatible:1.0" xml:space="preserve">
 <defs class="EmbeddedBulletChars">
  <g id="bullet-char-template-57356" transform="scale(0.00048828125,-0.00048828125)">
   <path d="M 580,1141 L 1163,571 580,0 -4,571 580,1141 Z"/>
  </g>
  <g id="bullet-char-template-57354" transform="scale(0.00048828125,-0.00048828125)">
   <path d="M 8,1128 L 1137,1128 1137,0 8,0 8,1128 Z"/>
  </g>
  <g id="bullet-char-template-10146" transform="scale(0.00048828125,-0.00048828125)">
   <path d="M 174,0 L 602,739 174,1481 1456,739 174,0 Z M 1358,739 L 309,1346 659,739 1358,739 Z"/>
  </g>
  <g id="bullet-char-template-10132" transform="scale(0.00048828125,-0.00048828125)">
   <path d="M 2015,739 L 1276,0 717,0 1260,543 174,543 174,936 1260,936 717,1481 1274,1481 2015,739 Z"/>
  </g>
  <g id="bullet-char-template-10007" transform="scale(0.00048828125,-0.00048828125)">
   <path d="M 0,-2 C -7,14 -16,27 -25,37 L 356,567 C 262,823 215,952 215,954 215,979 228,992 255,992 264,992 276,990 289,987 310,991 331,999 354,1012 L 381,999 492,748 772,1049 836,1024 860,1049 C 881,1039 901,1025 922,1006 886,937 835,863 770,784 769,783 710,716 594,584 L 774,223 C 774,196 753,168 711,139 L 727,119 C 717,90 699,76 672,76 641,76 570,178 457,381 L 164,-76 C 142,-110 111,-127 72,-127 30,-127 9,-110 8,-76 1,-67 -2,-52 -2,-32 -2,-23 -1,-13 0,-2 Z"/>
  </g>
  <g id="bullet-char-template-10004" transform="scale(0.00048828125,-0.00048828125)">
   <path d="M 285,-33 C 182,-33 111,30 74,156 52,228 41,333 41,471 41,549 55,616 82,672 116,743 169,778 240,778 293,778 328,747 346,684 L 369,508 C 377,444 397,411 428,410 L 1163,1116 C 1174,1127 1196,1133 1229,1133 1271,1133 1292,1118 1292,1087 L 1292,965 C 1292,929 1282,901 1262,881 L 442,47 C 390,-6 338,-33 285,-33 Z"/>
  </g>
  <g id="bullet-char-template-9679" transform="scale(0.00048828125,-0.00048828125)">
   <path d="M 813,0 C 632,0 489,54 383,161 276,268 223,411 223,592 223,773 276,916 383,1023 489,1130 632,1184 813,1184 992,1184 1136,1130 1245,1023 1353,916 1407,772 1407,592 1407,412 1353,268 1245,161 1136,54 992,0 813,0 Z"/>
  </g>
  <g id="bullet-char-template-8226" transform="scale(0.00048828125,-0.00048828125)">
   <path d="M 346,457 C 273,457 209,483 155,535 101,586 74,649 74,723 74,796 101,859 155,911 209,963 273,989 346,989 419,989 480,963 531,910 582,859 608,796 608,723 608,648 583,586 532,535 482,483 420,457 346,457 Z"/>
  </g>
  <g id="bullet-char-template-8211" transform="scale(0.00048828125,-0.00048828125)">
   <path d="M -4,459 L 1135,459 1135,606 -4,606 -4,459 Z"/>
  </g>
  <g id="bullet-char-template-61548" transform="scale(0.00048828125,-0.00048828125)">
   <path d="M 173,740 C 173,903 231,1043 346,1159 462,1274 601,1332 765,1332 928,1332 1067,1274 1183,1159 1299,1043 1357,903 1357,740 1357,577 1299,437 1183,322 1067,206 928,148 765,148 601,148 462,206 346,322 231,437 173,577 173,740 Z"/>
  </g>
 </defs>
 <g class="Page">
  <g class="Group">
   <g class="com.sun.star.drawing.PolyPolygonShape">
    <g id="id3">
     <rect class="BoundingBox" stroke="none" fill="none" x="18765" y="1649" width="1605" height="1010"/>
     <path fill="rgb(204,255,153)" stroke="none" d="M 18791,2632 L 20343,2632 20343,1675 18791,1675 18791,2632 Z"/>
     <path fill="none" stroke="rgb(15,15,15)" stroke-width="51" stroke-linejoin="round" d="M 18791,2632 L 20343,2632 20343,1675 18791,1675 18791,2632 Z"/>
    </g>
   </g>
   <g class="com.sun.star.drawing.PolyPolygonShape">
    <g id="id4">
     <rect class="BoundingBox" stroke="none" fill="none" x="19145" y="2170" width="24" height="35"/>
     <path fill="rgb(15,15,15)" stroke="none" d="M 19146,2171 L 19154,2188 19167,2203 19146,2171 Z"/>
     <path fill="none" stroke="rgb(15,15,15)" d="M 19146,2171 L 19154,2188 19167,2203 19146,2171 Z"/>
    </g>
   </g>
   <g class="com.sun.star.drawing.PolyPolygonShape">
    <g id="id5">
     <rect class="BoundingBox" stroke="none" fill="none" x="19145" y="2170" width="39" height="43"/>
     <path fill="rgb(15,15,15)" stroke="none" d="M 19146,2171 L 19167,2203 19182,2211 19146,2171 Z"/>
     <path fill="none" stroke="rgb(15,15,15)" d="M 19146,2171 L 19167,2203 19182,2211 19146,2171 Z"/>
    </g>
   </g>
   <g class="com.sun.star.drawing.PolyPolygonShape">
    <g id="id6">
     <rect class="BoundingBox" stroke="none" fill="none" x="19145" y="2170" width="56" height="49"/>
     <path fill="rgb(15,15,15)" stroke="none" d="M 19146,2171 L 19182,2211 19199,2217 19146,2171 Z"/>
     <path fill="none" stroke="rgb(15,15,15)" d="M 19146,2171 L 19182,2211 19199,2217 19146,2171 Z"/>
    </g>
   </g>
   <g class="com.sun.star.drawing.PolyPolygonShape">
    <g id="id7">
     <rect class="BoundingBox" stroke="none" fill="none" x="19145" y="2170" width="74" height="49"/>
     <path fill="rgb(15,15,15)" stroke="none" d="M 19146,2171 L 19199,2217 19217,2217 19146,2171 Z"/>
     <path fill="none" stroke="rgb(15,15,15)" d="M 19146,2171 L 19199,2217 19217,2217 19146,2171 Z"/>
    </g>
   </g>
   <g class="com.sun.star.drawing.PolyPolygonShape">
    <g id="id8">
     <rect class="BoundingBox" stroke="none" fill="none" x="19145" y="2170" width="91" height="49"/>
     <path fill="rgb(15,15,15)" stroke="none" d="M 19146,2171 L 19217,2217 19234,2211 19146,2171 Z"/>
     <path fill="none" stroke="rgb(15,15,15)" d="M 19146,2171 L 19217,2217 19234,2211 19146,2171 Z"/>
    </g>
   </g>
   <g class="com.sun.star.drawing.PolyPolygonShape">
    <g id="id9">
     <rect class="BoundingBox" stroke="none" fill="none" x="19145" y="2170" width="108" height="43"/>
     <path fill="rgb(15,15,15)" stroke="none" d="M 19146,2171 L 19234,2211 19251,2203 19146,2171 Z"/>
     <path fill="none" stroke="rgb(15,15,15)" d="M 19146,2171 L 19234,2211 19251,2203 19146,2171 Z"/>
    </g>
   </g>
   <g class="com.sun.star.drawing.PolyPolygonShape">
    <g id="id10">
     <rect class="BoundingBox" stroke="none" fill="none" x="19145" y="2170" width="119" height="35"/>
     <path fill="rgb(15,15,15)" stroke="none" d="M 19146,2171 L 19251,2203 19262,2188 19146,2171 Z"/>
     <path fill="none" stroke="rgb(15,15,15)" d="M 19146,2171 L 19251,2203 19262,2188 19146,2171 Z"/>
    </g>
   </g>
   <g class="com.sun.star.drawing.PolyPolygonShape">
    <g id="id11">
     <rect class="BoundingBox" stroke="none" fill="none" x="19145" y="2170" width="127" height="20"/>
     <path fill="rgb(15,15,15)" stroke="none" d="M 19146,2171 L 19262,2188 19270,2171 19146,2171 Z"/>
     <path fill="none" stroke="rgb(15,15,15)" d="M 19146,2171 L 19262,2188 19270,2171 19146,2171 Z"/>
    </g>
   </g>
   <g class="com.sun.star.drawing.PolyPolygonShape">
    <g id="id12">
     <rect class="BoundingBox" stroke="none" fill="none" x="19145" y="2153" width="129" height="20"/>
     <path fill="rgb(15,15,15)" stroke="none" d="M 19146,2171 L 19270,2171 19272,2154 19146,2171 Z"/>
     <path fill="none" stroke="rgb(15,15,15)" d="M 19146,2171 L 19270,2171 19272,2154 19146,2171 Z"/>
    </g>
   </g>
   <g class="com.sun.star.drawing.PolyPolygonShape">
    <g id="id13">
     <rect class="BoundingBox" stroke="none" fill="none" x="19145" y="2134" width="129" height="39"/>
     <path fill="rgb(15,15,15)" stroke="none" d="M 19146,2171 L 19272,2154 19270,2135 19146,2171 Z"/>
     <path fill="none" stroke="rgb(15,15,15)" d="M 19146,2171 L 19272,2154 19270,2135 19146,2171 Z"/>
    </g>
   </g>
   <g class="com.sun.star.drawing.PolyPolygonShape">
    <g id="id14">
     <rect class="BoundingBox" stroke="none" fill="none" x="19145" y="2117" width="127" height="56"/>
     <path fill="rgb(15,15,15)" stroke="none" d="M 19146,2171 L 19270,2135 19262,2118 19146,2171 Z"/>
     <path fill="none" stroke="rgb(15,15,15)" d="M 19146,2171 L 19270,2135 19262,2118 19146,2171 Z"/>
    </g>
   </g>
   <g class="com.sun.star.drawing.PolyPolygonShape">
    <g id="id15">
     <rect class="BoundingBox" stroke="none" fill="none" x="19145" y="2103" width="119" height="70"/>
     <path fill="rgb(15,15,15)" stroke="none" d="M 19146,2171 L 19262,2119 19251,2104 19146,2171 Z"/>
     <path fill="none" stroke="rgb(15,15,15)" d="M 19146,2171 L 19262,2119 19251,2104 19146,2171 Z"/>
    </g>
   </g>
   <g class="com.sun.star.drawing.PolyPolygonShape">
    <g id="id16">
     <rect class="BoundingBox" stroke="none" fill="none" x="19145" y="2094" width="108" height="79"/>
     <path fill="rgb(15,15,15)" stroke="none" d="M 19146,2171 L 19251,2103 19234,2095 19146,2171 Z"/>
     <path fill="none" stroke="rgb(15,15,15)" d="M 19146,2171 L 19251,2103 19234,2095 19146,2171 Z"/>
    </g>
   </g>
   <g class="com.sun.star.drawing.PolyPolygonShape">
    <g id="id17">
     <rect class="BoundingBox" stroke="none" fill="none" x="19145" y="2088" width="91" height="85"/>
     <path fill="rgb(15,15,15)" stroke="none" d="M 19146,2171 L 19234,2095 19217,2089 19146,2171 Z"/>
     <path fill="none" stroke="rgb(15,15,15)" d="M 19146,2171 L 19234,2095 19217,2089 19146,2171 Z"/>
    </g>
   </g>
   <g class="com.sun.star.drawing.PolyPolygonShape">
    <g id="id18">
     <rect class="BoundingBox" stroke="none" fill="none" x="19145" y="2088" width="74" height="85"/>
     <path fill="rgb(15,15,15)" stroke="none" d="M 19146,2171 L 19217,2089 19199,2089 19146,2171 Z"/>
     <path fill="none" stroke="rgb(15,15,15)" d="M 19146,2171 L 19217,2089 19199,2089 19146,2171 Z"/>
    </g>
   </g>
   <g class="com.sun.star.drawing.PolyPolygonShape">
    <g id="id19">
     <rect class="BoundingBox" stroke="none" fill="none" x="19145" y="2088" width="56" height="85"/>
     <path fill="rgb(15,15,15)" stroke="none" d="M 19146,2171 L 19199,2089 19182,2095 19146,2171 Z"/>
     <path fill="none" stroke="rgb(15,15,15)" d="M 19146,2171 L 19199,2089 19182,2095 19146,2171 Z"/>
    </g>
   </g>
   <g class="com.sun.star.drawing.PolyPolygonShape">
    <g id="id20">
     <rect class="BoundingBox" stroke="none" fill="none" x="19145" y="2094" width="39" height="79"/>
     <path fill="rgb(15,15,15)" stroke="none" d="M 19146,2171 L 19182,2095 19167,2103 19146,2171 Z"/>
     <path fill="none" stroke="rgb(15,15,15)" d="M 19146,2171 L 19182,2095 19167,2103 19146,2171 Z"/>
    </g>
   </g>
   <g class="com.sun.star.drawing.PolyPolygonShape">
    <g id="id21">
     <rect class="BoundingBox" stroke="none" fill="none" x="19145" y="2103" width="24" height="70"/>
     <path fill="rgb(15,15,15)" stroke="none" d="M 19146,2171 L 19167,2104 19154,2119 19146,2171 Z"/>
     <path fill="none" stroke="rgb(15,15,15)" d="M 19146,2171 L 19167,2104 19154,2119 19146,2171 Z"/>
    </g>
   </g>
   <g class="com.sun.star.drawing.PolyPolygonShape">
    <g id="id22">
     <rect class="BoundingBox" stroke="none" fill="none" x="19145" y="2117" width="11" height="56"/>
     <path fill="rgb(15,15,15)" stroke="none" d="M 19146,2171 L 19154,2118 19146,2135 19146,2171 Z"/>
     <path fill="none" stroke="rgb(15,15,15)" d="M 19146,2171 L 19154,2118 19146,2135 19146,2171 Z"/>
    </g>
   </g>
   <g class="com.sun.star.drawing.PolyPolygonShape">
    <g id="id23">
     <rect class="BoundingBox" stroke="none" fill="none" x="19143" y="2134" width="5" height="39"/>
     <path fill="rgb(15,15,15)" stroke="none" d="M 19146,2171 L 19146,2135 19144,2154 19146,2171 Z"/>
     <path fill="none" stroke="rgb(15,15,15)" d="M 19146,2171 L 19146,2135 19144,2154 19146,2171 Z"/>
    </g>
   </g>
   <g class="com.sun.star.drawing.LineShape">
    <g id="id24">
     <rect class="BoundingBox" stroke="none" fill="none" x="18910" y="2153" width="302" height="3"/>
     <path fill="none" stroke="rgb(15,15,15)" d="M 18911,2154 L 19210,2154"/>
    </g>
   </g>
   <g class="com.sun.star.drawing.PolyPolygonShape">
    <g id="id25">
     <rect class="BoundingBox" stroke="none" fill="none" x="19968" y="1804" width="22" height="35"/>
     <path fill="rgb(15,15,15)" stroke="none" d="M 19988,1837 L 19980,1820 19969,1805 19988,1837 Z"/>
     <path fill="none" stroke="rgb(15,15,15)" d="M 19988,1837 L 19980,1820 19969,1805 19988,1837 Z"/>
    </g>
   </g>
   <g class="com.sun.star.drawing.PolyPolygonShape">
    <g id="id26">
     <rect class="BoundingBox" stroke="none" fill="none" x="19951" y="1796" width="39" height="43"/>
     <path fill="rgb(15,15,15)" stroke="none" d="M 19988,1837 L 19969,1805 19952,1797 19988,1837 Z"/>
     <path fill="none" stroke="rgb(15,15,15)" d="M 19988,1837 L 19969,1805 19952,1797 19988,1837 Z"/>
    </g>
   </g>
   <g class="com.sun.star.drawing.PolyPolygonShape">
    <g id="id27">
     <rect class="BoundingBox" stroke="none" fill="none" x="19934" y="1790" width="56" height="49"/>
     <path fill="rgb(15,15,15)" stroke="none" d="M 19988,1837 L 19952,1797 19935,1791 19988,1837 Z"/>
     <path fill="none" stroke="rgb(15,15,15)" d="M 19988,1837 L 19952,1797 19935,1791 19988,1837 Z"/>
    </g>
   </g>
   <g class="com.sun.star.drawing.PolyPolygonShape">
    <g id="id28">
     <rect class="BoundingBox" stroke="none" fill="none" x="19915" y="1790" width="74" height="49"/>
     <path fill="rgb(15,15,15)" stroke="none" d="M 19987,1837 L 19935,1791 19916,1791 19987,1837 Z"/>
     <path fill="none" stroke="rgb(15,15,15)" d="M 19987,1837 L 19935,1791 19916,1791 19987,1837 Z"/>
    </g>
   </g>
   <g class="com.sun.star.drawing.PolyPolygonShape">
    <g id="id29">
     <rect class="BoundingBox" stroke="none" fill="none" x="19898" y="1790" width="91" height="49"/>
     <path fill="rgb(15,15,15)" stroke="none" d="M 19987,1837 L 19916,1791 19899,1797 19987,1837 Z"/>
     <path fill="none" stroke="rgb(15,15,15)" d="M 19987,1837 L 19916,1791 19899,1797 19987,1837 Z"/>
    </g>
   </g>
   <g class="com.sun.star.drawing.PolyPolygonShape">
    <g id="id30">
     <rect class="BoundingBox" stroke="none" fill="none" x="19881" y="1796" width="108" height="43"/>
     <path fill="rgb(15,15,15)" stroke="none" d="M 19987,1837 L 19899,1797 19882,1805 19987,1837 Z"/>
     <path fill="none" stroke="rgb(15,15,15)" d="M 19987,1837 L 19899,1797 19882,1805 19987,1837 Z"/>
    </g>
   </g>
   <g class="com.sun.star.drawing.PolyPolygonShape">
    <g id="id31">
     <rect class="BoundingBox" stroke="none" fill="none" x="19871" y="1804" width="119" height="35"/>
     <path fill="rgb(15,15,15)" stroke="none" d="M 19988,1837 L 19883,1805 19872,1820 19988,1837 Z"/>
     <path fill="none" stroke="rgb(15,15,15)" d="M 19988,1837 L 19883,1805 19872,1820 19988,1837 Z"/>
    </g>
   </g>
   <g class="com.sun.star.drawing.PolyPolygonShape">
    <g id="id32">
     <rect class="BoundingBox" stroke="none" fill="none" x="19862" y="1819" width="127" height="20"/>
     <path fill="rgb(15,15,15)" stroke="none" d="M 19987,1837 L 19871,1820 19863,1837 19987,1837 Z"/>
     <path fill="none" stroke="rgb(15,15,15)" d="M 19987,1837 L 19871,1820 19863,1837 19987,1837 Z"/>
    </g>
   </g>
   <g class="com.sun.star.drawing.PolyPolygonShape">
    <g id="id33">
     <rect class="BoundingBox" stroke="none" fill="none" x="19860" y="1836" width="129" height="20"/>
     <path fill="rgb(15,15,15)" stroke="none" d="M 19987,1837 L 19863,1837 19861,1854 19987,1837 Z"/>
     <path fill="none" stroke="rgb(15,15,15)" d="M 19987,1837 L 19863,1837 19861,1854 19987,1837 Z"/>
    </g>
   </g>
   <g class="com.sun.star.drawing.PolyPolygonShape">
    <g id="id34">
     <rect class="BoundingBox" stroke="none" fill="none" x="19860" y="1836" width="129" height="39"/>
     <path fill="rgb(15,15,15)" stroke="none" d="M 19987,1837 L 19861,1854 19863,1873 19987,1837 Z"/>
     <path fill="none" stroke="rgb(15,15,15)" d="M 19987,1837 L 19861,1854 19863,1873 19987,1837 Z"/>
    </g>
   </g>
   <g class="com.sun.star.drawing.PolyPolygonShape">
    <g id="id35">
     <rect class="BoundingBox" stroke="none" fill="none" x="19862" y="1836" width="127" height="56"/>
     <path fill="rgb(15,15,15)" stroke="none" d="M 19987,1837 L 19863,1873 19871,1890 19987,1837 Z"/>
     <path fill="none" stroke="rgb(15,15,15)" d="M 19987,1837 L 19863,1873 19871,1890 19987,1837 Z"/>
    </g>
   </g>
   <g class="com.sun.star.drawing.PolyPolygonShape">
    <g id="id36">
     <rect class="BoundingBox" stroke="none" fill="none" x="19871" y="1836" width="119" height="70"/>
     <path fill="rgb(15,15,15)" stroke="none" d="M 19988,1837 L 19872,1890 19883,1904 19988,1837 Z"/>
     <path fill="none" stroke="rgb(15,15,15)" d="M 19988,1837 L 19872,1890 19883,1904 19988,1837 Z"/>
    </g>
   </g>
   <g class="com.sun.star.drawing.PolyPolygonShape">
    <g id="id37">
     <rect class="BoundingBox" stroke="none" fill="none" x="19881" y="1836" width="108" height="79"/>
     <path fill="rgb(15,15,15)" stroke="none" d="M 19987,1837 L 19882,1904 19899,1913 19987,1837 Z"/>
     <path fill="none" stroke="rgb(15,15,15)" d="M 19987,1837 L 19882,1904 19899,1913 19987,1837 Z"/>
    </g>
   </g>
   <g class="com.sun.star.drawing.PolyPolygonShape">
    <g id="id38">
     <rect class="BoundingBox" stroke="none" fill="none" x="19898" y="1836" width="91" height="85"/>
     <path fill="rgb(15,15,15)" stroke="none" d="M 19987,1837 L 19899,1913 19916,1919 19987,1837 Z"/>
     <path fill="none" stroke="rgb(15,15,15)" d="M 19987,1837 L 19899,1913 19916,1919 19987,1837 Z"/>
    </g>
   </g>
   <g class="com.sun.star.drawing.PolyPolygonShape">
    <g id="id39">
     <rect class="BoundingBox" stroke="none" fill="none" x="19915" y="1836" width="74" height="85"/>
     <path fill="rgb(15,15,15)" stroke="none" d="M 19987,1837 L 19916,1919 19935,1919 19987,1837 Z"/>
     <path fill="none" stroke="rgb(15,15,15)" d="M 19987,1837 L 19916,1919 19935,1919 19987,1837 Z"/>
    </g>
   </g>
   <g class="com.sun.star.drawing.PolyPolygonShape">
    <g id="id40">
     <rect class="BoundingBox" stroke="none" fill="none" x="19934" y="1836" width="56" height="85"/>
     <path fill="rgb(15,15,15)" stroke="none" d="M 19988,1837 L 19935,1919 19952,1913 19988,1837 Z"/>
     <path fill="none" stroke="rgb(15,15,15)" d="M 19988,1837 L 19935,1919 19952,1913 19988,1837 Z"/>
    </g>
   </g>
   <g class="com.sun.star.drawing.PolyPolygonShape">
    <g id="id41">
     <rect class="BoundingBox" stroke="none" fill="none" x="19951" y="1836" width="39" height="79"/>
     <path fill="rgb(15,15,15)" stroke="none" d="M 19988,1837 L 19952,1913 19969,1904 19988,1837 Z"/>
     <path fill="none" stroke="rgb(15,15,15)" d="M 19988,1837 L 19952,1913 19969,1904 19988,1837 Z"/>
    </g>
   </g>
   <g class="com.sun.star.drawing.PolyPolygonShape">
    <g id="id42">
     <rect class="BoundingBox" stroke="none" fill="none" x="19968" y="1836" width="22" height="70"/>
     <path fill="rgb(15,15,15)" stroke="none" d="M 19988,1837 L 19969,1904 19980,1890 19988,1837 Z"/>
     <path fill="none" stroke="rgb(15,15,15)" d="M 19988,1837 L 19969,1904 19980,1890 19988,1837 Z"/>
    </g>
   </g>
   <g class="com.sun.star.drawing.PolyPolygonShape">
    <g id="id43">
     <rect class="BoundingBox" stroke="none" fill="none" x="19978" y="1836" width="11" height="56"/>
     <path fill="rgb(15,15,15)" stroke="none" d="M 19987,1837 L 19979,1890 19987,1873 19987,1837 Z"/>
     <path fill="none" stroke="rgb(15,15,15)" d="M 19987,1837 L 19979,1890 19987,1873 19987,1837 Z"/>
    </g>
   </g>
   <g class="com.sun.star.drawing.PolyPolygonShape">
    <g id="id44">
     <rect class="BoundingBox" stroke="none" fill="none" x="19986" y="1836" width="5" height="39"/>
     <path fill="rgb(15,15,15)" stroke="none" d="M 19987,1837 L 19987,1873 19989,1854 19987,1837 Z"/>
     <path fill="none" stroke="rgb(15,15,15)" d="M 19987,1837 L 19987,1873 19989,1854 19987,1837 Z"/>
    </g>
   </g>
   <g class="com.sun.star.drawing.LineShape">
    <g id="id45">
     <rect class="BoundingBox" stroke="none" fill="none" x="19925" y="1853" width="302" height="3"/>
     <path fill="none" stroke="rgb(15,15,15)" d="M 19926,1854 L 20225,1854"/>
    </g>
   </g>
   <g class="com.sun.star.drawing.PolyPolygonShape">
    <g id="id46">
     <rect class="BoundingBox" stroke="none" fill="none" x="19968" y="2103" width="22" height="35"/>
     <path fill="rgb(15,15,15)" stroke="none" d="M 19988,2136 L 19980,2119 19969,2104 19988,2136 Z"/>
     <path fill="none" stroke="rgb(15,15,15)" d="M 19988,2136 L 19980,2119 19969,2104 19988,2136 Z"/>
    </g>
   </g>
   <g class="com.sun.star.drawing.PolyPolygonShape">
    <g id="id47">
     <rect class="BoundingBox" stroke="none" fill="none" x="19951" y="2094" width="39" height="43"/>
     <path fill="rgb(15,15,15)" stroke="none" d="M 19988,2135 L 19969,2103 19952,2095 19988,2135 Z"/>
     <path fill="none" stroke="rgb(15,15,15)" d="M 19988,2135 L 19969,2103 19952,2095 19988,2135 Z"/>
    </g>
   </g>
   <g class="com.sun.star.drawing.PolyPolygonShape">
    <g id="id48">
     <rect class="BoundingBox" stroke="none" fill="none" x="19934" y="2088" width="56" height="49"/>
     <path fill="rgb(15,15,15)" stroke="none" d="M 19988,2135 L 19952,2095 19935,2089 19988,2135 Z"/>
     <path fill="none" stroke="rgb(15,15,15)" d="M 19988,2135 L 19952,2095 19935,2089 19988,2135 Z"/>
    </g>
   </g>
   <g class="com.sun.star.drawing.PolyPolygonShape">
    <g id="id49">
     <rect class="BoundingBox" stroke="none" fill="none" x="19915" y="2088" width="74" height="49"/>
     <path fill="rgb(15,15,15)" stroke="none" d="M 19987,2135 L 19935,2089 19916,2089 19987,2135 Z"/>
     <path fill="none" stroke="rgb(15,15,15)" d="M 19987,2135 L 19935,2089 19916,2089 19987,2135 Z"/>
    </g>
   </g>
   <g class="com.sun.star.drawing.PolyPolygonShape">
    <g id="id50">
     <rect class="BoundingBox" stroke="none" fill="none" x="19898" y="2088" width="91" height="49"/>
     <path fill="rgb(15,15,15)" stroke="none" d="M 19987,2135 L 19916,2089 19899,2095 19987,2135 Z"/>
     <path fill="none" stroke="rgb(15,15,15)" d="M 19987,2135 L 19916,2089 19899,2095 19987,2135 Z"/>
    </g>
   </g>
   <g class="com.sun.star.drawing.PolyPolygonShape">
    <g id="id51">
     <rect class="BoundingBox" stroke="none" fill="none" x="19881" y="2094" width="108" height="43"/>
     <path fill="rgb(15,15,15)" stroke="none" d="M 19987,2135 L 19899,2095 19882,2103 19987,2135 Z"/>
     <path fill="none" stroke="rgb(15,15,15)" d="M 19987,2135 L 19899,2095 19882,2103 19987,2135 Z"/>
    </g>
   </g>
   <g class="com.sun.star.drawing.PolyPolygonShape">
    <g id="id52">
     <rect class="BoundingBox" stroke="none" fill="none" x="19871" y="2103" width="119" height="35"/>
     <path fill="rgb(15,15,15)" stroke="none" d="M 19988,2136 L 19883,2104 19872,2119 19988,2136 Z"/>
     <path fill="none" stroke="rgb(15,15,15)" d="M 19988,2136 L 19883,2104 19872,2119 19988,2136 Z"/>
    </g>
   </g>
   <g class="com.sun.star.drawing.PolyPolygonShape">
    <g id="id53">
     <rect class="BoundingBox" stroke="none" fill="none" x="19862" y="2117" width="127" height="20"/>
     <path fill="rgb(15,15,15)" stroke="none" d="M 19987,2135 L 19871,2118 19863,2135 19987,2135 Z"/>
     <path fill="none" stroke="rgb(15,15,15)" d="M 19987,2135 L 19871,2118 19863,2135 19987,2135 Z"/>
    </g>
   </g>
   <g class="com.sun.star.drawing.PolyPolygonShape">
    <g id="id54">
     <rect class="BoundingBox" stroke="none" fill="none" x="19860" y="2134" width="129" height="22"/>
     <path fill="rgb(15,15,15)" stroke="none" d="M 19987,2135 L 19863,2135 19861,2154 19987,2135 Z"/>
     <path fill="none" stroke="rgb(15,15,15)" d="M 19987,2135 L 19863,2135 19861,2154 19987,2135 Z"/>
    </g>
   </g>
   <g class="com.sun.star.drawing.PolyPolygonShape">
    <g id="id55">
     <rect class="BoundingBox" stroke="none" fill="none" x="19860" y="2134" width="129" height="39"/>
     <path fill="rgb(15,15,15)" stroke="none" d="M 19987,2135 L 19861,2154 19863,2171 19987,2135 Z"/>
     <path fill="none" stroke="rgb(15,15,15)" d="M 19987,2135 L 19861,2154 19863,2171 19987,2135 Z"/>
    </g>
   </g>
   <g class="com.sun.star.drawing.PolyPolygonShape">
    <g id="id56">
     <rect class="BoundingBox" stroke="none" fill="none" x="19862" y="2134" width="127" height="56"/>
     <path fill="rgb(15,15,15)" stroke="none" d="M 19987,2135 L 19863,2171 19871,2188 19987,2135 Z"/>
     <path fill="none" stroke="rgb(15,15,15)" d="M 19987,2135 L 19863,2171 19871,2188 19987,2135 Z"/>
    </g>
   </g>
   <g class="com.sun.star.drawing.PolyPolygonShape">
    <g id="id57">
     <rect class="BoundingBox" stroke="none" fill="none" x="19871" y="2134" width="119" height="70"/>
     <path fill="rgb(15,15,15)" stroke="none" d="M 19988,2135 L 19872,2188 19883,2202 19988,2135 Z"/>
     <path fill="none" stroke="rgb(15,15,15)" d="M 19988,2135 L 19872,2188 19883,2202 19988,2135 Z"/>
    </g>
   </g>
   <g class="com.sun.star.drawing.PolyPolygonShape">
    <g id="id58">
     <rect class="BoundingBox" stroke="none" fill="none" x="19881" y="2134" width="108" height="79"/>
     <path fill="rgb(15,15,15)" stroke="none" d="M 19987,2135 L 19882,2202 19899,2211 19987,2135 Z"/>
     <path fill="none" stroke="rgb(15,15,15)" d="M 19987,2135 L 19882,2202 19899,2211 19987,2135 Z"/>
    </g>
   </g>
   <g class="com.sun.star.drawing.PolyPolygonShape">
    <g id="id59">
     <rect class="BoundingBox" stroke="none" fill="none" x="19898" y="2134" width="91" height="85"/>
     <path fill="rgb(15,15,15)" stroke="none" d="M 19987,2135 L 19899,2211 19916,2217 19987,2135 Z"/>
     <path fill="none" stroke="rgb(15,15,15)" d="M 19987,2135 L 19899,2211 19916,2217 19987,2135 Z"/>
    </g>
   </g>
   <g class="com.sun.star.drawing.PolyPolygonShape">
    <g id="id60">
     <rect class="BoundingBox" stroke="none" fill="none" x="19915" y="2134" width="74" height="85"/>
     <path fill="rgb(15,15,15)" stroke="none" d="M 19987,2135 L 19916,2217 19935,2217 19987,2135 Z"/>
     <path fill="none" stroke="rgb(15,15,15)" d="M 19987,2135 L 19916,2217 19935,2217 19987,2135 Z"/>
    </g>
   </g>
   <g class="com.sun.star.drawing.PolyPolygonShape">
    <g id="id61">
     <rect class="BoundingBox" stroke="none" fill="none" x="19934" y="2134" width="56" height="85"/>
     <path fill="rgb(15,15,15)" stroke="none" d="M 19988,2135 L 19935,2217 19952,2211 19988,2135 Z"/>
     <path fill="none" stroke="rgb(15,15,15)" d="M 19988,2135 L 19935,2217 19952,2211 19988,2135 Z"/>
    </g>
   </g>
   <g class="com.sun.star.drawing.PolyPolygonShape">
    <g id="id62">
     <rect class="BoundingBox" stroke="none" fill="none" x="19951" y="2134" width="39" height="79"/>
     <path fill="rgb(15,15,15)" stroke="none" d="M 19988,2135 L 19952,2211 19969,2202 19988,2135 Z"/>
     <path fill="none" stroke="rgb(15,15,15)" d="M 19988,2135 L 19952,2211 19969,2202 19988,2135 Z"/>
    </g>
   </g>
   <g class="com.sun.star.drawing.PolyPolygonShape">
    <g id="id63">
     <rect class="BoundingBox" stroke="none" fill="none" x="19968" y="2134" width="22" height="70"/>
     <path fill="rgb(15,15,15)" stroke="none" d="M 19988,2135 L 19969,2202 19980,2188 19988,2135 Z"/>
     <path fill="none" stroke="rgb(15,15,15)" d="M 19988,2135 L 19969,2202 19980,2188 19988,2135 Z"/>
    </g>
   </g>
   <g class="com.sun.star.drawing.PolyPolygonShape">
    <g id="id64">
     <rect class="BoundingBox" stroke="none" fill="none" x="19978" y="2134" width="11" height="56"/>
     <path fill="rgb(15,15,15)" stroke="none" d="M 19987,2135 L 19979,2188 19987,2171 19987,2135 Z"/>
     <path fill="none" stroke="rgb(15,15,15)" d="M 19987,2135 L 19979,2188 19987,2171 19987,2135 Z"/>
    </g>
   </g>
   <g class="com.sun.star.drawing.PolyPolygonShape">
    <g id="id65">
     <rect class="BoundingBox" stroke="none" fill="none" x="19986" y="2134" width="5" height="39"/>
     <path fill="rgb(15,15,15)" stroke="none" d="M 19987,2135 L 19987,2171 19989,2154 19987,2135 Z"/>
     <path fill="none" stroke="rgb(15,15,15)" d="M 19987,2135 L 19987,2171 19989,2154 19987,2135 Z"/>
    </g>
   </g>
   <g class="com.sun.star.drawing.LineShape">
    <g id="id66">
     <rect class="BoundingBox" stroke="none" fill="none" x="19925" y="2153" width="302" height="3"/>
     <path fill="none" stroke="rgb(15,15,15)" d="M 19926,2154 L 20225,2154"/>
    </g>
   </g>
   <g class="com.sun.star.drawing.PolyPolygonShape">
    <g id="id67">
     <rect class="BoundingBox" stroke="none" fill="none" x="19968" y="2401" width="22" height="35"/>
     <path fill="rgb(15,15,15)" stroke="none" d="M 19988,2434 L 19980,2417 19969,2402 19988,2434 Z"/>
     <path fill="none" stroke="rgb(15,15,15)" d="M 19988,2434 L 19980,2417 19969,2402 19988,2434 Z"/>
    </g>
   </g>
   <g class="com.sun.star.drawing.PolyPolygonShape">
    <g id="id68">
     <rect class="BoundingBox" stroke="none" fill="none" x="19951" y="2393" width="39" height="43"/>
     <path fill="rgb(15,15,15)" stroke="none" d="M 19988,2434 L 19969,2402 19952,2394 19988,2434 Z"/>
     <path fill="none" stroke="rgb(15,15,15)" d="M 19988,2434 L 19969,2402 19952,2394 19988,2434 Z"/>
    </g>
   </g>
   <g class="com.sun.star.drawing.PolyPolygonShape">
    <g id="id69">
     <rect class="BoundingBox" stroke="none" fill="none" x="19934" y="2387" width="56" height="49"/>
     <path fill="rgb(15,15,15)" stroke="none" d="M 19988,2434 L 19952,2394 19935,2388 19988,2434 Z"/>
     <path fill="none" stroke="rgb(15,15,15)" d="M 19988,2434 L 19952,2394 19935,2388 19988,2434 Z"/>
    </g>
   </g>
   <g class="com.sun.star.drawing.PolyPolygonShape">
    <g id="id70">
     <rect class="BoundingBox" stroke="none" fill="none" x="19915" y="2387" width="74" height="49"/>
     <path fill="rgb(15,15,15)" stroke="none" d="M 19987,2434 L 19935,2388 19916,2388 19987,2434 Z"/>
     <path fill="none" stroke="rgb(15,15,15)" d="M 19987,2434 L 19935,2388 19916,2388 19987,2434 Z"/>
    </g>
   </g>
   <g class="com.sun.star.drawing.PolyPolygonShape">
    <g id="id71">
     <rect class="BoundingBox" stroke="none" fill="none" x="19898" y="2387" width="91" height="49"/>
     <path fill="rgb(15,15,15)" stroke="none" d="M 19987,2434 L 19916,2388 19899,2394 19987,2434 Z"/>
     <path fill="none" stroke="rgb(15,15,15)" d="M 19987,2434 L 19916,2388 19899,2394 19987,2434 Z"/>
    </g>
   </g>
   <g class="com.sun.star.drawing.PolyPolygonShape">
    <g id="id72">
     <rect class="BoundingBox" stroke="none" fill="none" x="19881" y="2393" width="108" height="43"/>
     <path fill="rgb(15,15,15)" stroke="none" d="M 19987,2434 L 19899,2394 19882,2402 19987,2434 Z"/>
     <path fill="none" stroke="rgb(15,15,15)" d="M 19987,2434 L 19899,2394 19882,2402 19987,2434 Z"/>
    </g>
   </g>
   <g class="com.sun.star.drawing.PolyPolygonShape">
    <g id="id73">
     <rect class="BoundingBox" stroke="none" fill="none" x="19871" y="2401" width="119" height="35"/>
     <path fill="rgb(15,15,15)" stroke="none" d="M 19988,2434 L 19883,2402 19872,2417 19988,2434 Z"/>
     <path fill="none" stroke="rgb(15,15,15)" d="M 19988,2434 L 19883,2402 19872,2417 19988,2434 Z"/>
    </g>
   </g>
   <g class="com.sun.star.drawing.PolyPolygonShape">
    <g id="id74">
     <rect class="BoundingBox" stroke="none" fill="none" x="19862" y="2416" width="127" height="20"/>
     <path fill="rgb(15,15,15)" stroke="none" d="M 19987,2434 L 19871,2417 19863,2434 19987,2434 Z"/>
     <path fill="none" stroke="rgb(15,15,15)" d="M 19987,2434 L 19871,2417 19863,2434 19987,2434 Z"/>
    </g>
   </g>
   <g class="com.sun.star.drawing.PolyPolygonShape">
    <g id="id75">
     <rect class="BoundingBox" stroke="none" fill="none" x="19860" y="2433" width="129" height="22"/>
     <path fill="rgb(15,15,15)" stroke="none" d="M 19987,2434 L 19863,2434 19861,2453 19987,2434 Z"/>
     <path fill="none" stroke="rgb(15,15,15)" d="M 19987,2434 L 19863,2434 19861,2453 19987,2434 Z"/>
    </g>
   </g>
   <g class="com.sun.star.drawing.PolyPolygonShape">
    <g id="id76">
     <rect class="BoundingBox" stroke="none" fill="none" x="19860" y="2433" width="129" height="39"/>
     <path fill="rgb(15,15,15)" stroke="none" d="M 19987,2434 L 19861,2453 19863,2470 19987,2434 Z"/>
     <path fill="none" stroke="rgb(15,15,15)" d="M 19987,2434 L 19861,2453 19863,2470 19987,2434 Z"/>
    </g>
   </g>
   <g class="com.sun.star.drawing.PolyPolygonShape">
    <g id="id77">
     <rect class="BoundingBox" stroke="none" fill="none" x="19862" y="2433" width="127" height="56"/>
     <path fill="rgb(15,15,15)" stroke="none" d="M 19987,2434 L 19863,2470 19871,2487 19987,2434 Z"/>
     <path fill="none" stroke="rgb(15,15,15)" d="M 19987,2434 L 19863,2470 19871,2487 19987,2434 Z"/>
    </g>
   </g>
   <g class="com.sun.star.drawing.PolyPolygonShape">
    <g id="id78">
     <rect class="BoundingBox" stroke="none" fill="none" x="19871" y="2433" width="119" height="70"/>
     <path fill="rgb(15,15,15)" stroke="none" d="M 19988,2434 L 19872,2487 19883,2501 19988,2434 Z"/>
     <path fill="none" stroke="rgb(15,15,15)" d="M 19988,2434 L 19872,2487 19883,2501 19988,2434 Z"/>
    </g>
   </g>
   <g class="com.sun.star.drawing.PolyPolygonShape">
    <g id="id79">
     <rect class="BoundingBox" stroke="none" fill="none" x="19881" y="2433" width="108" height="79"/>
     <path fill="rgb(15,15,15)" stroke="none" d="M 19987,2434 L 19882,2501 19899,2510 19987,2434 Z"/>
     <path fill="none" stroke="rgb(15,15,15)" d="M 19987,2434 L 19882,2501 19899,2510 19987,2434 Z"/>
    </g>
   </g>
   <g class="com.sun.star.drawing.PolyPolygonShape">
    <g id="id80">
     <rect class="BoundingBox" stroke="none" fill="none" x="19898" y="2433" width="91" height="85"/>
     <path fill="rgb(15,15,15)" stroke="none" d="M 19987,2434 L 19899,2510 19916,2516 19987,2434 Z"/>
     <path fill="none" stroke="rgb(15,15,15)" d="M 19987,2434 L 19899,2510 19916,2516 19987,2434 Z"/>
    </g>
   </g>
   <g class="com.sun.star.drawing.PolyPolygonShape">
    <g id="id81">
     <rect class="BoundingBox" stroke="none" fill="none" x="19915" y="2433" width="74" height="85"/>
     <path fill="rgb(15,15,15)" stroke="none" d="M 19987,2434 L 19916,2516 19935,2516 19987,2434 Z"/>
     <path fill="none" stroke="rgb(15,15,15)" d="M 19987,2434 L 19916,2516 19935,2516 19987,2434 Z"/>
    </g>
   </g>
   <g class="com.sun.star.drawing.PolyPolygonShape">
    <g id="id82">
     <rect class="BoundingBox" stroke="none" fill="none" x="19934" y="2433" width="56" height="85"/>
     <path fill="rgb(15,15,15)" stroke="none" d="M 19988,2434 L 19935,2516 19952,2510 19988,2434 Z"/>
     <path fill="none" stroke="rgb(15,15,15)" d="M 19988,2434 L 19935,2516 19952,2510 19988,2434 Z"/>
    </g>
   </g>
   <g class="com.sun.star.drawing.PolyPolygonShape">
    <g id="id83">
     <rect class="BoundingBox" stroke="none" fill="none" x="19951" y="2433" width="39" height="79"/>
     <path fill="rgb(15,15,15)" stroke="none" d="M 19988,2434 L 19952,2510 19969,2501 19988,2434 Z"/>
     <path fill="none" stroke="rgb(15,15,15)" d="M 19988,2434 L 19952,2510 19969,2501 19988,2434 Z"/>
    </g>
   </g>
   <g class="com.sun.star.drawing.PolyPolygonShape">
    <g id="id84">
     <rect class="BoundingBox" stroke="none" fill="none" x="19968" y="2433" width="22" height="70"/>
     <path fill="rgb(15,15,15)" stroke="none" d="M 19988,2434 L 19969,2501 19980,2487 19988,2434 Z"/>
     <path fill="none" stroke="rgb(15,15,15)" d="M 19988,2434 L 19969,2501 19980,2487 19988,2434 Z"/>
    </g>
   </g>
   <g class="com.sun.star.drawing.PolyPolygonShape">
    <g id="id85">
     <rect class="BoundingBox" stroke="none" fill="none" x="19978" y="2433" width="11" height="56"/>
     <path fill="rgb(15,15,15)" stroke="none" d="M 19987,2434 L 19979,2487 19987,2470 19987,2434 Z"/>
     <path fill="none" stroke="rgb(15,15,15)" d="M 19987,2434 L 19979,2487 19987,2470 19987,2434 Z"/>
    </g>
   </g>
   <g class="com.sun.star.drawing.PolyPolygonShape">
    <g id="id86">
     <rect class="BoundingBox" stroke="none" fill="none" x="19986" y="2433" width="5" height="39"/>
     <path fill="rgb(15,15,15)" stroke="none" d="M 19987,2434 L 19987,2470 19989,2453 19987,2434 Z"/>
     <path fill="none" stroke="rgb(15,15,15)" d="M 19987,2434 L 19987,2470 19989,2453 19987,2434 Z"/>
    </g>
   </g>
   <g class="com.sun.star.drawing.LineShape">
    <g id="id87">
     <rect class="BoundingBox" stroke="none" fill="none" x="19925" y="2452" width="302" height="3"/>
     <path fill="none" stroke="rgb(15,15,15)" d="M 19926,2453 L 20225,2453"/>
    </g>
   </g>
   <g class="com.sun.star.drawing.LineShape">
    <g id="id88">
     <rect class="BoundingBox" stroke="none" fill="none" x="19209" y="1853" width="720" height="304"/>
     <path fill="none" stroke="rgb(15,15,15)" d="M 19210,2155 L 19927,1854"/>
    </g>
   </g>
  </g>
 </g>
</svg>