<?xml version="1.0" encoding="UTF-8"?>
<!DOCTYPE svg PUBLIC "-//W3C//DTD SVG 1.1//EN" "http://www.w3.org/Graphics/SVG/1.1/DTD/svg11.dtd">
<svg version="1.2" width="16.07mm" height="10.1mm" viewBox="7339 7191 1607 1010" preserveAspectRatio="xMidYMid" fill-rule="evenodd" stroke-width="28.222" stroke-linejoin="round" xmlns="http://www.w3.org/2000/svg" xmlns:ooo="http://xml.openoffice.org/svg/export" xmlns:xlink="http://www.w3.org/1999/xlink" xmlns:presentation="http://sun.com/xmlns/staroffice/presentation" xmlns:smil="http://www.w3.org/2001/SMIL20/" xmlns:anim="urn:oasis:names:tc:opendocument:xmlns:animation:1.0" xmlns:svg="urn:oasis:names:tc:opendocument:xmlns:svg-compatible:1.0" xml:space="preserve">
 <defs class="EmbeddedBulletChars">
  <g id="bullet-char-template-57356" transform="scale(0.00048828125,-0.00048828125)">
   <path d="M 580,1141 L 1163,571 580,0 -4,571 580,1141 Z"/>
  </g>
  <g id="bullet-char-template-57354" transform="scale(0.00048828125,-0.00048828125)">
   <path d="M 8,1128 L 1137,1128 1137,0 8,0 8,1128 Z"/>
  </g>
  <g id="bullet-char-template-10146" transform="scale(0.00048828125,-0.00048828125)">
   <path d="M 174,0 L 602,739 174,1481 1456,739 174,0 Z M 1358,739 L 309,1346 659,739 1358,739 Z"/>
  </g>
  <g id="bullet-char-template-10132" transform="scale(0.00048828125,-0.00048828125)">
   <path d="M 2015,739 L 1276,0 717,0 1260,543 174,543 174,936 1260,936 717,1481 1274,1481 2015,739 Z"/>
  </g>
  <g id="bullet-char-template-10007" transform="scale(0.00048828125,-0.00048828125)">
   <path d="M 0,-2 C -7,14 -16,27 -25,37 L 356,567 C 262,823 215,952 215,954 215,979 228,992 255,992 264,992 276,990 289,987 310,991 331,999 354,1012 L 381,999 492,748 772,1049 836,1024 860,1049 C 881,1039 901,1025 922,1006 886,937 835,863 770,784 769,783 710,716 594,584 L 774,223 C 774,196 753,168 711,139 L 727,119 C 717,90 699,76 672,76 641,76 570,178 457,381 L 164,-76 C 142,-110 111,-127 72,-127 30,-127 9,-110 8,-76 1,-67 -2,-52 -2,-32 -2,-23 -1,-13 0,-2 Z"/>
  </g>
  <g id="bullet-char-template-10004" transform="scale(0.00048828125,-0.00048828125)">
   <path d="M 285,-33 C 182,-33 111,30 74,156 52,228 41,333 41,471 41,549 55,616 82,672 116,743 169,778 240,778 293,778 328,747 346,684 L 369,508 C 377,444 397,411 428,410 L 1163,1116 C 1174,1127 1196,1133 1229,1133 1271,1133 1292,1118 1292,1087 L 1292,965 C 1292,929 1282,901 1262,881 L 442,47 C 390,-6 338,-33 285,-33 Z"/>
  </g>
  <g id="bullet-char-template-9679" transform="scale(0.00048828125,-0.00048828125)">
   <path d="M 813,0 C 632,0 489,54 383,161 276,268 223,411 223,592 223,773 276,916 383,1023 489,1130 632,1184 813,1184 992,1184 1136,1130 1245,1023 1353,916 1407,772 1407,592 1407,412 1353,268 1245,161 1136,54 992,0 813,0 Z"/>
  </g>
  <g id="bullet-char-template-8226" transform="scale(0.00048828125,-0.00048828125)">
   <path d="M 346,457 C 273,457 209,483 155,535 101,586 74,649 74,723 74,796 101,859 155,911 209,963 273,989 346,989 419,989 480,963 531,910 582,859 608,796 608,723 608,648 583,586 532,535 482,483 420,457 346,457 Z"/>
  </g>
  <g id="bullet-char-template-8211" transform="scale(0.00048828125,-0.00048828125)">
   <path d="M -4,459 L 1135,459 1135,606 -4,606 -4,459 Z"/>
  </g>
  <g id="bullet-char-template-61548" transform="scale(0.00048828125,-0.00048828125)">
   <path d="M 173,740 C 173,903 231,1043 346,1159 462,1274 601,1332 765,1332 928,1332 1067,1274 1183,1159 1299,1043 1357,903 1357,740 1357,577 1299,437 1183,322 1067,206 928,148 765,148 601,148 462,206 346,322 231,437 173,577 173,740 Z"/>
  </g>
 </defs>
 <g class="Page">
  <g class="Group">
   <g class="com.sun.star.drawing.PolyPolygonShape">
    <g id="id3">
     <rect class="BoundingBox" stroke="none" fill="none" x="7339" y="7191" width="1607" height="1010"/>
     <path fill="rgb(204,255,153)" stroke="none" d="M 7365,8174 L 8919,8174 8919,7217 7365,7217 7365,8174 Z"/>
     <path fill="none" stroke="rgb(15,15,15)" stroke-width="51" stroke-linejoin="round" d="M 7365,8174 L 8919,8174 8919,7217 7365,7217 7365,8174 Z"/>
    </g>
   </g>
   <g class="com.sun.star.drawing.PolyPolygonShape">
    <g id="id4">
     <rect class="BoundingBox" stroke="none" fill="none" x="8472" y="7309" width="150" height="56"/>
     <path fill="rgb(179,179,179)" stroke="none" d="M 8620,7329 L 8538,7310 8473,7363 8620,7329 Z"/>
     <path fill="none" stroke="rgb(179,179,179)" d="M 8620,7329 L 8538,7310 8473,7363 8620,7329 Z"/>
    </g>
   </g>
   <g class="com.sun.star.drawing.PolyPolygonShape">
    <g id="id5">
     <rect class="BoundingBox" stroke="none" fill="none" x="8472" y="7328" width="150" height="121"/>
     <path fill="rgb(179,179,179)" stroke="none" d="M 8620,7329 L 8473,7363 8473,7447 8620,7329 Z"/>
     <path fill="none" stroke="rgb(179,179,179)" d="M 8620,7329 L 8473,7363 8473,7447 8620,7329 Z"/>
    </g>
   </g>
   <g class="com.sun.star.drawing.PolyPolygonShape">
    <g id="id6">
     <rect class="BoundingBox" stroke="none" fill="none" x="8472" y="7328" width="150" height="173"/>
     <path fill="rgb(179,179,179)" stroke="none" d="M 8620,7329 L 8473,7447 8538,7499 8620,7329 Z"/>
     <path fill="none" stroke="rgb(179,179,179)" d="M 8620,7329 L 8473,7447 8538,7499 8620,7329 Z"/>
    </g>
   </g>
   <g class="com.sun.star.drawing.PolyPolygonShape">
    <g id="id7">
     <rect class="BoundingBox" stroke="none" fill="none" x="8537" y="7328" width="85" height="173"/>
     <path fill="rgb(179,179,179)" stroke="none" d="M 8620,7329 L 8538,7499 8620,7480 8620,7329 Z"/>
     <path fill="none" stroke="rgb(179,179,179)" d="M 8620,7329 L 8538,7499 8620,7480 8620,7329 Z"/>
    </g>
   </g>
   <g class="com.sun.star.drawing.PolyPolygonShape">
    <g id="id8">
     <rect class="BoundingBox" stroke="none" fill="none" x="8619" y="7328" width="41" height="154"/>
     <path fill="rgb(179,179,179)" stroke="none" d="M 8620,7329 L 8620,7480 8658,7405 8620,7329 Z"/>
     <path fill="none" stroke="rgb(179,179,179)" d="M 8620,7329 L 8620,7480 8658,7405 8620,7329 Z"/>
    </g>
   </g>
   <g class="com.sun.star.drawing.PolyPolygonShape">
    <g id="id9">
     <rect class="BoundingBox" stroke="none" fill="none" x="8462" y="7403" width="199" height="3"/>
     <path fill="none" stroke="rgb(15,15,15)" d="M 8659,7404 L 8463,7404"/>
    </g>
   </g>
   <g class="com.sun.star.drawing.PolyPolygonShape">
    <g id="id10">
     <rect class="BoundingBox" stroke="none" fill="none" x="8493" y="7342" width="102" height="66"/>
     <path fill="rgb(217,217,217)" stroke="none" d="M 8593,7343 L 8528,7343 8494,7406 8593,7343 Z"/>
     <path fill="none" stroke="rgb(217,217,217)" d="M 8593,7343 L 8528,7343 8494,7406 8593,7343 Z"/>
    </g>
   </g>
   <g class="com.sun.star.drawing.PolyPolygonShape">
    <g id="id11">
     <rect class="BoundingBox" stroke="none" fill="none" x="8493" y="7342" width="102" height="129"/>
     <path fill="rgb(217,217,217)" stroke="none" d="M 8593,7343 L 8494,7406 8528,7469 8593,7343 Z"/>
     <path fill="none" stroke="rgb(217,217,217)" d="M 8593,7343 L 8494,7406 8528,7469 8593,7343 Z"/>
    </g>
   </g>
   <g class="com.sun.star.drawing.PolyPolygonShape">
    <g id="id12">
     <rect class="BoundingBox" stroke="none" fill="none" x="8527" y="7342" width="68" height="129"/>
     <path fill="rgb(217,217,217)" stroke="none" d="M 8593,7343 L 8528,7469 8593,7469 8593,7343 Z"/>
     <path fill="none" stroke="rgb(217,217,217)" d="M 8593,7343 L 8528,7469 8593,7469 8593,7343 Z"/>
    </g>
   </g>
   <g class="com.sun.star.drawing.PolyPolygonShape">
    <g id="id13">
     <rect class="BoundingBox" stroke="none" fill="none" x="8592" y="7342" width="37" height="129"/>
     <path fill="rgb(217,217,217)" stroke="none" d="M 8593,7343 L 8593,7469 8627,7406 8593,7343 Z"/>
     <path fill="none" stroke="rgb(217,217,217)" d="M 8593,7343 L 8593,7469 8627,7406 8593,7343 Z"/>
    </g>
   </g>
   <g class="com.sun.star.drawing.PolyPolygonShape">
    <g id="id14">
     <rect class="BoundingBox" stroke="none" fill="none" x="8493" y="7332" width="135" height="150"/>
     <path fill="none" stroke="rgb(15,15,15)" d="M 8626,7407 L 8622,7379 8608,7354 8587,7339 8561,7333 8534,7339 8513,7354 8498,7379 8494,7407 8498,7434 8513,7459 8534,7474 8561,7480 8587,7474 8608,7459 8622,7434 8626,7407 Z"/>
    </g>
   </g>
   <g class="com.sun.star.drawing.PolyPolygonShape">
    <g id="id15">
     <rect class="BoundingBox" stroke="none" fill="none" x="8459" y="7405" width="203" height="135"/>
     <path fill="rgb(179,179,179)" stroke="none" d="M 8660,7538 L 8660,7406 8460,7406 8660,7538 Z"/>
     <path fill="none" stroke="rgb(179,179,179)" d="M 8660,7538 L 8660,7406 8460,7406 8660,7538 Z"/>
    </g>
   </g>
   <g class="com.sun.star.drawing.PolyPolygonShape">
    <g id="id16">
     <rect class="BoundingBox" stroke="none" fill="none" x="8459" y="7405" width="203" height="135"/>
     <path fill="rgb(179,179,179)" stroke="none" d="M 8660,7538 L 8460,7406 8460,7538 8660,7538 Z"/>
     <path fill="none" stroke="rgb(179,179,179)" d="M 8660,7538 L 8460,7406 8460,7538 8660,7538 Z"/>
    </g>
   </g>
   <g class="com.sun.star.drawing.PolyPolygonShape">
    <g id="id17">
     <rect class="BoundingBox" stroke="none" fill="none" x="8459" y="7538" width="203" height="3"/>
     <path fill="rgb(179,179,179)" stroke="none" d="M 8660,7539 L 8460,7539 8462,7539 8660,7539 Z"/>
     <path fill="none" stroke="rgb(179,179,179)" d="M 8660,7539 L 8460,7539 8462,7539 8660,7539 Z"/>
    </g>
   </g>
   <g class="com.sun.star.drawing.PolyPolygonShape">
    <g id="id18">
     <rect class="BoundingBox" stroke="none" fill="none" x="8462" y="7538" width="201" height="49"/>
     <path fill="rgb(179,179,179)" stroke="none" d="M 8661,7539 L 8463,7539 8486,7585 8661,7539 Z"/>
     <path fill="none" stroke="rgb(179,179,179)" d="M 8661,7539 L 8463,7539 8486,7585 8661,7539 Z"/>
    </g>
   </g>
   <g class="com.sun.star.drawing.PolyPolygonShape">
    <g id="id19">
     <rect class="BoundingBox" stroke="none" fill="none" x="8485" y="7538" width="178" height="70"/>
     <path fill="rgb(179,179,179)" stroke="none" d="M 8661,7539 L 8486,7585 8562,7606 8661,7539 Z"/>
     <path fill="none" stroke="rgb(179,179,179)" d="M 8661,7539 L 8486,7585 8562,7606 8661,7539 Z"/>
    </g>
   </g>
   <g class="com.sun.star.drawing.PolyPolygonShape">
    <g id="id20">
     <rect class="BoundingBox" stroke="none" fill="none" x="8560" y="7538" width="102" height="70"/>
     <path fill="rgb(179,179,179)" stroke="none" d="M 8660,7539 L 8561,7606 8635,7585 8660,7539 Z"/>
     <path fill="none" stroke="rgb(179,179,179)" d="M 8660,7539 L 8561,7606 8635,7585 8660,7539 Z"/>
    </g>
   </g>
   <g class="com.sun.star.drawing.PolyPolygonShape">
    <g id="id21">
     <rect class="BoundingBox" stroke="none" fill="none" x="8634" y="7538" width="28" height="49"/>
     <path fill="rgb(179,179,179)" stroke="none" d="M 8660,7539 L 8635,7585 8658,7539 8660,7539 Z"/>
     <path fill="none" stroke="rgb(179,179,179)" d="M 8660,7539 L 8635,7585 8658,7539 8660,7539 Z"/>
    </g>
   </g>
   <g class="com.sun.star.drawing.PolyPolygonShape">
    <g id="id22">
     <rect class="BoundingBox" stroke="none" fill="none" x="8459" y="7405" width="203" height="201"/>
     <path fill="none" stroke="rgb(15,15,15)" d="M 8658,7538 L 8660,7538 8660,7406 8460,7406 8460,7538 8462,7538 8464,7562 8479,7580 8506,7595 8542,7604 8580,7604 8613,7595 8641,7580 8658,7562 8658,7538 Z"/>
    </g>
   </g>
   <g class="com.sun.star.drawing.PolyPolygonShape">
    <g id="id23">
     <rect class="BoundingBox" stroke="none" fill="none" x="8544" y="7519" width="39" height="3"/>
     <path fill="none" stroke="rgb(179,179,179)" d="M 8581,7520 L 8545,7520"/>
    </g>
   </g>
   <g class="com.sun.star.drawing.PolyPolygonShape">
    <g id="id24">
     <rect class="BoundingBox" stroke="none" fill="none" x="8552" y="7536" width="24" height="47"/>
     <path fill="rgb(15,15,15)" stroke="none" d="M 8574,7581 L 8553,7581 8553,7537 8574,7581 Z"/>
     <path fill="none" stroke="rgb(15,15,15)" d="M 8574,7581 L 8553,7581 8553,7537 8574,7581 Z"/>
    </g>
   </g>
   <g class="com.sun.star.drawing.PolyPolygonShape">
    <g id="id25">
     <rect class="BoundingBox" stroke="none" fill="none" x="8552" y="7536" width="24" height="47"/>
     <path fill="rgb(15,15,15)" stroke="none" d="M 8574,7581 L 8553,7537 8574,7537 8574,7581 Z"/>
     <path fill="none" stroke="rgb(15,15,15)" d="M 8574,7581 L 8553,7537 8574,7537 8574,7581 Z"/>
    </g>
   </g>
   <g class="com.sun.star.drawing.PolyPolygonShape">
    <g id="id26">
     <rect class="BoundingBox" stroke="none" fill="none" x="8552" y="7536" width="24" height="47"/>
     <path fill="none" stroke="rgb(15,15,15)" d="M 8574,7537 L 8574,7581 8553,7581 8553,7537 8574,7537 Z"/>
    </g>
   </g>
   <g class="com.sun.star.drawing.LineShape">
    <g id="id27">
     <rect class="BoundingBox" stroke="none" fill="none" x="8110" y="7471" width="272" height="3"/>
     <path fill="none" stroke="rgb(15,15,15)" d="M 8111,7472 L 8380,7472"/>
    </g>
   </g>
   <g class="com.sun.star.drawing.PolyPolygonShape">
    <g id="id28">
     <rect class="BoundingBox" stroke="none" fill="none" x="8321" y="7424" width="93" height="93"/>
     <path fill="rgb(15,15,15)" stroke="none" d="M 8322,7515 L 8322,7425 8412,7471 8322,7515 Z"/>
     <path fill="none" stroke="rgb(15,15,15)" d="M 8322,7515 L 8322,7425 8412,7471 8322,7515 Z"/>
    </g>
   </g>
   <g class="com.sun.star.drawing.PolyPolygonShape">
    <g id="id29">
     <rect class="BoundingBox" stroke="none" fill="none" x="8321" y="7424" width="93" height="93"/>
     <path fill="none" stroke="rgb(15,15,15)" d="M 8412,7471 L 8322,7515 8322,7425 8412,7471 Z"/>
    </g>
   </g>
   <g class="com.sun.star.drawing.LineShape">
    <g id="id30">
     <rect class="BoundingBox" stroke="none" fill="none" x="8110" y="7918" width="272" height="3"/>
     <path fill="none" stroke="rgb(15,15,15)" d="M 8111,7919 L 8380,7919"/>
    </g>
   </g>
   <g class="com.sun.star.drawing.PolyPolygonShape">
    <g id="id31">
     <rect class="BoundingBox" stroke="none" fill="none" x="8321" y="7872" width="93" height="93"/>
     <path fill="rgb(15,15,15)" stroke="none" d="M 8322,7963 L 8322,7873 8412,7919 8322,7963 Z"/>
     <path fill="none" stroke="rgb(15,15,15)" d="M 8322,7963 L 8322,7873 8412,7919 8322,7963 Z"/>
    </g>
   </g>
   <g class="com.sun.star.drawing.PolyPolygonShape">
    <g id="id32">
     <rect class="BoundingBox" stroke="none" fill="none" x="8321" y="7872" width="93" height="93"/>
     <path fill="none" stroke="rgb(15,15,15)" d="M 8412,7919 L 8322,7963 8322,7873 8412,7919 Z"/>
    </g>
   </g>
   <g class="com.sun.star.drawing.LineShape">
    <g id="id33">
     <rect class="BoundingBox" stroke="none" fill="none" x="8110" y="7471" width="3" height="451"/>
     <path fill="none" stroke="rgb(15,15,15)" d="M 8111,7472 L 8111,7920"/>
    </g>
   </g>
   <g class="com.sun.star.drawing.LineShape">
    <g id="id34">
     <rect class="BoundingBox" stroke="none" fill="none" x="7604" y="7693" width="510" height="3"/>
     <path fill="none" stroke="rgb(15,15,15)" d="M 8112,7694 L 7605,7694"/>
    </g>
   </g>
  </g>
 </g>
</svg>