<?xml version="1.0" encoding="UTF-8"?>
<!DOCTYPE svg PUBLIC "-//W3C//DTD SVG 1.1//EN" "http://www.w3.org/Graphics/SVG/1.1/DTD/svg11.dtd">
<svg version="1.2" width="6.18mm" height="11.55mm" viewBox="16238 9888 618 1155" preserveAspectRatio="xMidYMid" fill-rule="evenodd" stroke-width="28.222" stroke-linejoin="round" xmlns="http://www.w3.org/2000/svg" xmlns:ooo="http://xml.openoffice.org/svg/export" xmlns:xlink="http://www.w3.org/1999/xlink" xmlns:presentation="http://sun.com/xmlns/staroffice/presentation" xmlns:smil="http://www.w3.org/2001/SMIL20/" xmlns:anim="urn:oasis:names:tc:opendocument:xmlns:animation:1.0" xmlns:svg="urn:oasis:names:tc:opendocument:xmlns:svg-compatible:1.0" xml:space="preserve">
 <defs class="EmbeddedBulletChars">
  <g id="bullet-char-template-57356" transform="scale(0.00048828125,-0.00048828125)">
   <path d="M 580,1141 L 1163,571 580,0 -4,571 580,1141 Z"/>
  </g>
  <g id="bullet-char-template-57354" transform="scale(0.00048828125,-0.00048828125)">
   <path d="M 8,1128 L 1137,1128 1137,0 8,0 8,1128 Z"/>
  </g>
  <g id="bullet-char-template-10146" transform="scale(0.00048828125,-0.00048828125)">
   <path d="M 174,0 L 602,739 174,1481 1456,739 174,0 Z M 1358,739 L 309,1346 659,739 1358,739 Z"/>
  </g>
  <g id="bullet-char-template-10132" transform="scale(0.00048828125,-0.00048828125)">
   <path d="M 2015,739 L 1276,0 717,0 1260,543 174,543 174,936 1260,936 717,1481 1274,1481 2015,739 Z"/>
  </g>
  <g id="bullet-char-template-10007" transform="scale(0.00048828125,-0.00048828125)">
   <path d="M 0,-2 C -7,14 -16,27 -25,37 L 356,567 C 262,823 215,952 215,954 215,979 228,992 255,992 264,992 276,990 289,987 310,991 331,999 354,1012 L 381,999 492,748 772,1049 836,1024 860,1049 C 881,1039 901,1025 922,1006 886,937 835,863 770,784 769,783 710,716 594,584 L 774,223 C 774,196 753,168 711,139 L 727,119 C 717,90 699,76 672,76 641,76 570,178 457,381 L 164,-76 C 142,-110 111,-127 72,-127 30,-127 9,-110 8,-76 1,-67 -2,-52 -2,-32 -2,-23 -1,-13 0,-2 Z"/>
  </g>
  <g id="bullet-char-template-10004" transform="scale(0.00048828125,-0.00048828125)">
   <path d="M 285,-33 C 182,-33 111,30 74,156 52,228 41,333 41,471 41,549 55,616 82,672 116,743 169,778 240,778 293,778 328,747 346,684 L 369,508 C 377,444 397,411 428,410 L 1163,1116 C 1174,1127 1196,1133 1229,1133 1271,1133 1292,1118 1292,1087 L 1292,965 C 1292,929 1282,901 1262,881 L 442,47 C 390,-6 338,-33 285,-33 Z"/>
  </g>
  <g id="bullet-char-template-9679" transform="scale(0.00048828125,-0.00048828125)">
   <path d="M 813,0 C 632,0 489,54 383,161 276,268 223,411 223,592 223,773 276,916 383,1023 489,1130 632,1184 813,1184 992,1184 1136,1130 1245,1023 1353,916 1407,772 1407,592 1407,412 1353,268 1245,161 1136,54 992,0 813,0 Z"/>
  </g>
  <g id="bullet-char-template-8226" transform="scale(0.00048828125,-0.00048828125)">
   <path d="M 346,457 C 273,457 209,483 155,535 101,586 74,649 74,723 74,796 101,859 155,911 209,963 273,989 346,989 419,989 480,963 531,910 582,859 608,796 608,723 608,648 583,586 532,535 482,483 420,457 346,457 Z"/>
  </g>
  <g id="bullet-char-template-8211" transform="scale(0.00048828125,-0.00048828125)">
   <path d="M -4,459 L 1135,459 1135,606 -4,606 -4,459 Z"/>
  </g>
  <g id="bullet-char-template-61548" transform="scale(0.00048828125,-0.00048828125)">
   <path d="M 173,740 C 173,903 231,1043 346,1159 462,1274 601,1332 765,1332 928,1332 1067,1274 1183,1159 1299,1043 1357,903 1357,740 1357,577 1299,437 1183,322 1067,206 928,148 765,148 601,148 462,206 346,322 231,437 173,577 173,740 Z"/>
  </g>
 </defs>
 <g class="Page">
  <g class="Group">
   <g class="com.sun.star.drawing.PolyLineShape">
    <g id="id3">
     <rect class="BoundingBox" stroke="none" fill="none" x="16384" y="10072" width="173" height="346"/>
     <path fill="none" stroke="rgb(15,15,15)" d="M 16385,10073 L 16385,10416 16555,10416"/>
    </g>
   </g>
   <g class="com.sun.star.drawing.PolyPolygonShape">
    <g id="id4">
     <rect class="BoundingBox" stroke="none" fill="none" x="16554" y="10255" width="302" height="302"/>
     <g>
      <defs>
       <pattern id="pattern1" x="16555" y="10256" width="300" height="300" patternUnits="userSpaceOnUse">
        <g transform="translate(-16555,-10256)">
         <line fill="rgb(0,0,0)" stroke="rgb(0,0,0)" x1="16555" y1="10354" x2="16653" y2="10256"/>
         <line fill="rgb(0,0,0)" stroke="rgb(0,0,0)" x1="16555" y1="10504" x2="16803" y2="10256"/>
         <line fill="rgb(0,0,0)" stroke="rgb(0,0,0)" x1="16654" y1="10555" x2="16854" y2="10355"/>
         <line fill="rgb(0,0,0)" stroke="rgb(0,0,0)" x1="16804" y1="10555" x2="16854" y2="10505"/>
        </g>
       </pattern>
      </defs>
      <path style="fill:url(#pattern1)" d="M 16555,10555 L 16854,10555 16854,10256 16555,10256 16555,10555 Z"/>
     </g>
     <path fill="none" stroke="rgb(15,15,15)" d="M 16555,10555 L 16854,10555 16854,10256 16555,10256 16555,10555 Z"/>
    </g>
   </g>
   <g class="com.sun.star.drawing.CustomShape">
    <g id="id5">
     <rect class="BoundingBox" stroke="none" fill="none" x="16238" y="9888" width="283" height="283"/>
     <path fill="rgb(192,192,192)" stroke="none" d="M 16519,10029 C 16519,10054 16513,10078 16500,10099 16488,10120 16470,10138 16449,10150 16428,10163 16404,10169 16379,10169 16354,10169 16330,10163 16309,10150 16288,10138 16270,10120 16258,10099 16245,10078 16239,10054 16239,10029 16239,10004 16245,9980 16258,9959 16270,9938 16288,9920 16309,9908 16330,9895 16354,9889 16379,9889 16404,9889 16428,9895 16449,9908 16470,9920 16488,9938 16500,9959 16513,9980 16519,10004 16519,10029 L 16519,10029 Z"/>
     <path fill="none" stroke="rgb(0,0,0)" d="M 16519,10029 C 16519,10054 16513,10078 16500,10099 16488,10120 16470,10138 16449,10150 16428,10163 16404,10169 16379,10169 16354,10169 16330,10163 16309,10150 16288,10138 16270,10120 16258,10099 16245,10078 16239,10054 16239,10029 16239,10004 16245,9980 16258,9959 16270,9938 16288,9920 16309,9908 16330,9895 16354,9889 16379,9889 16404,9889 16428,9895 16449,9908 16470,9920 16488,9938 16500,9959 16513,9980 16519,10004 16519,10029 Z"/>
    </g>
   </g>
   <g class="com.sun.star.drawing.PolyLineShape">
    <g id="id6">
     <rect class="BoundingBox" stroke="none" fill="none" x="16384" y="10415" width="168" height="471"/>
     <path fill="none" stroke="rgb(15,15,15)" d="M 16385,10416 L 16385,10884 16550,10884"/>
    </g>
   </g>
   <g class="com.sun.star.drawing.PolyPolygonShape">
    <g id="id7">
     <rect class="BoundingBox" stroke="none" fill="none" x="16549" y="10741" width="302" height="302"/>
     <g>
      <defs>
       <pattern id="pattern2" x="16550" y="10742" width="300" height="300" patternUnits="userSpaceOnUse">
        <g transform="translate(-16550,-10742)">
         <line fill="rgb(0,0,0)" stroke="rgb(0,0,0)" x1="16700" y1="10742" x2="16849" y2="10891"/>
         <line fill="rgb(0,0,0)" stroke="rgb(0,0,0)" x1="16550" y1="10742" x2="16849" y2="11041"/>
         <line fill="rgb(0,0,0)" stroke="rgb(0,0,0)" x1="16550" y1="10892" x2="16699" y2="11041"/>
        </g>
       </pattern>
      </defs>
      <path style="fill:url(#pattern2)" d="M 16550,11041 L 16849,11041 16849,10742 16550,10742 16550,11041 Z"/>
     </g>
     <path fill="none" stroke="rgb(15,15,15)" d="M 16550,11041 L 16849,11041 16849,10742 16550,10742 16550,11041 Z"/>
    </g>
   </g>
  </g>
 </g>
</svg>