<svg xmlns="http://www.w3.org/2000/svg" xmlns:xlink="http://www.w3.org/1999/xlink" width="128" height="128"><defs><radialGradient gradientUnits="userSpaceOnUse" r="116.781" cy="122.686" cx="80.671" id="d"><stop stop-color="#ffe9ca" offset="0"/><stop stop-color="#ff9600" offset="1"/></radialGradient><linearGradient id="a"><stop stop-color="#c77500" offset="0"/><stop stop-color="#ffb54c" offset="1"/></linearGradient><radialGradient gradientUnits="userSpaceOnUse" r="53.152" cy="136.784" cx="73.427" id="c"><stop stop-color="#fff" offset="0"/><stop stop-color="#ca7700" offset="1"/></radialGradient><linearGradient gradientUnits="userSpaceOnUse" y2="58.083" y1="-3.418" x2="68.251" x1="68.251" id="b"><stop stop-color="#513000" offset="0"/><stop stop-color="#ffba58" offset="1"/></linearGradient><linearGradient id="f"><stop stop-color="#c77500" offset="0"/><stop stop-color="#ffb54c" offset="1"/></linearGradient><radialGradient gradientUnits="userSpaceOnUse" r="103.43" cy="-11.376" cx="-11.043" id="g"><stop stop-color="#fff" offset="0"/><stop stop-color="#ffcf8b" offset="1"/></radialGradient><radialGradient gradientUnits="userSpaceOnUse" r="95.498" cy="120.588" cx="69.948" id="e"><stop stop-color="#fff" offset="0"/><stop stop-color="#ff9600" offset="1"/></radialGradient><linearGradient xlink:href="#a" id="m" gradientUnits="userSpaceOnUse" x1="63.271" y1="34.586" x2="63.271" y2="71.584" gradientTransform="matrix(.69432 0 0 .69432 -3.047 -3.115)"/><linearGradient xlink:href="#b" id="n" gradientUnits="userSpaceOnUse" x1="68.251" y1="-3.418" x2="68.251" y2="58.083" gradientTransform="matrix(.69432 0 0 .69432 -3.047 -3.115)"/><radialGradient xlink:href="#c" id="o" gradientUnits="userSpaceOnUse" cx="73.427" cy="136.784" r="53.152" gradientTransform="matrix(.69432 0 0 .69432 -3.047 -3.115)"/><radialGradient xlink:href="#d" id="p" gradientUnits="userSpaceOnUse" cx="80.671" cy="122.686" r="116.781" gradientTransform="matrix(.69432 0 0 .69432 -3.047 -3.115)"/><radialGradient xlink:href="#e" id="q" gradientUnits="userSpaceOnUse" cx="69.948" cy="120.588" r="95.498" gradientTransform="matrix(.69432 0 0 .69432 -3.047 -3.115)"/><linearGradient xlink:href="#f" id="r" gradientUnits="userSpaceOnUse" x1="63.999" y1="59.084" x2="63.999" y2="145.082" gradientTransform="matrix(.69432 0 0 .69432 -3.047 -3.115)"/><radialGradient xlink:href="#g" id="s" gradientUnits="userSpaceOnUse" cx="-11.043" cy="-11.376" r="103.43" gradientTransform="matrix(.69432 0 0 .69432 -3.047 -3.115)"/><linearGradient xlink:href="#h" id="v" gradientUnits="userSpaceOnUse" x1="68.251" y1="-3.418" x2="68.251" y2="58.083" gradientTransform="matrix(.69432 0 0 .69432 36.34 39.127)"/><radialGradient xlink:href="#i" id="w" gradientUnits="userSpaceOnUse" cx="73.427" cy="136.784" r="53.152" gradientTransform="matrix(.69432 0 0 .69432 36.34 39.127)"/><radialGradient xlink:href="#j" id="x" gradientUnits="userSpaceOnUse" cx="80.671" cy="122.686" r="116.781" gradientTransform="matrix(.69432 0 0 .69432 36.34 39.127)"/><radialGradient xlink:href="#k" id="y" gradientUnits="userSpaceOnUse" cx="69.948" cy="120.588" r="95.498" gradientTransform="matrix(.69432 0 0 .69432 36.34 39.127)"/><radialGradient xlink:href="#l" id="A" gradientUnits="userSpaceOnUse" cx="-11.043" cy="-11.376" r="103.43" gradientTransform="matrix(.69432 0 0 .69432 36.34 39.127)"/><pattern patternUnits="userSpaceOnUse" width="82.779" height="82.642" patternTransform="translate(5.835 3.115)" id="B"><path d="M30.876 22.3c-3.996.703-7.229 2.676-9.349 5.705l-.066.095.005.118c.081 2.192.588 4.449 1.504 6.71l.036.084c.354.862.77 1.73 1.242 2.581l.055.097.716 1.204.065.102.83 1.229.081.11.799 1.048.188.236a30.131 30.131 0 0 0 2.245 2.467c0 .002.895.85.895.85l.232.214 1.153.983.255.2.992.762.348.253 1.295.891 1.483.902.343.198 1.481.787.188.09 1.368.628.326.141 1.5.586.277.097-.003-.002 1.358.441.258.076 1.513.391.31.068 1.426.277.124.021 1.519.198.299.029c1.007.09 2.015.122 2.995.09l.26-.008 1.456-.107.09-.01 1.358-.201c.004-.002.197-.036.197-.036l1.38-.313.14-.04 1.258-.398.11-.035 1.264-.521.107-.05c.065-.031 1.26-.654 1.26-.654l.144-.075.02-.152c1.666-8.023-3.046-17.751-11.46-23.66-5.667-3.984-12.182-5.695-17.87-4.696zm.12.682c5.508-.969 11.834.702 17.356 4.581 7.1 4.986 11.5 12.738 11.5 19.766 0 1.032-.11 2.046-.306 3.036l-.992.517-.164.077-1.212.498-.105.036-1.211.382-.147.042-1.32.3-.193.034-1.313.194a3.543 3.543 0 0 0-.079.01l-1.415.103-.252.009c-.952.03-1.933 0-2.912-.088l-.29-.028-1.479-.192-.123-.021-1.39-.27a34.975 34.975 0 0 0-.303-.067l-1.474-.381-.256-.076-1.324-.43-.27-.094-1.467-.572-.319-.138-1.338-.615-.185-.09-1.45-.77-.31-.177-1.478-.9-1.268-.871-.342-.248-.97-.745-.25-.196-1.128-.965-.226-.207-.876-.831-.256-.254a29.904 29.904 0 0 1-1.938-2.156l-.185-.231-.78-1.025-.08-.108-.81-1.198a52.738 52.738 0 0 0-.062-.1l-.672-1.126a24.363 24.363 0 0 1-1.285-2.644l-.035-.084c-.87-2.145-1.347-4.282-1.438-6.357 2.012-2.82 5.054-4.668 8.822-5.33z" fill="url(#m)"/><path d="M80.42 36.202l-3.86-.034-1.643.066.333 5.984z" fill="#fff"/><path d="M54.162 17.59c-11.405-7.403-25.053-6.624-30.484 1.74-1.724 2.658-2.41 5.761-2.18 8.995 5.01-7.798 17.048-8.438 27.138-1.35 8.694 6.104 13.135 15.978 11.291 23.79 2.044-1.118 3.777-2.659 5.05-4.623 5.433-8.365.589-21.149-10.815-28.551z" fill="url(#n)"/><path d="M10.768 52.54L8.51 60.556l7.768 8.785 7.571-5.48 9.243 5.685.098 10.747 9.876 1.966 5.698-7.564.337-2.285 5.229-.177 5.31 8.163 7.374-3.926 6.516-7.685-.002-.001.123-.063-3.274-6.14 3.815 2.006 7.126-7.473 1.088-8.011-7.068-5.276-.089-1.61 5.048-6.195-3.587-7.279-5.906-1.265-5.274-6.96 2.531-3.377-6.012-5.59-4.535 2.214-7.595-5.168-.105-3.798-8.229-3.48-1.898 4.958-6.751-1.267L29.244.37l-8.205 1.026-1.053 8.5-1.816.811-7.173-3.587-4.626 5.37-.959 8.865 4.496 4.104-8.223.222L.35 34.515l.983 9.508 9.046.93 2.682 5.454zm54.21-6.4c-5.43 8.368-19.077 9.148-30.482 1.744C23.092 40.479 18.25 27.697 23.68 19.33c5.43-8.365 19.078-9.144 30.483-1.74 11.404 7.403 16.248 20.187 10.816 28.55z" fill="url(#o)"/><path d="M74.83 43.732l-.417-7.478 5.298-.209-3.531-7.166-5.816-1.245-5.193-6.854 2.493-3.324-5.92-5.505-4.465 2.182-7.478-5.09-.103-3.738-8.103-3.426-1.868 4.88-6.646-1.245L29.446.943 21.761 1.98l3.53 6.127-6.751 3.013-7.062-3.531-4.258 5.192 6.543 4.986-1.767 7.79-9.242.517 1.04 9.557 9.554.934 4.777 9.242-6.75 6.44 8.203 8.826 7.997-5.504 9.763 5.712.103 10.801 11.217 2.078 1.454-9.866 9.658-.313 5.608 8.204 7.79-3.945-4.985-9.348 5.088-6.334 7.478 3.739 1.038-7.374zM64.627 46.01c-5.345 8.235-18.784 9.003-30.011 1.714-11.23-7.29-15.999-19.875-10.652-28.112 5.346-8.236 18.784-9.004 30.013-1.715 11.229 7.291 15.997 19.876 10.65 28.113z" fill="url(#p)"/><path d="M74.83 43.732l-.417-7.478 5.298-.209-3.531-7.166-5.816-1.245-5.193-6.854 2.493-3.324-5.92-5.505-4.465 2.182-7.478-5.09-.103-3.738-8.103-3.426-1.868 4.88-6.646-1.245L29.446.943 21.761 1.98l3.53 6.127-6.751 3.013-7.062-3.531-4.258 5.192 6.543 4.986-1.767 7.79-9.242.517 1.04 9.557 9.554.934 4.777 9.242-6.75 6.44 8.203 8.826 7.997-5.504 9.763 5.712.103 10.801 11.217 2.078 1.454-9.866 9.658-.313 5.608 8.204 7.79-3.945-4.985-9.348 5.088-6.334 7.478 3.739 1.038-7.374zM64.627 46.01c-5.345 8.235-18.784 9.003-30.011 1.714-11.23-7.29-15.999-19.875-10.652-28.112 5.346-8.236 18.784-9.004 30.013-1.715 11.229 7.291 15.997 19.876 10.65 28.113z" fill="url(#q)"/><path d="M29.2.024l-8.473 1.061-1.061 8.573-1.488.664-7.269-3.634-4.873 5.658-.99 9.147 3.991 3.642-7.652.206L0 34.507l1.017 9.832 9.135.939c.152.31 2.282 4.642 2.484 5.05l-2.175 2.024-2.335 8.292 8.1 9.162 7.638-5.526 8.883 5.46.099 10.838 10.367 2.064 5.882-7.81s.245-1.647.308-2.086l4.743-.16 5.378 8.265 7.713-4.106 6.558-7.737-.093.077.256-.527-2.743-5.145 3.048 1.601 7.385-7.741 1.13-8.326-7.1-5.3c-.014-.239-.063-1.114-.073-1.314.164-.203 5.104-6.265 5.104-6.265l-3.76-7.63-5.945-1.273-5.038-6.65 2.562-3.416-6.416-5.966-4.568 2.231-7.281-4.954c-.01-.323-.107-3.844-.107-3.844L41.392.858l-1.924 5.024-6.34-1.19L29.397 0zm-.106.713l3.65 4.59 7.163 1.344 1.874-4.893 7.691 3.254c.012.395.104 3.752.104 3.752l7.91 5.381 4.501-2.198 5.609 5.216-2.501 3.335 5.51 7.273 5.868 1.256 3.414 6.928-4.991 6.128.105 1.906 7.033 5.25-1.045 7.699-6.868 7.199a818.72 818.72 0 0 1-4.37-2.416s3.202 6.41 3.456 6.885l-6.414 7.568c-.111.06-6.52 3.47-7.036 3.746l-5.243-8.06-5.714.192-.367 2.484c-.102.136-5.265 6.99-5.512 7.32l-9.387-1.868-.096-10.658-9.606-5.904-7.503 5.428c-.388-.44-7.197-8.14-7.434-8.406.098-.344 2.13-7.562 2.18-7.74l2.411-2.242-2.88-5.86-8.956-.92-.95-9.182 1.286-8.504 8.793-.237-5.003-4.565c.037-.332.906-8.376.929-8.581.13-.153 4.058-4.712 4.378-5.085l7.079 3.54 2.146-.96 1.043-8.424 7.743-.97z" fill="url(#r)"/><path d="M34.05 48.597c-6.679-4.334-11.5-10.843-12.896-17.408-.96-4.512-.29-8.711 1.938-12.143 2.228-3.433 5.79-5.755 10.303-6.714 6.566-1.397 14.473.357 21.15 4.693a33.001 33.001 0 0 1 6.501 5.525 53.732 53.732 0 0 0 2.638-7.373l-2.125-1.976-3.823 1.868a1.043 1.043 0 0 1-1.043-.075l-7.478-5.089a1.04 1.04 0 0 1-.455-.832l-.085-3.07-6.493-2.745-1.483 3.873c-.18.47-.67.744-1.165.652l-6.646-1.247a1.037 1.037 0 0 1-.622-.375l-3.267-4.108-5.562.752 2.756 4.783a1.038 1.038 0 0 1-.477 1.47l-6.75 3.013a1.04 1.04 0 0 1-.89-.019l-6.318-3.16-3.048 3.715 5.685 4.332a1.042 1.042 0 0 1 .386 1.06l-1.767 7.789a1.04 1.04 0 0 1-.958.81l-8.147.456.829 7.624c1.401.136 8.712.852 8.712.852.352.034.661.244.824.558l4.777 9.243a1.041 1.041 0 0 1-.206 1.232l-6.006 5.73 2.789 3a56.585 56.585 0 0 0 19.796-5.853c-.464-.27-.923-.549-1.375-.843z" fill="url(#s)"/></pattern></defs><linearGradient id="t"><stop offset="0" stop-color="#003dc7"/><stop offset="1" stop-color="#4ca4ff"/></linearGradient><linearGradient id="u" x1="63.271" x2="63.271" y1="34.586" y2="71.584" gradientUnits="userSpaceOnUse" xlink:href="#t" gradientTransform="matrix(.69432 0 0 .69432 36.34 39.127)"/><linearGradient id="h" x1="68.251" x2="68.251" y1="-3.418" y2="58.083" gradientUnits="userSpaceOnUse"><stop offset="0" stop-color="#000051"/><stop offset="1" stop-color="#58b1ff"/></linearGradient><radialGradient id="i" cx="73.427" cy="136.784" r="53.152" gradientUnits="userSpaceOnUse"><stop offset="0" stop-color="#fff"/><stop offset="1" stop-color="#006aca"/></radialGradient><radialGradient id="j" cx="80.671" cy="122.686" r="116.781" gradientUnits="userSpaceOnUse"><stop offset="0" stop-color="#caffff"/><stop offset="1" stop-color="#0090ff"/></radialGradient><radialGradient id="k" cx="69.948" cy="120.588" r="95.498" gradientUnits="userSpaceOnUse"><stop offset="0" stop-color="#fff"/><stop offset="1" stop-color="#0095ff"/></radialGradient><linearGradient id="z" x1="63.999" x2="63.999" y1="59.084" y2="145.082" gradientUnits="userSpaceOnUse" xlink:href="#t" gradientTransform="matrix(.69432 0 0 .69432 36.34 39.127)"/><radialGradient id="l" cx="-11.043" cy="-11.376" r="103.43" gradientUnits="userSpaceOnUse"><stop offset="0" stop-color="#fff"/><stop offset="1" stop-color="#8bceff"/></radialGradient><path d="M70.263 64.543c-3.996.703-7.23 2.675-9.349 5.704l-.067.095.006.118c.081 2.192.587 4.45 1.504 6.71l.035.084c.354.862.772 1.73 1.243 2.581l.055.097.716 1.204.065.102.83 1.229.081.11.799 1.049.188.235a30.131 30.131 0 0 0 2.245 2.467c0 .002.895.85.895.85l.232.214 1.153.983.255.201.992.761.347.253 1.295.891 1.484.902.343.198 1.481.787.188.09 1.368.628.326.141 1.5.586.276.097-.002-.002 1.358.441.258.076 1.513.392.31.068 1.426.276.124.021 1.518.198.3.029c1.007.09 2.015.122 2.995.09l.26-.008 1.456-.107.09-.01 1.358-.201c.003-.002.197-.036.197-.036l1.38-.313.14-.04 1.258-.398.11-.035 1.263-.521.107-.05c.066-.031 1.26-.653 1.26-.653l.145-.076.02-.152c1.666-8.023-3.046-17.751-11.46-23.66-5.667-3.984-12.182-5.695-17.87-4.696zm.12.681c5.508-.969 11.834.702 17.356 4.581 7.1 4.986 11.5 12.738 11.5 19.766 0 1.032-.111 2.046-.306 3.036l-.992.517-.164.077-1.212.498-.105.036-1.211.382-.147.042-1.32.3-.193.034-1.313.194a3.543 3.543 0 0 0-.079.01l-1.415.104-.253.008c-.951.031-1.932 0-2.911-.088l-.29-.027-1.479-.193-.123-.021-1.39-.27c-.003-.002-.303-.067-.303-.067l-1.474-.381-.256-.076-1.325-.43-.27-.093-1.466-.573-.319-.138-1.338-.615-.185-.09-1.45-.77-.31-.177-1.478-.9-1.268-.871-.342-.248-.97-.744-.25-.197-1.128-.964-.226-.208-.876-.831-.256-.254a29.904 29.904 0 0 1-1.939-2.156l-.184-.231-.78-1.024c-.042-.059-.08-.109-.08-.109l-.81-1.197a56.482 56.482 0 0 0-.063-.102l-.672-1.125a24.363 24.363 0 0 1-1.285-2.644L63 76.91c-.87-2.145-1.347-4.282-1.438-6.357 2.012-2.82 5.054-4.668 8.822-5.33z" fill="url(#u)"/><path d="M119.806 78.444l-3.859-.034-1.643.066.333 5.984z" fill="#fff"/><path d="M93.548 59.833c-11.404-7.404-25.053-6.625-30.483 1.74-1.725 2.657-2.41 5.76-2.18 8.994 5.01-7.798 17.048-8.438 27.137-1.35 8.695 6.104 13.135 15.978 11.292 23.79 2.043-1.118 3.776-2.658 5.05-4.623 5.433-8.365.589-21.149-10.816-28.551z" fill="url(#v)"/><path d="M50.155 94.782l-2.258 8.016 7.768 8.785 7.57-5.479 9.244 5.684.098 10.747 9.876 1.966 5.698-7.564.337-2.285 5.228-.177 5.31 8.163 7.375-3.926 6.515-7.685.122-.063-3.273-6.14 3.814 2.005 7.126-7.472 1.088-8.012-7.068-5.275-.088-1.61 5.047-6.196-3.587-7.278-5.906-1.265-5.274-6.961 2.531-3.376-6.012-5.59-4.535 2.213-7.595-5.167-.105-3.798-8.228-3.481-1.899 4.958-6.751-1.266-3.692-4.641-8.205 1.027-1.053 8.499-1.816.812-7.173-3.588-4.626 5.371-.959 8.865 4.496 4.103-8.223.222-1.335 8.835.983 9.508 9.046.929 2.683 5.455zm54.21-6.399c-5.43 8.367-19.078 9.147-30.482 1.743-11.405-7.404-16.247-20.187-10.817-28.554 5.43-8.365 19.078-9.144 30.482-1.74 11.405 7.403 16.249 20.187 10.816 28.551z" fill="url(#w)"/><path d="M114.216 85.974l-.416-7.477 5.298-.21-3.531-7.165-5.816-1.246-5.193-6.854 2.493-3.324-5.92-5.505-4.465 2.182-7.479-5.09-.102-3.738-8.103-3.426-1.868 4.88-6.646-1.245-3.635-4.571-7.686 1.038 3.53 6.127-6.75 3.013-7.062-3.531-4.258 5.192 6.543 4.986-1.767 7.79-9.243.517 1.04 9.557 9.554.934 4.778 9.242-6.75 6.44 8.203 8.826 7.997-5.504 9.763 5.712.103 10.801 11.217 2.078 1.453-9.866 9.66-.313 5.607 8.204 7.79-3.945-4.986-9.348 5.088-6.334 7.479 3.74 1.038-7.375zm-10.201 2.278c-5.345 8.235-18.784 9.003-30.012 1.714-11.23-7.289-15.998-19.875-10.651-28.111 5.346-8.237 18.784-9.005 30.012-1.715 11.23 7.29 15.997 19.875 10.65 28.112z" fill="url(#x)"/><path d="M114.216 85.974l-.416-7.477 5.298-.21-3.531-7.165-5.816-1.246-5.193-6.854 2.493-3.324-5.92-5.505-4.465 2.182-7.479-5.09-.102-3.738-8.103-3.426-1.868 4.88-6.646-1.245-3.635-4.571-7.686 1.038 3.53 6.127-6.75 3.013-7.062-3.531-4.258 5.192 6.543 4.986-1.767 7.79-9.243.517 1.04 9.557 9.554.934 4.778 9.242-6.75 6.44 8.203 8.826 7.997-5.504 9.763 5.712.103 10.801 11.217 2.078 1.453-9.866 9.66-.313 5.607 8.204 7.79-3.945-4.986-9.348 5.088-6.334 7.479 3.74 1.038-7.375zm-10.201 2.278c-5.345 8.235-18.784 9.003-30.012 1.714-11.23-7.289-15.998-19.875-10.651-28.111 5.346-8.237 18.784-9.005 30.012-1.715 11.23 7.29 15.997 19.875 10.65 28.112z" fill="url(#y)"/><path d="M68.588 42.266l-8.474 1.061-1.061 8.573-1.488.665-7.27-3.635-4.872 5.658-.99 9.147 3.991 3.642-7.652.206-1.385 9.166 1.017 9.832 9.134.939 2.485 5.051-2.176 2.023-2.335 8.293 8.102 9.161 7.637-5.526 8.883 5.46.099 10.838 10.367 2.065 5.882-7.81.308-2.087 4.743-.16 5.378 8.265 7.713-4.106 6.558-7.737-.093.077.256-.527-2.743-5.145 3.048 1.602 7.384-7.742 1.131-8.326-7.101-5.3-.072-1.314 5.104-6.265-3.76-7.63-5.945-1.273-5.038-6.65 2.562-3.416-6.416-5.965-4.569 2.23-7.28-4.954c-.01-.322-.107-3.844-.107-3.844L80.779 43.1s-1.74 4.54-1.924 5.024c-.512-.096-6.106-1.145-6.34-1.19l-3.732-4.692zm-.107.714l3.65 4.589 7.163 1.344 1.874-4.893 7.691 3.255c.012.395.104 3.752.104 3.752l7.91 5.38 4.501-2.198 5.609 5.216-2.501 3.335 5.51 7.273 5.868 1.257c.138.28 3.23 6.557 3.414 6.927l-4.991 6.128.105 1.906 7.033 5.25-1.046 7.699-6.867 7.2c-.41-.215-4.37-2.416-4.37-2.416s3.202 6.41 3.455 6.884l-6.414 7.568c-.11.06-6.52 3.47-7.035 3.746l-5.244-8.06-5.713.192-.367 2.485-5.513 7.32-9.386-1.869-.097-10.657-9.605-5.905-7.503 5.428-7.434-8.406c.098-.344 2.13-7.562 2.18-7.74l2.411-2.242-2.88-5.86-8.957-.92-.95-9.182 1.287-8.504 8.792-.237-5.002-4.565c.037-.332.906-8.376.929-8.581.13-.153 4.057-4.712 4.378-5.085l7.079 3.54 2.146-.959 1.043-8.425 7.743-.97z" fill="url(#z)"/><path d="M73.436 90.84c-6.678-4.334-11.5-10.844-12.895-17.408-.96-4.513-.29-8.712 1.937-12.144 2.228-3.433 5.791-5.755 10.304-6.714 6.566-1.397 14.472.357 21.15 4.693a33.001 33.001 0 0 1 6.501 5.525 53.732 53.732 0 0 0 2.638-7.373l-2.125-1.976-3.823 1.868a1.043 1.043 0 0 1-1.043-.074l-7.479-5.09a1.04 1.04 0 0 1-.454-.832l-.085-3.07-6.493-2.745-1.483 3.873c-.18.47-.67.744-1.165.652l-6.646-1.247a1.037 1.037 0 0 1-.623-.375l-3.266-4.108-5.562.752a23176.5 23176.5 0 0 0 2.756 4.783 1.038 1.038 0 0 1-.477 1.47l-6.75 3.014a1.04 1.04 0 0 1-.89-.02l-6.319-3.159-3.047 3.715 5.685 4.331a1.042 1.042 0 0 1 .385 1.06L52.4 68.03a1.04 1.04 0 0 1-.957.81l-8.147.456.829 7.624 8.711.852c.352.034.662.244.825.558l4.777 9.243a1.041 1.041 0 0 1-.206 1.232l-6.006 5.73 2.788 3a56.585 56.585 0 0 0 19.797-5.853c-.465-.27-.923-.549-1.375-.843z" fill="url(#A)"/><path d="M125.212 128H36.339V39.127h88.873z" fill="none"/><path fill="url(#B)" d="M5.835 3.115h82.779v82.642H5.835z"/><path d="M91.66 88.873H2.789V0h88.873z" fill="none"/></svg>