<svg width="5214" height="1401" fill="none" xmlns="http://www.w3.org/2000/svg"><g clip-path="url(#a)"><path d="M100 695.5c0-2.8 1.333-3.167 2-3l21.5 18V797c.667 26.167 2 79.5 2 83.5s-3.333 7.667-5 9c-18 17.167-54.9 52.3-58.5 55.5-3.6 3.2-7.167 5.333-8.5 6l1.5-81.5 2-3.5 40.5-44c.833-41 2.5-123.7 2.5-126.5Z" fill="url(#b)"/><path d="m843.5 1308-62-48-34.5 48h96.5Z" fill="url(#c)"/><path d="m972.5 1305-91.5-74 1.469 74H972.5Z" fill="url(#d)"/><path d="m536.5 1306-90.031-68.5.531 68.5h89.5Z" fill="#D9D9D9"/><path d="m536.5 1306-90.031-68.5.531 68.5h89.5Z" fill="url(#e)"/><path d="m338.031 1307.5-91.031-69 1.531 69h89.5Z" fill="url(#f)"/><path d="M145 1031v-4h93l222.5-211.5 5 1.5L245 1031H145Z" fill="url(#g)"/><path d="m447 1306-184-288 109.5-6 74.5 226v68Z" fill="url(#h)"/><path d="m465.5 816.5-205 198.5 12 18 105-5 95-211.5h-7Z" fill="url(#i)"/><path d="m747 1308 19-404.5 15-1.5 49 199-47 160-36 47Z" fill="url(#j)"/><path d="m145 1026 72-421.5 249.5 208L241 1029h-96v-3Z" fill="url(#k)"/><path d="M468 816 204.5 591.5 473 178h4l129 169.5 107.5-175h4l268 316.5v3L839 660 468 816Z" fill="#FBF098"/><path d="m218 602.5 387.5-239 224 284.5L467 815.5l-249-213Z" fill="url(#l)"/><path d="M882.5 1305 770 888.5l36-42 179-64 28.5 46.5-43 17.5-88 458.5Z" fill="url(#m)"/><path d="M221.5 606 123 712l-21.5-19.5 102-102.5 18 16Z" fill="url(#n)"/><path d="M267.5 655c-28.4-24.4-54-51.667-64.5-64.5C291.333 662.667 468.1 808 468.5 812c.5 5-4.5 7-8.5 3.5S303 685.5 267.5 655Z" fill="url(#o)"/><path d="m766 908-297.5-90v-8.5l369-170.5 177 189.5L766 908Z" fill="url(#p)"/><path d="M837.5 648.5 985 490l311.5 188.5-283 151L820 654l5-4 12.5-1.5Z" fill="url(#q)"/><path d="m1292 680.5-279 149-27.5-335 306.5 186Z" fill="#5A421D"/><path d="M1016 823.5 988.5 496l304 184.5-276.5 143Z" fill="url(#r)"/><path d="M1016 823.5 988.5 496l304 184.5-276.5 143Z" fill="url(#s)"/><path d="M1047 528.5V169l172.5 108 77 402L1047 528.5Z" fill="url(#t)"/><path d="m1220 285-16.5-17.5L1280 210l154 21-214 54Z" fill="#2E1E05"/><path d="m1047.5 169.5 183.5 178-8.54-48.5-2.46-14-15.5-16.5-157-99Z" fill="url(#u)"/><path d="m1046.5 169 53.5-76.5 266 50-165.5 129-154-102.5Z" fill="url(#v)"/><path d="m1055 170.5 67.5-15.5 72.5 108-140-92.5Z" fill="url(#w)"/><path d="m1272 213-76 55.5-72-114 27-6 108-26 107 20-94 70.5Z" fill="url(#x)"/><path d="m1046.5 169 53.5-76.5 151.5 28-205 48.5Z" fill="url(#y)"/><path d="m1196 268-72-113.5-4 1 72.5 110 3.5 2.5Z" fill="#3C280C" fill-opacity=".7"/><path d="m1281 208.5 84.5-65.5 67.5 87.5-152-22Z" fill="url(#z)"/><path d="M985.5 494.5 834 658.5 1012.5 823l-27-328.5Z" fill="url(#A)"/><path d="m607.5 352.5 109-175.5 268 313.5-147 158h-7l-223-296Z" fill="url(#B)"/><path d="M607.5 353.5 475 180.5 214.5 579 203 590.5l13 10.5 391.5-247.5Z" fill="#D9D9D9"/><path d="M607.5 353.5 475 180.5 214.5 579 203 590.5l13 10.5 391.5-247.5Z" fill="url(#C)"/><path d="M472.5 819c4.814-2.253 296.138-136.068 338-157 6.715-3.358 22.129-10.146 25-12 6.963-4.495-6.146-1.084-6.5-2.5C724.114 692.331 461.494 809.268 460 813c-1.868 4.665 7.812 5.462 12.5 6Z" fill="url(#D)"/><path d="m544.5 579.5 61-216 224 284.5L467 815.5l77.5-236Z" fill="url(#E)"/><path d="M218 602.5h5L469.5 807l-2.5 8.5-249-213Z" fill="url(#F)"/><path d="m470 807 354-166 3.5 7.5-360.5 167 3-8.5Z" fill="url(#G)"/><path d="m885 1256.5 2.5-19 1.5-4.5 1.5 72h-8l2.5-48.5Z" fill="url(#H)"/><path d="M968 847c-60 18.5-181.9 58.8-183.5 58l98 400 4.5-55 81-403Z" fill="url(#I)"/><path d="M244 1026h-99v3h96l3-3Z" fill="#FAF2AE"/><path d="M245 1031H145l103.5 276.5L245 1031Z" fill="url(#J)"/><path d="m122.5 713.5-22.5-19-2.5 128 24.5-26 .5-83Z" fill="url(#K)"/><path d="m250 1307.5-2-281-6 4 6.5 277h1.5Z" fill="url(#L)"/><path d="m59 867 63-66.5c.667 26.833 2 80.8 2 82 0 1.2-2.667 3.167-4 4L59 867Z" fill="url(#M)"/><path d="m118 889-61-20-1.5 79.5L118 889Z" fill="url(#N)"/><path d="m58.5 867.5 1-1c18.833 5.167 57.4 16.8 63 18 0 1-3 2.5-4 2.5-.8 0-40-12.833-60-19.5Z" fill="#D9D9D9"/><path d="m58.5 867.5 1-1c18.833 5.167 57.4 16.8 63 18 0 1-3 2.5-4 2.5-.8 0-40-12.833-60-19.5Z" fill="url(#O)"/></g><path d="M4810 390.281c-74.48 0-133.72 27.761-177.73 83.281-43.68 55.521-65.51 131.185-65.51 226.993 0 95.468 21.83 170.963 65.51 226.484 44.01 55.521 103.25 83.281 177.73 83.281 74.48 0 133.39-27.76 176.72-83.281 43.67-55.521 65.51-131.016 65.51-226.484 0-95.808-21.84-171.472-65.51-226.993-43.33-55.52-102.24-83.281-176.72-83.281Zm0-83.281c106.3 0 191.28 35.716 254.92 107.148 63.65 71.094 95.47 166.563 95.47 286.407 0 119.505-31.82 214.974-95.47 286.406C5001.28 1058.05 4916.3 1093.6 4810 1093.6c-106.64 0-191.95-35.55-255.94-106.639-63.64-71.094-95.47-166.563-95.47-286.406 0-119.844 31.83-215.313 95.47-286.407C4618.05 342.716 4703.36 307 4810 307ZM3761.37 320.711h641.36v86.328h-269.14v671.841h-103.08V407.039h-269.14v-86.328ZM3355.62 390.281c-74.47 0-133.72 27.761-177.73 83.281-43.67 55.521-65.51 131.185-65.51 226.993 0 95.468 21.84 170.963 65.51 226.484 44.01 55.521 103.26 83.281 177.73 83.281 74.48 0 133.39-27.76 176.72-83.281 43.68-55.521 65.51-131.016 65.51-226.484 0-95.808-21.83-171.472-65.51-226.993-43.33-55.52-102.24-83.281-176.72-83.281Zm0-83.281c106.31 0 191.28 35.716 254.93 107.148 63.64 71.094 95.47 166.563 95.47 286.407 0 119.505-31.83 214.974-95.47 286.406-63.65 71.089-148.62 106.639-254.93 106.639-106.64 0-191.95-35.55-255.93-106.639-63.65-71.094-95.47-166.563-95.47-286.406 0-119.844 31.82-215.313 95.47-286.407C3163.67 342.716 3248.98 307 3355.62 307ZM2607.62 421.766 2468.48 799.07h278.79l-139.65-377.304Zm-57.89-101.055h116.29l288.94 758.169h-106.64l-69.06-194.497H2437.5l-69.06 194.497h-108.17l289.46-758.169Z" fill="#B98A1C"/><path d="M1690 320.711h102.58v320.43l340.23-320.43h132.03l-376.29 353.437 403.21 404.732h-135.08l-364.1-365.122v365.122H1690V320.711Z" fill="#B98A1C"/><defs><linearGradient id="b" x1="114" y1="861" x2="132.274" y2="892.426" gradientUnits="userSpaceOnUse"><stop stop-color="#F6E799"/><stop offset="1" stop-color="#876129"/></linearGradient><linearGradient id="c" x1="795.25" y1="1258" x2="795.25" y2="1308" gradientUnits="userSpaceOnUse"><stop stop-color="#805825"/><stop offset="1" stop-color="#69491B"/></linearGradient><linearGradient id="d" x1="929.735" y1="1254.66" x2="929.735" y2="1305" gradientUnits="userSpaceOnUse"><stop stop-color="#805825"/><stop offset="1" stop-color="#69491B"/></linearGradient><linearGradient id="e" x1="441.087" y1="1247.4" x2="483.605" y2="1334.27" gradientUnits="userSpaceOnUse"><stop stop-color="#251105"/><stop offset="1" stop-color="#533918"/></linearGradient><linearGradient id="f" x1="169.5" y1="1226" x2="231.139" y2="1339.34" gradientUnits="userSpaceOnUse"><stop stop-color="#251105"/><stop offset="1" stop-color="#7E5826"/></linearGradient><linearGradient id="g" x1="130" y1="881.5" x2="235.5" y2="956" gradientUnits="userSpaceOnUse"><stop stop-color="#251105"/><stop offset="1" stop-color="#533918"/></linearGradient><linearGradient id="h" x1="252" y1="1054.5" x2="444.5" y2="1177" gradientUnits="userSpaceOnUse"><stop stop-color="#251105"/><stop offset="1" stop-color="#533918"/></linearGradient><linearGradient id="i" x1="336" y1="935" x2="369.643" y2="1033.27" gradientUnits="userSpaceOnUse"><stop stop-color="#251105"/><stop offset="1" stop-color="#533918"/></linearGradient><linearGradient id="j" x1="789.25" y1="903.5" x2="789.25" y2="1308.5" gradientUnits="userSpaceOnUse"><stop stop-color="#251105"/><stop offset="1" stop-color="#533918"/></linearGradient><linearGradient id="k" x1="290.897" y1="704.28" x2="560.862" y2="905.737" gradientUnits="userSpaceOnUse"><stop stop-color="#F6E799"/><stop offset="1" stop-color="#876129"/></linearGradient><linearGradient id="l" x1="495.5" y1="470.5" x2="786" y2="855" gradientUnits="userSpaceOnUse"><stop stop-color="#F6E799"/><stop offset="1" stop-color="#876129"/></linearGradient><linearGradient id="m" x1="845.5" y1="1160" x2="912.528" y2="1182.53" gradientUnits="userSpaceOnUse"><stop stop-color="#F6E799"/><stop offset="1" stop-color="#876129"/></linearGradient><linearGradient id="n" x1="65.5" y1="724.5" x2="65.627" y2="606.84" gradientUnits="userSpaceOnUse"><stop stop-color="#8B6228"/><stop offset=".964" stop-color="#4D3410"/></linearGradient><linearGradient id="o" x1="408" y1="704" x2="335.767" y2="817.261" gradientUnits="userSpaceOnUse"><stop stop-color="#3C280C"/><stop offset="1" stop-color="#A26C20"/></linearGradient><linearGradient id="p" x1="1011.5" y1="853" x2="620.5" y2="695.5" gradientUnits="userSpaceOnUse"><stop stop-color="#F6E799"/><stop offset="1" stop-color="#876129"/></linearGradient><linearGradient id="q" x1="916.5" y1="583" x2="1039" y2="873" gradientUnits="userSpaceOnUse"><stop stop-color="#FDF6BD"/><stop offset="1" stop-color="#99753E"/></linearGradient><linearGradient id="r" x1="1141.5" y1="496.5" x2="1141.5" y2="825.5" gradientUnits="userSpaceOnUse"><stop stop-color="#D9D9D9"/><stop offset="1" stop-color="#737373"/></linearGradient><linearGradient id="s" x1="1141.5" y1="496.5" x2="1141.5" y2="825.5" gradientUnits="userSpaceOnUse"><stop stop-color="#F6E799"/><stop offset="1" stop-color="#876129"/></linearGradient><linearGradient id="t" x1="1171.75" y1="169" x2="1171.75" y2="679" gradientUnits="userSpaceOnUse"><stop stop-color="#F6E799"/><stop offset="1" stop-color="#876129"/></linearGradient><linearGradient id="u" x1="1150.5" y1="283" x2="1174" y2="249" gradientUnits="userSpaceOnUse"><stop stop-color="#58401B" stop-opacity="0"/><stop offset="1" stop-color="#58401B"/></linearGradient><linearGradient id="v" x1="1144" y1="156" x2="1234.5" y2="218" gradientUnits="userSpaceOnUse"><stop offset=".327" stop-color="#FFFEE0"/><stop offset="1" stop-color="#F4E593"/></linearGradient><linearGradient id="w" x1="1110.5" y1="222" x2="1162" y2="205.5" gradientUnits="userSpaceOnUse"><stop stop-color="#CEB569"/><stop offset="1" stop-color="#876430"/></linearGradient><linearGradient id="x" x1="1175" y1="154" x2="1197.5" y2="233" gradientUnits="userSpaceOnUse"><stop stop-color="#E9D685"/><stop offset="1" stop-color="#C9A859"/></linearGradient><linearGradient id="y" x1="1106" y1="154.5" x2="1191" y2="96" gradientUnits="userSpaceOnUse"><stop stop-color="#F7E78E"/><stop offset="1" stop-color="#F4ED89"/></linearGradient><linearGradient id="z" x1="1342.5" y1="220.5" x2="1402" y2="166.5" gradientUnits="userSpaceOnUse"><stop stop-color="#A07A3C"/><stop offset="1" stop-color="#916935"/></linearGradient><linearGradient id="A" x1="684.5" y1="592" x2="989.5" y2="698" gradientUnits="userSpaceOnUse"><stop stop-color="#F6E799"/><stop offset="1" stop-color="#876129"/></linearGradient><linearGradient id="B" x1="797" y1="177" x2="797" y2="644.5" gradientUnits="userSpaceOnUse"><stop stop-color="#F6E799"/><stop offset="1" stop-color="#876129"/></linearGradient><linearGradient id="C" x1="352.5" y1="232.5" x2="608" y2="494" gradientUnits="userSpaceOnUse"><stop stop-color="#F6E799"/><stop offset="1" stop-color="#876129"/></linearGradient><linearGradient id="D" x1="556.578" y1="724.838" x2="594.557" y2="853.691" gradientUnits="userSpaceOnUse"><stop stop-color="#3C280C"/><stop offset="1" stop-color="#A26C20"/></linearGradient><linearGradient id="E" x1="492.5" y1="480.5" x2="762" y2="743" gradientUnits="userSpaceOnUse"><stop stop-color="#F6E799"/><stop offset="1" stop-color="#876129"/></linearGradient><linearGradient id="F" x1="251.5" y1="539" x2="470" y2="829.5" gradientUnits="userSpaceOnUse"><stop stop-color="#F6E799"/><stop offset="1" stop-color="#876129"/></linearGradient><linearGradient id="G" x1="251.5" y1="539" x2="470" y2="829.5" gradientUnits="userSpaceOnUse"><stop stop-color="#F6E799"/><stop offset="1" stop-color="#876129"/></linearGradient><linearGradient id="H" x1="892.5" y1="1297" x2="886.555" y2="1296.95" gradientUnits="userSpaceOnUse"><stop stop-color="#876129"/><stop offset="1" stop-color="#472D09"/></linearGradient><linearGradient id="I" x1="749.5" y1="905" x2="987.895" y2="841.384" gradientUnits="userSpaceOnUse"><stop stop-color="#F6E799"/><stop offset="1" stop-color="#876129"/></linearGradient><linearGradient id="J" x1="192" y1="1289" x2="36.423" y2="1134.84" gradientUnits="userSpaceOnUse"><stop stop-color="#F6E799"/><stop offset=".964" stop-color="#876129"/></linearGradient><linearGradient id="K" x1="107.5" y1="722" x2="144.458" y2="732.785" gradientUnits="userSpaceOnUse"><stop stop-color="#F6E799"/><stop offset="1" stop-color="#876129"/></linearGradient><linearGradient id="L" x1="136.5" y1="830" x2="245.75" y2="1307" gradientUnits="userSpaceOnUse"><stop stop-color="#7F6435"/><stop offset="1" stop-color="#321D0B"/></linearGradient><linearGradient id="M" x1="92" y1="789.5" x2="141.144" y2="854.789" gradientUnits="userSpaceOnUse"><stop stop-color="#F6E799"/><stop offset="1" stop-color="#876129"/></linearGradient><linearGradient id="N" x1="24" y1="867.5" x2="104.892" y2="918.852" gradientUnits="userSpaceOnUse"><stop stop-color="#F6E799"/><stop offset="1" stop-color="#876129"/></linearGradient><linearGradient id="O" x1="39.15" y1="889.652" x2="39.157" y2="869.399" gradientUnits="userSpaceOnUse"><stop stop-color="#8B6228"/><stop offset=".964" stop-color="#4D3410"/></linearGradient><clipPath id="a"><path fill="#fff" transform="translate(53 92)" d="M0 0h1381v1216H0z"/></clipPath></defs></svg>
