<svg version="1.1" id="Layer_1" xmlns="http://www.w3.org/2000/svg" xmlns:xlink="http://www.w3.org/1999/xlink" x="0px" y="0px"
	 width="100%" viewBox="0 0 352 394" enable-background="new 0 0 352 394" xml:space="preserve">
<path fill="#191B1C" opacity="1.000000" stroke="none" 
	d="
M1.000000,142.000000 
	C1.000000,94.682343 1.000000,47.864689 1.000000,1.023515 
	C118.278374,1.023515 235.556763,1.023515 352.917572,1.023515 
	C352.917572,132.234375 352.917572,263.468811 352.917572,394.851624 
	C235.666809,394.851624 118.333427,394.851624 1.000000,394.851624 
	C1.000000,310.776489 1.000000,226.638245 1.000000,142.000000 
M312.916046,74.158180 
	C298.003357,61.086246 280.258148,57.126049 260.679230,57.434849 
	C256.495178,52.507633 252.746658,47.111763 248.044449,42.742165 
	C234.612335,30.260149 219.389099,20.788515 201.178329,16.716955 
	C199.557434,16.354555 197.721848,14.641997 196.978088,13.083152 
	C194.330002,7.533000 189.490189,6.011642 184.208649,6.301783 
	C173.310654,6.900462 162.435837,7.997255 151.569839,9.074478 
	C144.657013,9.759797 138.426971,11.552561 136.706070,19.770033 
	C136.487335,20.814558 134.680527,21.730278 133.428329,22.323158 
	C120.673996,28.362047 109.372505,36.393436 99.787399,46.765816 
	C96.430099,50.398872 93.268188,54.212490 89.097862,57.969872 
	C50.052441,58.233894 21.314478,87.004120 21.276968,126.035645 
	C21.219635,185.693176 21.201252,245.350922 21.284336,305.008392 
	C21.337215,342.978027 49.842789,372.274170 87.659599,372.479309 
	C148.315231,372.808319 208.975403,372.816986 269.630890,372.472137 
	C306.193176,372.264282 335.626556,343.597839 335.832214,307.948029 
	C336.188934,246.126205 336.103119,184.300018 335.812897,122.477493 
	C335.738800,106.692963 330.188049,92.521248 318.993134,80.162949 
	C317.072998,78.358948 315.152832,76.554947 312.916046,74.158180 
z"/>
<path fill="#2A2A2B" opacity="1.000000" stroke="none" 
	d="
M90.017052,57.943649 
	C93.268188,54.212490 96.430099,50.398872 99.787399,46.765816 
	C109.372505,36.393436 120.673996,28.362047 133.428329,22.323158 
	C134.680527,21.730278 136.487335,20.814558 136.706070,19.770033 
	C138.426971,11.552561 144.657013,9.759797 151.569839,9.074478 
	C162.435837,7.997255 173.310654,6.900462 184.208649,6.301783 
	C189.490189,6.011642 194.330002,7.533000 196.978088,13.083152 
	C197.721848,14.641997 199.557434,16.354555 201.178329,16.716955 
	C219.389099,20.788515 234.612335,30.260149 248.044449,42.742165 
	C252.746658,47.111763 256.495178,52.507633 260.847351,58.041122 
	C261.614471,59.469917 262.213440,60.292439 262.889832,61.463139 
	C266.256226,69.928398 270.911285,77.797859 272.440399,86.233932 
	C273.897095,94.270416 276.130524,98.969841 284.727844,100.341103 
	C289.756775,101.143196 292.861267,107.282532 292.447937,112.382721 
	C291.957520,118.434059 288.723969,122.630341 283.202301,123.908417 
	C279.915649,124.669174 276.531036,125.006821 273.010468,125.563118 
	C273.572876,127.635193 274.042419,129.365250 274.568115,131.302139 
	C276.530762,131.196503 278.327301,131.057037 280.126221,131.010300 
	C288.419647,130.794800 292.885590,134.130844 293.733948,142.179230 
	C294.848450,152.752747 295.357025,163.390121 295.933105,174.301544 
	C293.134491,182.653336 286.384705,183.701508 279.048553,184.010696 
	C278.042389,198.301086 271.492645,209.313004 259.929077,217.724182 
	C253.939407,219.582657 248.384186,222.349533 242.601501,222.959366 
	C219.471344,225.398651 196.269165,227.152451 173.096680,229.194290 
	C165.886383,229.829605 158.685699,230.573715 151.480606,231.268036 
	C153.313248,232.142426 155.107071,232.142197 156.900894,232.142471 
	C183.043137,232.146347 209.193695,231.741425 235.325165,232.274078 
	C259.432495,232.765503 280.492981,239.844406 292.655762,263.545532 
	C295.929565,274.443787 296.492371,284.978607 290.515076,294.586365 
	C287.049530,300.156799 282.212128,304.873779 277.694916,310.140320 
	C272.261810,314.601807 267.081024,318.846558 262.039734,323.250946 
	C261.311493,323.887207 261.123779,325.264160 260.905273,326.342773 
	C258.928986,336.097015 251.857101,342.914307 241.801208,344.154205 
	C236.576660,344.798401 231.270767,344.782867 225.540649,344.973755 
	C190.338165,344.874023 155.594742,345.048584 120.857063,344.681122 
	C114.940971,344.618561 109.049454,342.233582 102.950500,340.645996 
	C97.891380,336.710083 95.064590,331.864471 93.821815,325.901062 
	C93.501778,324.365417 92.176819,322.893799 90.998070,321.705719 
	C82.404602,313.044159 73.730598,304.462494 65.033096,295.495117 
	C64.336060,293.612488 63.598183,292.121704 63.053951,290.563263 
	C58.439911,277.350708 59.511959,264.680084 68.870125,254.054459 
	C73.899437,248.344025 80.728813,244.218933 87.077118,239.281952 
	C95.139023,236.745483 102.869766,234.305573 110.817474,231.797195 
	C96.448540,226.418533 87.006485,216.407104 83.754959,201.186340 
	C82.105881,201.186340 80.785973,201.119278 79.474655,201.197006 
	C69.398033,201.794266 65.365219,198.602417 64.282608,188.618149 
	C63.351891,180.034744 62.700508,171.418381 62.067200,162.806183 
	C61.515244,155.300247 64.087082,149.026016 74.574554,149.065353 
	C79.295341,149.083038 79.725113,146.880219 78.616737,142.997543 
	C76.216805,142.997543 74.072983,143.027298 71.930252,142.991577 
	C66.908562,142.907883 62.370453,139.306137 60.892933,134.268982 
	C58.983463,127.759224 59.993702,122.039276 64.995125,120.134590 
	C73.439941,116.918549 75.791595,111.787697 75.778412,102.844849 
	C75.756104,87.719307 81.347343,73.749931 89.234344,60.543198 
	C89.690994,59.579330 89.854019,58.761490 90.017052,57.943649 
M221.874435,122.953011 
	C226.944244,122.500504 232.014069,122.047989 237.997589,121.587776 
	C242.665665,121.040352 247.333725,120.492935 252.902451,120.094604 
	C261.838287,119.376671 270.807922,118.916229 279.685211,117.751930 
	C281.790649,117.475784 284.376160,115.185875 285.259644,113.172340 
	C285.896729,111.720459 284.510559,108.836624 283.214874,107.257774 
	C282.227112,106.054169 280.012177,105.620224 278.261841,105.322945 
	C272.220673,104.296898 267.090424,102.446480 267.115997,94.153503 
	C265.656219,88.439812 264.196442,82.726120 262.640411,76.331123 
	C260.405792,72.222122 258.171204,68.113129 255.813934,63.328857 
	C253.276367,59.994793 250.738785,56.660725 247.937363,52.761852 
	C245.695770,50.472233 243.454178,48.182613 240.905670,45.283539 
	C237.738693,42.784222 234.571701,40.284908 230.948776,37.255905 
	C226.285370,34.601990 221.621964,31.948074 216.511917,28.723454 
	C210.875854,26.685913 205.239807,24.648371 198.484604,22.206238 
	C199.647400,34.143356 200.668945,44.630512 201.649277,56.023609 
	C202.070328,61.265469 202.692368,66.503479 202.792679,71.751472 
	C202.823654,73.372696 201.804062,75.892700 200.588898,76.409103 
	C199.400986,76.913918 197.349915,75.387573 195.703888,73.863228 
	C195.179413,69.901443 194.654953,65.939651 194.211151,61.082317 
	C194.001831,58.390919 193.792496,55.699520 193.731232,52.218159 
	C193.314697,48.481350 192.898148,44.744541 192.521240,40.118221 
	C192.201675,37.050476 191.882111,33.982735 191.639359,29.994392 
	C191.364380,26.193913 191.110718,22.391733 190.808060,18.593458 
	C190.541412,15.247196 188.963013,13.516268 185.339523,13.848110 
	C172.977798,14.980201 160.606339,16.006155 148.238525,17.071709 
	C145.027573,17.348349 144.014633,19.438095 144.267349,22.246374 
	C144.860275,28.835503 145.597748,35.411629 146.199875,42.838192 
	C146.788498,48.226921 147.377121,53.615650 147.890503,59.778984 
	C148.026108,61.534283 148.161728,63.289581 148.286270,65.975395 
	C148.546860,69.789703 149.070007,73.613312 148.935471,77.413635 
	C148.883560,78.880119 147.338379,80.293732 146.473541,81.731430 
	C144.871597,80.748772 143.269653,79.766113 141.699936,77.875427 
	C140.712173,67.252838 139.724411,56.630253 138.809097,45.139843 
	C138.329697,39.751301 137.850296,34.362759 137.234421,27.440119 
	C130.316330,31.639563 124.094650,34.733524 118.640854,38.845856 
	C95.873497,56.013149 82.643600,78.700058 82.310692,107.500984 
	C82.209198,116.281586 80.562943,121.765503 71.686188,123.946579 
	C68.173264,124.809723 66.393417,127.429207 67.170151,131.099304 
	C67.944550,134.758301 70.517815,136.271713 74.192863,135.898300 
	C80.464661,135.261063 86.733772,134.597397 93.885811,134.029892 
	C102.591591,133.264938 111.297371,132.499985 120.830574,131.789688 
	C128.607910,131.058441 136.385239,130.327209 145.076279,129.680161 
	C151.385880,129.063278 157.695465,128.446411 164.874588,127.953804 
	C170.918106,127.282112 176.961639,126.610420 183.899414,126.089424 
	C190.301102,125.499580 196.702789,124.909737 204.015594,124.361473 
	C209.678757,123.849869 215.341919,123.338272 221.874435,122.953011 
M122.915779,225.751755 
	C124.746414,225.757599 126.589615,225.906937 128.405807,225.747894 
	C158.207352,223.138290 188.010056,220.539749 217.801727,217.820709 
	C227.204239,216.962570 236.575165,215.758377 246.705688,214.806137 
	C263.046814,210.850983 272.608459,196.314896 271.452606,180.962769 
	C270.655121,170.370468 269.835999,159.776520 268.778625,149.208115 
	C268.007874,141.504318 266.832764,133.840973 265.785095,125.751732 
	C261.513947,126.284836 258.249023,126.692345 254.118912,126.983208 
	C248.655792,127.395271 243.187576,127.749405 237.730377,128.228760 
	C200.538284,131.495636 163.346024,134.761307 126.159691,138.092789 
	C116.761261,138.934784 107.384087,140.013962 97.099236,140.856812 
	C94.126068,140.997528 91.152893,141.138260 87.609871,141.305954 
	C87.340866,143.695633 86.719429,145.979141 86.891586,148.201172 
	C88.211006,165.231140 89.125160,182.320236 91.275871,199.249863 
	C93.230934,214.639450 107.432716,226.106857 122.915779,225.751755 
M123.531845,337.155487 
	C140.363510,337.155487 157.195190,337.155548 174.026855,337.155487 
	C195.191452,337.155426 216.356140,337.188293 237.520615,337.138367 
	C245.701935,337.119080 250.465393,333.857483 252.633453,326.983978 
	C251.149216,327.085632 249.711792,327.184082 247.942917,327.305267 
	C244.024673,305.138885 240.150864,283.223816 236.153259,260.608521 
	C242.701187,260.608521 248.227707,260.608521 253.726608,260.608521 
	C254.785385,245.919937 249.179031,239.845245 234.682602,239.844772 
	C206.352036,239.843857 178.021454,239.842377 149.690887,239.845581 
	C138.358871,239.846863 127.024574,239.723907 115.695648,239.914856 
	C107.984184,240.044815 102.051941,245.479126 101.155357,252.966232 
	C100.844269,255.564026 101.105820,258.230408 101.105820,260.872681 
	C107.390144,260.872681 113.376968,260.872681 119.728790,260.872681 
	C115.663567,283.653839 111.760155,305.528229 107.857895,327.396149 
	C105.614326,327.191650 103.896179,327.035034 102.187019,326.879211 
	C102.187019,327.587189 102.104874,327.942322 102.205841,328.234100 
	C102.366310,328.697754 102.632942,329.128510 102.882385,329.557037 
	C107.409302,337.334320 114.886765,337.481812 123.531845,337.155487 
M91.121758,275.626373 
	C84.004494,283.625763 81.926537,292.864471 85.532913,302.856110 
	C88.242973,310.364471 93.346779,315.979492 101.889336,318.332397 
	C104.906395,301.284576 107.838814,284.715027 110.821579,267.860962 
	C102.894829,267.183075 96.992683,270.453400 91.121758,275.626373 
M246.025238,273.698395 
	C248.695557,288.543854 251.365860,303.389282 254.055084,318.339844 
	C268.108673,313.624054 275.128082,299.015503 270.585236,285.159912 
	C266.644836,273.141602 252.561569,265.615540 245.175415,268.570618 
	C245.416107,269.983429 245.663330,271.434448 246.025238,273.698395 
M271.106110,271.421570 
	C277.437927,278.496460 279.261993,287.241821 279.720276,297.436737 
	C287.785767,287.451599 289.744934,277.398193 285.711212,266.706573 
	C281.121613,254.541519 270.945251,248.389145 258.908539,243.499466 
	C259.724762,246.642563 260.965179,249.015106 260.823456,251.302002 
	C260.294128,259.842926 262.774323,266.648621 271.106110,271.421570 
M81.595161,276.215851 
	C84.584282,272.969971 87.610435,269.757019 90.543480,266.461243 
	C91.649666,265.218292 93.236076,263.866547 93.408264,262.421906 
	C94.131142,256.356873 94.401482,250.237900 94.825752,244.303513 
	C64.677673,255.590027 61.961250,283.528534 75.255386,296.165283 
	C77.109673,290.098846 79.137550,283.464478 81.595161,276.215851 
M277.657410,164.951614 
	C277.952087,168.556274 278.246735,172.160950 278.534912,175.686081 
	C286.559540,176.460861 289.100616,175.178223 288.754578,170.494705 
	C288.168915,162.568893 287.517395,154.641754 286.612274,146.747421 
	C285.595062,137.875748 285.458954,137.887863 276.490631,138.943817 
	C276.196167,138.978500 275.928040,139.237473 275.429108,139.512207 
	C276.108978,147.628311 276.796539,155.836273 277.657410,164.951614 
M80.025330,161.527145 
	C79.875229,159.904968 79.725128,158.282806 79.581161,156.726852 
	C72.699280,155.762024 69.333298,157.046722 69.574638,160.805573 
	C70.211372,170.722763 71.011864,180.638321 72.119286,190.512787 
	C72.695671,195.652267 76.981117,193.827301 80.021416,193.777298 
	C83.267662,193.723923 82.817657,191.459290 82.582527,189.143173 
	C81.679054,180.243286 80.940811,171.326630 80.025330,161.527145 
z"/>
<path fill="#87A9F5" opacity="1.000000" stroke="none" 
	d="
M89.557457,57.956760 
	C89.854019,58.761490 89.690994,59.579330 88.894165,60.352806 
	C74.586823,60.205330 62.083275,63.827587 50.708759,72.152786 
	C33.239223,84.944191 24.018467,101.768517 23.976587,123.242485 
	C23.898735,163.162888 23.952032,203.083542 23.705887,243.335144 
	C23.315584,245.478592 23.047047,247.290741 23.043756,249.103394 
	C23.011990,266.603058 22.939606,284.103394 23.052822,301.602386 
	C23.137949,314.759796 25.453485,327.430389 32.438541,338.864655 
	C44.335537,358.339600 61.716877,369.127808 84.501038,369.891357 
	C103.978569,370.544037 123.495720,370.014343 143.464447,370.011383 
	C186.891922,370.016357 229.854050,370.353577 272.807007,369.870941 
	C292.975830,369.644348 309.122101,360.423798 321.251221,343.777740 
	C330.573608,331.537750 333.831207,317.755463 333.836304,302.509735 
	C333.840424,285.352081 333.794250,268.658661 333.793823,251.501190 
	C333.795135,233.349701 333.750671,215.662247 333.774170,197.512024 
	C333.788422,177.026306 333.734650,157.003342 333.741577,136.523132 
	C334.106995,123.128250 333.699371,110.272461 327.724976,98.386429 
	C324.850006,92.666748 321.543274,87.164078 318.634705,81.365646 
	C318.972687,81.036751 319.108002,80.905342 319.243347,80.773941 
	C330.188049,92.521248 335.738800,106.692963 335.812897,122.477493 
	C336.103119,184.300018 336.188934,246.126205 335.832214,307.948029 
	C335.626556,343.597839 306.193176,372.264282 269.630890,372.472137 
	C208.975403,372.816986 148.315231,372.808319 87.659599,372.479309 
	C49.842789,372.274170 21.337215,342.978027 21.284336,305.008392 
	C21.201252,245.350922 21.219635,185.693176 21.276968,126.035645 
	C21.314478,87.004120 50.052441,58.233894 89.557457,57.956760 
z"/>
<path fill="#87A9F5" opacity="1.000000" stroke="none" 
	d="
M262.812408,61.114960 
	C262.213440,60.292439 261.614471,59.469917 261.009644,58.333961 
	C280.258148,57.126049 298.003357,61.086246 312.876862,74.658875 
	C312.705811,75.295593 312.573914,75.431602 312.126770,75.440010 
	C306.578552,72.252426 301.482605,68.921570 296.083435,66.190147 
	C285.600494,60.886814 274.314911,60.116688 262.812408,61.114960 
z"/>
<path fill="#87A9F5" opacity="1.000000" stroke="none" 
	d="
M313.035187,74.955261 
	C315.152832,76.554947 317.072998,78.358948 319.118225,80.468445 
	C319.108002,80.905342 318.972687,81.036751 318.343628,81.217392 
	C316.047302,79.366951 314.244659,77.467278 312.442047,75.567604 
	C312.573914,75.431602 312.705811,75.295593 313.035187,74.955261 
z"/>
<path fill="#FEFEFE" opacity="1.000000" stroke="none" 
	d="
M123.039207,337.155487 
	C114.886765,337.481812 107.409302,337.334320 102.882385,329.557037 
	C102.632942,329.128510 102.366310,328.697754 102.205841,328.234100 
	C102.104874,327.942322 102.187019,327.587189 102.187019,326.879211 
	C103.896179,327.035034 105.614326,327.191650 107.857895,327.396149 
	C111.760155,305.528229 115.663567,283.653839 119.728790,260.872681 
	C113.376968,260.872681 107.390144,260.872681 101.105820,260.872681 
	C101.105820,258.230408 100.844269,255.564026 101.155357,252.966232 
	C102.051941,245.479126 107.984184,240.044815 115.695648,239.914856 
	C127.024574,239.723907 138.358871,239.846863 149.690887,239.845581 
	C178.021454,239.842377 206.352036,239.843857 234.682602,239.844772 
	C249.179031,239.845245 254.785385,245.919937 253.726608,260.608521 
	C248.227707,260.608521 242.701187,260.608521 236.153259,260.608521 
	C240.150864,283.223816 244.024673,305.138885 247.942917,327.305267 
	C249.711792,327.184082 251.149216,327.085632 252.633453,326.983978 
	C250.465393,333.857483 245.701935,337.119080 237.520615,337.138367 
	C216.356140,337.188293 195.191452,337.155426 174.026855,337.155487 
	C157.195190,337.155548 140.363510,337.155487 123.039207,337.155487 
M149.038651,281.511993 
	C151.313568,279.837585 153.598297,278.176331 155.861465,276.486176 
	C161.167953,272.523285 161.175919,269.164795 155.626419,264.607941 
	C146.180298,271.496307 136.637207,278.409851 127.149666,285.398804 
	C123.849380,287.829926 123.722672,290.629456 127.010826,293.133942 
	C135.177429,299.354187 143.398468,305.505707 151.716629,311.520264 
	C152.650360,312.195404 154.801666,312.415741 155.606415,311.809357 
	C158.004578,310.002136 157.322372,304.567322 154.814957,302.611481 
	C149.407471,298.393463 144.033798,294.132050 138.316086,289.628296 
	C142.140167,286.719940 145.295486,284.320190 149.038651,281.511993 
M211.194672,272.293579 
	C207.051697,269.408722 202.908737,266.523865 198.799957,263.662811 
	C193.622116,270.207184 193.882523,271.768158 200.032547,276.301910 
	C205.534515,280.357941 210.907089,284.589539 216.708023,289.027679 
	C211.378235,293.104187 206.654114,296.701935 201.946899,300.321686 
	C196.188416,304.749786 196.106277,305.344574 200.465836,312.206665 
	C201.676773,311.498413 202.990234,310.876526 204.141434,310.033173 
	C211.769440,304.445129 219.374359,298.825348 226.962738,293.183533 
	C231.399673,289.884735 231.564224,287.646698 227.283768,284.282562 
	C222.216110,280.299744 216.944427,276.576569 211.194672,272.293579 
M179.996246,266.424713 
	C174.394684,282.575958 168.826004,298.738770 163.160461,314.867554 
	C162.168777,317.690735 161.772934,319.923645 165.214767,321.361816 
	C168.699768,322.818024 170.563324,321.449829 171.668594,318.271637 
	C178.213120,299.453003 184.722794,280.622223 191.313080,261.819641 
	C192.359695,258.833588 191.462372,257.054352 188.602844,256.000641 
	C185.739822,254.945618 183.827408,255.683960 182.851883,258.707184 
	C182.089554,261.069611 181.152969,263.375763 179.996246,266.424713 
z"/>
<path fill="#F3F3F3" opacity="1.000000" stroke="none" 
	d="
M97.997147,140.984131 
	C107.384087,140.013962 116.761261,138.934784 126.159691,138.092789 
	C163.346024,134.761307 200.538284,131.495636 237.730377,128.228760 
	C243.187576,127.749405 248.655792,127.395271 254.550568,127.470901 
	C255.661972,134.194489 256.382996,140.426239 257.011810,146.667267 
	C257.955078,156.029007 258.890137,165.392258 259.725006,174.764099 
	C260.709839,185.819382 260.513123,196.657715 253.074463,205.927643 
	C250.716232,208.866440 248.332581,211.784821 245.960556,214.712555 
	C236.575165,215.758377 227.204239,216.962570 217.801727,217.820709 
	C188.010056,220.539749 158.207352,223.138290 128.405807,225.747894 
	C126.589615,225.906937 124.746414,225.757599 122.383461,225.359192 
	C114.697556,220.069504 107.502457,215.056885 104.760925,206.303741 
	C103.251945,201.485870 102.331390,196.387283 101.887581,191.349884 
	C100.409866,174.577240 99.267845,157.775009 97.997147,140.984131 
M228.790222,142.587967 
	C220.251099,138.931137 212.458191,140.238373 206.345779,146.352951 
	C200.225052,152.475861 198.574966,161.982864 202.196396,170.259750 
	C205.397079,177.575027 213.594040,182.461090 221.896240,182.002472 
	C230.044724,181.552368 237.499832,175.274811 239.683380,167.024796 
	C242.238098,157.372437 238.482910,148.455872 228.790222,142.587967 
M156.383423,172.744553 
	C158.252747,159.856735 150.120453,148.721893 138.194366,147.839890 
	C127.897346,147.078354 118.344208,154.707291 116.959419,164.693283 
	C115.150551,177.737396 123.039757,186.585785 132.065765,188.778885 
	C143.116669,191.463974 152.941315,185.079071 156.383423,172.744553 
M208.146683,195.447647 
	C205.960236,189.024841 201.991592,192.811661 199.100815,194.265640 
	C191.092270,198.293716 182.942322,201.049454 173.883057,199.204453 
	C169.834915,198.380005 165.907684,196.802750 161.836578,196.323975 
	C160.063293,196.115448 158.066116,197.810623 156.170624,198.641190 
	C157.270004,200.223221 158.053467,202.741501 159.519714,203.236267 
	C169.494659,206.602127 179.731369,209.035156 190.215271,205.847961 
	C196.738144,203.864944 203.590973,202.175842 208.146683,195.447647 
z"/>
<path fill="#B4CCFA" opacity="1.000000" stroke="none" 
	d="
M23.950726,243.004089 
	C23.952032,203.083542 23.898735,163.162888 23.976587,123.242485 
	C24.018467,101.768517 33.239223,84.944191 50.921234,72.401291 
	C48.078693,87.228722 46.571316,102.143326 47.028664,117.236008 
	C47.178883,122.193230 47.343895,127.187187 48.059658,132.082840 
	C49.899796,144.668961 51.405655,157.360672 54.296509,169.717422 
	C56.384007,178.640289 60.292358,187.168381 63.729954,195.735565 
	C67.299507,204.631607 70.849998,213.583862 75.224907,222.091904 
	C78.371368,228.210907 82.857460,233.641068 86.745964,239.378510 
	C80.728813,244.218933 73.899437,248.344025 68.870125,254.054459 
	C59.511959,264.680084 58.439911,277.350708 63.053951,290.563263 
	C63.598183,292.121704 64.336060,293.612488 64.821182,295.720154 
	C63.209282,295.476257 61.302094,294.990540 60.382553,293.764252 
	C51.483788,281.897064 42.692474,269.947693 33.999065,257.928833 
	C30.486158,253.072159 27.290661,247.985886 23.950726,243.004089 
z"/>
<path fill="#A5C0F8" opacity="1.000000" stroke="none" 
	d="
M23.705885,243.335144 
	C27.290661,247.985886 30.486158,253.072159 33.999065,257.928833 
	C42.692474,269.947693 51.483788,281.897064 60.382553,293.764252 
	C61.302094,294.990540 63.209282,295.476257 64.870110,296.080627 
	C73.730598,304.462494 82.404602,313.044159 90.998070,321.705719 
	C92.176819,322.893799 93.501778,324.365417 93.821815,325.901062 
	C95.064590,331.864471 97.891380,336.710083 102.703590,340.875488 
	C103.451553,342.930756 103.844025,345.106689 105.113991,345.931458 
	C114.555443,352.063110 124.184525,357.905060 133.724258,363.886536 
	C136.860855,365.853149 139.907547,367.963196 142.995346,370.007629 
	C123.495720,370.014343 103.978569,370.544037 84.501038,369.891357 
	C61.716877,369.127808 44.335537,358.339600 32.438541,338.864655 
	C25.453485,327.430389 23.137949,314.759796 23.052822,301.602386 
	C22.939606,284.103394 23.011990,266.603058 23.043756,249.103394 
	C23.047047,247.290741 23.315584,245.478592 23.705885,243.335144 
z"/>
<path fill="#CEDDFC" opacity="1.000000" stroke="none" 
	d="
M312.126770,75.440010 
	C314.244659,77.467278 316.047302,79.366951 318.140991,81.414879 
	C321.543274,87.164078 324.850006,92.666748 327.724976,98.386429 
	C333.699371,110.272461 334.106995,123.128250 333.408020,136.552063 
	C332.010071,138.028046 330.759369,138.866562 330.044769,140.033401 
	C326.685608,145.518463 323.933472,151.437576 320.104034,156.558121 
	C313.984283,164.741058 306.534485,171.514221 296.126190,174.000046 
	C295.357025,163.390121 294.848450,152.752747 293.733948,142.179230 
	C292.885590,134.130844 288.419647,130.794800 280.126221,131.010300 
	C278.327301,131.057037 276.530762,131.196503 274.568115,131.302139 
	C274.042419,129.365250 273.572876,127.635193 273.010468,125.563118 
	C276.531036,125.006821 279.915649,124.669174 283.202301,123.908417 
	C288.723969,122.630341 291.957520,118.434059 292.447937,112.382721 
	C292.861267,107.282532 289.756775,101.143196 284.727844,100.341103 
	C276.130524,98.969841 273.897095,94.270416 272.440399,86.233932 
	C270.911285,77.797859 266.256226,69.928398 262.889832,61.463139 
	C274.314911,60.116688 285.600494,60.886814 296.083435,66.190147 
	C301.482605,68.921570 306.578552,72.252426 312.126770,75.440010 
z"/>
<path fill="#B2CAFB" opacity="1.000000" stroke="none" 
	d="
M143.464447,370.011414 
	C139.907547,367.963196 136.860855,365.853149 133.724258,363.886536 
	C124.184525,357.905060 114.555443,352.063110 105.113991,345.931458 
	C103.844025,345.106689 103.451553,342.930756 102.899666,341.151001 
	C109.049454,342.233582 114.940971,344.618561 120.857063,344.681122 
	C155.594742,345.048584 190.338165,344.874023 225.644928,345.323242 
	C227.980087,346.500793 229.713074,347.764709 231.525589,347.891449 
	C248.133606,349.052399 264.618347,352.629883 281.424652,350.062561 
	C291.210236,348.567688 301.104004,347.793427 310.917480,346.461914 
	C314.325775,345.999481 317.638977,344.836121 320.995605,343.992889 
	C309.122101,360.423798 292.975830,369.644348 272.807007,369.870941 
	C229.854050,370.353577 186.891922,370.016357 143.464447,370.011414 
z"/>
<path fill="#C4D6FB" opacity="1.000000" stroke="none" 
	d="
M333.706177,197.974808 
	C333.750671,215.662247 333.795135,233.349701 333.423279,251.514206 
	C331.427307,252.440735 329.813416,252.795807 328.273499,253.354660 
	C316.616455,257.585327 305.120331,262.388702 292.516144,263.163696 
	C280.492981,239.844406 259.432495,232.765503 235.325165,232.274078 
	C209.193695,231.741425 183.043137,232.146347 156.900894,232.142471 
	C155.107071,232.142197 153.313248,232.142426 151.480606,231.268036 
	C158.685699,230.573715 165.886383,229.829605 173.096680,229.194290 
	C196.269165,227.152451 219.471344,225.398651 242.601501,222.959366 
	C248.384186,222.349533 253.939407,219.582657 260.361725,217.921936 
	C266.858612,218.027954 272.611511,218.313354 278.323608,217.952576 
	C292.612823,217.050034 305.859436,212.693771 318.272919,205.531433 
	C323.222839,202.675446 328.550507,200.474152 333.706177,197.974808 
z"/>
<path fill="#B7CDF9" opacity="1.000000" stroke="none" 
	d="
M87.077118,239.281952 
	C82.857460,233.641068 78.371368,228.210907 75.224907,222.091904 
	C70.849998,213.583862 67.299507,204.631607 63.729954,195.735565 
	C60.292358,187.168381 56.384007,178.640289 54.296509,169.717422 
	C51.405655,157.360672 49.899796,144.668961 48.059658,132.082840 
	C47.343895,127.187187 47.178883,122.193230 47.028664,117.236008 
	C46.571316,102.143326 48.078693,87.228722 51.223465,72.255585 
	C62.083275,63.827587 74.586823,60.205330 88.600548,60.498833 
	C81.347343,73.749931 75.756104,87.719307 75.778412,102.844849 
	C75.791595,111.787697 73.439941,116.918549 64.995125,120.134590 
	C59.993702,122.039276 58.983463,127.759224 60.892933,134.268982 
	C62.370453,139.306137 66.908562,142.907883 71.930252,142.991577 
	C74.072983,143.027298 76.216805,142.997543 78.616737,142.997543 
	C79.725113,146.880219 79.295341,149.083038 74.574554,149.065353 
	C64.087082,149.026016 61.515244,155.300247 62.067200,162.806183 
	C62.700508,171.418381 63.351891,180.034744 64.282608,188.618149 
	C65.365219,198.602417 69.398033,201.794266 79.474655,201.197006 
	C80.785973,201.119278 82.105881,201.186340 83.754959,201.186340 
	C87.006485,216.407104 96.448540,226.418533 110.817474,231.797195 
	C102.869766,234.305573 95.139023,236.745483 87.077118,239.281952 
z"/>
<path fill="#B6CDFA" opacity="1.000000" stroke="none" 
	d="
M321.251221,343.777740 
	C317.638977,344.836121 314.325775,345.999481 310.917480,346.461914 
	C301.104004,347.793427 291.210236,348.567688 281.424652,350.062561 
	C264.618347,352.629883 248.133606,349.052399 231.525589,347.891449 
	C229.713074,347.764709 227.980087,346.500793 226.105927,345.414856 
	C231.270767,344.782867 236.576660,344.798401 241.801208,344.154205 
	C251.857101,342.914307 258.928986,336.097015 260.905273,326.342773 
	C261.123779,325.264160 261.311493,323.887207 262.039734,323.250946 
	C267.081024,318.846558 272.261810,314.601807 277.822754,310.517761 
	C279.748260,311.153015 281.302368,312.073059 282.740570,311.918030 
	C291.251862,311.000397 299.793030,310.153381 308.213959,308.660919 
	C316.804108,307.138458 325.267273,304.899323 333.786011,302.973969 
	C333.831207,317.755463 330.573608,331.537750 321.251221,343.777740 
z"/>
<path fill="#2E60F2" opacity="1.000000" stroke="none" 
	d="
M93.004013,133.944824 
	C86.733772,134.597397 80.464661,135.261063 74.192863,135.898300 
	C70.517815,136.271713 67.944550,134.758301 67.170151,131.099304 
	C66.393417,127.429207 68.173264,124.809723 71.686188,123.946579 
	C80.562943,121.765503 82.209198,116.281586 82.310692,107.500984 
	C82.643600,78.700058 95.873497,56.013149 118.640854,38.845856 
	C124.094650,34.733524 130.316330,31.639563 137.234421,27.440119 
	C137.850296,34.362759 138.329697,39.751301 138.447815,45.644249 
	C137.300735,46.953743 136.307144,47.638439 135.760437,48.582050 
	C128.019608,61.943035 120.249275,75.288528 112.687668,88.750999 
	C109.546417,94.343597 106.882141,100.204102 103.675240,106.101547 
	C101.592926,107.728333 99.836319,109.196342 98.079720,110.664360 
	C99.387131,111.949570 100.694542,113.234787 101.981323,114.863487 
	C100.966270,117.486481 100.044647,119.801247 98.961433,122.037750 
	C97.027039,126.031677 94.995148,129.978378 93.004013,133.944824 
z"/>
<path fill="#CADBFC" opacity="1.000000" stroke="none" 
	d="
M333.774200,197.512024 
	C328.550507,200.474152 323.222839,202.675446 318.272919,205.531433 
	C305.859436,212.693771 292.612823,217.050034 278.323608,217.952576 
	C272.611511,218.313354 266.858612,218.027954 260.691620,217.838959 
	C271.492645,209.313004 278.042389,198.301086 279.048553,184.010696 
	C286.384705,183.701508 293.134491,182.653336 295.933105,174.301544 
	C306.534485,171.514221 313.984283,164.741058 320.104034,156.558121 
	C323.933472,151.437576 326.685608,145.518463 330.044769,140.033401 
	C330.759369,138.866562 332.010071,138.028046 333.347321,137.009338 
	C333.734650,157.003342 333.788422,177.026306 333.774200,197.512024 
z"/>
<path fill="#BCD1FB" opacity="1.000000" stroke="none" 
	d="
M333.836304,302.509735 
	C325.267273,304.899323 316.804108,307.138458 308.213959,308.660919 
	C299.793030,310.153381 291.251862,311.000397 282.740570,311.918030 
	C281.302368,312.073059 279.748260,311.153015 278.119873,310.352264 
	C282.212128,304.873779 287.049530,300.156799 290.515076,294.586365 
	C296.492371,284.978607 295.929565,274.443787 292.655762,263.545532 
	C305.120331,262.388702 316.616455,257.585327 328.273499,253.354660 
	C329.813416,252.795807 331.427307,252.440735 333.377502,251.978256 
	C333.794250,268.658661 333.840424,285.352081 333.836304,302.509735 
z"/>
<path fill="#DCDCDC" opacity="1.000000" stroke="none" 
	d="
M246.333130,214.759338 
	C248.332581,211.784821 250.716232,208.866440 253.074463,205.927643 
	C260.513123,196.657715 260.709839,185.819382 259.725006,174.764099 
	C258.890137,165.392258 257.955078,156.029007 257.011810,146.667267 
	C256.382996,140.426239 255.661972,134.194489 254.983154,127.529221 
	C258.249023,126.692345 261.513947,126.284836 265.785095,125.751732 
	C266.832764,133.840973 268.007874,141.504318 268.778625,149.208115 
	C269.835999,159.776520 270.655121,170.370468 271.452606,180.962769 
	C272.608459,196.314896 263.046814,210.850983 246.333130,214.759338 
z"/>
<path fill="#DCDCDC" opacity="1.000000" stroke="none" 
	d="
M97.548187,140.920471 
	C99.267845,157.775009 100.409866,174.577240 101.887581,191.349884 
	C102.331390,196.387283 103.251945,201.485870 104.760925,206.303741 
	C107.502457,215.056885 114.697556,220.069504 121.953201,225.267258 
	C107.432716,226.106857 93.230934,214.639450 91.275871,199.249863 
	C89.125160,182.320236 88.211006,165.231140 86.891586,148.201172 
	C86.719429,145.979141 87.340866,143.695633 87.609871,141.305954 
	C91.152893,141.138260 94.126068,140.997528 97.548187,140.920471 
z"/>
<path fill="#2D5DE1" opacity="1.000000" stroke="none" 
	d="
M146.276703,41.993019 
	C145.597748,35.411629 144.860275,28.835503 144.267349,22.246374 
	C144.014633,19.438095 145.027573,17.348349 148.238525,17.071709 
	C160.606339,16.006155 172.977798,14.980201 185.339523,13.848110 
	C188.963013,13.516268 190.541412,15.247196 190.808060,18.593458 
	C191.110718,22.391733 191.364380,26.193913 191.160278,30.511852 
	C183.686630,32.444221 176.631409,33.615589 169.713501,35.338364 
	C161.837280,37.299789 154.083633,39.753357 146.276703,41.993019 
z"/>
<path fill="#3662F4" opacity="1.000000" stroke="none" 
	d="
M104.000954,105.942772 
	C106.882141,100.204102 109.546417,94.343597 112.687668,88.750999 
	C120.249275,75.288528 128.019608,61.943035 135.760437,48.582050 
	C136.307144,47.638439 137.300735,46.953743 138.411591,46.078159 
	C139.724411,56.630253 140.712173,67.252838 141.320984,78.476364 
	C136.639771,86.431183 132.337524,93.785065 127.749268,101.396355 
	C119.642494,103.083435 111.821724,104.513107 104.000954,105.942772 
z"/>
<path fill="#6068F5" opacity="1.000000" stroke="none" 
	d="
M216.958557,29.294159 
	C221.621964,31.948074 226.285370,34.601990 230.874786,37.733086 
	C222.101624,53.006870 213.314972,67.753235 204.768021,82.637253 
	C202.763504,86.128029 201.569763,90.084389 199.539337,93.892761 
	C193.717575,93.952011 188.359512,93.945053 183.055878,93.588959 
	C185.570267,88.830940 187.857849,84.312279 190.565170,80.060905 
	C191.858521,78.029915 193.948547,76.506264 195.677734,74.752838 
	C197.349915,75.387573 199.400986,76.913918 200.588898,76.409103 
	C201.804062,75.892700 202.823654,73.372696 202.792679,71.751472 
	C202.692368,66.503479 202.070328,61.265469 201.995117,55.412083 
	C207.213501,46.298424 212.086029,37.796288 216.958557,29.294159 
z"/>
<path fill="#EEEEEE" opacity="1.000000" stroke="none" 
	d="
M91.364357,275.363861 
	C96.992683,270.453400 102.894829,267.183075 110.821579,267.860962 
	C107.838814,284.715027 104.906395,301.284576 101.889336,318.332397 
	C93.346779,315.979492 88.242973,310.364471 85.532913,302.856110 
	C81.926537,292.864471 84.004494,283.625763 91.364357,275.363861 
z"/>
<path fill="#EFEFEF" opacity="1.000000" stroke="none" 
	d="
M245.967896,273.291931 
	C245.663330,271.434448 245.416107,269.983429 245.175415,268.570618 
	C252.561569,265.615540 266.644836,273.141602 270.585236,285.159912 
	C275.128082,299.015503 268.108673,313.624054 254.055084,318.339844 
	C251.365860,303.389282 248.695557,288.543854 245.967896,273.291931 
z"/>
<path fill="#6B6AF6" opacity="1.000000" stroke="none" 
	d="
M200.003021,93.826553 
	C201.569763,90.084389 202.763504,86.128029 204.768021,82.637253 
	C213.314972,67.753235 222.101624,53.006870 231.102768,37.997932 
	C234.571701,40.284908 237.738693,42.784222 240.779999,45.798313 
	C236.681107,52.828896 232.542801,59.250946 228.775040,65.883476 
	C223.700867,74.815773 218.912216,83.910271 213.549988,93.017029 
	C208.733658,93.341461 204.368347,93.584007 200.003021,93.826553 
z"/>
<path fill="#D8D8D8" opacity="1.000000" stroke="none" 
	d="
M270.854065,271.166779 
	C262.774323,266.648621 260.294128,259.842926 260.823456,251.302002 
	C260.965179,249.015106 259.724762,246.642563 258.908539,243.499466 
	C270.945251,248.389145 281.121613,254.541519 285.711212,266.706573 
	C289.744934,277.398193 287.785767,287.451599 279.720276,297.436737 
	C279.261993,287.241821 277.437927,278.496460 270.854065,271.166779 
z"/>
<path fill="#D7D7D7" opacity="1.000000" stroke="none" 
	d="
M81.380295,276.522980 
	C79.137550,283.464478 77.109673,290.098846 75.255386,296.165283 
	C61.961250,283.528534 64.677673,255.590027 94.825752,244.303513 
	C94.401482,250.237900 94.131142,256.356873 93.408264,262.421906 
	C93.236076,263.866547 91.649666,265.218292 90.543480,266.461243 
	C87.610435,269.757019 84.584282,272.969971 81.380295,276.522980 
z"/>
<path fill="#345DDC" opacity="1.000000" stroke="none" 
	d="
M146.238281,42.415604 
	C154.083633,39.753357 161.837280,37.299789 169.713501,35.338364 
	C176.631409,33.615589 183.686630,32.444221 191.121872,30.972153 
	C191.882111,33.982735 192.201675,37.050476 192.051849,40.560028 
	C178.491196,43.399956 167.059494,49.699928 155.653900,56.125568 
	C153.298233,57.452698 150.538971,58.063457 147.965729,59.004383 
	C147.377121,53.615650 146.788498,48.226921 146.238281,42.415604 
z"/>
<path fill="#4163F2" opacity="1.000000" stroke="none" 
	d="
M128.035263,101.138939 
	C132.337524,93.785065 136.639771,86.431183 141.304871,78.930374 
	C143.269653,79.766113 144.871597,80.748772 146.473541,81.731430 
	C147.338379,80.293732 148.883560,78.880119 148.935471,77.413635 
	C149.070007,73.613312 148.546860,69.789703 148.754944,65.467773 
	C154.816330,64.306702 160.409042,63.653236 166.141495,63.267151 
	C166.854477,64.357613 167.427704,65.180702 167.831146,66.292603 
	C164.776245,69.884872 161.332062,72.855850 159.127075,76.563751 
	C155.037048,83.441582 151.670868,90.749855 147.609161,97.990463 
	C140.821808,99.114334 134.428528,100.126633 128.035263,101.138939 
z"/>
<path fill="#746BF6" opacity="1.000000" stroke="none" 
	d="
M214.001007,92.935150 
	C218.912216,83.910271 223.700867,74.815773 228.775040,65.883476 
	C232.542801,59.250946 236.681107,52.828896 240.933472,46.103043 
	C243.454178,48.182613 245.695770,50.472233 247.992767,53.442898 
	C243.973557,61.328720 239.760956,68.459908 235.867706,75.761383 
	C232.713470,81.676865 229.943253,87.797112 226.585571,93.891342 
	C222.112640,93.615814 218.056824,93.275482 214.001007,92.935150 
z"/>
<path fill="#3A62F3" opacity="1.000000" stroke="none" 
	d="
M93.444916,133.987366 
	C94.995148,129.978378 97.027039,126.031677 98.961433,122.037750 
	C100.044647,119.801247 100.966270,117.486481 102.382332,114.726730 
	C111.870239,112.516106 120.936508,110.785721 129.999878,109.438034 
	C129.457657,111.343224 129.042709,112.924370 128.357178,114.377892 
	C125.618202,120.185158 122.795105,125.952751 120.003143,131.735031 
	C111.297371,132.499985 102.591591,133.264938 93.444916,133.987366 
z"/>
<path fill="#4764F3" opacity="1.000000" stroke="none" 
	d="
M120.416855,131.762360 
	C122.795105,125.952751 125.618202,120.185158 128.357178,114.377892 
	C129.042709,112.924370 129.457657,111.343224 130.388641,109.340057 
	C138.854584,107.592140 146.928848,106.324883 154.989197,105.429573 
	C153.615646,108.747749 152.239883,111.686668 150.899933,114.641830 
	C148.642181,119.621124 146.407166,124.610718 144.162582,129.595978 
	C136.385239,130.327209 128.607910,131.058441 120.416855,131.762360 
z"/>
<path fill="#906EF5" opacity="1.000000" stroke="none" 
	d="
M262.736664,77.012428 
	C264.196442,82.726120 265.656219,88.439812 266.775757,94.734680 
	C261.624237,103.525734 256.813019,111.735619 252.001801,119.945511 
	C247.333725,120.492935 242.665665,121.040352 237.533600,121.178787 
	C237.656006,119.267235 238.162903,117.727608 238.843185,116.268837 
	C241.197372,111.220657 243.611893,106.200615 246.383575,101.105927 
	C252.347687,100.224190 252.828232,99.055748 249.903259,94.045448 
	C251.452377,92.338242 252.719604,90.831711 253.881073,89.247658 
	C256.858002,85.187622 259.787933,81.093132 262.736664,77.012428 
z"/>
<path fill="#5566F4" opacity="1.000000" stroke="none" 
	d="
M144.619431,129.638062 
	C146.407166,124.610718 148.642181,119.621124 150.899933,114.641830 
	C152.239883,111.686668 153.615646,108.747749 155.377625,105.297760 
	C162.058151,104.132668 168.336334,103.471336 174.895874,103.032379 
	C174.479034,105.632042 174.087463,108.157600 173.023422,110.357971 
	C170.171158,116.256233 167.030930,122.015228 164.005066,127.829529 
	C157.695465,128.446411 151.385880,129.063278 144.619431,129.638062 
z"/>
<path fill="#3F60E1" opacity="1.000000" stroke="none" 
	d="
M166.001740,62.999779 
	C160.409042,63.653236 154.816330,64.306702 148.760498,65.002518 
	C148.161728,63.289581 148.026108,61.534283 147.928116,59.391685 
	C150.538971,58.063457 153.298233,57.452698 155.653900,56.125568 
	C167.059494,49.699928 178.491196,43.399956 192.032013,41.004784 
	C192.898148,44.744541 193.314697,48.481350 193.276917,52.614677 
	C183.882309,56.340721 174.942032,59.670250 166.001740,62.999779 
z"/>
<path fill="#5566F4" opacity="1.000000" stroke="none" 
	d="
M195.690796,74.308029 
	C193.948547,76.506264 191.858521,78.029915 190.565170,80.060905 
	C187.857849,84.312279 185.570267,88.830940 182.640259,93.677879 
	C177.111252,94.528801 172.052277,94.941673 166.996628,94.940598 
	C167.562042,92.854279 167.827042,90.996719 168.735092,89.540009 
	C174.073288,80.976486 179.561401,72.506432 185.396606,64.001320 
	C188.572952,63.324455 191.351715,62.651161 194.130478,61.977867 
	C194.654953,65.939651 195.179413,69.901443 195.690796,74.308029 
z"/>
<path fill="#6168F4" opacity="1.000000" stroke="none" 
	d="
M164.439819,127.891670 
	C167.030930,122.015228 170.171158,116.256233 173.023422,110.357971 
	C174.087463,108.157600 174.479034,105.632042 175.272888,102.806427 
	C181.914932,101.993523 188.461319,101.628960 194.990768,101.624008 
	C193.860977,104.565628 192.884537,107.217384 191.607330,109.715340 
	C188.821106,115.164635 185.881866,120.535690 183.005157,125.938721 
	C176.961639,126.610420 170.918106,127.282112 164.439819,127.891670 
z"/>
<path fill="#996FF2" opacity="1.000000" stroke="none" 
	d="
M252.452118,120.020050 
	C256.813019,111.735619 261.624237,103.525734 266.734009,95.152122 
	C267.090424,102.446480 272.220673,104.296898 278.261841,105.322945 
	C280.012177,105.620224 282.227112,106.054169 283.214874,107.257774 
	C284.510559,108.836624 285.896729,111.720459 285.259644,113.172340 
	C284.376160,115.185875 281.790649,117.475784 279.685211,117.751930 
	C270.807922,118.916229 261.838287,119.376671 252.452118,120.020050 
z"/>
<path fill="#6E6AF5" opacity="1.000000" stroke="none" 
	d="
M183.452286,126.014069 
	C185.881866,120.535690 188.821106,115.164635 191.607330,109.715340 
	C192.884537,107.217384 193.860977,104.565628 195.449051,101.523560 
	C201.950363,101.063011 207.976440,101.062531 213.988876,101.432953 
	C212.980728,104.039452 212.053040,106.307732 210.978424,108.504143 
	C208.390381,113.793968 205.733551,119.050140 203.104477,124.319893 
	C196.702789,124.909737 190.301102,125.499580 183.452286,126.014069 
z"/>
<path fill="#7D6CF6" opacity="1.000000" stroke="none" 
	d="
M227.002686,93.826523 
	C229.943253,87.797112 232.713470,81.676865 235.867706,75.761383 
	C239.760956,68.459908 243.973557,61.328720 248.124680,53.725304 
	C250.738785,56.660725 253.276367,59.994793 255.547394,63.745167 
	C250.478943,72.193604 245.617661,80.191330 240.924088,88.286285 
	C239.961349,89.946716 239.626251,91.971046 238.545197,93.894028 
	C234.393265,93.915779 230.697968,93.871155 227.002686,93.826523 
z"/>
<path fill="#D8D8D8" opacity="1.000000" stroke="none" 
	d="
M277.570740,164.497925 
	C276.796539,155.836273 276.108978,147.628311 275.429108,139.512207 
	C275.928040,139.237473 276.196167,138.978500 276.490631,138.943817 
	C285.458954,137.887863 285.595062,137.875748 286.612274,146.747421 
	C287.517395,154.641754 288.168915,162.568893 288.754578,170.494705 
	C289.100616,175.178223 286.559540,176.460861 278.534912,175.686081 
	C278.246735,172.160950 277.952087,168.556274 277.570740,164.497925 
z"/>
<path fill="#D9D9D9" opacity="1.000000" stroke="none" 
	d="
M80.083130,161.971680 
	C80.940811,171.326630 81.679054,180.243286 82.582527,189.143173 
	C82.817657,191.459290 83.267662,193.723923 80.021416,193.777298 
	C76.981117,193.827301 72.695671,195.652267 72.119286,190.512787 
	C71.011864,180.638321 70.211372,170.722763 69.574638,160.805573 
	C69.333298,157.046722 72.699280,155.762024 79.581161,156.726852 
	C79.725128,158.282806 79.875229,159.904968 80.083130,161.971680 
z"/>
<path fill="#7B6BF5" opacity="1.000000" stroke="none" 
	d="
M203.560028,124.340683 
	C205.733551,119.050140 208.390381,113.793968 210.978424,108.504143 
	C212.053040,106.307732 212.980728,104.039452 214.450775,101.354477 
	C220.285583,100.994034 225.644852,101.082962 230.988556,101.535934 
	C229.949692,104.143837 228.962128,106.404846 227.895706,108.628052 
	C225.620499,113.371307 223.304428,118.094978 221.005096,122.826675 
	C215.341919,123.338272 209.678757,123.849869 203.560028,124.340683 
z"/>
<path fill="#866DF5" opacity="1.000000" stroke="none" 
	d="
M239.001862,93.827637 
	C239.626251,91.971046 239.961349,89.946716 240.924088,88.286285 
	C245.617661,80.191330 250.478943,72.193604 255.608734,64.082802 
	C258.171204,68.113129 260.405792,72.222122 262.688538,76.671776 
	C259.787933,81.093132 256.858002,85.187622 253.881073,89.247658 
	C252.719604,90.831711 251.452377,92.338242 249.474274,94.028152 
	C245.477432,94.060028 242.239639,93.943832 239.001862,93.827637 
z"/>
<path fill="#5465F0" opacity="1.000000" stroke="none" 
	d="
M216.735229,29.008804 
	C212.086029,37.796288 207.213501,46.298424 202.015732,54.959114 
	C200.668945,44.630512 199.647400,34.143356 198.484604,22.206238 
	C205.239807,24.648371 210.875854,26.685913 216.735229,29.008804 
z"/>
<path fill="#866DF5" opacity="1.000000" stroke="none" 
	d="
M221.439758,122.889847 
	C223.304428,118.094978 225.620499,113.371307 227.895706,108.628052 
	C228.962128,106.404846 229.949692,104.143837 231.450623,101.471939 
	C236.619965,101.085892 241.311691,101.127869 246.003448,101.169846 
	C243.611893,106.200615 241.197372,111.220657 238.843185,116.268837 
	C238.162903,117.727608 237.656006,119.267235 237.076752,121.182632 
	C232.014069,122.047989 226.944244,122.500504 221.439758,122.889847 
z"/>
<path fill="#4A63E8" opacity="1.000000" stroke="none" 
	d="
M194.170807,61.530090 
	C191.351715,62.651161 188.572952,63.324455 184.975647,64.003525 
	C178.771698,64.674126 173.386322,65.338959 168.000931,66.003792 
	C167.427704,65.180702 166.854477,64.357613 166.141495,63.267155 
	C174.942032,59.670250 183.882309,56.340721 193.202881,53.009655 
	C193.792496,55.699520 194.001831,58.390919 194.170807,61.530090 
z"/>
<path fill="#3769F5" opacity="1.000000" stroke="none" 
	d="
M148.744736,281.716248 
	C145.295486,284.320190 142.140167,286.719940 138.316086,289.628296 
	C144.033798,294.132050 149.407471,298.393463 154.814957,302.611481 
	C157.322372,304.567322 158.004578,310.002136 155.606415,311.809357 
	C154.801666,312.415741 152.650360,312.195404 151.716629,311.520264 
	C143.398468,305.505707 135.177429,299.354187 127.010826,293.133942 
	C123.722672,290.629456 123.849380,287.829926 127.149666,285.398804 
	C136.637207,278.409851 146.180298,271.496307 155.626419,264.607941 
	C161.175919,269.164795 161.167953,272.523285 155.861465,276.486176 
	C153.598297,278.176331 151.313568,279.837585 148.744736,281.716248 
z"/>
<path fill="#3768F5" opacity="1.000000" stroke="none" 
	d="
M211.477921,272.517212 
	C216.944427,276.576569 222.216110,280.299744 227.283768,284.282562 
	C231.564224,287.646698 231.399673,289.884735 226.962738,293.183533 
	C219.374359,298.825348 211.769440,304.445129 204.141434,310.033173 
	C202.990234,310.876526 201.676773,311.498413 200.465836,312.206665 
	C196.106277,305.344574 196.188416,304.749786 201.946899,300.321686 
	C206.654114,296.701935 211.378235,293.104187 216.708023,289.027679 
	C210.907089,284.589539 205.534515,280.357941 200.032547,276.301910 
	C193.882523,271.768158 193.622116,270.207184 198.799957,263.662811 
	C202.908737,266.523865 207.051697,269.408722 211.477921,272.517212 
z"/>
<path fill="#396AF6" opacity="1.000000" stroke="none" 
	d="
M180.145020,266.065796 
	C181.152969,263.375763 182.089554,261.069611 182.851883,258.707184 
	C183.827408,255.683960 185.739822,254.945618 188.602844,256.000641 
	C191.462372,257.054352 192.359695,258.833588 191.313080,261.819641 
	C184.722794,280.622223 178.213120,299.453003 171.668594,318.271637 
	C170.563324,321.449829 168.699768,322.818024 165.214767,321.361816 
	C161.772934,319.923645 162.168777,317.690735 163.160461,314.867554 
	C168.826004,298.738770 174.394684,282.575958 180.145020,266.065796 
z"/>
<path fill="#2A2A2A" opacity="1.000000" stroke="none" 
	d="
M229.145355,142.716904 
	C238.482910,148.455872 242.238098,157.372437 239.683380,167.024796 
	C237.499832,175.274811 230.044724,181.552368 221.896240,182.002472 
	C213.594040,182.461090 205.397079,177.575027 202.196396,170.259750 
	C198.574966,161.982864 200.225052,152.475861 206.345779,146.352951 
	C212.458191,140.238373 220.251099,138.931137 229.145355,142.716904 
M220.370743,153.677780 
	C218.743439,156.902191 218.607727,160.125931 222.426697,161.444458 
	C224.165329,162.044708 227.454834,161.326141 228.459244,160.004105 
	C229.502686,158.630692 229.431763,155.298401 228.429947,153.726852 
	C226.631653,150.905975 223.607208,151.425873 220.370743,153.677780 
z"/>
<path fill="#2A2A2A" opacity="1.000000" stroke="none" 
	d="
M156.279053,173.142654 
	C152.941315,185.079071 143.116669,191.463974 132.065765,188.778885 
	C123.039757,186.585785 115.150551,177.737396 116.959419,164.693283 
	C118.344208,154.707291 127.897346,147.078354 138.194366,147.839890 
	C150.120453,148.721893 158.252747,159.856735 156.279053,173.142654 
M136.152756,162.072784 
	C135.348755,165.769806 135.899612,169.118988 140.312897,169.283081 
	C142.105331,169.349731 144.764801,167.523651 145.571533,165.854126 
	C146.209885,164.533081 145.180237,161.532761 143.900787,160.346359 
	C141.492325,158.113022 138.713989,158.802460 136.152756,162.072784 
z"/>
<path fill="#313131" opacity="1.000000" stroke="none" 
	d="
M208.096344,195.835449 
	C203.590973,202.175842 196.738144,203.864944 190.215271,205.847961 
	C179.731369,209.035156 169.494659,206.602127 159.519714,203.236267 
	C158.053467,202.741501 157.270004,200.223221 156.170624,198.641190 
	C158.066116,197.810623 160.063293,196.115448 161.836578,196.323975 
	C165.907684,196.802750 169.834915,198.380005 173.883057,199.204453 
	C182.942322,201.049454 191.092270,198.293716 199.100815,194.265640 
	C201.991592,192.811661 205.960236,189.024841 208.096344,195.835449 
z"/>
<path fill="#27282B" opacity="1.000000" stroke="none" 
	d="
M246.383575,101.105927 
	C241.311691,101.127869 236.619965,101.085892 231.466156,101.107910 
	C225.644852,101.082962 220.285583,100.994034 214.464417,100.983582 
	C207.976440,101.062531 201.950363,101.063011 195.466003,101.163940 
	C188.461319,101.628960 181.914932,101.993523 174.991531,102.584045 
	C168.336334,103.471336 162.058151,104.132668 155.391525,104.925812 
	C146.928848,106.324883 138.854584,107.592140 130.391556,108.957367 
	C120.936508,110.785721 111.870239,112.516106 102.402962,114.383240 
	C100.694542,113.234787 99.387131,111.949570 98.079720,110.664360 
	C99.836319,109.196342 101.592926,107.728333 103.675240,106.101547 
	C111.821724,104.513107 119.642494,103.083435 127.749268,101.396355 
	C134.428528,100.126633 140.821808,99.114334 148.029999,98.033264 
	C154.894394,97.094505 160.943848,96.224525 166.993301,95.354538 
	C172.052277,94.941673 177.111252,94.528801 182.585846,94.027008 
	C188.359512,93.945053 193.717575,93.952011 199.539337,93.892761 
	C204.368347,93.584007 208.733658,93.341461 213.549988,93.017029 
	C218.056824,93.275482 222.112640,93.615814 226.585571,93.891342 
	C230.697968,93.871155 234.393265,93.915779 238.545197,93.894028 
	C242.239639,93.943832 245.477432,94.060028 249.144196,94.193512 
	C252.828232,99.055748 252.347687,100.224190 246.383575,101.105927 
z"/>
<path fill="#4B65F4" opacity="1.000000" stroke="none" 
	d="
M166.996628,94.940598 
	C160.943848,96.224525 154.894394,97.094505 148.424103,97.921684 
	C151.670868,90.749855 155.037048,83.441582 159.127075,76.563751 
	C161.332062,72.855850 164.776245,69.884872 167.831146,66.292603 
	C173.386322,65.338959 178.771698,64.674126 184.578049,64.007088 
	C179.561401,72.506432 174.073288,80.976486 168.735092,89.540009 
	C167.827042,90.996719 167.562042,92.854279 166.996628,94.940598 
z"/>
<path fill="#E6E6E6" opacity="1.000000" stroke="none" 
	d="
M220.652740,153.409393 
	C223.607208,151.425873 226.631653,150.905975 228.429947,153.726852 
	C229.431763,155.298401 229.502686,158.630692 228.459244,160.004105 
	C227.454834,161.326141 224.165329,162.044708 222.426697,161.444458 
	C218.607727,160.125931 218.743439,156.902191 220.652740,153.409393 
z"/>
<path fill="#E7E7E7" opacity="1.000000" stroke="none" 
	d="
M136.371719,161.739670 
	C138.713989,158.802460 141.492325,158.113022 143.900787,160.346359 
	C145.180237,161.532761 146.209885,164.533081 145.571533,165.854126 
	C144.764801,167.523651 142.105331,169.349731 140.312897,169.283081 
	C135.899612,169.118988 135.348755,165.769806 136.371719,161.739670 
z"/>
</svg>