<?xml version="1.0" encoding="iso-8859-1"?>
<!-- Uploaded to: SVG Repo, www.svgrepo.com, Generator: SVG Repo Mixer Tools -->
<svg height="800px" width="800px" version="1.1" id="Layer_1" xmlns="http://www.w3.org/2000/svg" xmlns:xlink="http://www.w3.org/1999/xlink" 
	 viewBox="0 0 512 512" xml:space="preserve">
<g>
	<path style="fill:#573024;" d="M92.191,58.369c-5.721-5.721-5.231-15.112,1.014-20.255c81.769-67.342,223.027-43.676,323.692,56.99
		s124.331,241.922,56.99,323.693c-5.143,6.244-14.534,6.735-20.255,1.014L92.191,58.369z"/>
	<path style="fill:#573024;" d="M419.811,453.632c5.721,5.721,5.231,15.112-1.014,20.255
		c-81.771,67.342-223.027,43.675-323.693-56.99S-29.228,174.975,38.114,93.205c5.143-6.244,14.534-6.735,20.255-1.014
		L419.811,453.632z"/>
</g>
<g>
	<path style="fill:#83432D;" d="M92.191,58.369c-5.721-5.721-5.231-15.112,1.014-20.255C135.788,3.045,194.504-7.343,255.219,4.971
		l-0.093,216.332L92.191,58.369z"/>
	<path style="fill:#83432D;" d="M255.86,506.841c-55.583-11.481-112.779-41.968-160.756-89.943
		C-5.562,316.233-29.228,174.975,38.114,93.205c5.143-6.244,14.534-6.735,20.255-1.014l196.928,196.928L255.86,506.841z"/>
</g>
</svg>