<svg width="17" height="20" viewBox="0 0 17 20" fill="none" xmlns="http://www.w3.org/2000/svg">
<path d="M1.551 28H10.692C15.114 28 17.82 26.053 17.82 22.555C17.82 20.344 16.203 18.727 13.926 18.1C15.51 17.473 16.764 16.153 16.764 14.008C16.764 10.741 14.289 8.86 10.23 8.86H1.551V11.665H3.597V25.195H1.551V28ZM6.633 16.879V11.665H9.9C12.375 11.665 13.695 12.556 13.695 14.272C13.695 15.955 12.408 16.879 9.933 16.879H6.633ZM6.633 25.195V19.585H10.164C13.2 19.585 14.751 20.575 14.751 22.39C14.751 24.238 13.299 25.195 10.395 25.195H6.633Z" transform="translate(-1 -8)" fill="black"/>
</svg>

