<svg enable-background="new 0 0 32 32" height="316.227766" viewBox="0 0 32 32" width="316.227766" xmlns="http://www.w3.org/2000/svg" xmlns:xlink="http://www.w3.org/1999/xlink"><mask id="a" height="32" maskUnits="userSpaceOnUse" width="32" x="0" y="0"><path d="m5 18h-2v-4c0-6.1 4.9-11 11-11h9v2h-9c-5 0-9 4-9 9z" fill="#fff"/><path d="m18 29h-9v-2h9c5 0 9-4 9-9v-4h2v4c0 6.1-4.9 11-11 11z" fill="#fff"/><path d="m8 26h9v4h-9z" fill="url(#b)"/><path d="m15 2h9v4h-9z" fill="url(#c)"/></mask><linearGradient id="b" gradientUnits="userSpaceOnUse" x1="8" x2="17" y1="28" y2="28"><stop offset=".2"/><stop offset=".9" stop-opacity="0"/></linearGradient><linearGradient id="c" gradientUnits="userSpaceOnUse" x1="15" x2="24" y1="4" y2="4"><stop offset=".1" stop-opacity="0"/><stop offset=".8"/></linearGradient><linearGradient id="d" gradientUnits="userSpaceOnUse" x1="0" x2="32" y1="32" y2="0"><stop offset=".1" stop-color="#08bdba"/><stop offset=".9" stop-color="#0f62fe"/></linearGradient><path d="m0 0h32v32h-32z" fill="url(#d)" mask="url(#a)"/><g fill="#001d6c"><path d="m16 21c-2.8 0-5-2.2-5-5s2.2-5 5-5 5 2.2 5 5-2.2 5-5 5zm0-8c-1.7 0-3 1.3-3 3s1.3 3 3 3 3-1.3 3-3-1.3-3-3-3z"/><circle cx="28" cy="10" r="2"/><circle cx="4" cy="22" r="2"/></g></svg>