<?xml version="1.0" encoding="iso-8859-1"?>
<!-- Uploaded to: SVG Repo, www.svgrepo.com, Generator: SVG Repo Mixer Tools -->
<svg height="800px" width="800px" version="1.1" id="Layer_1" xmlns="http://www.w3.org/2000/svg" xmlns:xlink="http://www.w3.org/1999/xlink" 
	 viewBox="0 0 511.999 511.999" xml:space="preserve">
<path style="fill:#FFE650;" d="M510.38,250.902c-1.601-2.258-36.659-50.932-102.314-72.732c-6.168-2.048-9.853-8.432-8.539-14.797
	C413.529,95.535,388.763,40.756,387.6,38.236c-1.569-3.388-5.151-5.405-8.81-5.086c-2.761,0.253-62.522,6.185-114.25,52.164
	c-4.856,4.316-12.223,4.316-17.078,0c-51.728-45.979-111.49-51.911-114.25-52.164c-3.699-0.337-7.245,1.698-8.81,5.086
	c-1.164,2.519-25.93,57.299-11.927,125.136c1.314,6.366-2.37,12.749-8.539,14.797C38.279,199.97,3.22,248.643,1.62,250.902
	c-2.159,3.057-2.159,7.143,0,10.198c1.601,2.258,36.659,50.932,102.314,72.732c6.168,2.048,9.853,8.431,8.539,14.797
	c-14.002,67.837,10.764,122.617,11.927,125.136c1.565,3.388,5.126,5.362,8.81,5.086c2.761-0.253,62.522-6.185,114.25-52.164
	c4.856-4.316,12.223-4.316,17.078,0c51.728,45.979,111.49,51.911,114.25,52.164c0.267,0.022,0.534,0.034,0.802,0.034
	c3.414,0,6.556-1.979,8.009-5.121c1.164-2.519,25.93-57.299,11.927-125.136c-1.314-6.366,2.37-12.749,8.539-14.797
	c65.654-21.8,100.713-70.473,102.314-72.732C512.539,258.043,512.539,253.957,510.38,250.902z"/>
<path style="fill:#FFD250;" d="M408.067,333.831c0.129-0.043,0.248-0.095,0.376-0.138l-134.832-77.728l134.062-78.013
	c-5.903-2.199-9.428-8.366-8.145-14.579c0.086-0.416,0.131-0.817,0.214-1.231l-134.915,78.51V85.074
	c-0.095,0.085-0.193,0.156-0.288,0.241c-4.856,4.316-12.223,4.316-17.079,0c-0.095-0.085-0.193-0.156-0.288-0.241v155.65
	l-134.758-77.685c0.023,0.114,0.035,0.222,0.058,0.334c1.314,6.366-2.37,12.749-8.539,14.797c-0.129,0.043-0.248,0.095-0.377,0.138
	l134.831,77.728l-134.061,78.013c5.903,2.199,9.428,8.365,8.145,14.579c-0.086,0.416-0.131,0.818-0.214,1.233l134.915-78.51v155.577
	c0.095-0.085,0.193-0.156,0.288-0.241c4.856-4.317,12.223-4.317,17.079,0c0.095,0.085,0.193,0.156,0.288,0.241v-155.65
	l134.758,77.686c-0.023-0.114-0.035-0.223-0.058-0.337C398.213,342.263,401.897,335.879,408.067,333.831z"/>
<path style="fill:#FFF073;" d="M414.897,247.173H271.291l71.804-124.367c2.435-4.224,0.991-9.621-3.233-12.061
	c-4.242-2.449-9.625-0.991-12.061,3.233L256,238.343l-71.802-124.365c-2.449-4.224-7.844-5.681-12.061-3.233
	c-4.224,2.44-5.668,7.837-3.233,12.061l71.804,124.367H97.102c-4.875,0-8.828,3.953-8.828,8.828c0,4.875,3.953,8.828,8.828,8.828
	h143.606l-71.804,124.367c-2.435,4.224-0.991,9.621,3.233,12.061c1.393,0.802,2.91,1.181,4.405,1.181
	c3.052,0,6.017-1.582,7.655-4.414l71.802-124.365L327.8,398.023c1.638,2.831,4.604,4.414,7.656,4.414
	c1.495,0,3.017-0.38,4.405-1.181c4.224-2.44,5.668-7.837,3.233-12.061l-71.803-124.367h143.606c4.875,0,8.828-3.953,8.828-8.828
	C423.725,251.126,419.772,247.173,414.897,247.173z"/>
<path style="fill:#FF783C;" d="M353.104,256.001c0,7.904-18.395,13.287-20.343,20.576c-2.016,7.543,11.163,21.388,7.341,27.992
	c-3.875,6.698-22.488,2.176-27.925,7.612c-5.436,5.436-0.915,24.049-7.613,27.924c-6.603,3.82-20.447-9.359-27.988-7.343
	c-7.291,1.949-12.672,20.343-20.576,20.343c-7.904,0-13.287-18.395-20.576-20.343c-7.543-2.016-21.388,11.163-27.992,7.341
	c-6.698-3.875-2.176-22.488-7.612-27.925c-5.436-5.436-24.049-0.915-27.924-7.613c-3.82-6.603,9.359-20.447,7.343-27.988
	c-1.949-7.289-20.343-12.671-20.343-20.575c0-7.904,18.395-13.287,20.343-20.576c2.016-7.543-11.163-21.388-7.341-27.992
	c3.875-6.698,22.488-2.176,27.925-7.612c5.436-5.436,0.915-24.049,7.613-27.924c6.603-3.82,20.447,9.359,27.988,7.343
	c7.291-1.95,12.672-20.344,20.576-20.344c7.904,0,13.287,18.395,20.576,20.343c7.543,2.016,21.388-11.163,27.992-7.341
	c6.698,3.875,2.176,22.488,7.612,27.925c5.436,5.436,24.049,0.915,27.924,7.613c3.82,6.603-9.359,20.447-7.343,27.988
	C334.709,242.715,353.104,248.097,353.104,256.001z"/>
<path style="fill:#FF963C;" d="M260.811,209.67l17.182-9.142c6.686-3.558,14.787,1.12,15.049,8.689l0.674,19.452
	c0.118,3.405,1.921,6.529,4.811,8.334l16.508,10.31c6.423,4.011,6.423,13.366,0,17.377l-16.508,10.31
	c-2.89,1.805-4.694,4.929-4.811,8.334l-0.674,19.452c-0.263,7.569-8.363,12.246-15.049,8.689l-17.182-9.142
	c-3.008-1.6-6.615-1.6-9.623,0l-17.182,9.142c-6.686,3.558-14.787-1.12-15.049-8.689l-0.674-19.452
	c-0.118-3.405-1.921-6.529-4.811-8.334l-16.508-10.31c-6.423-4.011-6.423-13.366,0-17.377l16.508-10.31
	c2.89-1.805,4.694-4.929,4.811-8.334l0.674-19.452c0.263-7.569,8.363-12.246,15.049-8.689l17.182,9.142
	C254.197,211.271,257.803,211.271,260.811,209.67z"/>
<circle style="fill:#FFE650;" cx="256.001" cy="256.001" r="17.655"/>
</svg>