<?xml version="1.0" encoding="UTF-8" standalone="no"?>
<svg
   viewBox="0 0 125 90.527122"
   fill="#ffffff"
   fill-rule="evenodd"
   stroke="#000000"
   stroke-linecap="round"
   stroke-linejoin="round"
   version="1.1"
   id="svg1"
   width="125"
   height="90.527122"
   xmlns="http://www.w3.org/2000/svg"
   xmlns:svg="http://www.w3.org/2000/svg">
  <defs
     id="defs1" />
  <g
     id="use1"
     transform="translate(0.5,5.560814)" />
  <g
     id="g3"
     transform="rotate(-43.376577,69.304757,43.030407)"
     style="fill:#0066cc;fill-opacity:1;stroke:none">
    <path
       d="m 124.88468,40.028777 c 0,-3.654609 -1.72936,-7.524494 -7.47113,-7.524068 C 116.65871,32.504765 99.143,32.519 99.143,32.519 H 74.299 c -0.492,-0.495 -0.984,-1.252 -1.506,-1.747 -5.193593,-5.501546 -13.945407,-5.501546 -19.139,0 -5.212,5.24 -5.212,14.003 0,19.243 5.212,5.24 13.928,5.24 19.139,0 0.753,-0.757 1.506,-1.514 1.998,-2.504 h 24.351 c 0,0 16.59272,0.03083 18.46056,0.03524 6.08174,0.01437 7.28212,-4.157176 7.28212,-7.517467 z"
       id="path3"
       transform="translate(0.5,0.5)"
       style="fill:#0066cc;fill-opacity:1;stroke:none" />
    <path
       d="M 64.368,68.501 C 48.703,68.501 36.02,55.75 36.02,40 c 0,-15.75 12.682,-28.501 28.347,-28.501 6.949,0 13.175,2.504 18.155,6.492 L 90.485,9.985 C 83.536,3.726 74.328,0 64.396,0 44.996,0 28.868,14.003 25.364,32.489 H 8.455 C 2.751,32.489 0,35.983 0,40 c 0,4.017 3.967,7.511 8.455,7.511 h 16.91 C 28.839,65.997 44.997,80 64.396,80 74.849,80 84.288,76.012 91.238,69.258 l -7.963,-8.006 c -5.009,4.483 -11.698,7.249 -18.908,7.249 z"
       id="path2"
       transform="translate(0.5,0.5)"
       style="fill:#0066cc;fill-opacity:1;stroke:none" />
    <symbol
       id="A"
       overflow="visible"
       style="fill:#0066cc;fill-opacity:1;stroke:none">
      <path
         d="M 64.368,68.501 C 48.703,68.501 36.02,55.75 36.02,40 c 0,-15.75 12.682,-28.501 28.347,-28.501 6.949,0 13.175,2.504 18.155,6.492 L 90.485,9.985 C 83.536,3.726 74.328,0 64.396,0 44.996,0 28.868,14.003 25.364,32.489 H 8.455 C 2.751,32.489 0,35.983 0,40 c 0,4.017 3.967,7.511 8.455,7.511 h 16.91 C 28.839,65.997 44.997,80 64.396,80 74.849,80 84.288,76.012 91.238,69.258 l -7.963,-8.006 c -5.009,4.483 -11.698,7.249 -18.908,7.249 z M 125,40.495 99.143,23.261 v 9.258 H 74.299 c -0.492,-0.495 -0.984,-1.252 -1.506,-1.747 a 13.16,13.16 0 0 0 -19.139,0 c -5.212,5.24 -5.212,14.003 0,19.243 5.212,5.24 13.928,5.24 19.139,0 0.753,-0.757 1.506,-1.514 1.998,-2.504 h 24.351 v 10.247 z"
         fill="#2a3282"
         stroke="none"
         id="path1"
         style="fill:#0066cc;fill-opacity:1;stroke:none" />
    </symbol>
  </g>
</svg>
