<?xml version="1.0" encoding="UTF-8" standalone="no"?>
<!-- Generator: Adobe Illustrator 20.0.0, SVG Export Plug-In . SVG Version: 6.00 Build 0)  -->

<svg
   version="1.1"
   id="Layer_1"
   x="0px"
   y="0px"
   viewBox="0 0 52.400002 103.8"
   xml:space="preserve"
   width="52.400002"
   height="103.8"
   xmlns="http://www.w3.org/2000/svg"
   xmlns:svg="http://www.w3.org/2000/svg"><defs
   id="defs13" />
<style
   type="text/css"
   id="style1">
	.st2{fill:url(#SVGID_x1_);}
</style>


<linearGradient
   id="SVGID_x1_"
   gradientUnits="userSpaceOnUse"
   x1="33.232498"
   y1="68.463402"
   x2="56.899502"
   y2="59.130299">
	<stop
   offset="0"
   style="stop-color:#C2C2C4"
   id="stop12" />
	<stop
   offset="1"
   style="stop-color:#717073"
   id="stop13" />
</linearGradient>
<polygon
   fill="url(#SVGID_x1_)"
   points="26.2,18.2 18.3,28.6 18.3,28.6 16.2,37.1 21.9,37.3 23.3,40.7 32.8,34.4 25,44.8 25,44.8 22.7,52.9 28.4,53.1 29.7,56.3 39.1,50.1 31.5,60.8 31.5,60.8 29.2,68.8 34.8,69 36.2,72.3 46,65.9 46,66 38.2,76.5 37,83.5 43.5,83.5 45.7,86.5 51,83 48.1,90.1 46.8,96.4 52.9,96.3 54.7,98.7 58.8,96 56.5,101.1 65.6,113.5 64.3,104.8 66.6,99 63.5,98.9 62,87.8 65.1,78.6 60.7,78.5 59.2,68 61.3,60.2 56.3,60 53.2,52.3 55.4,44.1 49.7,43.9 46.8,36.7 48.9,28.3 43.3,28.1 40.3,20.8 42.4,12.4 36.8,12.2 35.7,9.7 14.2,18.5 16.6,24.4 "
   id="polygon13"
   transform="translate(-14.2,-9.7)" />
</svg>
