<?xml version="1.0" encoding="UTF-8" standalone="no"?>
<svg
   width="261.36356"
   height="263.961"
   viewBox="0 0 261.36356 263.961"
   version="1.1"
   id="svg125"
   xmlns="http://www.w3.org/2000/svg"
   xmlns:svg="http://www.w3.org/2000/svg">
  <defs
     id="defs62">
    <linearGradient
       id="logosApacheFlink0"
       x1="54.620485"
       x2="23.527363"
       y1="234.28751"
       y2="-23.736284"
       gradientTransform="matrix(0.74988267,0,0,-1.333542,-9.7174961e-5,263.961)"
       gradientUnits="userSpaceOnUse">
      <stop
         offset="38.36%"
         stop-color="#faa100"
         id="stop1" />
      <stop
         offset="65.84%"
         stop-color="#bf73f2"
         id="stop2" />
      <stop
         offset="66.49%"
         stop-color="#c370e6"
         id="stop3" />
      <stop
         offset="68.52%"
         stop-color="#cc68c7"
         id="stop4" />
      <stop
         offset="70.81%"
         stop-color="#d461ab"
         id="stop5" />
      <stop
         offset="73.41%"
         stop-color="#db5b95"
         id="stop6" />
      <stop
         offset="76.43%"
         stop-color="#e05784"
         id="stop7" />
      <stop
         offset="80.17%"
         stop-color="#e35479"
         id="stop8" />
      <stop
         offset="85.43%"
         stop-color="#e55272"
         id="stop9" />
      <stop
         offset="100%"
         stop-color="#e65270"
         id="stop10" />
    </linearGradient>
    <linearGradient
       id="logosApacheFlink1"
       x1="117.58304"
       x2="40.088819"
       y1="315.61068"
       y2="-49.27421"
       gradientTransform="matrix(0.99552646,0,0,-1.0044936,-9.7174961e-5,263.961)"
       gradientUnits="userSpaceOnUse">
      <stop
         offset="38.36%"
         stop-color="#faa100"
         id="stop11" />
      <stop
         offset="65.84%"
         stop-color="#bf73f2"
         id="stop12" />
      <stop
         offset="66.49%"
         stop-color="#c370e6"
         id="stop13" />
      <stop
         offset="68.52%"
         stop-color="#cc68c7"
         id="stop14" />
      <stop
         offset="70.81%"
         stop-color="#d461ab"
         id="stop15" />
      <stop
         offset="73.41%"
         stop-color="#db5b95"
         id="stop16" />
      <stop
         offset="76.43%"
         stop-color="#e05784"
         id="stop17" />
      <stop
         offset="80.17%"
         stop-color="#e35479"
         id="stop18" />
      <stop
         offset="85.43%"
         stop-color="#e55272"
         id="stop19" />
      <stop
         offset="100%"
         stop-color="#e65270"
         id="stop20" />
    </linearGradient>
    <linearGradient
       id="logosApacheFlink2"
       x1="123.46831"
       x2="119.05709"
       y1="288.53086"
       y2="105.78891"
       gradientTransform="matrix(1.0596497,0,0,-0.94370809,-9.7174961e-5,263.961)"
       gradientUnits="userSpaceOnUse">
      <stop
         offset="0%"
         stop-color="#faa7b5"
         id="stop21" />
      <stop
         offset="38.36%"
         stop-color="#faa100"
         id="stop22" />
      <stop
         offset="73.17%"
         stop-color="#bf73f2"
         id="stop23" />
    </linearGradient>
    <linearGradient
       id="logosApacheFlink3"
       x1="128.21164"
       x2="154.42223"
       y1="215.3435"
       y2="143.60063"
       gradientTransform="matrix(0.79336075,0,0,-1.2604606,-9.7174961e-5,263.961)"
       gradientUnits="userSpaceOnUse">
      <stop
         offset="0%"
         stop-color="#f6e8a0"
         id="stop24" />
      <stop
         offset="100%"
         stop-color="#e65271"
         id="stop25" />
    </linearGradient>
    <linearGradient
       id="logosApacheFlink4"
       x1="132.95484"
       x2="155.04736"
       y1="170.90967"
       y2="109.51618"
       gradientTransform="matrix(0.78726999,0,0,-1.2702123,-9.7174961e-5,263.961)"
       gradientUnits="userSpaceOnUse">
      <stop
         offset="0%"
         stop-color="#f6e8a0"
         id="stop26" />
      <stop
         offset="100%"
         stop-color="#e65271"
         id="stop27" />
    </linearGradient>
    <linearGradient
       id="logosApacheFlink5"
       x1="293.49447"
       x2="292.26961"
       y1="169.43698"
       y2="113.25034"
       gradientTransform="matrix(0.6167681,0,0,-1.6213549,-9.7174961e-5,263.961)"
       gradientUnits="userSpaceOnUse">
      <stop
         offset="0%"
         stop-color="#f6e8a0"
         id="stop28" />
      <stop
         offset="100%"
         stop-color="#e65271"
         id="stop29" />
    </linearGradient>
    <linearGradient
       id="logosApacheFlink6"
       x1="200.95219"
       x2="181.88"
       y1="157.82568"
       y2="272.34953"
       gradientTransform="matrix(0.85900507,0,0,-1.1641375,-9.7174961e-5,263.961)"
       gradientUnits="userSpaceOnUse">
      <stop
         offset="0%"
         stop-color="#e65271"
         id="stop30" />
      <stop
         offset="38.36%"
         stop-color="#faa100"
         id="stop31" />
    </linearGradient>
    <linearGradient
       id="logosApacheFlink7"
       x1="69.137787"
       x2="173.3571"
       y1="252.33263"
       y2="174.61389"
       gradientTransform="matrix(1.0687567,0,0,-0.93566662,-9.7174961e-5,263.961)"
       gradientUnits="userSpaceOnUse">
      <stop
         offset="0%"
         stop-color="#f6e8a0"
         id="stop32" />
      <stop
         offset="100%"
         stop-color="#e65271"
         id="stop33" />
    </linearGradient>
    <linearGradient
       id="logosApacheFlink8"
       x1="141.56136"
       x2="89.827981"
       y1="143.95897"
       y2="120.94095"
       gradientTransform="matrix(0.78181628,0,0,-1.2790729,-9.7174961e-5,263.961)"
       gradientUnits="userSpaceOnUse">
      <stop
         offset="0%"
         stop-color="#faa7b5"
         id="stop34" />
      <stop
         offset="38.36%"
         stop-color="#faa100"
         id="stop35" />
      <stop
         offset="73.17%"
         stop-color="#bf73f2"
         id="stop36" />
    </linearGradient>
    <linearGradient
       id="logosApacheFlink9"
       x1="362.3702"
       x2="-35.981267"
       y1="243.508"
       y2="112.43786"
       gradientTransform="matrix(1.2765421,0,0,-0.78336623,-9.7174961e-5,263.961)"
       gradientUnits="userSpaceOnUse">
      <stop
         offset="0%"
         stop-color="#faa7b5"
         id="stop37" />
      <stop
         offset="38.36%"
         stop-color="#faa100"
         id="stop38" />
      <stop
         offset="73.17%"
         stop-color="#bf73f2"
         id="stop39" />
    </linearGradient>
    <linearGradient
       id="logosApacheFlinka"
       x1="234.61535"
       x2="208.21243"
       y1="72.555397"
       y2="21.599712"
       gradientTransform="matrix(1.0806197,0,0,-0.92539491,-9.7174961e-5,263.961)"
       gradientUnits="userSpaceOnUse">
      <stop
         offset=".41%"
         stop-color="#faa7b5"
         id="stop40" />
      <stop
         offset="38.36%"
         stop-color="#faa100"
         id="stop41" />
    </linearGradient>
    <linearGradient
       id="logosApacheFlinkb"
       x1="73.586677"
       x2="64.257365"
       y1="192.47242"
       y2="61.663643"
       gradientTransform="matrix(0.73617718,0,0,-1.3583686,-9.7174961e-5,263.961)"
       gradientUnits="userSpaceOnUse">
      <stop
         offset="0%"
         stop-color="#faa7b5"
         id="stop42" />
      <stop
         offset="38.36%"
         stop-color="#faa100"
         id="stop43" />
      <stop
         offset="73.17%"
         stop-color="#bf73f2"
         id="stop44" />
    </linearGradient>
    <linearGradient
       id="logosApacheFlinkc"
       x1="43.032194"
       x2="35.972916"
       y1="177.12117"
       y2="57.912214"
       gradientTransform="matrix(0.6708587,0,0,-1.4906269,-9.7174961e-5,263.961)"
       gradientUnits="userSpaceOnUse">
      <stop
         offset="0%"
         stop-color="#faa7b5"
         id="stop45" />
      <stop
         offset="38.36%"
         stop-color="#faa100"
         id="stop46" />
      <stop
         offset="73.17%"
         stop-color="#bf73f2"
         id="stop47" />
    </linearGradient>
    <linearGradient
       id="logosApacheFlinkd"
       x1="26.541096"
       x2="28.970744"
       y1="115.56017"
       y2="39.654185"
       gradientTransform="matrix(0.61388369,0,0,-1.6289731,-9.7174961e-5,263.961)"
       gradientUnits="userSpaceOnUse">
      <stop
         offset="0%"
         stop-color="#faa7b5"
         id="stop48" />
      <stop
         offset="38.36%"
         stop-color="#faa100"
         id="stop49" />
      <stop
         offset="73.17%"
         stop-color="#bf73f2"
         id="stop50" />
    </linearGradient>
    <linearGradient
       id="logosApacheFlinke"
       x1="385.02288"
       x2="384.41211"
       y1="148.3692"
       y2="38.020699"
       gradientTransform="matrix(0.50749429,0,0,-1.9704655,-9.7174961e-5,263.961)"
       gradientUnits="userSpaceOnUse">
      <stop
         offset="0%"
         stop-color="#faa7b5"
         id="stop51" />
      <stop
         offset="38.36%"
         stop-color="#faa100"
         id="stop52" />
      <stop
         offset="73.17%"
         stop-color="#bf73f2"
         id="stop53" />
    </linearGradient>
    <linearGradient
       id="logosApacheFlinkf"
       x1="240.78024"
       x2="229.21058"
       y1="126.02245"
       y2="106.92581"
       gradientUnits="userSpaceOnUse"
       gradientTransform="matrix(1,0,0,-1,-9.7174961e-5,263.961)">
      <stop
         offset="0%"
         stop-color="#faa7b5"
         id="stop54" />
      <stop
         offset="38.36%"
         stop-color="#faa100"
         id="stop55" />
      <stop
         offset="73.17%"
         stop-color="#bf73f2"
         id="stop56" />
    </linearGradient>
    <radialGradient
       id="logosApacheFlinkg"
       cx="93.476607"
       cy="277.38492"
       r="35.502288"
       fx="93.476607"
       fy="277.38492"
       gradientTransform="matrix(1.9261319,0,0,-0.51917525,-9.7174961e-5,263.961)"
       gradientUnits="userSpaceOnUse">
      <stop
         offset=".91%"
         stop-color="#fff"
         id="stop57" />
      <stop
         offset="100%"
         stop-color="#fff"
         stop-opacity="0"
         id="stop58" />
    </radialGradient>
    <radialGradient
       id="logosApacheFlinkh"
       cx="31.841042"
       cy="22.868086"
       r="48.521011"
       fx="31.841042"
       fy="22.868086"
       gradientTransform="scale(0.59391044,1.6837555)"
       gradientUnits="userSpaceOnUse">
      <stop
         offset=".91%"
         stop-color="#fff"
         id="stop59" />
      <stop
         offset="100%"
         stop-color="#fff"
         stop-opacity="0"
         id="stop60" />
    </radialGradient>
    <radialGradient
       id="logosApacheFlinki"
       cx="26.253241"
       cy="27.724413"
       r="40.027814"
       fx="26.253241"
       fy="27.724413"
       gradientTransform="scale(0.71993971,1.3890052)"
       gradientUnits="userSpaceOnUse">
      <stop
         offset=".91%"
         stop-color="#fff"
         id="stop61" />
      <stop
         offset="100%"
         stop-color="#fff"
         stop-opacity="0"
         id="stop62" />
    </radialGradient>
  </defs>
  <path
     fill="#e65270"
     d="m 167.2359,261.513 a 835,835 0 0 0 -10.503,-0.054 l -9.04,0.008 c 0,0 -25.846,-0.01 -38.204,-0.01 -1.937,0 -3.885,0.007 -5.828,0.012 -1.942,0.005 -3.884997,0.013 -5.831997,0.013 q -1.823,10e-4 -3.642,-0.01 c -7.35,-0.044 -14.378,-0.927 -20.882,-2.632 -25.909,-6.778 -45.524,-22.148 -58.31,-45.674 C 8.8649028,201.889 5.3819028,189.272 4.6469028,175.68 c -0.327,-6.046 -0.019,-12.241 0.919,-18.411 0.111,-0.736 0.246,-1.471 0.378,-2.212 l 0.298,-1.684 0.505,0.498 c 0.267,0.264 0.35,0.538 0.41,0.746 0.253,0.82 0.486,1.655 0.725,2.481 0.492,1.722 1.005,3.504 1.605,5.214 4.4060002,12.567 11.0970002,24.34 20.4520002,36.008 0.37,0.46 0.648,0.971 0.808,1.466 3.173,9.767 8.687,18.203 16.385,25.098 7.488,6.703 16.466,11.723 26.72,14.947 -6.576,-2.812 -12.666,-6.41 -18.141,-10.728 -8.928,-7.042 -15.367,-15.66 -19.123,-25.616 -0.376,-1 -0.692,-2.207 -0.181,-3.543 0.165,-0.456 0.284,-0.928 0.409,-1.402 0.08,-0.326 0.16,-0.652 0.264,-0.976 2.023,-6.613 5.095,-11.798 9.39,-15.844 4.003,-3.771 9.1,-6.53 15.586,-8.436 6.056,-1.782 12.376,-2.585 18.486,-3.362 l 2.621,-0.336 c 3.42,-0.449 6.89,-0.977 10.239,-1.495 l 2.018,-0.31 c 0.75,-0.115 1.497,-0.278 2.271,-0.446 l 1.883,-0.394 -0.494,0.842 c -0.04,0.072 -0.07,0.132 -0.125,0.194 a 51.8,51.8 0 0 0 -7.915,11.754 c -0.174,0.36 -0.552,0.692 -0.917,0.808 -0.45,0.148 -0.899,0.293 -1.347,0.443 -1.427,0.48 -2.898,0.961 -4.395,1.259 -1.611,0.321 -3.261,0.554 -4.86,0.777 -1.279,0.181 -2.556,0.36 -3.83,0.593 -4.28,0.762 -7.594,2.137 -10.096,4.237 a 18,18 0 0 1 1.673,-0.295 c 0.774,-0.111 1.572,-0.23 2.302,-0.482 3.945,-1.372 8.276,-2.01 13.632,-2.01 l 0.723,0.003 c 0.958,0.01 1.92,0.054 2.89,0.101 l 1.883,0.078 -0.142,0.463 c -3.839,12.55 -3.73,24.863 0.308,36.669 -1.689,-8.006 -1.997,-15.443 -0.95,-22.63 1.598,-10.985 6.439,-20.452 14.389997,-28.137 5.36,-5.182 12.088,-9.534 20.56,-13.295 7.36,-3.27 15.026,-5.234 22.244,-6.97 l 1.365,-0.334 c 5.15,-1.238 10.478,-2.517 15.634,-4.033 7.737,-2.266 14.461,-5.993 19.986,-11.096 0.826,-0.764 1.769,-1.631 2.51,-2.59 5.276,-6.838 11.427,-11.689 18.799,-14.833 0.212,-0.091 0.453,-0.316 0.606,-0.573 2.414,-3.937 5.307,-6.835 8.848,-8.868 0.79,-0.454 1.574,-0.681 2.338,-0.681 0.97,0 1.938,0.37 2.883,1.09 0.358,0.274 0.684,0.562 0.972,0.855 1.24,1.246 2.232,2.779 3.136,4.815 0.112,0.243 0.213,0.32 0.485,0.355 0.9,0.119 1.826,0.24 2.748,0.422 15.061,2.986 25.543,14.57 27.364,30.24 0.05,0.416 0.08,0.839 0.117,1.258 0.077,0.995 0.16,2.02 0.456,2.945 0.375,1.168 0.935,2.32 1.486,3.422 0.239,0.49 0.487,0.99 0.713,1.489 0.194,0.43 0.398,0.855 0.6,1.28 0.48,1.007 0.967,2.035 1.376,3.09 a 7.6,7.6 0 0 1 0.217,4.941 c -0.207,0.72 -0.642,0.827 -0.885,0.827 a 1.1,1.1 0 0 1 -0.58,-0.187 15,15 0 0 1 -1.187,-0.868 c -0.181,-0.15 -0.37,-0.287 -0.557,-0.427 a 22,22 0 0 1 -0.611,-0.487 c -0.487,-0.378 -0.935,-0.746 -1.443,-1.023 a 1.16,1.16 0 0 0 -0.557,-0.158 1,1 0 0 0 -0.546,0.168 l 0.71,0.635 a 279,279 0 0 1 3.773,3.393 c 0.262,0.238 0.436,0.679 0.412,1.036 -0.147,2.352 -0.968,4.302 -2.447,5.805 -1.762,1.782 -3.608,2.647 -5.642,2.647 q -0.653,-0.001 -1.331,-0.122 c -0.08,0.79 -0.251,1.085 -0.91,1.437 -4.159,2.256 -8.215,3.355 -12.393,3.355 l -0.653,-0.006 c -2.846,0 -5.617,0.809 -8.723,2.541 -1.072,0.594 -2.018,1 -2.898,1.233 -2.67,0.71 -5.367,0.977 -7.807,1.09 1.046,0.146 2.14,0.216 3.313,0.216 0.748,0 1.52,-0.031 2.352,-0.086 l 0.479,-0.049 c 0.352,-0.034 0.71,-0.065 1.051,-0.065 0.459,0 0.837,0.057 1.156,0.19 2.175,0.89 4.304,1.968 6.301,2.988 0.391,0.202 0.674,0.285 0.933,0.285 0.147,0 0.285,-0.028 0.435,-0.083 l 0.583,-0.217 c 1.09,-0.412 2.214,-0.837 3.292,-1.313 2.554,-1.137 4.76,-1.674 6.936,-1.674 0.583,0 1.163,0.044 1.743,0.122 1.49,0.202 3.233,0.544 4.802,1.51 0.775,0.477 1.806,1.272 1.901,2.756 0.006,0.026 0.055,0.114 0.177,0.228 q 0.287,0.259 0.59,0.505 c 0.202,0.166 0.41,0.34 0.604,0.523 1.217,1.117 1.753,2.53 1.603,4.207 -0.05,0.468 -0.153,1.567 -1.093,1.567 -0.283,0 -0.617,-0.104 -1.083,-0.34 a 3,3 0 0 0 -0.536,-0.228 c 0.461,0.28 0.907,0.562 1.344,0.86 1.039,0.707 1.547,1.79 1.497,3.217 -0.098,3.108 -3.372,6.05 -6.737,6.05 -0.398,0 -0.795,-0.048 -1.168,-0.126 -0.992,-0.22 -2.225,-0.635 -2.968,-1.925 a 0.4,0.4 0 0 0 -0.127,-0.098 l -0.572,0.026 c -0.674,0.026 -1.368,0.054 -2.013,0.202 l -0.189,0.044 c -1.096,0.254 -2.222,0.505 -3.38,0.505 -0.464,0 -0.894,-0.041 -1.313,-0.122 -0.516,-0.096 -1.026,-0.223 -1.55,-0.352 l -0.377,-0.09 c -0.596,1.94 -1.565,3.76 -2.873,5.423 -2.93,3.727 -6.835,6.351 -11.932,8.022 -3.694,1.217 -7.67,1.826 -11.816,1.826 -2.179,0 -4.466,-0.164 -6.794,-0.495 -9.185,-1.313 -15.595,-6.307 -19.058,-14.839 -0.586,-1.43 -0.977,-2.947 -1.358,-4.419 a 71,71 0 0 0 -0.58,-2.142 c -1.088,-3.7 -2.458,-6.964 -4.193,-9.995 -3.152,-5.499 -7.048,-9.418 -11.915,-11.98 -3.89,-2.048 -8.148,-3.087 -12.65,-3.087 -1.885,0 -3.857,0.18 -5.864,0.54 -0.407,0.072 -0.81,0.16 -1.222,0.248 1.416,0.065 2.76,0.142 4.123,0.274 6.297,0.638 12.031,2.572 17.043,5.748 6.82,4.328 11.003,9.705 12.787,16.434 a 59,59 0 0 0 4.233,11.135 c 1.046,2.103 2.377,4.538 4.294,6.594 2.712,2.899 6.203,4.88 10.985,6.225 1.308,0.37 2.608,0.771 3.9,1.186 0.715,0.23 1.213,0.725 1.52,1.523 0.75,1.942 0.936,3.921 0.553,5.877 -0.562,2.872 -1.927,5.532 -4.178,8.13 -1.777,2.049 -3.981,3.538 -6.116,4.98 a 32,32 0 0 0 -2.996,2.267 c -0.785,0.674 -1.192,1.554 -1.145,2.482 0.065,1.528 0.179,1.585 0.466,1.585 0.238,0 0.611,-0.09 1.22,-0.288 a 10,10 0 0 0 0.886,-0.347 l 1.78,-0.767 c 1.015,-0.437 2.025,-0.878 3.05,-1.302 2.218,-0.922 4.411,-1.399 6.515,-1.399 1.126,0 2.248,0.135 3.343,0.396 3.94,0.943 6.525,3.282 7.685,6.957 0.308,0.995 0.267,1.844 -0.142,2.536 -0.27,0.459 -0.889,0.842 -1.401,0.857 -0.477,0 -0.92,-0.422 -1.264,-0.797 -0.19,-0.21 -0.239,-0.485 -0.272,-0.723 -0.016,-0.078 -0.029,-0.16 -0.047,-0.233 -0.35,-1.308 -0.834,-2.163 -1.564,-2.735 1.305,1.774 1.888,3.67 1.782,5.776 -0.107,2.09 -1.674,3.548 -3.81,3.548 -0.086,0 -0.171,-0.005 -0.267,-0.01 -0.811,-0.05 -1.329,-0.487 -1.412,-1.207 -0.057,-0.498 -0.057,-1.01 -0.06,-1.502 q 10e-4,-0.308 -0.005,-0.614 c -0.005,-0.27 -0.002,-0.531 0,-0.8 0,-0.576 0.003,-1.117 -0.067,-1.65 -0.16,-1.15 -0.844,-1.928 -2.033,-2.308 a 1,1 0 0 0 -0.254,-0.06 c 0.36,0.205 0.668,0.487 0.89,0.896 0.441,0.816 0.814,1.56 1.021,2.36 0.529,2.126 0.008,3.784 -1.504,4.8 -0.785,0.52 -1.79,0.714 -2.676,0.838 -0.36,0.052 -0.712,0.068 -1.067,0.068 -1.324,0 -2.619,-0.311 -3.865,-0.606 l -0.637,-0.153 c -1.183,-0.27 -2.23,-0.41 -3.237,-0.412 -0.86,0 -1.756,0.166 -2.622,0.326 l -0.398,0.073 c -6.561,1.181 -12.462,1.753 -18.025,1.753 z"
     id="path63" />
  <path
     fill="#430a1d"
     d="m 220.6359,184.95 c 0,0 -9.671,11.541 -26.103,4.929 -15.048,-6.064 -9.56,-22.752 -9.56,-22.752 0,0 2.665,10.35 10.454,14.271 11.274,5.68 25.21,3.552 25.21,3.552 m -47.664,4.941 c 2.095,2.13 2.134,4.308 2.792,6.963 1.24,4.993 2.766,9.33 5.947,13.437 3.059,3.948 6.719,6.74 11.446,8.555 4.095,1.57 9.358,1.106 8.576,7.203 l -1.37,5.134 c -10.467,0 -20.268,-4.776 -24.262,-15.162 -3.502,-9.112 0.621,-20.123 -9.99,-35.53 0.847,1.04 5.776,8.29 6.861,9.4"
     opacity="0.2"
     id="path64" />
  <path
     fill="#2b2b2b"
     d="m 168.8319,185.364 c 0.16,0.647 0.303,1.305 0.45,1.96 -0.39,-0.481 -0.593,-1.09 -0.45,-1.96"
     opacity="0.2"
     id="path65" />
  <path
     fill="url(#logosApacheFlink0)"
     d="M 46.896903,225.179 C 7.4199028,221.279 2.7739028,181.981 2.7739028,181.981 c 0,0 -2.14499997,-18.213 2.86,-36.08 3.213,32.506 29.2900002,55.01 29.2900002,55.01 0,0 5.73,18.522 11.972,24.267"
     id="path66"
     style="fill:url(#logosApacheFlink0)" />
  <path
     fill="#2b2b2b"
     d="m 37.053903,210.214 c 0,0 -8.28,0.787 -19.325,-12.622 10.648,19.325 24.45,19.718 24.45,19.718 z"
     opacity="0.2"
     id="path67" />
  <path
     fill="url(#logosApacheFlink1)"
     d="m 58.388903,232.776 c -2.07,-36.34 19.265,-19.478 30.278,-38.748 3.095,-16.862 12.383997,-27.528 12.383997,-27.528 0,0 -66.063997,-12.386 -67.099997,35.788 2.3,10.43 12.41,20.516 18.742,25.973 -1.24,-2.792 -17.012,-46.19 35.513,-42.651 -18.13,-1.544 -44.304,17.395 -31.83,45.767 a 44,44 0 0 0 2.013,1.399"
     id="path68"
     style="fill:url(#logosApacheFlink1)" />
  <path
     fill="#ffffff"
     d="m 76.247903,180.37 c -13.655,5.134 -36.848,5.11 -30.248,39.955 -1.056,0.793 -6.333,-7.392 -5.017,-6.597 -6.071,-31.151 21.2,-29.35 35.265,-33.358"
     opacity="0.2"
     id="path69" />
  <path
     fill="#8b4fba"
     d="m 93.539903,167.891 c 13.278997,-5.253 2.496,9.64 0.61,12.023 -4.361,5.512 -15.387,3.72 -21.267,5.559 -3.38,1.056 -16.926,3.043 -21.418,15.872 -1.997,5.683 -2.745,14.973 1.505,26.28 -1.054,0.797 -8.04,-6.854 -6.718,-6.067 -11.208,-50.07 41.667,-32.096 47.287,-53.667"
     opacity="0.6"
     id="path70" />
  <path
     fill="#f9e0e7"
     d="m 225.5629,147.445 c 0.362,-0.995 0.979,-2.267 1.758,-3.018 0.182,0.086 0.379,0.096 0.526,0.19 1.295,-0.84 3.339,-0.729 4.968,-0.729 0.971,0 2.393,-0.269 3.33,0.096 1.368,0.531 1.213,1.971 1.783,3.062 1.072,2.036 4.38,2.062 4.39,4.94 0.01,1.354 0.35,3.19 0.005,4.516 -0.261,0.985 -1.36,0.684 -2.31,0.684 -2.87,0 -5.737,0.08 -8.615,0.08 l -3.978,-2.965 c -1.062,0.339 -1.891,-1.888 -2.039,-2.645 -0.235,-1.246 -0.266,-2.973 0.182,-4.211"
     id="path71" />
  <path
     fill="#ffffff"
     d="m 238.8369,151.39 c 0.487,-0.2 1.207,-0.98 1.505,-1.438 0.217,-0.33 0.158,-0.539 0.621,-0.526 1.215,0.034 1.226,1.673 1.163,2.52 -0.072,1.083 -0.51,2.078 -0.668,3.142 -0.393,-0.098 -0.611,-0.593 -1.057,-0.717 -0.35,-0.104 -0.854,-0.055 -1.225,-0.04 -0.536,0.024 -1.284,0.387 -1.771,0.18 z"
     id="path72" />
  <path
     fill="url(#logosApacheFlink2)"
     d="m 81.497903,98.129 c 0.181,-0.21 0.23,-0.272 0.285,-0.332 5.27,-4.92 8.063,-11.132 9.565,-18.076 0.987,-4.546 -0.27,-8.555 -2.318,-12.474 -0.036,-0.065 -0.101,-0.13 -0.171,-0.218 -0.41,1.28 -0.782,2.536 -1.217,3.772 -1.07,3.046 -2.365,5.993 -4.422,8.516 -0.82,1.005 -35.256,20.081 -31.71,62.328 0.02,0.262 0.064,0.51 0.1,0.803 0.638,-0.593 1.195,-1.207 1.837,-1.712 2.292,-1.792 4.937,-2.934 7.7,-3.706 5.054,-1.41 10.138,-2.704 15.233,-3.95 5.791,-1.42 11.619,-2.735 17.211,-4.875 3.163,-1.207 6.097,-2.797 8.904997,-4.714 4.178,-2.86 7.788,-6.28 10.897,-10.244 1.81,-2.307 2.654,-4.069 3.47,-6.78 0.516,1.39 0.246,5.28 -0.53,7.762 -0.809,2.562 -2.171,4.8 -3.948,6.853 0.425,-0.134 0.891,-0.204 1.272,-0.422 4.926,-2.807 9.29,-6.265 12.513,-11.005 2.16,-3.176 3.476,-6.652 3.66,-10.521 0.002,-0.055 0.028,-0.109 0.043,-0.194 1.026,4.747 0.878,12.828 -4.473,18.57 1.891,-0.665 3.603,-1.336 5.351,-1.856 1.448,-0.43 2.404,-1.277 3.202,-2.55 3.512,-5.557 6.423,-11.385 7.998,-17.811 1.22,-4.963 1.523,-9.946 0.158,-14.932 -1.549,-5.636 -4.952,-9.975 -9.583,-13.422 -3.217,-2.396 -6.766,-4.173 -10.49,-5.629 -0.226,-0.088 -0.45,-0.168 -0.674,-0.266 -0.036,-0.013 -0.054,-0.055 -0.194,-0.21 1.29,0.355 2.445,0.655 3.59,0.994 5.338,1.586 10.448,3.652 14.976,6.963 4.04,2.952 7.133,6.635 8.68,11.479 1.38,4.336 1.26,8.718 0.269,13.1 -1.45,6.393 -4.43,12.084 -8.053,17.474 -0.111,0.17 -0.22,0.334 -0.326,0.502 -0.016,0.024 -0.013,0.068 -0.034,0.163 0.15,-0.057 0.27,-0.095 0.378,-0.152 7.595,-3.883 14.342,-8.848 19.719,-15.52 5.222,-6.476 9.019,-13.687 10.827,-21.856 2.271,-10.308 -0.218,-19.462 -6.895,-27.535 -4.22,-5.11 -9.439,-8.975 -15.212,-12.125 -7.452,-4.056 -15.38,-6.708 -23.772,-7.928 -4.771,-0.697 -9.547,-0.829 -14.316,0.088 -2.62,0.497 -4.32,1.186 -7.224,2.865 0.368,-0.314 0.718,-0.645 1.104,-0.928 2.608,-1.98 5.615,-3.004 8.773,-3.644 5.221,-1.057 10.487,-1.044 15.753,-0.43 8.153,0.953 15.924,3.212 23.287,6.854 0.72,0.362 1.433,0.733 2.228,1.142 0,-0.668 -0.042,-1.251 0.01,-1.829 0.065,-0.89 0.516,-1.4 1.218,-1.484 0.668,-0.083 1.059,0.169 1.191,0.826 0.106,0.557 0.135,1.13 0.215,1.69 0.179,1.274 0.772,2.354 1.647,3.291 a 1.6,1.6 0 0 0 0.298,0.251 c 0.052,0.04 0.12,0.037 0.306,0.073 0,-0.458 0.002,-0.88 0,-1.3 -0.013,-0.852 -0.05,-1.707 -0.029,-2.56 0.006,-0.21 0.156,-0.546 0.298,-0.587 0.2,-0.055 0.562,0.046 0.69,0.204 0.333,0.44 0.693,0.917 0.844,1.44 0.334,1.109 0.486,2.27 0.831,3.37 a 6.8,6.8 0 0 0 1.044,2.008 c 0.494,0.647 1,0.505 1.189,-0.288 0.176,-0.74 0.24,-1.51 0.352,-2.266 0.039,-0.262 0.05,-0.531 0.13,-0.775 0.062,-0.21 0.217,-0.383 0.328,-0.577 0.171,0.158 0.425,0.274 0.498,0.471 0.173,0.44 0.344,0.914 0.367,1.378 0.055,1.026 -0.044,2.06 0.032,3.08 a 4,4 0 0 0 0.486,1.595 c 0.296,0.526 0.772,0.464 0.933,-0.124 0.236,-0.84 0.352,-1.707 0.52,-2.564 0.12,-0.58 0.241,-1.158 0.381,-1.868 0.687,0.586 0.852,1.236 0.92,1.865 0.173,1.676 0.261,3.36 0.406,5.038 0.117,1.259 0.547,2.365 1.29,3.44 1.35,1.955 2.544,4.025 3.753,6.076 0.62,1.051 1.194,1.147 1.777,0.065 0.658,-1.23 1.148,-2.544 1.704,-3.831 0.244,-0.562 0.446,-1.135 0.702,-1.689 0.12,-0.27 0.322,-0.497 0.505,-0.777 0.661,0.48 0.819,1.106 0.692,1.728 -0.189,0.935 -0.534,1.844 -0.777,2.769 -0.264,1.01 -0.541,2.017 -0.7,3.048 -0.059,0.414 0.128,0.912 0.314,1.313 0.27,0.583 0.694,0.653 1.147,0.197 0.467,-0.46 0.824,-1.023 1.275,-1.492 0.256,-0.27 0.606,-0.432 0.917,-0.645 0.173,0.378 0.526,0.772 0.494,1.135 a 8.2,8.2 0 0 1 -0.53,2.274 c -0.578,1.463 -1.35,2.857 -1.845,4.34 -0.357,1.078 -0.424,2.257 -0.541,3.4 -0.034,0.279 0.202,0.774 0.422,0.854 0.23,0.08 0.687,-0.148 0.891,-0.373 0.94,-1.031 1.824,-2.121 2.748,-3.18 0.223,-0.265 0.526,-0.451 0.79,-0.68 0.09,0.047 0.176,0.083 0.27,0.133 -0.091,0.598 -0.065,1.246 -0.283,1.802 a 17,17 0 0 1 -1.357,2.676 c -0.837,1.34 -1.792,2.595 -2.647,3.916 -1.585,2.443 -2.637,5.11 -3.292,7.95 -0.477,2.04 -1.147,4.037 -1.738,6.045 -0.067,0.248 -0.16,0.49 -0.168,0.766 0.515,-0.82 1.02,-1.66 1.554,-2.478 1.116,-1.72 2.403,-3.3 4.134,-4.44 0.87,-0.57 1.805,-1.083 2.779,-1.44 5.006,-1.842 10.067,-3.554 14.838,-5.955 1.358,-0.691 2.655,-1.523 3.89,-2.424 1.565,-1.134 2.14,-2.717 1.674,-4.634 l -0.992,-4.045 c -0.808,1.29 -1.523,2.533 -2.336,3.698 -0.814,1.166 -1.824,2.155 -3.323,2.82 0.137,-0.256 0.173,-0.367 0.243,-0.458 2.103,-2.898 3.313,-6.193 4.253,-9.604 0.096,-0.352 -0.013,-0.777 -0.075,-1.158 -0.43,-2.486 -0.223,-4.978 -0.111,-7.472 a 7.5,7.5 0 0 0 -0.044,-1.502 c -0.032,-0.228 -0.215,-0.513 -0.41,-0.599 -0.132,-0.06 -0.476,0.122 -0.593,0.28 -0.484,0.679 -1.023,1.344 -1.347,2.093 -1.303,3.028 -2.548,6.082 -3.794,9.128 -1.55,3.804 -3.292,7.498 -5.955,10.673 -1.204,1.438 -2.572,2.689 -4.255,3.562 a 6.6,6.6 0 0 1 -1.024,0.409 c 2.604,-2.691 3.186,-6.097 3.303,-9.58 0.155,-4.461 0.065,-8.932 0.111,-13.397 0.047,-4.828 0.446,-9.614 1.886,-14.266 0.054,-0.184 -0.039,-0.454 -0.14,-0.637 -0.404,-0.793 -0.92,-1.534 -1.256,-2.352 -0.705,-1.717 -1.298,-3.479 -1.992,-5.206 -0.401,-1.016 -0.541,-1.09 -1.63,-1.013 -1.167,0.083 -1.87,-0.588 -2.488,-1.42 -0.477,-0.629 -0.671,-0.613 -0.997,0.125 -0.355,0.803 -0.635,1.629 -1.018,2.419 -0.133,0.27 -0.472,0.446 -0.713,0.663 -0.186,-0.274 -0.494,-0.544 -0.528,-0.837 -0.099,-0.955 -0.073,-1.919 -0.143,-2.877 -0.033,-0.477 -0.095,-0.958 -0.256,-1.404 -0.078,-0.21 -0.399,-0.438 -0.632,-0.456 -0.163,-0.013 -0.45,0.27 -0.52,0.482 -0.239,0.681 -0.376,1.39 -0.594,2.077 -0.17,0.552 -0.42,0.611 -0.748,0.16 -2.396,-3.263 -5.59,-5.576 -9.009,-7.632 -1.01,-0.606 -2,-1.241 -3.002,-1.852 -0.07,0.023 -0.14,0.049 -0.204,0.067 q 0.197,1.666 0.386,3.328 c -0.09,0.05 -0.182,0.091 -0.27,0.138 -0.318,-0.27 -0.68,-0.492 -0.945,-0.808 -0.663,-0.785 -1.264,-1.62 -1.937,-2.401 -1.334,-1.565 -3.01,-2.684 -4.624,-3.054 0.51,1.748 0.997,3.403 1.477,5.063 -0.073,0.04 -0.158,0.07 -0.234,0.104 -0.165,-0.207 -0.362,-0.399 -0.5,-0.624 a 49,49 0 0 1 -1.134,-1.92 c -1.538,-2.784 -3.911,-4.39 -7.024,-4.838 a 85,85 0 0 0 -6.395,-0.652 c -1.565,-0.11 -3.07,-0.34 -4.502,-1.026 -0.995,-0.453 -2.072,-0.767 -3.129,-1.116 -0.176,-0.063 -0.412,0.012 -0.616,0.025 0.015,0.226 -0.034,0.487 0.057,0.674 0.497,0.974 1.038,1.924 1.538,2.898 0.184,0.35 0.303,0.736 0.448,1.106 -0.049,0.055 -0.095,0.104 -0.142,0.158 -0.319,-0.106 -0.65,-0.179 -0.948,-0.324 -1.378,-0.668 -2.774,-1.297 -4.108,-2.048 -1.357,-0.767 -2.852,-0.83 -4.32,-0.954 -4.595,-0.385 -9.138,-0.077 -13.58,1.267 -2.702,0.813 -5.199,2.041 -7.395,3.94 0.277,-0.029 0.565,-0.029 0.834,-0.078 2.68,-0.552 5.364,-1.07 8.125,-0.98 1.88,0.06 3.712,0.36 5.362,1.314 0.264,0.15 0.43,0.466 0.642,0.702 -0.37,0.13 -0.759,0.378 -1.114,0.331 -0.857,-0.1 -1.694,-0.42 -2.559,-0.49 -2.75,-0.245 -5.398,0.39 -8.016,1.112 -6.34,1.74 -12.082997,4.701 -17.415997,8.511 -1.3,0.925 -2.65,1.782 -4.002,2.642 -2.631,1.673 -4.76,3.836 -6.444,6.455 a 5.3,5.3 0 0 0 -0.505,0.99 c -0.345,0.957 -0.09,1.758 0.813,2.234 0.648,0.342 1.365,0.586 2.083,0.76 9.477,2.31 16.534997,10.121 17.627997,19.785 0.412,3.624 0.917,7.258 0.736,10.933 -0.417,8.436 -3.437997,15.787 -9.070997,22.065 -3.349,3.735 -7.307,6.706 -11.643,9.206 -0.085,0.057 -0.178,0.093 -0.432,0.225"
     id="path73"
     style="fill:url(#logosApacheFlink2)" />
  <path
     fill="#8b4fba"
     d="m 202.9399,42.128 c -4.027,31.439 -17.977,24.324 -27.105,41.874 -0.5,-0.663 -1.652,4.704 0.648,-5.26 2.302,-9.975 8.902,-5.47 15.147,-16.877 7.907,-14.417 6.33,-15.71 11.31,-19.737"
     opacity="0.2"
     id="path74" />
  <path
     fill="#ffffff"
     d="m 161.2579,42.721 c -1.497,8.998 -14.22,8.592 -25.106,4.774 -11.83,-4.15 -36.409997,-5.481 -38.385997,-0.531 -0.986,1.134 -2.968,-3.53 -2.968,-3.53 0,0 18.666997,-20.367 49.916997,1.129 -1.272,-1.98 11.23,-7.77 11.23,-7.77 0,0 3.759,-1.145 5.313,5.928"
     opacity="0.3"
     id="path75" />
  <path
     fill="#8b4fba"
     d="m 96.509903,129.117 c 0.679,1.684 6.205997,0.55 6.723997,-2.08 -8.153997,-9.236 13.313,-26.21 -6.485997,-48.362 12.953997,34.179 -14.629,35.57 -0.238,50.442"
     opacity="0.2"
     id="path76" />
  <path
     fill="#8b4fba"
     d="m 96.509903,129.117 c 0.679,1.684 0.557,1.202 1.072,-1.427 -8.153,-9.24 13.564997,-22.71 -0.834,-49.015 12.953997,34.179 -14.629,35.57 -0.238,50.442"
     opacity="0.6"
     id="path77" />
  <path
     fill="url(#logosApacheFlink3)"
     d="m 126.2189,122.372 c 39.186,-41.232 -10.35,-34.324 -26.494997,-62.31 0.029,-0.482 0.063,-0.948 0.063,-1.443 0,-3.89 -0.943,-7.553 -2.585,-10.8 15.109997,22.412 53.415997,2.65 45.976997,48.466 -0.671,2.354 -6.001,25.572 -16.96,26.087"
     id="path78"
     style="fill:url(#logosApacheFlink3)" />
  <path
     fill="url(#logosApacheFlink4)"
     d="m 126.2189,122.372 c -16.131,7.918 -30.234997,8.151 -29.568997,5.802 32.052997,-21.749 6.179997,-44.161 0.148,-65.273 0.411,-1.705 2.989,-2.34 2.989,-4.274 0,-0.207 -0.026,-0.404 -0.031,-0.609 0.465997,2.096 1.569997,2.824 2.628997,3.886 14.898,15.027 62.256,20.05 23.834,60.468"
     id="path79"
     style="fill:url(#logosApacheFlink4)" />
  <path
     fill="#e65271"
     d="M 121.1679,121.758 C 145.9779,84.7 99.659903,77.66 99.993903,65.91 c -3.688,24.166 40.710997,34.511 -1.008,63.435 -0.665,2.347 6.047997,0.334 22.181997,-7.587"
     id="path80" />
  <path
     fill="url(#logosApacheFlink5)"
     d="m 190.4999,57.384 c 1.971,3.292 -0.217,7.177 -2.512,10.816 -2.119,3.362 -7.234,2.261 -10.705,10.366 l 0.298,-6.315 c 3.844,-6.7 -2.66,-15.924 -4.473,-22.158 -3.08,-10.62 -6.434,-20.418 -2.347,-31.193 0.275,-0.723 0.51,-1.515 0.79,-2.259 2.038,1.505 3.577,3.005 5.33,5.292 1.158,1.518 0.754,-3.916 2.277,-2.774 1.122,0.826 -0.054,4.67 1.015,5.558 1.195,1.01 1.917,-4.838 2.782,-3.543 2.023,3.04 3.184,1.111 4.046,2.023 0.78,0.826 2.603,7.195 3.339,8.058 a 74,74 0 0 1 2.085,2.566 c -0.41,4.637 -1.31,9.848 -2.803,14.031 -1.406,3.95 -1.471,5.597 0.878,9.532"
     id="path81"
     style="fill:url(#logosApacheFlink5)" />
  <path
     fill="#e65271"
     d="m 135.3459,8.972 a 0.8,0.8 0 0 0 0.285,0.06 c 1.086,-0.019 -2.927,-5.062 -1.774,-5.062 1.948,0 4.693,2.01 6.597,2.158 4.023,0.308 8.19,0.218 11.751,1.847 3.412,1.564 4.93,6.42 5.693,6.625 0.772,0.213 -1.857,-5.613 -1.103,-5.354 a 9.7,9.7 0 0 1 3.14,1.762 c 3.366,4.82 4.462,28.709 -0.482,28.092 -5.191,-0.647 8.19,1.834 8.244,1.634 4.476,-16.89 -5.494,-27.276 -5.043,-26.69 0.59,0.776 1.064,1.38 1.57,1.574 1.061,0.41 -0.664,-4.072 0.308,-3.478 3.09,1.888 5.281,3.22 7.081,4.56 0.055,0.079 0.07,0.265 0.158,0.229 1.329,-0.552 9.514,-2.476 3.284,26.927 9.46,-19.144 2.054,-26.655 2.78,-25.87 3.359,3.626 4.045,12.479 4.478,17.729 0.407,4.924 -2.691,16.15 -6.703,19.86 -2.829,2.612 -2.772,-0.62 -3.831,-3.118 -1.743,-4.1 -4.94,-7.405 -7.84,-10.782 -2.16,-2.513 -4.782,-4.35 -7.157,-6.597 -2.587,-2.45 -3.95,-5.875 -6.263,-8.563 -2.07,-2.404 -4.61,-4.318 -6.576,-6.825 -2.207,-2.808 -3.68,-6.02 -6.115,-8.605 -0.772,-0.828 -1.637,-1.45 -2.482,-2.113"
     id="path82" />
  <path
     fill="url(#logosApacheFlink6)"
     d="m 153.4849,6.289 c 5.781,-0.019 9.412,2.75 14.194,5.397 3.963,2.205 8.835,2.225 12.184,5.26 4.45,4.039 6.374,8.04 7.208,13.951 0.956,6.73 1.072,15.308 -0.202,22.014 -0.653,3.44 -3.095,10.49 -5.672,13.005 l -3.093,-1.969 c -6.097,-15.75 -24.484,-22.213 -31.441,-37.691 -2.052,-4.556 -2.824,-10.477 -2.873,-15.455 -0.054,-5.212 5.483,-4.497 9.695,-4.512"
     id="path83"
     style="fill:url(#logosApacheFlink6)" />
  <path
     fill="#f6e8a0"
     d="m 95.960903,45.648 c -3.362,-5.224 -8.685,-9.065 -14.937,-10.462 -1.59,-0.354 -4.442,-1.344 -1.619,-4.74 3.018,-4.708 7.353,-6.516 9.687,-8.246 9.384,-6.968 5.504,-7.68 10.976997,-8.312 2.14,-0.249 1.575,-0.435 2.66,0 1.085,0.435 -0.834,-0.306 -1.52,-0.759 -6.107997,-4.043 -5.667997,4.022 -3.043997,2.28 C 105.9849,9.363 123.9909,5.12 129.0389,5.986 c 0.733,0.124 5.807,3.056 6.587,3.043 1.085,-0.018 -2.924,-5.061 -1.772,-5.061 1.943,0 4.694,2.01 6.597,2.157 3.94,0.303 15.92,5.797 15.831,20.26 -0.026,4.419 0.246,7.517 -0.35,10.4 -4.364,21.156 -48.582,-8.532 -59.969997,8.863"
     id="path84" />
  <path
     fill="#ffffff"
     d="m 148.8929,32.607 c -2.05,-2.56 -15.37,-7.172 -15.37,-7.172 0,0 -22.117,-7.623 -42.513997,14.085 10.421997,-8.276 28.744997,-4.805 41.992997,-3.277 1.751,0.205 -3.784,-1.562 -2.333,-2.098 4.918,-1.82 9.477,3.282 14.383,2.298 2.29,-0.456 3.662,-1.7 3.84,-3.836"
     id="path85" />
  <path
     fill="#f6e8a0"
     d="m 131.9249,29.025 c -8.123,-2.14 -16.243,0.992 -17.807,1.087 0.738,-1.106 1.937,-3.657 7.951,-4.537 1.384,-0.205 4.155,0.018 5.608,0.015 2.6,-0.005 4.214,0.622 6.509,1.728 1.463,0.704 5.004,1.455 6.126,1.28 0,0 12.45,0.937 8.327,5.159 -4.121,4.219 -10.133,-5.442 -23.33,-2.352 0.006,-0.43 3.02,-2.582 6.616,-2.38"
     id="path86" />
  <path
     fill="#f8d285"
     d="m 119.6139,11.52 c -5.131,-3.398 -14.108,-0.484 -15.271,-0.5 -0.026,-0.118 0.046,-0.25 0.254,-0.383 7.822,-6.045 19.405,-5.506 24.453,-4.641 0.039,0.005 0.09,0.023 0.15,0.044 0.023,0.008 0.06,0.02 0.09,0.034 1.094,0.42 4.668,2.432 5.968,2.875 7.61,4.312 19.63,13.419 20.69,27.846 -4.323,-1.922 -7.43,-3.795 -9.819,-5.618 -0.806,-0.614 -18.99,-19.623 -67.127997,3.217 0,0 -1.34,-0.736 -0.575,-2.456 10.87,-17.467 30.715997,-22.484 62.322997,-5.941 -4.483,-5.344 -6.654,-10.182 -21.135,-14.476"
     id="path87" />
  <path
     fill="url(#logosApacheFlink7)"
     d="m 150.3849,109.694 c 17.827,-18.232 25.093,-31.854 16.462,-46.521 -13.976,-23.775 -57.018,1.023 -75.736997,-22.962 1.984,2.267 6.203,6.755 10.279997,8.962 13.875,9.065 39.991,6.149 48.313,13.158 10.71,9.01 13.443,27.188 0.682,47.363"
     id="path88"
     style="fill:url(#logosApacheFlink7)" />
  <path
     fill="url(#logosApacheFlink8)"
     d="m 92.300903,71.585 c -0.02,1.223 2.777,8.276 2.34,9.9 -3.757,13.865 -20.03,20.666 -20.03,20.666 0,0 -18.227,7.336 -21.125,40.862 -3.323,2.39 -2.862,-2.702 -2.759,-4.965 2.067,-43.967 38.647,-39.054 41.574,-66.463"
     id="path89"
     style="fill:url(#logosApacheFlink8)" />
  <path
     fill="url(#logosApacheFlink9)"
     d="m 154.3139,144.243 c -0.3,-0.14 -0.588,-0.318 -0.904,-0.409 -1.596,-0.445 -3.204,-0.855 -4.805,-1.31 -0.505,-0.146 -0.987,-0.376 -1.481,-0.565 q 0.009,-0.163 0.01,-0.319 c 0.578,-0.103 1.142,-0.285 1.72,-0.292 2.297,-0.026 4.595,0.005 6.895,0.01 3.248,0.008 6.506,-0.008 9.638,-0.956 1.528,-0.466 3.02,-1.165 4.42,-1.945 14.798,-8.237 25.254,-20.291 31.546,-35.99 1.287,-3.209 2.274,-6.527 3.035,-9.894 0.05,-0.186 0.068,-0.38 0.125,-0.704 -0.246,0.15 -0.404,0.222 -0.552,0.318 -9.055,6.203 -18.944,10.41 -29.734,12.453 -3.86,0.728 -7.755,1.093 -11.682,1.207 -0.293,0.008 -0.668,0.12 -0.862,0.322 -5.87,5.983 -12.8,10.407 -20.278,14.087 -5.97,2.935 -12.272,4.709 -18.753,5.97 -8.306,1.614 -16.634,3.147 -24.939997,4.746 -10.202,1.96 -20.353,4.139 -30.216,7.475 -6.258,2.113 -12.319,4.654 -17.862,8.293 -4.172,2.746 -7.887,5.988 -10.513,10.306 -0.922,1.523 -1.577,3.21 -2.373,4.813 -0.145,0.287 -0.297,0.588 -0.52,0.808 -5.502,5.38 -7.67,11.925 -6.825,19.519 0.627,5.618 2.64,10.757 5.509,15.592 0.34,0.568 0.627,1.158 0.894,1.658 0.137,-1.225 0.246,-2.598 0.437,-3.958 1.215,-8.653 5.67,-15.097 13.254,-19.402 4.41,-2.513 9.161,-4.173 14.085,-5.26 5.398,-1.192 10.842,-2.195 16.284,-3.181 6.607,-1.194 13.251,-2.192 19.675,-4.217 a 67,67 0 0 0 3.710997,-1.31 c 1.58,-0.594 3.057,-1.358 4.432,-2.378 4.553,-3.355 9.544,-5.924 14.802,-7.98 0.145,-0.055 0.28,-0.117 0.423,-0.172 0.005,-0.02 0.007,-0.049 0.028,-0.103 -0.085,-0.008 -0.16,-0.018 -0.238,-0.018 -5.882,-0.003 -11.777,0.03 -17.66,-0.003 -5.264997,-0.034 -10.512997,0.13 -15.731997,0.816 -7.229,0.958 -14.225,2.831 -21.04,5.424 -8.037,3.066 -15.641,6.99 -23.018,11.394 -0.197,0.119 -0.399,0.233 -0.665,0.28 0.14,-0.112 0.266,-0.236 0.401,-0.34 8.073,-6.12 16.67,-11.347 26.152,-15.012 6.605,-2.546 13.42,-4.22 20.465,-4.965 6.206,-0.656 12.413997,-0.594 18.624997,-0.143 5.37,0.391 10.739,0.782 16.116,1.15 a 4,4 0 0 0 1.417,-0.163 c 5.312,-1.616 10.749,-2.567 16.237,-3.347 3.243,-0.458 6.44,-1.235 9.654,-1.875 0.217,-0.046 0.422,-0.16 0.63,-0.246 z"
     id="path90"
     style="fill:url(#logosApacheFlink9)" />
  <path
     fill="#ffffff"
     d="m 55.409903,162.353 c 21.045,-25.137 75.639997,-11.96 98.903997,-18.11 -14.728,8.462 -26.712,7.001 -26.712,7.001 0,0 -50.271997,-5.553 -72.191997,11.11"
     opacity="0.2"
     id="path91" />
  <path
     fill="#e65271"
     d="m 216.3029,66.965 c -0.712,0.121 -1.238,0.155 -1.72,0.31 -1.893,0.594 -3.87,1.034 -5.649,1.889 -1.691,0.815 -3.258,1.973 -4.722,3.165 -2.844,2.31 -5.555,4.768 -8.358,7.107 -2.297,1.914 -4.732,3.626 -7.633,4.515 -0.935,0.284 -1.906,0.448 -2.883,0.608 3.78,-1.903 5.895,-5.297 8.09,-8.778 -0.187,0.034 -0.255,0.026 -0.304,0.05 -5.766,2.82 -11.412,5.832 -16.546,9.736 -1.367,1.044 -2.45,2.23 -3.22,3.849 -1.235,2.574 -2.796,4.996 -4.213,7.477 -0.062,0.112 -0.132,0.22 -0.303,0.518 1.24,-0.261 2.328,-0.435 3.398,-0.707 4.517,-1.155 8.718,-3.11 12.842,-5.234 6.439,-3.334 12.572,-7.188 18.52,-11.324 a 2.2,2.2 0 0 1 0.6,-0.316 c -0.054,0.075 -0.096,0.158 -0.16,0.22 -7.059,7.037 -14.974,12.834 -24.229,16.675 -4.001,1.668 -8.148,2.78 -12.463,3.227 -0.16,0.024 -0.37,0.073 -0.461,0.184 -0.961,1.163 -1.899,2.34 -2.963,3.652 2.634,-0.564 5.113,-1.06 7.573,-1.632 6.89,-1.6 13.648,-3.633 20.097,-6.565 4.766,-2.166 9.309,-4.712 13.132,-8.333 5.045,-4.781 8.76,-10.438 10.927,-17.064 0.316,-0.973 0.415,-2.028 0.648,-3.23"
     id="path92" />
  <path
     fill="#8b4fba"
     d="m 97.107903,130.943 a 176,176 0 0 0 6.856997,-2.49 c 29.28,-9.13 38.96,-16.744 38.96,-16.744 l 29.416,-21.778 c 0,0 4.805,3.68 11.029,-1.132 -4.24,5.09 -17.25,9.05 -17.25,9.05 0,0 -0.599,4.004 -4.841,7.115 11.572,-3.934 31.024,-2.805 44.518,-14.958 -10.205,28.865 -35.551,6.861 -60.046,24.814 -2.826,1.699 -40.186,11.246 -21.62,10.59 18.566,-0.652 30.797,12.019 46.304,7.864 -14.554,5.281 -27.42,-3.178 -47.695,-4.602 3.155,0.631 7.475,2.37 9.317,4.745 -7.35,-5.248 -21.734,-5.489 -25.153,-4.29 a 90,90 0 0 0 -9.795997,1.816"
     opacity="0.6"
     id="path93" />
  <path
     fill="#2b2b2b"
     d="m 167.3469,139.848 c -21.335,8.475 -96.739997,-16.074 -130.598997,22.01 0,0 -2.535,-1.134 10.949,-16.247 53.013997,-25.344 92.469997,-1.378 119.649997,-5.763"
     opacity="0.2"
     id="path94" />
  <path
     fill="url(#logosApacheFlinkg)"
     d="m 200.3379,106.086 c 6.312,-3.551 1.183,5.128 -5.126,10.254 -24.852,17.354 -36.088,-2.393 -60.733,7.11 37.704,-20.786 41.4,5.118 65.859,-17.364"
     opacity="0.7"
     id="path95"
     style="fill:url(#logosApacheFlinkg)" />
  <path
     fill="#8b4fba"
     d="m 198.4049,111.015 c 6.315,-3.551 3.116,0.202 -3.193,5.33 -24.852,17.354 -36.088,-2.393 -60.733,7.11 24.259,-13.5 39.473,10.037 63.926,-12.44"
     opacity="0.2"
     id="path96" />
  <g
     opacity="0.7"
     id="g98"
     transform="translate(-9.7174961e-5)">
    <path
       fill="url(#logosApacheFlinkh)"
       d="M 12.456,35.314 C 0.961,24.793 9.972,1.754 9.972,1.754 L 1.792,0 c 0,0 -8.254,22.275 10.664,35.314"
       transform="matrix(1,0,0,-1,63.266,137.022)"
       id="path97"
       style="fill:url(#logosApacheFlinkh)" />
    <path
       fill="url(#logosApacheFlinki)"
       d="M 32.296,52.965 C 40.96,37.546 17.983,16.335 30.32,8.827 30.126,7.814 23.265,4.375 23.586,5.369 8.359,28.735 33.472,34.306 30.176,48.914 12.567,24.891 12.378,20.136 20.934,4.926 20.83,4.844 19.89,3.616 18.952,4.316 5.574,14.344 1.808,25.616 32.296,52.966"
       transform="matrix(1,0,0,-1,63.266,137.022)"
       id="path98"
       style="fill:url(#logosApacheFlinki)" />
  </g>
  <path
     fill="#8b4fba"
     d="m 123.8749,115.392 c 0.549,7.221 5.592,-4.51 6.356,-12.606 0.658,-30.3 -30.064,-22.972 -31.466997,-47.485 -2.99,27.888 30.251997,27.274 25.109997,60.091"
     opacity="0.2"
     id="path99" />
  <path
     fill="#ffffff"
     d="m 153.6609,103.374 c 0.544,7.221 15.043,-11.366 15.81,-19.46 C 164.6039,31.928 111.0979,63.546 97.107903,44.389 108.6659,65.374 183.4549,36.184 153.6609,103.374"
     opacity="0.3"
     id="path100" />
  <path
     fill="url(#logosApacheFlinka)"
     d="m 251.5619,204.601 c -0.785,0.689 -1.43,1.316 -2.14,1.86 a 11.5,11.5 0 0 1 -1.836,1.134 c -1.564,0.756 -3.139,0.855 -4.719,0.015 -2.463,-1.305 -5.107,-1.403 -7.804,-1.108 -0.785,0.083 -1.297,0.456 -1.657,1.189 -2.702,5.558 -7.204,9.127 -12.842,11.386 -0.645,0.259 -0.948,0.56 -1.062,1.261 -0.285,1.77 -0.407,3.51 0.013,5.274 0.684,2.82 2.437,4.843 4.802,6.4 2.473,1.632 5.234,2.593 8.084,3.308 3.426,0.846 6.894,1.419 10.435,1.409 1.8,-0.003 3.582,-0.213 5.312,-0.736 3.865,-1.168 6.253,-3.75 7.128,-7.654 0.568,-2.536 1.104,-5.097 1.363,-7.674 0.593,-5.908 -0.99,-11.21 -4.895,-15.759 -0.068,-0.088 -0.117,-0.196 -0.182,-0.305"
     id="path101"
     style="fill:url(#logosApacheFlinka)" />
  <path
     fill="#f6e8a0"
     d="m 240.3859,205.036 c 0.293,1.774 3.623,2.256 5.17,2.204 2.722,-0.09 4.483,-1.678 6.252,-3.74 0.285,-0.337 0.508,-0.668 0.702,-1.008 3.08,2.458 4.805,5.787 4.33,9.182 -0.838,5.984 -8.207,9.887 -16.452,8.729 -5.7,-0.803 -10.329,-3.82 -12.36,-7.584 1.508,-1.927 2.098,-4.375 4.085,-6.043 1.937,-1.616 5.76,-1.849 8.273,-1.74"
     opacity="0.3"
     id="path102" />
  <path
     fill="url(#logosApacheFlinkb)"
     d="m 39.913903,148.779 c 1.782,0.88 3.027,1.072 4.133,0.673 -1.271,-6.475 -1.937,-13.005 -1.712,-19.576 0.254,-7.273 1.513,-14.355 4.704,-20.985 0.404,-0.842 0.873,-1.658 1.422,-2.435 -0.034,0.13 -0.054,0.262 -0.104,0.38 -1.717,4.313 -2.51,8.815 -2.769,13.436 -0.409,7.2 0.44,14.287 1.997,21.303 0.04,0.171 0.089,0.337 0.161,0.586 1.018,-0.684 2.007,-1.337 2.974,-2.023 0.116,-0.086 0.119,-0.399 0.093,-0.598 -0.492,-4.261 -0.459,-8.52 0,-12.78 0.658,-6.087 2.16,-11.953 4.302,-17.667 2.984,-7.978 7.03,-15.385 11.969,-22.309 0.116,-0.16 0.233,-0.321 0.342,-0.484 0.023,-0.036 0.02,-0.08 0.054,-0.213 -0.717,0.254 -1.39,0.485 -2.067,0.728 -4.548,1.648 -9.003,3.507 -13.292,5.755 a 9.5,9.5 0 0 0 -1.888,1.285 c -6.035,5.346 -9.597,12.106 -11.205,19.947 -0.239,1.165 -0.41,2.351 -0.733,3.522 0.07,-1.3 0.106,-2.605 0.22,-3.906 0.539,-6.187 1.696,-12.261 3.781,-18.123 0.531,-1.489 0.161,-2.833 -0.064,-4.232 -0.07,-0.435 -0.378,-0.834 -0.58,-1.251 -0.335,0.324 -0.746,0.596 -0.987,0.98 -1.715,2.726 -2.82,5.72 -3.725,8.793 -1.386,4.698 -2.212,9.531 -2.893,14.385 -0.632,4.533 -1.034,9.091 -1.015,13.673 0.023,4.634 0.378,9.226 1.919,13.65 0.733,2.103 1.72,4.074 3.142,5.797 0.505,0.616 1.134,1.142 1.699,1.712 0.041,-0.01 0.078,-0.016 0.122,-0.023"
     id="path103"
     style="fill:url(#logosApacheFlinkb)" />
  <path
     fill="#2b2b2b"
     d="m 60.919903,86.25 c 0,0 -11.516,1.62 -16.373,9.54 -4.859,7.915 -6.255,21.529 -6.255,21.529 0,0 -2.486,20.304 5.755,32.128 -5.221,-43.359 16.873,-63.197 16.873,-63.197"
     opacity="0.2"
     id="path104" />
  <path
     fill="url(#logosApacheFlinkc)"
     d="m 39.913903,148.779 -0.122,0.018 c -2.375,-0.928 -4.232,-2.526 -5.75,-4.533 -2.21,-2.927 -3.37,-6.312 -4.087,-9.853 -1.062,-5.278 -1.153,-10.617 -0.702,-15.952 0.261,-3.049 0.704,-6.087 1.075,-9.12 0.012,-0.109 0.015,-0.215 0.025,-0.435 -0.186,0.16 -0.318,0.251 -0.424,0.362 -8.807,9.13 -15.43,19.649 -19.766,31.576 -0.113,0.311 -0.075,0.73 0.021,1.057 2.59,8.273 6.333,16.015 10.923,23.345 1.937,3.093 4.071,6.06 6.12,9.083 0.16,0.239 0.35,0.454 0.643,0.837 0.072,-1.52 0.885,-2.75 0.259,-4.24 -0.8,-1.898 -1.316,-3.895 -1.21,-5.999 0.044,-0.777 0.228,-1.502 0.77,-2.222 0.535,1.523 0.95,3.023 2.144,4.17 0.35,-0.624 0.42,-1.168 0.197,-1.836 -0.83,-2.482 -1.407,-5.017 -1.249,-7.657 0.05,-0.808 0.233,-1.603 0.454,-2.416 0.72,1.981 1.914,3.603 3.294,5.16 0.08,-0.12 0.156,-0.198 0.197,-0.29 1.842,-3.808 4.201,-7.266 7.011,-10.42 0.13,-0.154 0.125,-0.423 0.177,-0.635"
     id="path105"
     style="fill:url(#logosApacheFlinkc)" />
  <path
     fill="#2b2b2b"
     d="m 31.003903,158.932 c 0,0 -12.951,-25.344 -6.89,-47.11 0.754,-0.595 -1.215,0.941 -3.556,3.637 -0.36,0.41 -4.701,29.15 4.113,41.82 -11.847,-14.054 -6.237,-39.165 -6.74,-38.432 -1.057,1.565 -2.007,3.292 -2.636,5.098 -6.0610002,28.377 14.877,45.455 14.877,45.455 z"
     opacity="0.2"
     id="path106" />
  <path
     fill="#e65270"
     d="m 229.1859,250.176 c -0.533,0.814 -1.152,1.632 -1.644,2.534 a 3.3,3.3 0 0 0 -0.247,2.673 c 0.373,1.14 1.135,1.577 2.321,1.411 0.95,-0.145 1.901,-0.29 2.86,-0.321 1.018,-0.034 1.088,0.104 1.204,1.09 0.026,0.262 0.06,0.531 0.158,0.77 0.383,0.976 0.95,1.818 2.085,1.968 1.104,0.145 1.878,-0.471 2.471,-1.318 1.774,-2.513 0.303,-5.908 -2.78,-6.317 -0.955,-0.127 -1.952,0.028 -2.931,0.054 -0.19,0.008 -0.378,0.041 -0.565,0.057 -0.046,-0.055 -0.093,-0.117 -0.142,-0.171 0.264,-0.308 0.469,-0.718 0.8,-0.912 a 3.7,3.7 0 0 1 2.32,-0.46 c 5.277,0.603 10.307,-0.022 14.783,-3.184 2.484,-1.759 4.32,-4.067 5.721,-6.745 0.01,-0.018 0.026,-0.036 0.036,-0.054 0.177,-0.487 0.537,-1.08 0.055,-1.45 -0.277,-0.218 -0.917,-0.122 -1.34,0.015 -1.97,0.647 -3.884,1.469 -5.881,2.012 -2.914,0.798 -5.934,0.824 -8.934,0.66 -4.053,-0.217 -8.04,-0.862 -11.868,-2.3 -4.289,-1.61 -8.161,-3.884 -11.52,-7.016 -0.386,-0.362 -0.777,-0.717 -1.213,-1.01 -0.73,-0.487 -1.232,-0.246 -1.258,0.64 a 7.5,7.5 0 0 0 0.18,1.888 c 1.438,6.26 5.236,10.664 10.848,13.572 1.472,0.772 3.051,1.313 4.481,1.914"
     id="path107" />
  <path
     fill="url(#logosApacheFlinkd)"
     d="m 6.2959028,133.652 c -0.227,22.589 7.0380002,42.19 22.1670002,58.835 -0.213,-1.534 -0.495,-3.067 -0.625,-4.598 -0.215,-2.613 -0.354,-5.234 -0.481,-7.86 -0.026,-0.534 -0.16,-0.956 -0.461,-1.384 -5.665,-8.172 -10.86,-16.626 -15.005,-25.689 -2.1030002,-4.597 -3.9000002,-9.319 -4.8640002,-14.302 -0.311,-1.611 -0.484,-3.246 -0.73,-5.002"
     id="path108"
     style="fill:url(#logosApacheFlinkd)" />
  <path
     fill="url(#logosApacheFlinke)"
     d="m 191.0289,59.373 c 2.709,-4.686 5.504,-9.195 6.496,-14.507 0.165,-0.889 0.116,-1.834 0.06,-2.751 -0.296,-5.123 0.235,-10.125 1.895,-15.005 0.148,-0.432 0.324,-0.888 0.314,-1.328 -0.006,-0.365 -0.197,-0.788 -0.44,-1.075 -0.309,-0.365 -0.734,-0.236 -1.133,-0.008 -1.277,0.723 -2.204,1.785 -2.947,3.02 -1.513,2.484 -2.32,5.232 -2.88,8.045 -1.541,7.706 -1.775,15.497 -1.472,23.33 0.006,0.04 0.032,0.077 0.107,0.279"
     id="path109"
     style="fill:url(#logosApacheFlinke)" />
  <path
     fill="#8b4fba"
     d="m 192.6239,29.527 c 0.492,-1.046 2.518,-3.336 3.331,-3.996 l 1.831,-1.169 c -1.841,4.694 -2.5,9.47 -2.5,14.469 0,4.211 1.296,8.122 1.503,12.313 0.163,3.453 -1.342,5.188 -3.131,7.998 -0.808,1.264 -1.912,4.002 -3.668,4.013 -0.813,-1.997 -0.684,-4.5 -0.702,-6.636 -0.023,-2.557 -0.432,-5.051 -0.331,-7.633 0.189,-4.875 2.823,-17.564 3.667,-19.359"
     opacity="0.4"
     id="path110" />
  <path
     fill="#e65270"
     d="m 255.6729,231.411 c -0.078,0.062 -0.104,0.073 -0.112,0.088 -1.991,4.095 -5.532,5.882 -9.811,6.242 -7.068,0.601 -13.85,-0.722 -20.283,-3.68 -2.712,-1.249 -5.03,-3.062 -6.336,-5.849 -0.567,-1.204 -0.839,-2.546 -1.261,-3.87 -1.404,-0.007 -3.074,1.381 -3.183,2.878 -0.04,0.487 0.166,1.031 0.386,1.487 0.888,1.836 2.315,3.227 3.872,4.486 4.002,3.23 8.584,5.268 13.551,6.47 6.525,1.58 13.047,1.627 19.501,-0.329 1.529,-0.463 2.974,-1.24 4.396,-1.997 1.098,-0.588 1.657,-1.593 1.492,-2.9 -0.174,-1.41 -0.904,-2.42 -2.212,-3.026"
     id="path111" />
  <path
     fill="#2b2b2b"
     d="m 255.6729,231.411 c -0.078,0.062 -0.104,0.073 -0.112,0.088 -1.991,4.095 -5.532,5.882 -9.811,6.242 -7.068,0.601 -13.85,-0.722 -20.283,-3.68 -2.712,-1.249 -5.03,-3.062 -6.336,-5.849 -0.567,-1.204 -0.839,-2.546 -1.261,-3.87 -1.404,-0.007 -3.074,1.381 -3.183,2.878 -0.04,0.487 0.166,1.031 0.386,1.487 0.888,1.836 2.315,3.227 3.872,4.486 4.002,3.23 8.584,5.268 13.551,6.47 6.525,1.58 13.047,1.627 19.501,-0.329 1.529,-0.463 2.974,-1.24 4.396,-1.997 1.098,-0.588 1.657,-1.593 1.492,-2.9 -0.174,-1.41 -0.904,-2.42 -2.212,-3.026"
     opacity="0.4"
     id="path112" />
  <path
     fill="#0d0d0d"
     d="m 184.6979,166.423 a 15.6,15.6 0 0 0 1.57,7.17 c 2.21,4.535 5.846,7.5 10.404,9.445 3.976,1.7 8.149,2.277 12.45,2.054 0.055,-0.002 0.11,-0.026 0.294,-0.083 -3.01,-0.463 -5.807,-1.212 -8.514,-2.292 -4.688,-1.872 -8.82,-4.535 -12.031,-8.506 a 22.9,22.9 0 0 1 -3.906,-7.084 c -0.075,-0.238 -0.174,-0.471 -0.267,-0.704 m 35.114,-36.21 c 4.629,-2.826 5.629,-9.464 2.66,-13.259 0.7,4.74 -0.259,9.14 -2.66,13.259 m 7.633,26.049 c 2.262,1.854 4.986,2.367 7.825,2.318 1.135,-0.029 2.264,-0.215 3.398,-0.27 a 7.3,7.3 0 0 1 1.86,0.143 c 1.145,0.262 1.655,0.085 2.046,-1.013 0.886,-2.504 1.303,-5.1 1.005,-7.744 -0.145,-1.267 -0.406,-2.567 -0.914,-3.727 -1.974,-4.619 -7.957,-6.517 -12.389,-3.994 -0.572,0.323 -1.108,0.702 -1.618,1.121 -0.54,0.438 -1.026,0.946 -1.586,1.469 0.252,0.287 0.459,0.564 0.692,0.805 0.536,0.55 0.738,1.2 0.575,1.93 -0.508,2.29 0.484,3.919 2.398,4.965 1.368,0.746 2.865,1.282 4.354,1.777 0.77,0.264 1.56,0.45 2.363,0.611 0.243,-0.007 0.35,-0.049 0.54,-0.202 1.195,-0.772 2.05,-1.784 2.576,-3.11 0.284,0.782 0.227,2.082 -0.024,3.048 -0.155,0.596 -0.054,2.057 0.251,2.481 a 0.5,0.5 0 0 0 -0.064,0.078 5,5 0 0 1 -0.415,-0.22 c -1.533,-0.94 -3.248,-1.238 -4.999,-1.456 -2.16,-0.274 -4.263,-0.769 -6.105,-2.015 -2.214,-1.5 -3.403,-3.584 -3.532,-6.265 -0.006,-0.083 -0.019,-0.16 -0.047,-0.381 -2.007,3.919 -1.394,7.024 1.81,9.65"
     id="path113" />
  <path
     fill="url(#logosApacheFlinkf)"
     d="m 230.3779,147.823 a 4.413,4.413 0 1 0 4.408,-4.414 4.413,4.413 0 0 0 -4.408,4.414"
     id="path114"
     style="fill:url(#logosApacheFlinkf)" />
  <path
     fill="#ffffff"
     d="m 233.3899,148.912 a 0.5,0.5 0 0 0 0.277,-0.08 l 1.042,-0.65 a 0.52,0.52 0 0 0 0.245,-0.443 v -1.302 a 0.52,0.52 0 0 0 -0.245,-0.442 l -1.042,-0.652 a 0.52,0.52 0 0 0 -0.553,0 l -1.042,0.652 a 0.52,0.52 0 0 0 -0.245,0.442 v 1.302 c 0,0.18 0.093,0.347 0.245,0.442 l 1.042,0.652 q 0.13,0.078 0.277,0.079 m 16.719,73.281 c 0.781,0.487 1.999,0.28 2.452,-0.58 1.883,-3.58 1.71,-7.75 -0.132,-11.309 -1.057,-2.04 -4.222,-0.394 -3.168,1.64 1.254,2.432 1.513,5.42 0.262,7.806 -0.446,0.852 -0.285,1.904 0.585,2.443"
     id="path115" />
  <path
     fill="#430a1d"
     d="m 58.479903,232.496 c -1.117,-31.907 18.558,-21.529 27.31,-35 0.712,-0.84 1.134,-1.782 1.455,-2.512 -9.821,5.41 -37.357,1.797 -28.765,37.512"
     opacity="0.2"
     id="path116" />
  <path
     fill="#2b2b2b"
     d="m 43.497903,170.292 c 27.02,-23.26 80.358997,-20.72 84.261997,-20.392 -22.374,15.958 -89.493997,0.956 -91.953997,49.528 -4.357,-13.795 1.253,-23.59 7.692,-29.136"
     opacity="0.2"
     id="path117" />
  <path
     fill="#430a1d"
     d="m 86.685903,196.253 c 0,0 -0.005,7.05 0,12.03 0,4.98 -6.258,2.265 -8.674,-4.57 6.032,-2.365 8.674,-7.46 8.674,-7.46"
     opacity="0.2"
     id="path118" />
  <path
     fill="#430a1d"
     d="m 83.336903,198.615 c 4.525,-7.985 -0.124,-14.893 -0.845,-15.188 2.57,-0.135 7.51,-4.958 8.688,-6.564 1.839,-2.515 1.95,-6.167 2.103,-9.153 3.65,-0.163 6.216,-2.399 9.539997,-3.191 -2.826997,2.644 -6.654997,5.773 -8.369997,9.337 -1.525,3.165 -2.815,6.81 -3.838,10.177 -0.837,2.758 -1.619,5.498 -2.134,8.345 -0.384,2.119 -1.635,4.97 -1.407,7.035 0,0 -0.466,18.573 3.259,27.745 -7.053,-2.401 -10.75,-8.156 -12.034,-10.384 -1.456,-2.52 -4.193,-8.785 -0.803,-12.777 2.189,-0.798 4.585,-3.167 5.84,-5.382"
     opacity="0.2"
     id="path119" />
  <path
     fill="#0d0d0d"
     d="m 17.275903,222.742 c 14.196,19.563 33.187,32.135 56.793,37.598 7.864,1.82 15.86,2.32 23.925,2.29 19.731997,-0.086 39.459997,-0.037 59.191997,-0.04 13.27,-0.004 26.544,0 39.813,-0.033 3.157,-0.005 6.307,-0.215 9.327,-1.266 2.963,-1.026 5.247,-2.842 6.524,-5.782 1.824,-4.245 0.267,-9.586 -3.672,-12.463 -2.888,-2.109 -6.206,-2.722 -9.698,-2.567 -0.94,0.047 -1.878,0.192 -2.813,0.288 -0.212,0.023 -0.445,0.072 -0.647,0.025 -0.303,-0.064 -0.588,-0.215 -0.878,-0.323 0.166,-0.244 0.285,-0.54 0.502,-0.718 3.608,-3.07 6.092,-6.85 7.281,-11.44 0.435,-1.671 0.562,-3.367 0.404,-5.08 q -0.016,-0.202 -0.026,-0.393 c -0.036,-0.886 0.27,-1.16 1.142,-1.202 2.58,-0.12 5.157,-0.22 7.73,-0.422 1.23,-0.099 2.442,-0.4 3.83,-0.487 -0.16,0.212 -0.28,0.526 -0.495,0.624 -2.056,0.95 -3.398,2.536 -4.074,4.65 -0.79,2.488 -1.344,5.032 -1.23,7.671 0.173,4.264 1.834,7.931 4.533,11.166 2.427,2.901 5.416,5.085 8.796,6.742 0.435,0.213 0.551,0.4 0.398,0.889 -0.432,1.396 -0.378,2.805 0.112,4.198 0.298,0.85 0.844,1.466 1.624,1.904 1.777,0.99 3.825,1.13 5.763,0.319 0.054,0.277 0.1,0.59 0.168,0.86 0.56,2.123 1.93,2.968 4,4.211 h 1.447 c 0.057,0 0.112,-0.153 0.171,-0.163 3.644,-0.614 5.175,-3.945 4.753,-7.1 -0.109,-0.813 -0.344,-1.613 -0.502,-2.346 1.652,-0.435 3.354,-0.772 4.978,-1.342 7.498,-2.608 12.448,-7.67 14.543,-15.38 0.837,-3.085 0.319,-5.849 -2.074,-8.138 -0.15,-0.15 -0.161,-0.513 -0.127,-0.76 0.466,-2.913 1.183,-5.806 1.37,-8.738 0.45,-6.957 -1.736,-13.057 -6.571,-18.144 -0.285,-0.295 -0.303,-0.55 -0.228,-0.917 0.318,-1.56 0.684,-3.116 0.875,-4.693 0.394,-3.18 -0.818,-5.818 -2.94,-8.115 -0.186,-0.205 -0.396,-0.425 -0.486,-0.679 -0.594,-1.769 -1.819,-2.973 -3.438,-3.786 -3.263,-1.645 -6.724,-1.98 -10.29,-1.386 -2.336,0.391 -4.47,1.375 -6.579,2.375 -0.93,0.44 -1.785,0.66 -2.644,-0.093 -0.148,-0.127 -0.379,-0.158 -0.516,-0.277 -0.238,-0.226 -0.637,-0.54 -0.593,-0.728 0.06,-0.29 0.404,-0.62 0.702,-0.738 1.645,-0.648 3.339,-0.998 5.12,-0.998 1.337,0 2.676,-0.038 3.997,-0.194 4.214,-0.51 8.079,-2.03 11.707,-4.196 0.244,-0.145 0.51,-0.27 0.785,-0.313 4.69,-0.718 8.46,-4.403 9.278,-9.07 0.08,-0.472 0.07,-1.013 0.313,-1.389 1.99,-3.072 2.15,-6.335 1.003,-9.69 -0.728,-2.121 -1.738,-4.154 -2.539,-6.25 -0.43,-1.124 -0.865,-2.287 -0.973,-3.452 -0.288,-3.323 -0.728,-6.615 -1.62,-9.825 -1.903,-6.853 -5.296,-12.792 -10.743,-17.452 -5.499,-4.7 -11.946,-7.177 -19.087,-7.936 -0.629,-0.065 -0.96,-0.267 -1.24,-0.888 -1.56,-3.536 -4.124,-6.02 -7.815,-7.31 -0.958,-0.334 -1.914,-0.409 -2.815,-0.002 -1.285,0.593 -2.593,1.184 -3.743,1.997 -3.015,2.103 -5.403,4.836 -7.384,7.926 -0.156,0.233 -0.327,0.538 -0.557,0.616 -0.31,0.101 -0.772,0.137 -1.01,-0.028 -0.182,-0.125 -0.223,-0.627 -0.153,-0.92 0.083,-0.344 0.35,-0.65 0.554,-0.953 5.248,-7.59 8.586,-15.937 10.122,-25.036 0.055,-0.285 0.257,-0.593 0.47,-0.808 1.29,-1.313 2.62,-2.58 3.9,-3.904 2.043,-2.11 3.297,-4.667 3.965,-7.503 0.174,-0.744 0.26,-1.508 0.309,-2.267 0.015,-0.23 -0.21,-0.474 -0.324,-0.712 -0.246,0.143 -0.567,0.228 -0.718,0.433 -0.35,0.476 -0.593,1.023 -0.917,1.515 -0.212,0.326 -0.49,0.603 -0.74,0.917 -0.078,-0.184 -0.057,-0.288 -0.021,-0.383 1.373,-3.497 2.328,-7.1 2.79,-10.835 a 32,32 0 0 0 0.243,-3.14 c 0.02,-0.76 -0.487,-1.242 -0.995,-1.038 -0.272,0.109 -0.507,0.34 -0.717,0.547 -2.041,2.023 -4.447,3.522 -6.913,4.942 -0.054,-0.075 -0.096,-0.11 -0.099,-0.148 -0.067,-0.368 -0.134,-0.73 -0.189,-1.098 -0.657,-4.313 -1.795,-8.506 -3.11,-12.666 -1.003,-3.175 -1.57,-6.42 -1.018,-9.767 0.331,-1.995 1.038,-3.8 2.732,-5.069 0.127,-0.096 0.213,-0.249 0.363,-0.42 -0.197,-0.1 -0.319,-0.2 -0.459,-0.228 -2.442,-0.538 -4.967,-0.222 -6.338,2.583 -0.158,0.313 -0.365,0.596 -0.647,1.067 -0.308,-0.617 -0.614,-1.02 -0.712,-1.46 a 21.9,21.9 0 0 1 -0.4,-6.725 c 0.265,-2.792 1.25,-5.348 2.464,-7.84 0.313,-0.648 0.611,-1.313 0.813,-1.997 0.36,-1.24 -0.331,-2.158 -1.629,-2.137 -0.645,0.013 -1.326,0.114 -1.92,0.34 -3.193,1.201 -5.625,3.312 -7.241,6.335 -0.132,0.246 -0.254,0.49 -0.396,0.785 -1.283,-1.246 -2.45,-2.461 -3.06,-4.124 -0.388,-1.064 -0.906,-2.093 -1.437,-3.087 -0.38,-0.715 -0.668,-0.7 -1.134,-0.05 -0.127,0.174 -0.239,0.368 -0.376,0.537 -0.36,0.432 -0.637,0.435 -0.917,-0.055 -0.251,-0.43 -0.44,-0.904 -0.608,-1.367 -0.834,-2.254 -2.2,-4.124 -4.072,-5.618 -0.127,-0.096 -0.272,-0.171 -0.573,-0.355 0.112,0.712 0.202,1.264 0.272,1.818 0.076,0.567 0.143,1.135 0.215,1.733 -0.168,-0.02 -0.22,-0.016 -0.256,-0.036 a 12,12 0 0 1 -0.547,-0.368 c -7.573,-5.232 -15.854,-8.869 -24.802,-10.993 -2.728,-0.647 -5.587,-0.878 -8.05,-2.424 -0.055,-0.036 -0.125,-0.054 -0.184,-0.083 -0.487,-0.191 -0.845,-0.085 -1.223,0.293 -0.24,0.238 -0.67,0.344 -1.015,0.34 -1.093,-0.027 -2.186,-0.268 -3.274,-0.358 -1.003,-0.083 -2.033,-0.311 -2.994,-0.552 -1.65,-0.417 -3.254,-2.02 -4.872,-2.02 h -1.184 c -0.378,0 -0.826,1.088 -1.135,1.468 -0.536,0.671 -1.194,1.456 -2.035,1.51 -5.577,0.347 -11.091,1.156 -16.523,2.51 -8.267,2.052 -16.032997,5.235 -22.991997,10.239 -5.085,3.66 -9.446,8.006 -12.539,13.515 -0.632,1.12 -1.134,2.32 -1.634,3.502 -0.378,0.914 -0.472,1.878 -0.156,2.834 0.267,0.784 0.858,1.22 1.658,1.095 4.543,-0.715 8.392,0.946 11.938,3.523 3.528,2.567 6.216,5.856 7.75,9.97 2.258,6.076 1.035,11.515 -3.223,16.33 -0.43,0.487 -0.917,0.927 -1.44,1.455 -0.197,-0.738 -0.362,-1.409 -0.554,-2.08 -0.966,-3.289 -2.339,-6.36 -4.68,-8.922 -1.36,-1.495 -3.557,-2.347 -1.536,-2.27 1.865,0.065 -0.671,0.032 -0.904,0 2.326,1.599 0.536,2.547 0.88,5.253 0.733,5.756 -1.03,10.708 -5.037,14.865 -0.244,0.254 -0.612,0.415 -0.956,0.536 -4.222,1.497 -8.472,2.917 -12.671,4.479 -7.496,2.787 -14.733,6.138 -21.591,10.27 q -0.14,0.08 -0.293,0.16 c -0.65,-0.42 -0.917,-1.046 -0.888,-1.746 0.036,-0.932 0.186,-1.865 0.298,-2.795 0.01,-0.11 0.046,-0.214 0.054,-0.323 0.223,-1.645 -0.42,-2.181 -1.932,-1.446 -0.76,0.37 -1.456,0.985 -2.002,1.635 -1.746,2.09 -2.829,4.566 -3.867,7.048 -0.55,1.31 -0.985,2.667 -1.542,3.975 -0.199,0.477 -0.518,0.961 -0.914,1.295 -5.94,5.051 -11.472,10.485 -16.16,16.743 -4.02,5.361 -7.446,11.062 -10.2330002,17.16 -0.068,0.16 -0.15,0.315 -0.228,0.473 -0.02,0.034 -0.06,0.055 -0.15,0.132 a 59.5,59.5 0 0 1 -0.557,-16.037 c -0.428,1.595 -0.904,3.183 -1.275,4.791 -1.523,6.486 -1.997,13.05 -1.543,19.695 0.023,0.337 -0.062,0.7 -0.163,1.026 -1.98,6.211 -3.34399997,12.56 -3.92699997,19.048 -2.01500003,22.663 3.49399997,43.39 16.87200017,61.826 m -5.385,-69.788 c 4.144,9.063 9.34,17.517 15.005,25.689 0.297,0.43 0.435,0.852 0.46,1.383 0.128,2.626 0.267,5.245 0.482,7.86 0.13,1.54 0.412,3.073 0.625,4.598 -15.13,-16.646 -22.3940002,-36.246 -22.1670002,-58.834 0.254,1.753 0.42,3.39 0.73,4.996 0.964,4.989 2.762,9.708 4.8650002,14.308 m 55.587,-66.872 c -0.034,0.132 -0.032,0.176 -0.055,0.213 q -0.165,0.239 -0.342,0.484 c -4.94,6.923 -8.985,14.334 -11.969,22.309 -2.142,5.713 -3.644,11.585 -4.302,17.667 -0.458,4.26 -0.492,8.519 0,12.78 0.026,0.199 0.023,0.512 -0.093,0.598 -0.966,0.691 -1.96,1.344 -2.974,2.023 -0.067,-0.246 -0.121,-0.41 -0.16,-0.586 -1.562,-7.016 -2.406,-14.098 -1.997,-21.303 0.264,-4.616 1.051,-9.12 2.769,-13.435 0.049,-0.125 0.07,-0.257 0.103,-0.381 a 17,17 0 0 0 -1.422,2.435 c -3.19,6.633 -4.452,13.712 -4.703,20.985 -0.226,6.568 0.44,13.1 1.712,19.576 -1.106,0.396 -2.344,0.207 -4.134,-0.674 -0.054,0.215 -0.05,0.487 -0.174,0.632 -2.81,3.16 -5.17,6.618 -7.011,10.42 -0.047,0.096 -0.117,0.171 -0.197,0.29 -1.38,-1.564 -2.574,-3.183 -3.294,-5.159 -0.22,0.808 -0.405,1.606 -0.454,2.417 -0.158,2.644 0.42,5.175 1.249,7.656 0.222,0.668 0.152,1.212 -0.197,1.836 -1.194,-1.144 -1.609,-2.647 -2.145,-4.17 -0.541,0.72 -0.725,1.45 -0.77,2.223 -0.105,2.103 0.41,4.1 1.21,5.998 0.627,1.484 -0.18,2.72 -0.258,4.24 -0.293,-0.383 -0.485,-0.595 -0.643,-0.836 -2.049,-3.023 -4.183,-5.989 -6.12,-9.084 -4.587,-7.332 -8.333,-15.067 -10.923,-23.345 -0.096,-0.326 -0.134,-0.746 -0.02,-1.056 4.335,-11.928 10.953,-22.446 19.765,-31.576 0.106,-0.112 0.238,-0.202 0.424,-0.363 -0.01,0.218 -0.013,0.326 -0.025,0.435 -0.37,3.038 -0.814,6.077 -1.075,9.12 -0.454,5.34 -0.363,10.674 0.702,15.952 0.717,3.541 1.883,6.924 4.087,9.853 1.518,2.005 3.375,3.606 5.752,4.533 -0.572,-0.57 -1.194,-1.093 -1.701,-1.712 -1.422,-1.723 -2.412,-3.696 -3.142,-5.797 -1.546,-4.421 -1.893,-9.01 -1.92,-13.65 -0.023,-4.587 0.379,-9.138 1.019,-13.673 0.68,-4.854 1.507,-9.68 2.893,-14.385 0.906,-3.072 2.004,-6.066 3.724,-8.794 0.241,-0.378 0.653,-0.655 0.987,-0.979 0.2,0.417 0.505,0.816 0.583,1.251 0.228,1.401 0.593,2.746 0.062,4.232 -2.088,5.864 -3.243,11.933 -3.782,18.123 -0.113,1.3 -0.147,2.606 -0.22,3.906 0.324,-1.17 0.492,-2.357 0.736,-3.522 1.608,-7.84 5.165,-14.6 11.205,-19.947 a 9.4,9.4 0 0 1 1.885,-1.284 c 4.29,-2.244 8.745,-4.108 13.293,-5.756 0.67,-0.238 1.336,-0.471 2.062,-0.72 M 199.7999,25.784 c 0.01,0.44 -0.168,0.897 -0.318,1.33 -1.663,4.879 -2.194,9.883 -1.894,15.004 0.055,0.917 0.107,1.864 -0.057,2.75 -0.994,5.31 -3.789,9.822 -6.498,14.508 -0.073,-0.202 -0.101,-0.239 -0.101,-0.27 -0.3,-7.825 -0.068,-15.623 1.471,-23.329 0.565,-2.815 1.368,-5.561 2.88,-8.045 0.744,-1.233 1.67,-2.295 2.948,-3.02 0.396,-0.225 0.816,-0.357 1.132,0.008 0.233,0.28 0.427,0.702 0.437,1.064 m 3.233,41.491 c -1.236,0.894 -2.533,1.733 -3.89,2.42 -4.777,2.4 -9.838,4.11 -14.84,5.954 -0.973,0.358 -1.908,0.87 -2.778,1.44 -1.73,1.135 -3.018,2.725 -4.134,4.445 -0.534,0.813 -1.034,1.652 -1.554,2.479 0.015,-0.277 0.1,-0.52 0.168,-0.772 0.59,-2.01 1.261,-4.004 1.738,-6.045 0.66,-2.847 1.707,-5.507 3.292,-7.947 0.855,-1.318 1.81,-2.58 2.647,-3.919 0.528,-0.839 0.99,-1.75 1.357,-2.673 0.218,-0.554 0.192,-1.202 0.283,-1.805 -0.091,-0.044 -0.176,-0.088 -0.27,-0.13 -0.264,0.223 -0.567,0.417 -0.79,0.676 -0.92,1.055 -1.802,2.145 -2.748,3.181 -0.204,0.23 -0.66,0.456 -0.89,0.373 -0.221,-0.08 -0.457,-0.57 -0.423,-0.855 0.117,-1.142 0.184,-2.32 0.541,-3.398 0.492,-1.484 1.267,-2.875 1.844,-4.344 a 8.2,8.2 0 0 0 0.531,-2.274 c 0.032,-0.362 -0.32,-0.756 -0.494,-1.132 -0.308,0.21 -0.663,0.379 -0.917,0.645 -0.45,0.474 -0.808,1.029 -1.275,1.495 -0.458,0.453 -0.883,0.378 -1.147,-0.2 -0.186,-0.404 -0.378,-0.9 -0.313,-1.31 0.158,-1.028 0.435,-2.039 0.699,-3.054 0.243,-0.922 0.588,-1.834 0.777,-2.764 0.13,-0.629 -0.031,-1.253 -0.692,-1.727 -0.183,0.27 -0.385,0.5 -0.505,0.772 -0.259,0.554 -0.466,1.134 -0.702,1.688 -0.556,1.28 -1.046,2.604 -1.704,3.831 -0.583,1.08 -1.152,0.985 -1.777,-0.064 -1.21,-2.052 -2.403,-4.119 -3.753,-6.077 -0.743,-1.075 -1.173,-2.18 -1.29,-3.44 -0.15,-1.673 -0.233,-3.362 -0.406,-5.037 -0.068,-0.625 -0.236,-1.275 -0.92,-1.865 -0.145,0.707 -0.267,1.287 -0.38,1.87 -0.169,0.855 -0.285,1.725 -0.521,2.561 -0.16,0.591 -0.637,0.65 -0.933,0.125 a 3.9,3.9 0 0 1 -0.486,-1.59 c -0.07,-1.026 0.023,-2.057 -0.032,-3.085 -0.023,-0.467 -0.191,-0.935 -0.367,-1.378 -0.073,-0.19 -0.327,-0.316 -0.498,-0.472 -0.111,0.192 -0.266,0.368 -0.329,0.578 -0.08,0.246 -0.09,0.513 -0.13,0.774 -0.11,0.757 -0.173,1.531 -0.351,2.267 -0.19,0.8 -0.695,0.935 -1.19,0.287 a 6.8,6.8 0 0 1 -1.043,-2.005 c -0.35,-1.103 -0.497,-2.258 -0.831,-3.372 -0.156,-0.52 -0.51,-0.997 -0.845,-1.44 -0.127,-0.16 -0.487,-0.264 -0.689,-0.205 -0.147,0.04 -0.292,0.379 -0.298,0.59 -0.02,0.85 0.016,1.705 0.029,2.557 0.002,0.423 0,0.845 0,1.3 -0.187,-0.04 -0.262,-0.038 -0.306,-0.067 a 1.7,1.7 0 0 1 -0.298,-0.256 c -0.875,-0.93 -1.46,-2.01 -1.647,-3.292 -0.08,-0.567 -0.109,-1.135 -0.215,-1.692 -0.132,-0.657 -0.523,-0.909 -1.191,-0.826 -0.702,0.083 -1.145,0.593 -1.218,1.484 -0.052,0.58 -0.01,1.16 -0.01,1.829 -0.8,-0.41 -1.508,-0.785 -2.228,-1.14 -7.363,-3.644 -15.134,-5.903 -23.287,-6.856 -5.266,-0.614 -10.532,-0.63 -15.753,0.43 -3.158,0.64 -6.165,1.668 -8.773,3.645 -0.384,0.284 -0.736,0.616 -1.104,0.927 2.904,-1.681 4.603,-2.368 7.224,-2.865 4.774,-0.917 9.55,-0.78 14.316,-0.088 a 70.4,70.4 0 0 1 23.772,7.931 c 5.773,3.15 10.992,7.011 15.212,12.122 0.318,0.378 0.616,0.774 0.917,1.163 -8.638,-4.126 -18.395,3.636 -28.155,0.191 13.375,6.895 21.296,-1.986 28.838,3.761 1.92,1.461 2.262,5.23 -2.124,4.598 -4.185,-0.599 6.305,1.473 8.185,12.375 a 35,35 0 0 1 -0.764,5.442 c -1.8,8.167 -5.605,15.38 -10.827,21.855 -5.377,6.673 -12.132,11.638 -19.718,15.52 -0.109,0.013 -0.23,0.055 -0.38,0.114 0.02,-0.093 0.017,-0.137 0.033,-0.16 0.106,-0.169 0.215,-0.332 0.324,-0.497 3.626,-5.39 6.607,-11.081 8.052,-17.473 0.995,-4.378 1.114,-8.765 -0.27,-13.101 -1.545,-4.841 -4.638,-8.527 -8.679,-11.48 -4.527,-3.31 -9.643,-5.377 -14.976,-6.962 -1.14,-0.34 -2.3,-0.64 -3.59,-0.994 0.146,0.155 0.161,0.196 0.197,0.21 0.218,0.093 0.446,0.178 0.671,0.266 3.725,1.456 7.273,3.233 10.49,5.634 4.631,3.442 8.04,7.778 9.584,13.416 1.362,4.984 1.059,9.97 -0.156,14.93 -1.572,6.429 -4.483,12.249 -7.996,17.81 -0.805,1.271 -1.76,2.118 -3.206,2.548 -1.746,0.518 -3.458,1.189 -5.349,1.855 5.351,-5.743 5.5,-13.824 4.473,-18.566 -0.015,0.083 -0.041,0.137 -0.044,0.194 -0.183,3.864 -1.5,7.346 -3.66,10.521 -3.222,4.74 -7.586,8.195 -12.512,11.005 -0.381,0.218 -0.847,0.288 -1.272,0.425 1.782,-2.054 3.147,-4.292 3.945,-6.856 0.777,-2.481 1.046,-6.371 0.53,-7.768 -0.813,2.712 -1.66,4.479 -3.47,6.787 -3.108,3.957 -6.719,7.384 -10.902,10.233 -2.801997,1.92 -5.741997,3.507 -8.901997,4.714 -5.587,2.142 -11.415,3.455 -17.211,4.875 -5.093,1.246 -10.182,2.538 -15.235,3.95 -2.756,0.771 -5.409,1.909 -7.7,3.706 -0.41,-0.912 -1.18,-4.134 -1.208,-6.693 -0.334,-30.164 23.669,-46.288 30.983,-54.726 2.13,-2.458 3.352,-5.47 4.421,-8.517 0.436,-1.235 0.809,-2.489 1.22,-3.77 0.068,0.09 0.138,0.152 0.169,0.217 2.043,3.924 3.3,7.93 2.32,12.474 -1.502,6.949 -4.3,13.155 -9.567,18.076 -0.057,0.055 -0.104,0.124 -0.285,0.332 0.259,-0.132 0.35,-0.166 0.432,-0.223 4.333,-2.497 8.294,-5.465 11.643,-9.205 5.63,-6.279 8.655997,-13.627 9.069997,-22.066 0.182,-3.675 -0.323,-7.304 -0.733,-10.932 -1.095,-9.659 -8.147997,-17.479 -17.629997,-19.786 -0.713,-0.174 -1.438,-0.42 -2.08,-0.76 -0.912,-0.484 -1.16,-1.276 -0.816,-2.234 0.124,-0.345 0.308,-0.68 0.505,-0.99 1.68,-2.616 3.818,-4.779 6.447,-6.454 1.349,-0.858 2.696,-1.713 3.996,-2.642 5.336,-3.813 11.072997,-6.77 17.418997,-8.512 2.618,-0.717 5.265,-1.352 8.019,-1.11 0.86,0.077 1.699,0.396 2.556,0.497 0.358,0.046 0.743,-0.205 1.122,-0.319 -0.213,-0.238 -0.381,-0.554 -0.643,-0.702 -1.657,-0.953 -3.489,-1.248 -5.361,-1.31 -2.759,-0.094 -5.445,0.43 -8.13,0.976 -0.27,0.054 -0.552,0.054 -0.83,0.078 2.2,-1.901 4.694,-3.13 7.393,-3.94 4.444,-1.35 8.982,-1.652 13.58,-1.266 1.47,0.124 2.965,0.183 4.32,0.953 1.331,0.75 2.733,1.38 4.108,2.049 0.298,0.145 0.63,0.217 0.948,0.323 0.05,-0.054 0.093,-0.1 0.142,-0.155 -0.145,-0.373 -0.264,-0.756 -0.448,-1.109 -0.494,-0.974 -1.036,-1.924 -1.538,-2.898 -0.09,-0.184 -0.047,-0.448 -0.06,-0.673 0.207,-0.01 0.44,-0.089 0.62,-0.026 1.056,0.352 2.133,0.663 3.138,1.134 1.438,0.684 2.935,0.917 4.502,1.023 a 88,88 0 0 1 6.395,0.653 c 3.113,0.448 5.486,2.054 7.024,4.838 q 0.546,0.973 1.135,1.922 c 0.14,0.225 0.331,0.417 0.5,0.622 0.072,-0.034 0.158,-0.062 0.233,-0.104 -0.487,-1.658 -0.971,-3.313 -1.48,-5.06 1.612,0.367 3.293,1.483 4.622,3.05 0.676,0.782 1.274,1.619 1.942,2.401 0.267,0.311 0.627,0.539 0.94,0.808 0.089,-0.049 0.18,-0.088 0.27,-0.14 -0.13,-1.108 -0.262,-2.214 -0.386,-3.328 a 3,3 0 0 1 0.205,-0.067 c 1.005,0.611 1.997,1.24 3.002,1.852 3.413,2.056 6.612,4.372 9.01,7.635 0.33,0.451 0.576,0.386 0.75,-0.16 0.211,-0.687 0.354,-1.396 0.59,-2.077 0.067,-0.208 0.357,-0.49 0.523,-0.48 0.23,0.019 0.552,0.246 0.627,0.456 0.16,0.44 0.228,0.925 0.259,1.404 0.064,0.958 0.041,1.922 0.142,2.875 0.031,0.293 0.345,0.565 0.528,0.837 0.247,-0.218 0.586,-0.389 0.71,-0.663 0.38,-0.785 0.666,-1.617 1.02,-2.417 0.327,-0.74 0.521,-0.754 0.995,-0.124 0.622,0.831 1.321,1.502 2.495,1.42 1.087,-0.084 1.225,-0.003 1.629,1.01 0.691,1.727 1.28,3.488 1.989,5.205 0.337,0.819 0.852,1.565 1.259,2.352 0.1,0.187 0.186,0.454 0.137,0.637 -1.443,4.65 -1.839,9.439 -1.888,14.267 -0.044,4.468 0.046,8.936 -0.106,13.396 -0.117,3.489 -0.702,6.892 -3.305,9.58 0.36,-0.113 0.702,-0.243 1.025,-0.409 1.676,-0.87 3.051,-2.12 4.25,-3.56 2.66,-3.182 4.407,-6.865 5.958,-10.675 1.24,-3.051 2.492,-6.1 3.795,-9.125 0.323,-0.75 0.862,-1.414 1.344,-2.095 0.116,-0.16 0.46,-0.345 0.593,-0.277 0.194,0.085 0.38,0.375 0.41,0.595 0.066,0.493 0.066,1.01 0.043,1.503 -0.111,2.494 -0.318,4.986 0.112,7.472 0.062,0.38 0.17,0.808 0.075,1.158 -0.935,3.411 -2.15,6.706 -4.256,9.604 -0.062,0.09 -0.106,0.202 -0.238,0.459 1.497,-0.669 2.504,-1.658 3.32,-2.821 0.816,-1.168 1.531,-2.409 2.334,-3.699 0.342,1.383 0.668,2.715 0.995,4.046 0.463,1.932 -0.117,3.517 -1.676,4.654 m 1.694,19.988 c -3.831,3.616 -8.366,6.167 -13.132,8.333 -6.45,2.932 -13.207,4.965 -20.097,6.566 -2.46,0.572 -4.94,1.067 -7.573,1.631 1.059,-1.313 1.997,-2.489 2.963,-3.652 0.09,-0.111 0.295,-0.16 0.46,-0.184 4.316,-0.448 8.468,-1.564 12.464,-3.227 9.25,-3.838 17.17,-9.64 24.228,-16.675 0.065,-0.065 0.112,-0.148 0.161,-0.22 -0.24,0.072 -0.42,0.192 -0.6,0.316 -5.956,4.134 -12.081,7.988 -18.52,11.324 -4.124,2.124 -8.325,4.08 -12.842,5.234 -1.065,0.272 -2.152,0.454 -3.398,0.708 0.17,-0.296 0.24,-0.404 0.303,-0.518 1.417,-2.482 2.978,-4.904 4.214,-7.478 0.77,-1.619 1.852,-2.805 3.22,-3.849 5.128,-3.903 10.78,-6.916 16.545,-9.736 0.054,-0.024 0.117,-0.016 0.303,-0.05 -2.194,3.482 -4.31,6.87 -8.089,8.778 0.977,-0.16 1.948,-0.323 2.883,-0.608 2.9,-0.889 5.34,-2.598 7.633,-4.515 2.803,-2.339 5.514,-4.802 8.358,-7.107 1.464,-1.192 3.03,-2.342 4.722,-3.165 1.78,-0.858 3.75,-1.3 5.65,-1.888 0.486,-0.161 1.007,-0.187 1.719,-0.311 -0.233,1.202 -0.332,2.256 -0.648,3.235 -2.167,6.618 -5.882,12.28 -10.927,17.058 m -34.923,51.191 c -1.401,0.78 -2.893,1.48 -4.421,1.946 -3.132,0.948 -6.39,0.963 -9.638,0.955 -2.297,-0.002 -4.597,-0.033 -6.892,-0.007 -0.578,0.007 -1.15,0.189 -1.72,0.292 q -0.001,0.156 -0.01,0.319 c 0.494,0.189 0.976,0.42 1.481,0.564 1.6,0.456 3.21,0.866 4.805,1.311 0.313,0.09 0.598,0.27 0.904,0.41 -0.01,0.061 -0.024,0.126 -0.034,0.186 -0.207,0.083 -0.412,0.2 -0.632,0.248 -3.212,0.64 -6.408,1.417 -9.65,1.876 -5.487,0.78 -10.926,1.73 -16.238,3.346 a 4.1,4.1 0 0 1 -1.417,0.171 q -8.057,-0.563 -16.113,-1.153 c -6.211,-0.453 -12.424997,-0.512 -18.625997,0.143 -7.047,0.743 -13.867,2.416 -20.464,4.965 -9.482,3.665 -18.076,8.892 -26.152,15.012 -0.138,0.104 -0.27,0.228 -0.402,0.34 0.267,-0.052 0.469,-0.16 0.666,-0.28 7.376,-4.403 14.981,-8.332 23.018,-11.394 6.815,-2.593 13.81,-4.465 21.04,-5.424 5.224,-0.691 10.466,-0.85 15.731997,-0.815 5.882,0.03 11.777,0 17.66,-0.003 0.075,0 0.152,0.01 0.238,0.018 -0.024,0.052 -0.026,0.078 -0.037,0.088 -0.14,0.052 -0.28,0.114 -0.422,0.168 -5.26,2.057 -10.249,4.626 -14.802,7.98 -1.376,1.021 -2.855,1.785 -4.432,2.378 a 69,69 0 0 1 -3.708997,1.311 c -6.42,2.028 -13.067,3.023 -19.677,4.217 -5.447,0.981 -10.886,1.989 -16.284,3.18 -4.919,1.086 -9.67,2.751 -14.085,5.26 -7.579,4.306 -12.036,10.75 -13.251,19.403 -0.192,1.36 -0.3,2.738 -0.438,3.958 -0.264,-0.492 -0.552,-1.088 -0.891,-1.658 -2.872,-4.83 -4.882,-9.974 -5.51,-15.592 -0.844,-7.592 1.322,-14.14 6.82,-19.52 0.226,-0.22 0.379,-0.515 0.526,-0.807 0.793,-1.606 1.448,-3.292 2.368,-4.813 2.629,-4.312 6.338,-7.56 10.516,-10.306 5.548,-3.639 11.606,-6.182 17.861,-8.293 9.866,-3.336 20.017,-5.515 30.216,-7.475 8.311997,-1.596 16.639997,-3.13 24.945997,-4.743 6.48,-1.254 12.782,-3.03 18.747,-5.97 7.483,-3.683 14.409,-8.107 20.275,-14.088 0.195,-0.202 0.568,-0.31 0.863,-0.321 3.924,-0.111 7.825,-0.48 11.679,-1.207 10.795,-2.046 20.682,-6.25 29.737,-12.453 0.15,-0.096 0.306,-0.169 0.552,-0.319 -0.055,0.324 -0.078,0.518 -0.125,0.705 -0.761,3.375 -1.75,6.685 -3.035,9.894 -6.29,15.706 -16.75,27.763 -31.543,35.997 m 86.834,82.205 c -0.262,2.58 -0.798,5.137 -1.363,7.675 -0.875,3.903 -3.263,6.486 -7.128,7.654 -1.73,0.523 -3.507,0.73 -5.312,0.735 -3.54,0.008 -7.009,-0.562 -10.435,-1.409 -2.855,-0.715 -5.61,-1.675 -8.084,-3.307 -2.362,-1.557 -4.118,-3.58 -4.802,-6.4 -0.42,-1.764 -0.298,-3.507 -0.013,-5.274 0.114,-0.702 0.417,-1.01 1.062,-1.261 5.638,-2.251 10.14,-5.823 12.842,-11.386 0.36,-0.736 0.872,-1.109 1.657,-1.19 2.697,-0.297 5.341,-0.199 7.804,1.11 1.58,0.838 3.158,0.743 4.72,-0.016 a 11,11 0 0 0 1.836,-1.135 c 0.71,-0.541 1.354,-1.17 2.14,-1.86 0.064,0.115 0.113,0.218 0.18,0.301 3.906,4.553 5.484,9.853 4.896,15.763 m -41.704,11.521 c 0.436,0.283 0.824,0.648 1.213,1.005 3.359,3.132 7.231,5.406 11.52,7.017 3.831,1.437 7.815,2.082 11.868,2.3 3,0.16 6.02,0.135 8.934,-0.66 1.997,-0.545 3.91,-1.366 5.882,-2.013 0.42,-0.137 1.054,-0.233 1.339,-0.016 0.482,0.37 0.122,0.959 -0.055,1.45 -0.01,0.022 -0.025,0.04 -0.036,0.055 -1.401,2.676 -3.237,4.989 -5.721,6.745 -4.476,3.162 -9.506,3.787 -14.782,3.183 -0.865,-0.098 -1.614,0.06 -2.32,0.461 -0.332,0.19 -0.537,0.598 -0.801,0.912 0.049,0.054 0.096,0.116 0.142,0.17 0.187,-0.02 0.376,-0.054 0.565,-0.056 0.979,-0.031 1.976,-0.181 2.932,-0.055 3.082,0.41 4.553,3.81 2.78,6.318 -0.594,0.847 -1.368,1.455 -2.472,1.318 -1.134,-0.15 -1.699,-0.992 -2.085,-1.968 a 3,3 0 0 1 -0.158,-0.77 c -0.116,-0.986 -0.186,-1.124 -1.204,-1.09 -0.956,0.028 -1.907,0.176 -2.86,0.321 -1.183,0.166 -1.948,-0.27 -2.32,-1.412 a 3.3,3.3 0 0 1 0.246,-2.673 c 0.486,-0.896 1.11,-1.712 1.644,-2.533 -1.432,-0.598 -3.01,-1.14 -4.478,-1.9 -5.613,-2.91 -9.415,-7.313 -10.847,-13.573 a 7,7 0 0 1 -0.184,-1.888 c 0.03,-0.899 0.528,-1.137 1.258,-0.648 m 2.93,-7.835 c 0.42,1.324 0.7,2.665 1.259,3.87 1.305,2.787 3.626,4.595 6.338,5.848 6.433,2.958 13.22,4.282 20.283,3.68 4.279,-0.362 7.825,-2.149 9.811,-6.241 0.008,-0.016 0.036,-0.026 0.112,-0.088 1.308,0.606 2.038,1.616 2.214,3.035 0.16,1.306 -0.396,2.316 -1.494,2.899 -1.42,0.756 -2.868,1.536 -4.396,1.997 -6.454,1.955 -12.981,1.908 -19.503,0.328 -4.968,-1.201 -9.553,-3.24 -13.55,-6.47 -1.561,-1.258 -2.983,-2.647 -3.871,-4.486 -0.22,-0.456 -0.425,-1.005 -0.389,-1.486 0.117,-1.505 1.782,-2.894 3.186,-2.886 M 12.867903,191.48 C 7.6279028,182.366 4.8999028,172.692 4.8949028,171.207 a 91,91 0 0 1 1.039,-13.867 c 0.16,-1.067 0.373,-2.127 0.557,-3.191 0.197,0.194 0.261,0.391 0.32,0.593 0.775,2.572 1.449,5.18 2.335,7.713 4.6570002,13.275 11.7380002,25.181 20.5130002,36.12 0.319,0.398 0.593,0.87 0.751,1.354 a 57,57 0 0 0 8.149,16.028 c -3.934,-1.676 -8.413,-2.28 -13.751,-8.42 6.556,12.642 22.086,17.651 22.086,17.651 8.64,7.731 18.698,12.842 29.838,15.9 0.901,0.247 1.808,0.444 2.717,0.661 -0.197,-0.191 -0.42,-0.27 -0.642,-0.357 -8.291,-2.966 -15.93,-7.1 -22.845,-12.552 -8.607,-6.786 -15.116,-15.147 -19.006,-25.456 -0.415,-1.108 -0.612,-2.142 -0.184,-3.286 0.29,-0.778 0.44,-1.604 0.68,-2.399 1.83,-5.975 4.692,-11.347 9.294,-15.683 4.403,-4.155 9.695,-6.664 15.435,-8.358 6.874,-2.015 13.976,-2.759 21.044,-3.686 4.1,-0.534 8.18,-1.181 12.267,-1.805 1.098,-0.164 2.184,-0.436 3.352,-0.676 -0.088,0.145 -0.114,0.21 -0.16,0.261 a 52.3,52.3 0 0 0 -7.963,11.832 c -0.127,0.267 -0.42,0.53 -0.702,0.619 -1.888,0.596 -3.76,1.303 -5.698,1.691 -2.872,0.573 -5.812,0.793 -8.685,1.357 -15.403,3.057 -20.15,11.311 -20.08,11.236 4.677,-4.968 12.16,-6.369 14.139,-7.058 4.608,-1.603 9.386,-2.038 14.225,-1.992 1.416,0.021 2.828,0.104 4.284,0.161 -4.344,14.178 -3.774,28 2.11,41.538 0.006,-0.257 -0.054,-0.5 -0.113,-0.744 -2.303,-8.744 -3.235,-17.59 -1.92,-26.592 1.588,-10.933 6.341,-20.247 14.279997,-27.922 5.95,-5.75 12.945,-9.889 20.451,-13.225 7.13,-3.17 14.624,-5.13 22.182,-6.954 5.688,-1.37 11.4,-2.715 17.014,-4.37 7.522,-2.204 14.332,-5.825 20.13,-11.176 0.902,-0.83 1.806,-1.676 2.55,-2.645 4.887,-6.325 10.847,-11.277 18.18,-14.504 0.463,-1.552 1.271,-3.189 2.535,-4.898 1.79,-2.399 4.007,-4.375 6.395,-6.15 0.679,-0.5 1.575,-0.787 2.42,-0.952 0.916,-0.19 1.465,0.253 1.781,1.142 0.083,0.251 0.143,0.502 0.19,0.759 0.486,0.168 0.976,0.432 1.455,0.805 0.33,0.254 0.648,0.529 0.935,0.816 1.35,1.357 2.298,2.974 3.062,4.706 0.165,0.376 0.388,0.524 0.777,0.573 0.909,0.119 1.82,0.246 2.72,0.42 14.59,2.885 25.206,13.97 27.06,29.91 0.164,1.438 0.156,2.927 0.586,4.274 0.552,1.712 1.461,3.307 2.217,4.955 0.666,1.448 1.394,2.867 1.971,4.354 0.594,1.52 0.666,3.105 0.205,4.703 -0.16,0.55 -0.48,0.694 -0.91,0.428 -0.597,-0.379 -1.139,-0.853 -1.714,-1.28 -0.696,-0.52 -1.347,-1.116 -2.1,-1.528 -0.612,-0.34 -1.31,-0.27 -1.86,0.36 0.127,0.096 0.233,0.17 0.326,0.259 1.503,1.34 3.01,2.665 4.486,4.03 0.177,0.16 0.303,0.487 0.288,0.738 -0.132,2.117 -0.834,4.036 -2.336,5.559 -1.938,1.96 -4.214,3.007 -7.043,2.344 -0.07,1.054 -0.145,1.235 -0.748,1.562 -3.937,2.131 -8.105,3.388 -12.617,3.302 -3.315,-0.057 -6.31,0.995 -9.161,2.59 -0.886,0.495 -1.837,0.94 -2.813,1.2 -3.082,0.818 -6.247,1.054 -9.43,1.136 -0.262,0.006 -0.516,0.021 -0.778,0.034 a 0.84,0.84 0 0 0 0.487,0.277 c 2.539,0.601 5.113,0.679 7.706,0.49 0.84,-0.06 1.784,-0.241 2.515,0.054 2.14,0.87 4.214,1.912 6.273,2.971 0.578,0.298 1.088,0.44 1.673,0.223 1.308,-0.49 2.622,-0.974 3.896,-1.541 2.71,-1.205 5.48,-1.93 8.475,-1.518 1.634,0.223 3.232,0.583 4.66,1.456 0.921,0.57 1.654,1.295 1.724,2.476 0.016,0.165 0.164,0.35 0.298,0.474 0.384,0.355 0.808,0.673 1.194,1.025 1.14,1.052 1.624,2.357 1.482,3.898 -0.122,1.296 -0.505,1.51 -1.632,0.938 -0.544,-0.274 -1.111,-0.5 -1.68,-0.065 0.722,0.461 1.431,0.876 2.105,1.342 1.015,0.694 1.373,1.694 1.339,2.898 -0.106,3.352 -4.059,6.318 -7.452,5.57 -1.121,-0.247 -2.119,-0.69 -2.732,-1.75 -0.08,-0.14 -0.311,-0.287 -0.467,-0.276 -0.885,0.049 -1.79,0.044 -2.644,0.235 -1.567,0.355 -3.116,0.73 -4.73,0.425 -0.743,-0.142 -1.476,-0.347 -2.245,-0.523 -0.601,2.093 -1.59,3.952 -2.914,5.639 -3.07,3.9 -7.102,6.371 -11.757,7.897 -6.035,1.981 -12.238,2.199 -18.444,1.308 -8.975,-1.282 -15.339,-6.154 -18.768,-14.606 -0.85,-2.09 -1.287,-4.346 -1.927,-6.53 -1.026,-3.512 -2.404,-6.89 -4.224,-10.08 -2.935,-5.123 -6.787,-9.34 -12.063,-12.122 -5.926,-3.124 -12.225,-3.748 -18.75,-2.587 -1.238,0.22 -2.452,0.538 -3.825,0.847 2.385,0.142 4.58,0.191 6.752,0.411 6.05,0.609 11.723,2.427 16.88,5.69 6.128,3.889 10.715,8.986 12.632,16.218 a 58.7,58.7 0 0 0 4.258,11.2 c 1.194,2.403 2.515,4.705 4.357,6.682 3.067,3.281 6.916,5.136 11.158,6.33 1.306,0.365 2.6,0.77 3.888,1.184 0.637,0.207 1.036,0.658 1.287,1.302 0.71,1.845 0.914,3.728 0.531,5.668 -0.593,3.05 -2.087,5.64 -4.092,7.956 -1.725,1.995 -3.885,3.456 -6.046,4.914 a 31,31 0 0 0 -3.03,2.292 c -0.829,0.705 -1.334,1.673 -1.282,2.78 0.09,1.976 0.207,2.289 2.176,1.634 q 0.462,-0.158 0.916,-0.358 c 1.609,-0.691 3.207,-1.396 4.826,-2.072 3.1,-1.297 6.32,-1.777 9.627,-0.981 3.663,0.875 6.248,3.027 7.41,6.705 0.239,0.754 0.296,1.554 -0.106,2.23 -0.196,0.335 -0.696,0.664 -1.067,0.674 -0.334,0.01 -0.727,-0.37 -1.002,-0.668 -0.166,-0.187 -0.16,-0.534 -0.238,-0.808 -0.378,-1.42 -0.998,-2.673 -2.391,-3.362 -0.267,-0.133 -0.565,-0.166 -0.85,-0.252 1.858,1.927 2.86,4.108 2.728,6.737 -0.101,1.997 -1.668,3.297 -3.678,3.183 -0.586,-0.033 -0.997,-0.308 -1.062,-0.878 -0.078,-0.691 -0.05,-1.39 -0.062,-2.087 -0.021,-0.83 0.041,-1.673 -0.075,-2.487 -0.184,-1.334 -1.008,-2.201 -2.287,-2.613 -0.62,-0.197 -1.215,-0.09 -1.79,0.202 0.808,0.166 1.58,0.41 1.989,1.165 0.389,0.726 0.79,1.482 0.987,2.272 0.42,1.704 0.217,3.349 -1.35,4.395 -0.702,0.47 -1.657,0.663 -2.522,0.783 -1.86,0.259 -3.64,-0.267 -5.437,-0.682 -1.078,-0.25 -2.194,-0.417 -3.292,-0.42 -1.039,-0.002 -2.088,0.218 -3.116,0.402 -6.263,1.13 -12.557,0.65 -18.934,0.575 -6.897,-0.085 -13.795,-0.044 -20.692,-0.049 -12.347,0 -24.697,-0.005 -37.054,-0.005 -5.1,0 -10.199997,0.052 -15.299997,0.018 -7.035,-0.044 -13.99,-0.837 -20.791,-2.621 -25.909,-6.776 -45.299,-20.801 -58.078,-44.312 -5.6340002,-10.37 -8.8500002,-21.464 -9.9820002,-33.112 -0.135,-1.347 7.6040002,13.062 7.5320002,11.645"
     id="path120" />
  <path
     fill="#e65270"
     d="m 215.4379,130.402 c -2.176,-4.631 -2.202,-6.592 0.202,-10.975 1.813,-3.31 6.633,-0.365 5.98,-4.06 -0.274,-3.213 -3.639,-6.74 -4.263,-7.507 -0.766,-0.91 -1.194,-1.803 -2.326,-1.572 -1.033,0.212 -2.015,0.712 -2.851,1.331 -2.945,2.189 -5.673,4.629 -7.887,7.584 -3.997,5.333 -2.35,8.568 2.328,12.821 1.982,1.79 9.05,2.872 8.817,2.378"
     id="path121" />
  <path
     fill="#2b2b2b"
     d="m 211.1019,112.812 c 1.153,-1.259 2.95,-2.476 4.82,-3.724 0.995,-0.658 -1.968,7.426 -2.828,9.583 -2.829,7.068 0.875,11.448 -0.143,10.907 -2.245,-1.191 -5.45,-5.354 -5.67,-7.926 -0.245,-2.781 1.915,-6.752 3.821,-8.84"
     opacity="0.2"
     id="path122" />
  <path
     fill="#0d0d0d"
     d="m 214.5399,129.97 c -2.177,-4.632 -2.2,-6.59 0.206,-10.975 1.808,-3.308 2.647,-6.641 1.997,-10.343 a 8,8 0 0 0 -0.287,-1.23 c -0.384,-1.111 -1.065,-1.655 -2.197,-1.422 -1.036,0.213 -2.15,0.562 -2.978,1.179 -2.945,2.188 -5.675,4.628 -7.887,7.584 -3.067,4.09 -2.733,6.882 -0.407,9.982 0.666,0.886 1.075,0.86 1.932,1.02 1.109,0.21 1.334,-1.334 0.982,-1.958 -0.81,-1.435 -1.344,-2.877 -1.445,-4.012 -0.249,-2.787 1.31,-5.812 3.217,-7.897 1.766,-1.932 5.34,-4.932 7.775,-5.66 0.59,2.257 -0.665,6.758 -1.458,8.944 -0.969,2.67 -3.903,7.543 -3.165,10.718 0,0 1.03,2.937 2.129,3.683 1.093,0.744 1.585,0.386 1.585,0.386"
     id="path123" />
  <path
     fill="#8b4fba"
     d="m 82.491903,183.426 c -0.298,0.016 -0.575,-0.015 -0.8,-0.137 0.282,-0.018 0.549,0.036 0.8,0.137"
     opacity="0.2"
     id="path124" />
  <path
     fill="#430a1d"
     d="m 216.3859,222.255 c 2.54,-3.86 5.398,-5.165 8.625,-8.203 3.07,-2.883 5.426,-6.361 8.48,-9.192 2.396,0.5 5.084,0.096 7.542,0.22 1.757,4.336 10.283,0.21 11.063,-2.588 l 1.132,1.697 c 2.458,4.84 -6.359,5.165 -11.379,4.662 -3.52,-0.35 -18.726,3.647 -18.226,23.257 -1.71,2.629 -5.745,0.062 -5.75,3.489 -0.003,3.507 0.054,9.692 3.082,11.925 -0.865,3.058 -3.88,-0.177 -4.709,-1.402 -1.862,-2.743 -4.517,-7.6 -5.12,-10.85 -1.021,-5.553 2.48,-8.796 5.26,-13.015"
     opacity="0.2"
     id="path125" />
</svg>
