<svg id="Ebene_1" data-name="Ebene 1" xmlns="http://www.w3.org/2000/svg" xmlns:xlink="http://www.w3.org/1999/xlink" viewBox="0 0 50 50"><defs><style>.cls-flow1{fill:none;}.cls-flow2{clip-path:url(#clip-path);}.cls-flow3{fill:#e74c3c;}</style><clipPath id="clip-path"><rect class="cls-flow1" width="50" height="50"/></clipPath></defs><g class="cls-flow2"><g id="Gruppe_70648" data-name="Gruppe 70648"><path id="Pfad_16284" data-name="Pfad 16284" class="cls-flow3" d="M5.15,50,15.24,39.91h1.6a4.81,4.81,0,0,0,4.8-4.81V33.51l13-13V36.3a3.61,3.61,0,0,0,7.21,0v-24a3.62,3.62,0,0,0-3-4.09l-.21,0-.35,0H13.71a3.61,3.61,0,0,0,0,7.22H29.56l-13,13H14.91a4.8,4.8,0,0,0-4.8,4.8v1.68L0,45c1.93-5.88,1.93-6.43,1.93-8.66V11.78A11.79,11.79,0,0,1,13.71,0H38.22A11.78,11.78,0,0,1,50,11.78h0V36.3A11.78,11.78,0,0,1,38.22,48.08H13.71c-2.1,0-2.62,0-8.56,1.92"/></g></g></svg>
