<?xml version="1.0" encoding="UTF-8"?>
<svg width="712.35" height="712.35" version="1.1" viewBox="0 0 712.35 712.35" xmlns="http://www.w3.org/2000/svg">
 <defs>
  <style>.dls-1,.dls-2,.dls-3,.dls-4,.dls-5,.dls-6,.dls-7,.dls-8,.dls-9,.dls-10,.dls-11,.dls-12,.dls-13,.dls-14,.dls-15,.dls-16{stroke-width:0px;}.dls-1,.dls-3,.dls-6,.dls-7,.dls-8,.dls-11,.dls-13,.dls-16{fill-rule:evenodd;}.dls-1,.dls-10{fill:#06d092;}.dls-2,.dls-11{fill:#14c6cb;}.dls-3{fill:#7b42bc;}.dls-4,.dls-7{fill:#f24c53;}.dls-5,.dls-13{fill:#000;}.dls-6,.dls-9{fill:#ffcf25;}.dls-8,.dls-14{fill:#e03875;}.dls-12,.dls-16{fill:#02a8ef;}.dls-15{fill:#1868f2;}</style>
 </defs>
 <path class="dls-6" d="m617.37 29.68h-522.39c-17.12 0-28.16 0.02-36.57 0.71-8.06 0.66-11.05 1.78-12.52 2.52-5.59 2.85-10.12 7.39-12.98 12.98-0.74 1.47-1.86 4.45-2.52 12.52-0.68 8.41-0.71 19.46-0.71 36.57v522.39c0 17.12 0.02 28.16 0.71 36.57 0.66 8.06 1.78 11.05 2.52 12.52 2.85 5.59 7.39 10.12 12.98 12.98 1.47 0.74 4.45 1.86 12.52 2.52 8.41 0.68 19.46 0.71 36.57 0.71h522.39c17.12 0 28.16-0.02 36.57-0.71 8.06-0.66 11.05-1.78 12.52-2.52 5.59-2.85 10.12-7.39 12.98-12.98 0.74-1.47 1.86-4.45 2.52-12.52 0.68-8.41 0.71-19.46 0.71-36.57v-522.39c0-17.12-0.02-28.16-0.71-36.57-0.66-8.06-1.78-11.05-2.52-12.52-2.85-5.59-7.39-10.12-12.98-12.98-1.47-0.74-4.45-1.86-12.52-2.52-8.41-0.68-19.46-0.71-36.57-0.71zm-610.9 2.73c-6.47 12.7-6.47 29.33-6.47 62.57v522.39c0 33.24 0 49.87 6.47 62.57 5.69 11.17 14.77 20.25 25.94 25.94 12.7 6.47 29.33 6.47 62.57 6.47h522.39c33.24 0 49.87 0 62.57-6.47 11.17-5.69 20.25-14.77 25.94-25.94 6.47-12.7 6.47-29.33 6.47-62.57v-522.39c0-33.24 0-49.87-6.47-62.57-5.69-11.16-14.77-20.25-25.94-25.94-12.7-6.47-29.33-6.47-62.57-6.47h-522.39c-33.24 0-49.87 0-62.57 6.47-11.16 5.69-20.25 14.77-25.94 25.94z"/>
 <path class="dls-9" d="m166.03 173.45 193.15 375.97 194.55-375.97zm163.12 149.25h-30.77v-30.77h30.77zm0-46.18h-30.77v-30.74h30.77zm46.13 92.31h-30.77v-30.77h30.77zm0-46.13h-30.77v-30.77h30.77zm0-46.18h-30.77v-30.74h30.77zm45.9 46.18h-30.77v-30.77h30.77zm-30.77-46.18v-30.74h30.77v30.74z"/>
</svg>
