<?xml version="1.0" encoding="UTF-8" standalone="no"?>
<svg
   width="111.23463"
   height="113.09921"
   viewBox="0 0 111.23463 113.09921"
   fill="none"
   version="1.1"
   id="svg17"
   xmlns="http://www.w3.org/2000/svg"
   xmlns:svg="http://www.w3.org/2000/svg">
  <defs
     id="defs17" />
  <path
     fill-rule="evenodd"
     clip-rule="evenodd"
     d="m 82.6283,78.0419 26.2267,-6.0131 c 0.404,-0.0818 0.786,-0.2468 1.123,-0.4846 0.337,-0.2379 0.621,-0.5432 0.833,-0.8966 0.212,-0.3534 0.348,-0.7472 0.4,-1.1562 0.052,-0.409 0.018,-0.8242 -0.1,-1.2194 L 99.9577,19.8979 c -0.2013,-0.7983 -0.7111,-1.4841 -1.4175,-1.9071 -0.7064,-0.423 -1.5518,-0.5485 -2.3507,-0.3492 l -26.2154,6.0131 c -0.7936,0.2036 -1.4743,0.7131 -1.8931,1.4171 -0.4188,0.704 -0.5418,1.5452 -0.3419,2.3397 l 11.121,48.3741 c 0.2014,0.7983 0.7112,1.4841 1.4176,1.9071 0.7064,0.423 1.5517,0.5485 2.3506,0.3492 z"
     fill="#020a47"
     id="path10" />
  <path
     fill-rule="evenodd"
     clip-rule="evenodd"
     d="m 73.591,107.934 31.798,-29.4388 c 1.198,-1.2091 0.896,-1.954 -0.756,-1.3603 l -21.8537,4.9659 c -0.9037,0.2233 -1.7365,0.6707 -2.4216,1.3009 -0.685,0.6302 -1.2001,1.4229 -1.4977,2.3048 l -6.6295,21.3315 c -0.4534,1.652 0.1512,2.105 1.3605,0.896 z"
     fill="#020a47"
     id="path11" />
  <path
     fill-rule="evenodd"
     clip-rule="evenodd"
     d="M 15.5781,98.3263 63.1935,113.04 c 0.8135,0.152 1.6544,0.009 2.3724,-0.402 0.718,-0.411 1.2663,-1.065 1.547,-1.843 l 7.979,-25.542 c 0.1155,-0.3983 0.1513,-0.8156 0.1052,-1.2278 C 75.151,83.6131 75.0241,83.214 74.8234,82.851 74.6228,82.4879 74.3525,82.168 74.0281,81.9096 73.7036,81.6512 73.3313,81.4594 72.9325,81.3451 L 25.3172,66.7713 c -0.8061,-0.2305 -1.6706,-0.1329 -2.4049,0.2716 -0.7343,0.4045 -1.2788,1.0831 -1.5145,1.8875 l -7.9251,25.4879 c -0.2354,0.7974 -0.1462,1.6554 0.2481,2.3873 0.3944,0.732 1.0619,1.2785 1.8573,1.5207 z"
     fill="#020a47"
     id="path12" />
  <path
     fill-rule="evenodd"
     clip-rule="evenodd"
     d="M 0.20281599,46.0442 9.85545,88.3081 c 0.30235,1.6517 1.07975,1.6517 1.50085,0 l 6.6294,-21.3317 c 0.2259,-0.9089 0.2351,-1.8582 0.027,-2.7714 -0.2082,-0.9131 -0.6279,-1.7646 -1.2255,-2.4859 L 1.56326,45.2885 C 0.50513599,44.047 -0.28305501,44.3925 0.20281599,46.0442 Z"
     fill="#020a47"
     id="path13" />
  <path
     fill-rule="evenodd"
     clip-rule="evenodd"
     d="M 37.4315,0.865421 0.95883299,34.6226 c -0.58514,0.557 -0.9286828,1.321 -0.95694137,2.1283 -0.02825853,0.8072 0.26101737,1.5934 0.80578137,2.1899 L 19.044,58.664 c 0.562,0.5961 1.3366,0.9463 2.1554,0.9746 0.8188,0.0283 1.6157,-0.2676 2.2175,-0.8235 L 59.8788,25.0039 c 0.5902,-0.554 0.9373,-1.319 0.9657,-2.1279 0.0283,-0.809 -0.2645,-1.5963 -0.8146,-2.1902 L 41.826,0.973375 C 41.546,0.675387 41.2095,0.435977 40.8362,0.269043 40.4629,0.102108 40.0602,0.0109747 39.6513,9.3157032e-4 39.2425,-0.00911159 38.8358,0.0621362 38.4547,0.210539 38.0736,0.358941 37.7259,0.581542 37.4315,0.865421 Z"
     fill="#020a47"
     id="path14" />
  <path
     fill-rule="evenodd"
     clip-rule="evenodd"
     d="m 72.6843,77.2862 c 1.6628,0.4534 2.7101,-0.4426 2.2674,-2.1591 L 64.4029,29.4626 C 63.9495,27.8109 62.589,27.3575 61.3905,28.5558 L 27.0341,60.467 c -1.2093,1.1982 -0.907,2.5477 0.745,3.0011 z"
     fill="#020a47"
     id="path15" />
  <path
     fill-rule="evenodd"
     clip-rule="evenodd"
     d="M 90.6181,13.5934 49.0275,0.865592 C 47.3756,0.412186 47.0733,1.01673 48.4229,2.36615 l 15.224,16.37665 c 0.6829,0.6383 1.5089,1.1037 2.4087,1.3572 0.8998,0.2536 1.8473,0.2879 2.7631,0.1001 l 21.8534,-4.955 c 1.6088,-0.4534 1.6088,-1.2091 -0.054,-1.6517 z"
     fill="#020a47"
     id="path16" />
</svg>
