<?xml version="1.0" encoding="UTF-8"?>
<svg width="40" height="39.101" version="1.1" xmlns="http://www.w3.org/2000/svg">
 <path d="m20 6.2233e-8a0.74915 0.74915 0 0 0-0.32437 0.07372l-15.431 7.4157a0.74915 0.74915 0 0 0-0.40595 0.50884l-3.82 16.779a0.74915 0.74915 0 0 0 0.14351 0.6317l10.637 13.409a0.74915 0.74915 0 0 0 0.58681 0.28342h17.229a0.74915 0.74915 0 0 0 0.58681-0.28342l10.637-13.409a0.74915 0.74915 0 0 0 0.14351-0.6317l-3.8203-16.779a0.74915 0.74915 0 0 0-0.40563-0.50884l-15.431-7.4157a0.74915 0.74915 0 0 0-0.32437-0.07372z" color="#000000" fill="#326ce5" stroke-linejoin="round" stroke-width=".16776"/>
 <path d="m22.651 10.195c-2.0033 0.08589-3.9124 1.0797-5.241 2.5636-0.32707 0.3575-0.60479 0.75572-0.88312 1.1509-0.10891 0.13437-0.30075 0.22234-0.46354 0.12928-0.3879-0.14893-0.7293-0.40476-1.1347-0.51067-1.0058-0.32684-2.1211-0.1819-3.0664 0.26705-0.98038 0.44695-1.802 1.24-2.2578 2.2189-0.17678 0.35173-0.29359 0.72962-0.46492 1.0827-0.19144 0.31386-0.54291 0.47903-0.89055 0.55364-0.57726 0.15936-1.1048 0.46354-1.5611 0.84812-0.63999 0.53442-1.1766 1.1951-1.5698 1.9299-0.54437 1.0425-0.72276 2.2583-0.55351 3.4185 0.16165 1.2998 0.68822 2.5896 1.6462 3.5059 0.86106 0.84574 2.0246 1.3364 3.2124 1.4894 0.75321 0.10775 1.5158 0.06861 2.2726 0.03002 3.3363-0.12472 6.6747 0.02508 10.012-0.0048 3.049-0.0019 6.0981 0.0037 9.1469-0.0017 1.379-0.06721 2.6744-0.82887 3.491-1.929 1.1469-1.5038 1.4791-3.6029 0.80395-5.3759-0.36822-1.0632-1.0263-2.0706-2.0037-2.6626-0.57871-0.36489-1.2399-0.57701-1.9074-0.70566-0.25147-0.11586-0.27822-0.42682-0.33098-0.6652-0.37222-1.8465-1.1701-3.6348-2.4489-5.0328-1.4752-1.5714-3.6675-2.387-5.8074-2.2998zm0.35615 1.5668c1.7489 0.02424 3.4434 0.92378 4.5032 2.3103 0.96014 1.2095 1.5202 2.7103 1.6282 4.2451 0.03038 0.33326 0.01399 0.6794 0.05784 1.0144 0.04724 0.22392 0.25283 0.40528 0.48632 0.39768 0.4241 0.03866 0.85356-0.03242 1.2747 0.05115 0.69193 0.10151 1.3453 0.4594 1.7831 1.0078 0.78973 0.93363 1.0537 2.2286 0.87027 3.4204-0.14646 0.97538-0.63022 1.9273-1.4362 2.5182-0.44986 0.33555-1.0184 0.54734-1.5899 0.53199-5.8725 0.0056-11.745 0.0089-17.618 8e-3 -0.86992-4e-3 -1.7403 0.0069-2.6099-0.0063-0.13635-0.011-0.28106-0.0087-0.39795-0.07241 0.75946-0.65722 1.5316-1.3023 2.2937-1.9574 1.0002-0.85371 1.9985-1.7098 2.9978-2.5645 1.0757 0.90726 2.1513 1.8144 3.227 2.7218 2.0926-1.7858 4.1853-3.5714 6.2781-5.3571 0.63606 0.55121 1.2722 1.1024 1.9082 1.6536-0.10314-1.4747-0.20706-2.9493-0.31062-4.4239-1.7208-0.10628-3.4417-0.21275-5.1624-0.3188 0.59901 0.51926 1.1981 1.0384 1.7972 1.5576-1.472 1.2559-2.944 2.5118-4.416 3.7676-1.0143-0.85549-2.0285-1.7109-3.0429-2.5665-2.5383 2.1641-5.0698 4.336-7.6176 6.4878-0.12666 0.10201-0.34012 0.12678-0.44185-0.02355-0.56861-0.54465-0.89614-1.2912-1.0448-2.05-0.22909-1.2189 0.01154-2.5304 0.69001-3.5658 0.45098-0.68371 1.1224-1.2685 1.9091-1.4915 0.38653-0.10403 0.79892-0.06954 1.1937-0.03741 0.22697 0.01453 0.5053-0.07273 0.56836-0.31864 0.08198-0.27482 0.04336-0.56754 0.1015-0.84728 0.10382-0.77443 0.40536-1.5625 1.0072-2.0901 0.57958-0.52806 1.3735-0.86319 2.1652-0.78262 0.46338 0.05586 0.94007 0.26898 1.3047 0.58371 0.51984 0.44652 0.87352 1.0454 1.3326 1.5463 0.19416 0.20121 0.23167 0.14573 0.32994-0.23722 0.31523-1.1941 0.95413-2.2952 1.8379-3.1609 0.75482-0.75599 1.6564-1.3899 2.6737-1.7343 0.47844-0.1484 0.96874-0.21914 1.4682-0.21756z" fill="#f9fafd" stroke-width=".096119"/>
</svg>
