<?xml version="1.0" encoding="UTF-8"?>
<svg version="1.1" viewBox="0 0 179.3 128.6" xmlns="http://www.w3.org/2000/svg" xmlns:cc="http://creativecommons.org/ns#" xmlns:dc="http://purl.org/dc/elements/1.1/" xmlns:rdf="http://www.w3.org/1999/02/22-rdf-syntax-ns#">
 <defs>
  <radialGradient id="cvfa" cx="-146" cy="167.5" r="89.65" gradientTransform="matrix(.8535 -.5211 .5187 .8495 -109.9 -43.93)" gradientUnits="userSpaceOnUse">
   <stop stop-color="#25aae1" offset="0"/>
   <stop stop-color="#0e76bc" offset="1"/>
  </radialGradient>
 </defs>
 <title>Apache Kudu logo</title>
 <metadata>
  <rdf:RDF>
   <cc:Work rdf:about="">
    <dc:format>image/svg+xml</dc:format>
    <dc:type rdf:resource="http://purl.org/dc/dcmitype/StillImage"/>
    <dc:title>Apache Kudu logo</dc:title>
   </cc:Work>
  </rdf:RDF>
 </metadata>
 <g transform="translate(122.5 -31.27)">
  <g transform="translate(101.7 -77.78)">
   <path d="m-48.26 237.4c-2.17-.2527-3.973-.8252-6.419-2.038-2.688-1.333-2.778-1.444-2.778-3.422 0-1.326.0938-1.723.4378-1.855.734-.2817 2.73.9921 3.793 2.421.9696 1.303 1.079 1.365 4.401 2.497 3.785 1.29 4.347 1.624 3.814 2.266-.3663.4413-.5402.4484-3.25.1329zm-17.2-9.874-1.521-1.412v-2.95c0-1.622.1075-2.95.2389-2.95.1314 0 .9648 1.181 1.852 2.625 1.545 2.514 1.613 2.699 1.613 4.366 0 1.218-.09926 1.739-.3307 1.737-.1819-.002-1.015-.6394-1.852-1.416zm-9.664-10.23-2.441-2.652v-4.35c0-4.158.02474-4.364.5594-4.65.3363-.18 1.022-.2301 1.719-.1256 1.239.1858 2.105 1.042 2.685 2.655.2882.8016.6495 10.83.4123 11.44-.07042.1819-.2103.3307-.3109.3307s-1.281-1.193-2.624-2.652zm-29.85-2.913c-.5984-.1186-1.581-.3482-2.183-.5104l-1.095-.2948v-41.06l.7758.1552c.4267.0853 1.717.518 2.867.9616l2.091.8064.1741 19.69c.0957 10.83.1026 19.88.0152 20.11-.1724.4492-.8941.4875-2.645.1405zm6.698.1064c-.1021-.1021-.1857-9.015-.1857-19.81v-19.62l.6964-.6414c1.236-1.138 1.673-2.497 1.679-5.221.0032-1.354-.1285-2.996-.2927-3.648-.1642-.6521-.2225-1.262-.1295-1.355.2726-.2726 1.742 1.271 2.556 2.686.4136.7186.8883 2.088 1.055 3.043.3154 1.809.1608 2.943-.9043 6.631-.6408 2.219-.5189 3.987.5568 8.07l.9759 3.704.09483 12.6.09484 12.6-1.141.2762c-.6273.1519-1.676.3528-2.331.4465-.6548.0936-1.494.2276-1.865.2977-.3708.0701-.7578.0439-.8599-.0583zm10.83-2.346c-.2526-.6582-.1966-7.882.06429-8.294.1847-.2915.3869-.2703 1.12.1175.4923.2602 1.609.723 2.483 1.028l1.588.5553.07429 3.23c.04086 1.776-.01868 3.239-.1323 3.25-.1136.0109-.8614.0538-1.662.0953s-1.885.1618-2.41.2672c-.7635.1533-.9892.1032-1.124-.2493zm-26.26-1.709c-.8903-.7112-2.051-1.821-2.58-2.466l-.9609-1.173v-36.06h.8382c1.256 0 4.275.5572 4.652.8587.2593.2073.3307 4.571.3307 20.21 0 15.78-.069 19.94-.3307 19.93-.1819-.005-1.059-.5908-1.95-1.302zm-45.87-7.168c-5.371-.6516-10.4-2.129-15.31-4.496-3.693-1.78-3.524-1.682-14.72-8.592-10.59-6.537-14.69-8.944-14.89-8.742-.2264.2264 1.089 2.846 2.491 4.961 1.834 2.766 4.46 5.021 7.685 6.6 2.73 1.336 3.753 2.222 4.176 3.615.3341 1.099-.226 1.376-2.778 1.376-2.697 0-4.895-.5847-6.804-1.809-1.713-1.099-2.719-2.2-4.152-4.541-3.073-5.022-6.637-8.582-12.69-12.67-6.225-4.208-7.572-5.644-7.571-8.073.00041-2.645 2.209-5.979 3.961-5.979.4102 0 3.884 1.175 7.719 2.611 9.992 3.741 16.01 5.856 16.65 5.856.4954 0 .5455-.1159.4283-.9922-.073-.5457-.387-1.885-.6978-2.977-1.668-5.857-1.207-12.44 1.298-18.51 2.432-5.892 5.501-9.382 10.27-11.68 1.209-.583 2.645-1.463 3.191-1.957 1.217-1.099 2.592-3.76 2.236-4.325-.1388-.22-2.134-.8871-4.597-1.537-2.393-.6316-5.286-1.397-6.429-1.702-2.294-.6114-3.396-.5374-4.951.3323-.5774.3231-1.294.4936-1.852.4404l-.9101-.0866.0151-2.117c.0179-2.506.4564-3.528 1.932-4.505 1.248-.826 1.233-.8217 10.09-2.89 9.415-2.198 14.68-3.726 19.53-5.664 5.795-2.319 7.499-2.578 14.23-2.167 2.609.1596 7.839.5753 11.62.9238 10.14.9342 11.63 1.004 14.68.6893 4.691-.484 8.249-1.656 11.21-3.692.6556-.4511 1.26-.8202 1.343-.8202.788 0-1.229 2.56-2.95 3.744-1.627 1.12-3.24 1.703-6.059 2.191-5.363.9282-9.532 1.25-19.02 1.47-8.166.1889-10.18.3129-12.17.7479-4.051.8869-8.439 2.831-9.894 4.383-.7043.7515-.7058.6416.0881 6.382 1.196 8.65.0615 12.41-7.031 23.3-1.144 1.757-2.08 3.365-2.08 3.572.00053.2072.5661.5998 1.257.8725 3.474 1.372 8.176 4.441 14.49 9.46 4.669 3.709 9.445 6.991 11.17 7.677 1.169.4639 2.031.5995 3.766.5924 1.99-.008 2.58-.1361 5.123-1.111 1.58-.606 2.979-1.036 3.109-.9565.1321.0816.2353 5.744.2353 12.91v12.76l-2.712.3052c-3.322.3739-6.742 1.343-9.722 2.756-4.067 1.928-4.826 2.124-8.6 2.217-1.892.0467-4.333-.0235-5.424-.1559zm38.09-1.199c-.7954-.8116-1.762-1.642-2.149-1.846-1.645-.8673-1.546.1037-1.546-15.19 0-11.66.0614-14.02.3707-14.28.2373-.1969 1.213-.28 2.712-.2308l2.341.0768.0681 16.47c.0375 9.059-.0261 16.47-.1413 16.47-.1152 0-.8603-.664-1.656-1.476zm-8.59-3.645-2.117-.3029-.0686-12.86c-.0581-10.9-.0107-12.91.31-13.18.5194-.431 4.439-1.217 4.998-1.002.4214.1617.4486 1.143.3849 13.87l-.0685 13.7-.6615.0383c-.3638.0211-1.614-.098-2.778-.2646z" fill="url(#cvfa)" stroke-width=".2646"/>
  </g>
 </g>
</svg>
