<?xml version="1.0" encoding="UTF-8"?>
<svg width="40" height="40" data-name="Layer 1" version="1.1" viewBox="0 0 40 40" xmlns="http://www.w3.org/2000/svg">
 <defs>
  <style>.lccls-1 {
        fill: #1c3c3c;
        stroke-width: 0px;
      }</style>
 </defs>
 <g id="langchaina">
  <path id="langchainb" class="lccls-1" d="m32 15.95c0.78551 0.78551 0.78551 2.0638 0 2.8493l-1.7597 1.7312-0.01789-0.09921c-0.12848-0.71151-0.46675-1.3572-0.97742-1.8678-0.38462-0.38381-0.83918-0.6676-1.3515-0.84325-0.31794 0.31957-0.49278 0.73835-0.49278 1.1791 0 0.08945 0.0081 0.18215 0.0244 0.27485 0.28217 0.10164 0.53181 0.25858 0.7416 0.46838 0.78551 0.78551 0.78551 2.0638 0 2.8493l-1.532 1.532c-0.39276 0.39276-0.9083 0.58873-1.4247 0.58873-0.51636 0-1.0319-0.19597-1.4247-0.58873-0.78551-0.78551-0.78551-2.0638 0-2.8493l1.7597-1.7304 0.01789 0.09921c0.12767 0.70989 0.46594 1.3555 0.97823 1.867 0.38544 0.38544 0.81235 0.64158 1.3238 0.81641l0.09433-0.09433c0.28623-0.28623 0.44317-0.66679 0.44317-1.0726 0-0.09026-0.0081-0.18052-0.02358-0.26916-0.29518-0.09758-0.53831-0.23663-0.75949-0.45781-0.31876-0.31876-0.51717-0.72615-0.57246-1.1775-0.0041-0.03253-0.0065-0.06424-0.0098-0.09677-0.04391-0.58792 0.16832-1.162 0.58222-1.5751l1.532-1.532c0.37974-0.37974 0.88553-0.58954 1.4247-0.58954 0.53912 0 1.0449 0.20898 1.4247 0.58954zm7.9999 4.0495c0 5.6051-4.5602 10.164-10.165 10.164h-19.67c-5.6043 0-10.165-4.5594-10.165-10.164s4.5602-10.164 10.165-10.164h19.67c5.6051 0 10.165 4.5602 10.165 10.164zm-20.41 5.0977c0.16019-0.19434-0.57978-0.7416-0.73103-0.94245-0.30738-0.3334-0.309-0.81316-0.51636-1.2027-0.50741-1.1758-1.0904-2.3427-1.906-3.338-0.86195-1.0888-1.9256-1.9898-2.8599-3.0119-0.69363-0.71314-0.87903-1.7288-1.4913-2.4956-0.84406-1.2466-3.5129-1.5865-3.904 0.17402 0.00163 0.05529-0.01545 0.09026-0.063427 0.12523-0.2163 0.15694-0.40902 0.33665-0.57084 0.55376-0.39601 0.55132-0.457 1.4865 0.037405 1.9817 0.016263-0.26102 0.025208-0.50741 0.23175-0.69444 0.38219 0.3277 0.95953 0.44398 1.4027 0.19922 0.97905 1.3978 0.7351 3.3315 1.5125 4.8375 0.21468 0.35616 0.43098 0.71965 0.70664 1.0319 0.22362 0.34803 0.99612 0.75868 1.0417 1.0807 0.0081 0.55295-0.05692 1.1571 0.30575 1.6198 0.17076 0.34641-0.24883 0.69444-0.5871 0.65134-0.43911 0.06018-0.97498-0.29518-1.3596-0.07644-0.1358 0.14718-0.4017-0.01545-0.5188 0.18865-0.04066 0.10571-0.26021 0.25452-0.12929 0.35616 0.14556-0.11059 0.28054-0.22606 0.47651-0.16019-0.02928 0.15938 0.09677 0.18215 0.19678 0.2285-0.0033 0.10815-0.06668 0.21874 0.01626 0.31063 0.09677-0.09758 0.1545-0.23582 0.30819-0.27647 0.51066 0.68061 1.0303-0.68875 2.1354-0.07237-0.22443-0.01139-0.42366 0.01708-0.5749 0.20166-0.03741 0.04147-0.06912 0.09026-0.0033 0.14393 0.59604-0.38462 0.59279 0.13173 0.97986-0.02683 0.29762-0.15532 0.5936-0.34966 0.94733-0.29436-0.34397 0.09921-0.35779 0.37568-0.55946 0.60906-0.03415 0.03578-0.05042 0.07644-0.01057 0.1358 0.71396-0.06018 0.7725-0.29762 1.349-0.58873 0.43016-0.26265 0.8587 0.37405 1.2311 0.01138 0.08213-0.07888 0.19435-0.05204 0.29599-0.06261-0.13011-0.69363-1.5605 0.12685-1.5377-0.8034 0.46025-0.31307 0.35454-0.91237 0.38544-1.3962 0.52937 0.29355 1.1181 0.46431 1.6369 0.74486 0.26184 0.42284 0.67248 0.98148 1.2197 0.94489 0.01464-0.04228 0.02765-0.07969 0.0431-0.12279 0.16589 0.02846 0.37893 0.13824 0.47001-0.07156 0.24801 0.2594 0.61231 0.24639 0.93676 0.17971 0.23988-0.19516-0.4513-0.47326-0.544-0.67411zm14.524-7.7226c0-0.94652-0.36755-1.8353-1.0352-2.5029-0.6676-0.6676-1.5564-1.0352-2.5037-1.0352-0.94733 0-1.8361 0.36755-2.5037 1.0352l-1.532 1.532c-0.35779 0.35779-0.62939 0.77819-0.80747 1.249l-0.01057 0.02683-0.02765 0.0081c-0.5562 0.17158-1.0465 0.46594-1.4572 0.87659l-1.532 1.532c-1.3799 1.3807-1.3799 3.6267 0 5.0066 0.6676 0.6676 1.5564 1.0352 2.5029 1.0352 0.94652 0 1.8361-0.36755 2.5037-1.0352l1.532-1.532c0.35616-0.35616 0.62613-0.77494 0.80422-1.2449l0.01057-0.02684 0.02765-0.0089c0.54644-0.16751 1.0506-0.47163 1.4596-0.87984l1.532-1.532c0.6676-0.66764 1.0352-1.5564 1.0352-2.5038zm-20.096 6.5768c-0.13173 0.51392-0.17483 1.3897-0.84325 1.4149-0.0553 0.2968 0.20573 0.40821 0.44236 0.31307 0.235-0.10815 0.34641 0.08538 0.42528 0.2781 0.36267 0.05286 0.89936-0.12116 0.91968-0.55051-0.54156-0.31225-0.70908-0.90586-0.94489-1.4556z"/>
 </g>
</svg>
