<?xml version="1.0" encoding="UTF-8"?>
<svg width="40" height="40" version="1.1" viewBox="0 0 40 40" xml:space="preserve" xmlns="http://www.w3.org/2000/svg">
	
	<g transform="matrix(.27692 0 0 .3291 -45.077 -1.5539)" clip-rule="evenodd" fill-rule="evenodd">
		<path d="m170 106.61c26.971 1e-3 12.931 8e-4 14.999-0.0192 5.608-0.056 10.708-0.456 15.383-1.171l-10.121 7.163 10.121 7.368c-1.755 0.12-3.523 0.205-5.318 0.212-2.816 0.01 26.979-0.0379-4.7942-0.0389l-20.27 0.06675" fill="#f39200"/>
		<linearGradient id="mapstructb" x1="244.67" x2="296.55" y1="-72.261" y2="-72.261" gradientTransform="rotate(180 248.11 15.739)" gradientUnits="userSpaceOnUse">
			<stop stop-color="#E94E1B" offset="0"/>
			<stop stop-color="#F39200" offset="1"/>
		</linearGradient>
		<path d="m209.83 119.58c15.738-2.064 29.312-8.538 37.619-17.037 1.529-1.564 2.969-3.838 4.1-6.436-3.408-2.871-6.977-5.582-10.631-8.209-8.083 8.013-17.711 13.813-31.088 16.717l-10.164 7.465z" fill="url(#mapstructb)"/>
		<path d="m300 25.179c-34.689-5e-3 -13.668-0.18779-16.188-0.16279-5.608 0.056-10.708 0.456-15.383 1.171l10.121-7.163-10.121-7.368c1.755-0.12 10.813-0.37816 12.571-0.3981 2.5983-0.0937 4 0.22048 19-0.45904z" fill="#be1622"/>
		<linearGradient id="mapstructa" x1="217.17" x2="269.05" y1="27.739" y2="27.739" gradientUnits="userSpaceOnUse">
			<stop stop-color="#E94E1B" offset="0"/>
			<stop stop-color="#BE1622" offset="1"/>
		</linearGradient>
		<path d="m258.89 11.898c-15.738 2.064-29.312 8.538-37.619 17.037-1.529 1.564-2.969 3.838-4.1 6.436 3.408 2.871 6.977 5.582 10.631 8.209 8.083-8.013 17.711-13.813 31.088-16.717l10.164-7.465z" fill="url(#mapstructa)"/>
		<path d="m234.02 74.9c2.534 1.838 5.108 3.634 7.695 5.418 4.736 3.176 9.479 6.344 13.824 10.002 2.303-6.348 2.021-14.178-2.254-18.957 1e-3 -6e-3 0-0.012 0-0.02-0.025-0.023-0.053-0.047-0.078-0.07-0.406-0.443-0.844-0.863-1.32-1.25-3e-3 0.026-0.01 0.049-0.014 0.074-3.441-2.965-7.159-5.657-10.898-8.325l-7.53-5.383c-2.636-1.881-5.285-3.751-7.859-5.698-4.228-3.02-8.356-6.137-12.255-9.486-2.748 6.949-3.208 15.83 2.579 20.032 3.383 2.906 6.938 5.636 10.581 8.281z" fill="#e94e1b"/>
	</g>
</svg>
