<?xml version="1.0" encoding="UTF-8" standalone="no"?>
<svg
   width="44.043076"
   height="29.999979"
   viewBox="0 0 44.043076 29.999979"
   fill="none"
   version="1.1"
   id="svg22"
   sodipodi:docname="milvus_logo.svg"
   inkscape:version="1.1.1 (3bf5ae0d25, 2021-09-20)"
   xmlns:inkscape="http://www.inkscape.org/namespaces/inkscape"
   xmlns:sodipodi="http://sodipodi.sourceforge.net/DTD/sodipodi-0.dtd"
   xmlns="http://www.w3.org/2000/svg"
   xmlns:svg="http://www.w3.org/2000/svg">
  <defs
     id="defs26" />
  <sodipodi:namedview
     id="namedview24"
     pagecolor="#ffffff"
     bordercolor="#666666"
     borderopacity="1.0"
     inkscape:pageshadow="2"
     inkscape:pageopacity="0.0"
     inkscape:pagecheckerboard="0"
     showgrid="false"
     fit-margin-top="0"
     fit-margin-left="0"
     fit-margin-right="0"
     fit-margin-bottom="0"
     inkscape:zoom="9.5038168"
     inkscape:cx="65.5"
     inkscape:cy="15.046586"
     inkscape:window-width="2560"
     inkscape:window-height="1371"
     inkscape:window-x="0"
     inkscape:window-y="32"
     inkscape:window-maximized="1"
     inkscape:current-layer="svg22" />
  <path
     d="m 21.1411,22.537603 c 4.0669,0 7.3637,-3.368501 7.3637,-7.5238 0,-4.1552 -3.2968,-7.5236905 -7.3637,-7.5236905 -4.0669,0 -7.3638,3.3684905 -7.3638,7.5236905 0,4.155299 3.2969,7.5238 7.3638,7.5238 z"
     fill="#00b3ff"
     id="path2" />
  <path
     fill-rule="evenodd"
     clip-rule="evenodd"
     d="m 9.9687903,4.3960425 c 5.8402097,-5.86139 15.3105097,-5.86139 21.1507097,0 5.8496,5.8613605 5.8496,15.3645595 0,21.2163605 -5.8402,5.851699 -15.3105,5.851699 -21.1507097,-0.0096 l -9.54558705,-9.5801 c -0.564271,-0.566899 -0.564271,-1.479699 0,-2.046599 z M 13.3262,22.797003 c 4.2885,4.3047 11.2478,4.3047 15.5363,0 4.2884,-4.304801 4.2884,-11.2808 -0.0094,-15.5855705 -4.2885,-4.30476 -11.2478,-4.30476 -15.5363,0 L 6.3010203,14.245103 c -0.41379,0.4228 -0.41379,1.0954 0,1.508599 z"
     fill="#00b3ff"
     id="path4" />
  <path
     d="m 39.4231,9.6904525 4.2038,4.2951495 c 0.5549,0.5669 0.5549,1.479801 0,2.0563 l -4.2038,4.2951 c -0.2445,0.2499 -0.6677,0.0193 -0.5925,-0.3363 0.7241,-3.2766 0.7241,-6.6973 0,-9.9739 -0.0847,-0.3555695 0.3385,-0.5957895 0.5925,-0.3363495 z"
     fill="#00b3ff"
     id="path6" />
</svg>
