<?xml version="1.0" encoding="UTF-8"?>
<!-- Uploaded to: SVG Repo, www.svgrepo.com, Generator: SVG Repo Mixer Tools -->
<svg width="40" height="40" version="1.1" viewBox="0 0 1.6 1.6" xmlns="http://www.w3.org/2000/svg" xmlns:cc="http://creativecommons.org/ns#" xmlns:dc="http://purl.org/dc/elements/1.1/" xmlns:rdf="http://www.w3.org/1999/02/22-rdf-syntax-ns#">
 <title>file_type_mustache</title>
 <path d="m3.3636e-5 1.1173a0.95596 0.95596 0 0 1 0.0124-0.16171 0.29445 0.29445 0 0 1 0.046627-0.12062 0.21713 0.21713 0 0 1 0.093711-0.074854 0.39839 0.39839 0 0 1 0.15531-0.025256 1.0367 1.0367 0 0 1 0.1108 0.0064 1.0032 1.0032 0 0 0 0.10651 0.0064 0.25359 0.25359 0 0 0 0.10222-0.017942 0.15548 0.15548 0 0 0 0.065426-0.053027 0.22513 0.22513 0 0 0 0.035942-0.084683 0.76746 0.76746 0 0 0 0.015428-0.10954h0.1104a0.7566 0.7566 0 0 0 0.017542 0.11165 0.23279 0.23279 0 0 0 0.035484 0.083426 0.15331 0.15331 0 0 0 0.06714 0.053484 0.26033 0.26033 0 0 0 0.098796 0.016685 1.0045 1.0045 0 0 0 0.10782-0.0064 1.0249 1.0249 0 0 1 0.1104-0.0064 0.39107 0.39107 0 0 1 0.14971 0.025256 0.22113 0.22113 0 0 1 0.096682 0.074854 0.29627 0.29627 0 0 1 0.048341 0.12148 0.8994 0.8994 0 0 1 0.013257 0.16079h-0.070169a0.7414 0.7414 0 0 0-0.0089711-0.079311 0.22525 0.22525 0 0 0-0.021828-0.071597 0.12645 0.12645 0 0 0-0.054341-0.049884 0.22251 0.22251 0 0 0-0.10051-0.019085h-0.19999a0.44215 0.44215 0 0 1-0.14885-0.021371 0.22942 0.22942 0 0 1-0.095825-0.063483 0.29336 0.29336 0 0 1-0.054341-0.091825 0.68346 0.68346 0 0 1-0.032056-0.11822h-0.026799a0.77557 0.77557 0 0 1-0.031656 0.11605 0.28622 0.28622 0 0 1-0.054741 0.093996 0.23799 0.23799 0 0 1-0.094968 0.062855 0.42947 0.42947 0 0 1-0.14971 0.022228h-0.19936a0.22976 0.22976 0 0 0-0.098396 0.017942 0.12851 0.12851 0 0 0-0.057141 0.051027 0.20685 0.20685 0 0 0-0.023942 0.073711c-0.0039998 0.028113-0.0065712 0.053884-0.007714 0.07714z" fill="#1a1a1a" stroke-width=".057141"/>
 <metadata>
  <rdf:RDF>
   <cc:Work rdf:about="">
    <dc:title>file_type_mustache</dc:title>
   </cc:Work>
  </rdf:RDF>
 </metadata>
</svg>
