<?xml version="1.0" encoding="UTF-8"?>
<!-- Created with Inkscape (http://www.inkscape.org/) -->
<svg width="40" height="40" version="1.0" xmlns="http://www.w3.org/2000/svg" xmlns:cc="http://creativecommons.org/ns#" xmlns:dc="http://purl.org/dc/elements/1.1/" xmlns:rdf="http://www.w3.org/1999/02/22-rdf-syntax-ns#" xmlns:xlink="http://www.w3.org/1999/xlink">
 <defs>
  <linearGradient id="mybatisa">
   <stop offset="0"/>
   <stop stop-color="#6d5656" offset="1"/>
  </linearGradient>
  <linearGradient id="mybatisd" x1="379.49" x2="557.76" y1="251.36" y2="251.36" gradientUnits="userSpaceOnUse" xlink:href="#mybatisa"/>
  <linearGradient id="mybatisc" x1="394.51" x2="818.97" y1="383.23" y2="107.69" gradientTransform="rotate(-2.8412 492.88 691.68)" gradientUnits="userSpaceOnUse" xlink:href="#mybatisa"/>
  <linearGradient id="mybatisb" x1="358.33" x2="504.17" y1="284.44" y2="227.5" gradientUnits="userSpaceOnUse" xlink:href="#mybatisa"/>
  <filter id="mybatise" x="-.011235" y="-.013091" width="1.036" height="1.0371" color-interpolation-filters="sRGB">
   <feFlood flood-color="rgb(0,0,0)" flood-opacity=".5" result="flood"/>
   <feComposite in="flood" in2="SourceGraphic" operator="in" result="composite1"/>
   <feGaussianBlur in="composite" result="blur" stdDeviation="2"/>
   <feOffset dx="4" dy="4" result="offset"/>
   <feComposite in="SourceGraphic" in2="offset" result="composite2"/>
  </filter>
 </defs>
 <metadata>
  <rdf:RDF>
   <cc:Work rdf:about="">
    <dc:format>image/svg+xml</dc:format>
    <dc:type rdf:resource="http://purl.org/dc/dcmitype/StillImage"/>
   </cc:Work>
  </rdf:RDF>
 </metadata>
 <g transform="translate(0,35)">
  <g transform="matrix(.09037 0 0 .09037 -23.953 -40.261)" filter="url(#mybatise)">
   <path d="m666.52 236.94 30.581 8.8856-28.517 8.372 19.511 8.1701-20.541 3.8411z" fill="#1a1a1a" stroke="#000" stroke-width="1px"/>
   <g>
    <path d="m379.68 179.98c-4.1093 52.209 58.438 135.92 120.25 142.56 24.153 2.5972 59.602-20.221 57.756-44.443-5.1471-67.557-109.43-70.951-178.01-98.12z" fill="url(#mybatisd)" stroke-width="6"/>
    <path d="m269.86 373.21c67.679 75.436 189.57 109.44 278.21 72.925 73.954-30.46 121.91-128.72 121.93-206.66 0.0163-53.372-53.437-114.08-132.57-89.051-35.545 11.241-62.664 46.947-85.571 79.381-51.182 68.124-96.569 113.89-182 143.4z" fill="url(#mybatisc)"/>
    <path d="m320.77 220.77c4.3061 52.194 79.453 124.8 141.53 121.46 24.257-1.305 55.594-29.507 49.892-53.12-15.901-65.86-119.38-52.509-191.42-68.342z" fill="url(#mybatisb)" stroke-width="6"/>
    <path d="m492.39 179.68c21.514 1.9223 59.504 8.7341 89.482 10.592 24.605 1.5246 53.677 0.86535 73.954 0.44024 14.686 25.172 15.875 52.01 11.73 75.495-43.239 7.2409-75.434 1.9019-110.71-9.3722-32.095-10.257-63.928-25.711-86.999-51.465 10.288-14.637 13.79-17.799 22.544-25.69z" fill="#d40000"/>
   </g>
   <g transform="matrix(.86579 .36497 -.26391 .69232 85.487 -162.41)">
    <g transform="matrix(2 0 0 2.2453 -561.09 -140.09)">
     <g>
      <ellipse transform="matrix(1.25 0 0 1.1522 -157.92 -67.179)" cx="625.78" cy="191.7" rx="11.77" ry="11.28" fill="#fff"/>
      <ellipse transform="translate(11.28 -81.08)" cx="616.46" cy="234.36" rx="10.299" ry="9.8084" fill="#1a1a1a"/>
      <circle transform="translate(9.8084 -82.391)" cx="620.74" cy="230.61" r="3.4678" fill="#fff"/>
     </g>
    </g>
   </g>
   <g>
    <path d="m650.58 225.21c-5.4096-3.3735-9.8951-8.0024-15.279-11.417-5.1849-3.4981-10.533-6.8719-16.347-9.22-2.5485-0.88107-5.0989-1.7572-7.6355-2.6723-1.7343 0.41352 0.32979-1.1372 0.69065-1.7111 1.7555-1.9591 3.511-3.9182 5.2664-5.8773 2.2776 0.30009 4.2895 1.5546 6.5078 2.0876 6.0032 2.4585 11.429 6.0905 16.853 9.5977 5.3303 3.5972 10.304 7.7197 15.677 11.24 1.5911 0.2977 1.5056 1.4044 0.27975 2.0755-2.0042 1.9658-4.0084 3.9316-6.0127 5.8973z" fill="#1a1a1a"/>
    <path d="m496.85 208.52c-10.37-0.36057-22.441 0.92855-30.389-8.6616-6.9977-7.6667-12.692-17.211-16.364-27.613-0.63688-7.5562-0.64379-16.787-7.5447-20.377-7.9648-5.0548-17.376-4.3273-26.085-5.7266-16.435-1.0932-32.093 5.759-47.412 11.821-7.2727 2.8545-16.213 2.3303-21.545-4.9542-4.1535-4.7645-6.6779-10.935-9.2998-16.842-3.8399-3.8237-4.0705-9.7639 1.113-11.349 3.1914-2.1638 6.3827-4.3276 9.5741-6.4913 4.9031 10.612 8.6336 24.247 18.973 28.975 10.615 2.6872 20.46-4.5272 30.467-7.4499 14.186-5.3972 29.345-6.2096 43.997-3.3477 8.4362 0.88663 18.645 4.5448 21.196 15.42 0.74601 9.4305 2.4459 18.616 8.085 25.698 5.3357 9.5831 13.16 18.718 23.432 19.112 3.3999 1.3337 14.526-1.3907 13.301 1.8785l-11.498 9.9074z" fill="#d40000"/>
    <path d="m489.9 203.54c-7.5197-4.9036-16.718-9.2297-19.916-18.256-2.1183-6.0442-4.2943-12.156-5.3548-18.479-0.92927-8.5937 0.0256-17.254-0.40295-25.867 1.3858-5.4962-2.1786-10.553-7.6835-11.567-7.2151-2.1032-14.847-1.8266-22.245-2.8454-6.8001-0.37061-14.916 1.1088-20.309-4.0057-4.0907-4.8785-5.8677-11.192-7.8948-17.103-0.46476-3.0873 3.6349-3.2107 5.417-5.0363 3.2519-2.0633 6.5038-4.1266 9.7558-6.1899 0.70572 5.751 3.228 11.119 5.4821 16.391 3.1111 5.5391 9.9256 5.8034 15.547 5.6642 8.8151 0.56086 17.768 0.73464 26.401 2.693 5.4414 1.2713 11.854 5.1236 11.282 11.458 0.36689 13.125-1.8067 26.735 2.7055 39.391 1.8647 5.6612 3.6946 11.772 8.7016 15.531 3.7544 3.4807 8.4758 5.7673 12.66 8.545-3.4282 2.9985-7.8027 5.2573-11.593 7.9871-0.85097 0.56342-1.7019 1.1269-2.5528 1.6903z" fill="#d40000"/>
   </g>
  </g>
 </g>
</svg>
