<?xml version="1.0" encoding="UTF-8"?>
<!-- Uploaded to: SVG Repo, www.svgrepo.com, Generator: SVG Repo Mixer Tools -->
<svg width="618.96" height="618.96" version="1.1" viewBox="-10 -5 800 800" xmlns="http://www.w3.org/2000/svg">
 <path d="m132-5h-142v800h800v-800h-143zm560 99.001v76c-70.667 0.66667-165.33 0.66667-284 0l1-75zm-321 1c0.66667 16.667 1 41.667 1 75h-282v-75zm179 112h142v76h-284v-76zm-178 0v76l-282-1v-74zm72 112c36.667 0 91.667 0.33333 165 1h82v76l-283 1v-78zm-72 0v78h-282v-77h282zm36 115h283c0.66667 12 0.66667 30.333 0 55v20h-282zm-207 35c16.667 0 32.833 3.5 48.5 10.5s28.833 16.833 39.5 29.5c14.667 16.667 23 36.5 25 59.5s-2 45-12 66-25 36.5-45 46.5c-18.667 10.667-39.5 15.167-62.5 13.5s-43.667-9.1667-62-22.5-30.5-30.667-36.5-52c-8-19.333-9.6667-39.667-5-61s14.333-39.833 29-55.5 32.333-25.833 53-30.5c9.3333-2.6667 18.667-4 28-4z" fill="#ff8c00"/>
</svg>
