<?xml version="1.0" encoding="UTF-8"?>
<svg fill="currentColor" version="1.1" viewBox="0 0 64 64" xmlns="http://www.w3.org/2000/svg">
<title>OpenSearch S logo</title>
<desc>Search engine software fork of Elasticsearch</desc>
 <g fill="#7b96a9">
  <path d="m61.7374 23.5c-1.2496 0-2.2626 1.013-2.2626 2.2626 0 18.6187-15.0935 33.7122-33.7122 33.7122-1.2496 0-2.2626 1.013-2.2626 2.2626s1.013 2.2626 2.2626 2.2626c21.1179 0 38.2374-17.1195 38.2374-38.2374 0-1.2496-1.013-2.2626-2.2626-2.2626z"/>
  <path d="m48.0814 38c2.1758-3.5495 4.2801-8.2822 3.8661-14.9079-0.8576-13.72485-13.2886-24.13673-25.0269-23.00837-4.5953 0.4417323-9.3138 4.187467-8.8946 10.89677 0.1822 2.9156 1.6092 4.6364 3.9284 5.9594 2.2074 1.2593 5.0434 2.057 8.2584 2.9612 3.8834 1.0923 8.3881 2.3192 11.8502 4.8706 4.1495 3.0578 6.9861 6.6026 6.0184 13.2283z"/>
  <path d="m3.91861 14c-2.17585 3.5495-4.280116 8.2822-3.866117 14.9079 0.8575789 13.7248 13.28861 24.1367 25.02691 23.0084 4.5953-0.4418 9.3138-4.1875 8.8946-10.8968-0.1822-2.9156-1.6093-4.6364-3.9284-5.9594-2.2074-1.2593-5.0434-2.057-8.2584-2.9612-3.8834-1.0923-8.3881-2.3192-11.85026-4.8706-4.14948-3.0579-6.98602-6.6026-6.01833-13.2283z"/>
 </g>
</svg>
