<?xml version="1.0" encoding="UTF-8" standalone="no"?>
<svg
   enable-background="new 0 0 1077 220"
   viewBox="0 0 191.64058 209.88771"
   version="1.1"
   id="svg22"
   sodipodi:docname="picone.svg"
   width="191.64058"
   height="209.88771"
   inkscape:version="1.1.1 (3bf5ae0d25, 2021-09-20)"
   xmlns:inkscape="http://www.inkscape.org/namespaces/inkscape"
   xmlns:sodipodi="http://sodipodi.sourceforge.net/DTD/sodipodi-0.dtd"
   xmlns="http://www.w3.org/2000/svg"
   xmlns:svg="http://www.w3.org/2000/svg">
  <defs
     id="defs26" />
  <sodipodi:namedview
     id="namedview24"
     pagecolor="#ffffff"
     bordercolor="#666666"
     borderopacity="1.0"
     inkscape:pageshadow="2"
     inkscape:pageopacity="0.0"
     inkscape:pagecheckerboard="0"
     showgrid="false"
     fit-margin-top="0"
     fit-margin-left="0"
     fit-margin-right="0"
     fit-margin-bottom="0"
     inkscape:zoom="1.1559889"
     inkscape:cx="532.44458"
     inkscape:cy="105.53735"
     inkscape:window-width="2560"
     inkscape:window-height="1371"
     inkscape:window-x="0"
     inkscape:window-y="32"
     inkscape:window-maximized="1"
     inkscape:current-layer="svg22" />
  <path
     clip-rule="evenodd"
     d="m 121.02279,2.3877172 c -2.1,-2.49999996 -5.6,-3.09999996 -8.4,-1.49999996 l -2.6,1.39999996 -28.299999,16.0999998 6.6,11.6 18.399999,-10.5 -4.5,24.6 13.1,2.4 4.6,-24.7 13.6,16.2 10.2,-8.6 -20.6,-24.5999998 h -0.1 z M 81.322791,209.88772 c 6.8,0 12.3,-5.4 12.3,-12 0,-6.6 -5.5,-12 -12.3,-12 -6.8,0 -12.3,5.4 -12.3,12 -0.1,6.6 5.5,12 12.3,12 z m 16.5,-65.9 -4.4,24.7 -13.2,-2.4 4.4,-24.6 -18.4,10.6 -6.7,-11.6 28.1,-16.1 2.6,-1.5 c 2.8,-1.6 6.3,-1 8.4,1.5 l 1.999999,2.4 20.9,24.5 -10.2,8.7 z m 10.699999,-59.000003 -4.4,24.700003 -13.199999,-2.4 4.4,-24.500003 -18.3,10.5 -6.6,-11.6 28,-16 v -0.2 h 0.2 l 2.599999,-1.5 c 2.8,-1.6 6.3,-1 8.4,1.5 l 2,2.3 20.8,24.6 -10.2,8.700003 z M 22.222791,182.58772 h -0.1 l -2.7,-0.8 c -2.9,-0.8 -4.8,-3.6 -4.6,-6.6 l 2.4,-33.4 12.7,0.9 -1.5,20.3 19.7,-13.4 7.1,10.5 -19.3,13.1 19.7,5.7 -3.5,12.2 z m 130.699999,13.8 -0.9,2.9 c -0.9,2.8 -3.5,4.7 -6.5,4.5 l -2.8,-0.2 -0.2,0.1 -0.1,-0.1 -31,-2.1 0.8,-12.7 20.6,1.4 -13.5,-18.9 10.3,-7.4 13.8,19.4 6,-19.6 12.1,3.7 z m 36.4,-68.8 1.5,2.7 c 1.5,2.7 0.9,6.1 -1.5,8.1 l -2.2,1.9 v 0.1 h -0.1 l -24.1,20.4 -8.4,-9.9 15.8,-13.4 -23.7,-4.2 2.3,-12.8 23.9,4.2 -10,-18 11.3,-6.3 z m -24.5,-55.800003 -21.4,11.5 -6.2,-11.4 21.1,-11.3 -19.3,-7.9 4.9,-12 29.4,11.9 0.1,-0.1 0.1,0.2 2.7,1.1 c 2.9,1.2 4.5,4.2 4,7.2 l -0.5,3 -5.5,30.5 -12.8,-2.3 z m -143.599999,26.8 23.8,4.000003 -2.2,12.8 -24,-4.1 10.2,18 -11.3,6.4 -15.3999996,-27.1 -1.49999998,-2.6 c -1.5,-2.7 -0.9,-6.100003 1.39999998,-8.100003 l 2.2,-1.9 v -0.1 h 0.1 l 23.7999996,-20.5 8.5,9.9 z m 35.9,-55.4 15.8,17.6 -9.7,8.7 -16.2,-18 -3.7,20.5 -12.8,-2.3 5.6,-30.4 0.6,-3.1 c 0.5,-3 3.1,-5.2 6.1,-5.3 l 2.8,-0.1 0.1,-0.1 0.1,0.1 31.8,-1.3 0.5,13 z"
     fill-rule="evenodd"
     id="path18"
     style="fill:#111111" />
</svg>
