<?xml version="1.0" encoding="UTF-8"?>
<svg width="40" height="40" enable-background="new 0 0 1077 220" version="1.1" viewBox="0 0 40 40" xmlns="http://www.w3.org/2000/svg">
 <g transform="translate(-5.9772 -4.0123)" fill="#111">
  <path d="m30.78 4.4673c-0.40021-0.47645-1.0672-0.59079-1.6009-0.28587l-0.4955 0.26681-5.3934 3.0683 1.2578 2.2107 3.5066-2.0011-0.8576 4.6882 2.4966 0.45739 0.87666-4.7073 2.5919 3.0874 1.9439-1.639-3.9259-4.6882h-0.01906zm-7.566 39.545c1.2959 0 2.3441-1.0291 2.3441-2.2869 0-1.2578-1.0482-2.2869-2.3441-2.2869s-2.3441 1.0291-2.3441 2.2869c-0.01906 1.2578 1.0482 2.2869 2.3441 2.2869zm3.1445-12.559-0.83854 4.7073-2.5156-0.45739 0.83854-4.6882-3.5066 2.0201-1.2769-2.2107 5.3552-3.0683 0.4955-0.28587c0.53362-0.30492 1.2006-0.19058 1.6009 0.28587l0.38116 0.45739 3.9831 4.6692-1.9439 1.658zm2.0392-11.244-0.83854 4.7073-2.5156-0.45739 0.83854-4.6692-3.4876 2.0011-1.2578-2.2107 5.3362-3.0492v-0.03812h0.03812l0.4955-0.28587c0.53362-0.30492 1.2006-0.19058 1.6009 0.28587l0.38116 0.43833 3.964 4.6882-1.9439 1.658zm-16.447 18.6h-0.01906l-0.51456-0.15246c-0.55268-0.15246-0.91478-0.68608-0.87666-1.2578l0.45739-6.3653 2.4203 0.17152-0.28587 3.8687 3.7544-2.5537 1.3531 2.0011-3.6782 2.4966 3.7544 1.0863-0.66702 2.3251zm24.909 2.63-0.17152 0.55268c-0.17152 0.53362-0.66702 0.89572-1.2388 0.8576l-0.53362-0.03811-0.03811 0.01906-0.01906-0.01906-5.9079-0.40021 0.15246-2.4203 3.9259 0.26681-2.5728-3.6019 1.963-1.4103 2.63 3.6972 1.1435-3.7353 2.306 0.70514zm6.937-13.112 0.28587 0.51456c0.28587 0.51456 0.17152 1.1625-0.28587 1.5437l-0.41927 0.3621v0.01906h-0.01906l-4.5929 3.8878-1.6009-1.8867 3.0111-2.5537-4.5167-0.80043 0.43833-2.4394 4.5548 0.80043-1.9058-3.4304 2.1535-1.2006zm-4.6692-10.634-4.0784 2.1916-1.1816-2.1726 4.0212-2.1535-3.6782-1.5056 0.93383-2.2869 5.603 2.2679 0.01906-0.01906 0.01906 0.03811 0.51456 0.20964c0.55268 0.22869 0.8576 0.80043 0.76231 1.3722l-0.09529 0.57174-1.0482 5.8126-2.4394-0.43833zm-27.367 5.1075 4.5358 0.76231-0.41927 2.4394-4.5739-0.78137 1.9439 3.4304-2.1535 1.2197-2.9349-5.1647-0.28587-0.4955c-0.28587-0.51456-0.17152-1.1625 0.26681-1.5437l0.41927-0.3621v-0.01906h0.019058l4.5358-3.9069 1.6199 1.8867zm6.8418-10.558 3.0111 3.3542-1.8486 1.658-3.0874-3.4304-0.70514 3.9068-2.4394-0.43833 1.0672-5.7936 0.11435-0.59079c0.09529-0.57174 0.59079-0.99101 1.1625-1.0101l0.53362-0.019058 0.01906-0.019058 0.01906 0.019058 6.0604-0.24775 0.09529 2.4775z" clip-rule="evenodd" fill-rule="evenodd" stroke-width=".19058"/>
 </g>
</svg>
