<svg id="fa98e634-e648-43b9-ad5e-7e0fe7ed8c4e" data-name="Icon" xmlns="http://www.w3.org/2000/svg" viewBox="0 0 36 36">
  <title>Printer icon - Red</title>
<desc>print, copy, paper, office, fax, IT, GWS, office and work, copier</desc>
<metadata><?xpacket begin="﻿" id="W5M0MpCehiHzreSzNTczkc9d"?>
<x:xmpmeta xmlns:x="adobe:ns:meta/" x:xmptk="Adobe XMP Core 8.0-c001 1.000000, 0000/00/00-00:00:00        ">
   <rdf:RDF xmlns:rdf="http://www.w3.org/1999/02/22-rdf-syntax-ns#">
      <rdf:Description rdf:about=""
            xmlns:xmp="http://ns.adobe.com/xap/1.0/"
            xmlns:dc="http://purl.org/dc/elements/1.1/"
            xmlns:cq="http://www.day.com/jcr/cq/1.0"
            xmlns:tiff="http://ns.adobe.com/tiff/1.0/">
         <xmp:rhcc-effective-on>2023-12-08T17:47:04.430Z</xmp:rhcc-effective-on>
         <xmp:rhcc-metadata-complete-moderator>pending</xmp:rhcc-metadata-complete-moderator>
         <xmp:rhcc-translation-id>TRAcdf889eb-05ec-452b-a398-3d5ef54b7521</xmp:rhcc-translation-id>
         <xmp:brand-content-type>Icon</xmp:brand-content-type>
         <xmp:CreateDate>2023-12-08T17:47:04.430Z</xmp:CreateDate>
         <xmp:rhcc-effective-on-set-on-upload>true</xmp:rhcc-effective-on-set-on-upload>
         <xmp:rhcc-metadata-complete-uploader>pending</xmp:rhcc-metadata-complete-uploader>
         <xmp:rhcc-file-last-modified>2023-12-08T17:48:03.549Z</xmp:rhcc-file-last-modified>
         <xmp:rhcc-audience>rhcc-audience:internal</xmp:rhcc-audience>
         <xmp:rhcc-rights-restricted>no</xmp:rhcc-rights-restricted>
         <xmp:brand-content-subtype>Icon</xmp:brand-content-subtype>
         <xmp:rhcc-derivative-id>DERcdf889eb-05ec-452b-a398-3d5ef54b7521</xmp:rhcc-derivative-id>
         <xmp:brand-logo-color>Red</xmp:brand-logo-color>
         <xmp:rhcc-notify-portal-subscribers-on-change>yes</xmp:rhcc-notify-portal-subscribers-on-change>
         <dc:format>image/svg+xml</dc:format>
         <dc:modified>2024-02-09T20:23:44.305Z</dc:modified>
         <dc:title>
            <rdf:Alt>
               <rdf:li xml:lang="x-default">Printer icon - Red</rdf:li>
            </rdf:Alt>
         </dc:title>
         <dc:description>
            <rdf:Alt>
               <rdf:li xml:lang="x-default">print, copy, paper, office, fax, IT, GWS, office and work, copier</rdf:li>
            </rdf:Alt>
         </dc:description>
         <cq:lastReplicationAction_scene7>Activate</cq:lastReplicationAction_scene7>
         <cq:lastReplicationAction_publish>Activate</cq:lastReplicationAction_publish>
         <cq:lastReplicated_publish>2024-02-09T22:05:17.575Z</cq:lastReplicated_publish>
         <cq:lastReplicatedBy>workflow-process-service</cq:lastReplicatedBy>
         <cq:lastReplicationAction>Activate</cq:lastReplicationAction>
         <cq:lastReplicatedBy_publish>workflow-process-service</cq:lastReplicatedBy_publish>
         <cq:isDelivered>true</cq:isDelivered>
         <cq:lastReplicated>2024-02-09T22:05:17.575Z</cq:lastReplicated>
         <cq:lastReplicatedBy_scene7>workflow-process-service</cq:lastReplicatedBy_scene7>
         <cq:lastReplicated_scene7>2024-02-09T22:05:17.575Z</cq:lastReplicated_scene7>
         <tiff:ImageLength>36</tiff:ImageLength>
         <tiff:ImageWidth>36</tiff:ImageWidth>
      </rdf:Description>
   </rdf:RDF>
</x:xmpmeta>
                                                                                                    
                                                                                                    
                                                                                                    
                                                                                                    
                                                                                                    
                                                                                                    
                                                                                                    
                                                                                                    
                                                                                                    
                                                                                                    
                                 
<?xpacket end="w"?></metadata>
<defs>
    <style>
      .aaceb2a2-c388-41fc-a0c1-0c6f8f0576c0 {
        fill: #e00;
      }
    </style>
  </defs>
  <g>
    <path class="aaceb2a2-c388-41fc-a0c1-0c6f8f0576c0" d="M23,14.63a.62.62,0,0,0,.63-.62.63.63,0,1,0-1.25,0A.62.62,0,0,0,23,14.63Z"/>
    <path class="aaceb2a2-c388-41fc-a0c1-0c6f8f0576c0" d="M25,14.63a.62.62,0,0,0,.63-.62.63.63,0,1,0-1.25,0A.62.62,0,0,0,25,14.63Z"/>
    <path class="aaceb2a2-c388-41fc-a0c1-0c6f8f0576c0" d="M27,14.63a.62.62,0,0,0,.63-.62.63.63,0,1,0-1.25,0A.62.62,0,0,0,27,14.63Z"/>
    <path class="aaceb2a2-c388-41fc-a0c1-0c6f8f0576c0" d="M30,30.38a.63.63,0,0,0-.62.63.63.63,0,0,0,1.25,0A.63.63,0,0,0,30,30.38Z"/>
    <path class="aaceb2a2-c388-41fc-a0c1-0c6f8f0576c0" d="M12,30.38a.63.63,0,0,0-.62.63.63.63,0,0,0,1.25,0A.63.63,0,0,0,12,30.38Z"/>
    <path class="aaceb2a2-c388-41fc-a0c1-0c6f8f0576c0" d="M30,10.38H12a.61.61,0,0,0-.62.62v4.49L6.44,10.56a.62.62,0,0,0-.88.88l5.82,5.82V29a.61.61,0,0,0,.62.62H30a.61.61,0,0,0,.62-.62V11A.61.61,0,0,0,30,10.38Zm-.62,6H18a.62.62,0,0,0,0,1.24H29.38v2.76H18a.62.62,0,0,0,0,1.24H29.38v2.76H18a.62.62,0,0,0,0,1.24H29.38v2.76H12.62V11.62H29.38Z"/>
    <path class="aaceb2a2-c388-41fc-a0c1-0c6f8f0576c0" d="M30,4.38H18a.61.61,0,0,0-.62.62V9a.61.61,0,0,0,.62.62H30A.61.61,0,0,0,30.62,9V5A.61.61,0,0,0,30,4.38Zm-.62,4H18.62V5.62H29.38Z"/>
  </g>
</svg>
