<?xml version="1.0" encoding="UTF-8"?>
<svg width="61" height="43.09" version="1.1" viewBox="0 0 61 43.09" xmlns="http://www.w3.org/2000/svg" xmlns:cc="http://creativecommons.org/ns#" xmlns:dc="http://purl.org/dc/elements/1.1/" xmlns:rdf="http://www.w3.org/1999/02/22-rdf-syntax-ns#">
 <defs>
  <style>.cls-1{fill:#188fff;}.cls-2{fill:#464e56;}</style>
 </defs>
 <title>Asset 2</title>
 <g data-name="Layer 2">
  <g data-name="Layer 1">
   <path class="cls-1" d="m61 13.73h-14.91c-4.03-7.73-8.29-13.73-14.09-13.73-7.55 0-11.1 6.59-14.53 13l-0.3 0.56h-17.17v3.81h10c3.53 0 4.25 1.19 4.25 1.19-2.77 4.3-6.1 8.55-11.65 8.55h-2.6v4h2.62c10.76 0 15.46-8.73 19.23-15.74 3.46-6.46 5.87-10.37 10.15-10.37 4.44 0 9.11 9.66 13.22 18.19 0.6 1.24 1.21 2.51 1.83 3.77-15.76 0.5-23.27 4.19-29.38 7.2-4.47 2.2-8 4.93-13.81 4.93h-3.86v4h3.83c7 0 11.36-2.16 16-4.45 6.43-3.16 13.72-6.74 30.9-6.74h9.93v-4h-5.61a3 3 0 0 1-2.47-1c-0.98-1.9-1.94-3.9-2.88-5.9l-1.3-2.66s0.93-1 3.51-1h9.09z"/>
  </g>
 </g>
 <metadata>
  <rdf:RDF>
   <cc:Work rdf:about="">
    <dc:title>Asset 2</dc:title>
   </cc:Work>
  </rdf:RDF>
 </metadata>
</svg>
