<?xml version="1.0" encoding="UTF-8" standalone="no"?>
<!-- Created with Inkscape (http://www.inkscape.org/) -->
<svg xmlns:dc="http://purl.org/dc/elements/1.1/" xmlns:cc="http://creativecommons.org/ns#" xmlns:rdf="http://www.w3.org/1999/02/22-rdf-syntax-ns#" xmlns:svg="http://www.w3.org/2000/svg" xmlns="http://www.w3.org/2000/svg" xmlns:sodipodi="http://sodipodi.sourceforge.net/DTD/sodipodi-0.dtd" xmlns:inkscape="http://www.inkscape.org/namespaces/inkscape" width="36.736282mm" height="50.618671mm" viewBox="0 0 36.736282 50.618671" version="1.1" id="svg893" inkscape:version="0.92.3 (2405546, 2018-03-11)" sodipodi:docname="rocketmq.svg">
  <defs id="defs887"/>
  <sodipodi:namedview id="base" pagecolor="#ffffff" bordercolor="#666666" borderopacity="1.0" inkscape:pageopacity="0.0" inkscape:pageshadow="2" inkscape:zoom="1.979899" inkscape:cx="-65.884297" inkscape:cy="41.663425" inkscape:document-units="mm" inkscape:current-layer="layer1" showgrid="false" fit-margin-top="0" fit-margin-left="0" fit-margin-right="0" fit-margin-bottom="0" inkscape:window-width="3726" inkscape:window-height="2049" inkscape:window-x="114" inkscape:window-y="55" inkscape:window-maximized="1"/>
  <title>Apache RocketMQ logo</title>
  <metadata>
    <rdf:RDF>
      <cc:Work rdf:about="">
        <dc:format>image/svg+xml</dc:format>
        <dc:type rdf:resource="http://purl.org/dc/dcmitype/StillImage"/>
        <dc:title/>
      </cc:Work>
    </rdf:RDF>
  </metadata>
  <g inkscape:label="Layer 1" inkscape:groupmode="layer" id="layer1" transform="translate(-15.046145,-113.01787)">
    <path style="fill:#fd6500;fill-opacity:1;stroke-width:0.26458335" d="m 32.229618,162.51185 c -1.089558,-1.34479 -2.33186,-3.98548 -2.567137,-5.45682 l -0.172372,-1.07796 h 3.870273 c 3.027069,0 3.870275,0.076 3.870275,0.34885 0,0.74147 -0.869447,3.27573 -1.495134,4.35802 -0.703027,1.21606 -2.153534,2.97485 -2.434878,2.95239 -0.09407,-0.008 -0.576028,-0.51353 -1.071027,-1.12448 z m -9.558351,-8.84221 c -2.638353,-6.33761 -2.596646,-14.30855 0.117306,-22.41908 1.658471,-4.95627 5.592283,-11.99947 9.306716,-16.66299 l 1.250248,-1.5697 0.889592,1.04054 c 1.609969,1.88313 5.508498,7.86943 6.916833,10.62098 2.783462,5.43822 4.333074,10.53029 4.773922,15.68726 0.415028,4.85493 -0.372083,10.20087 -2.028661,13.77839 l -0.713441,1.54073 -1.53317,-0.91268 -1.533171,-0.91269 h -6.808478 c -5.200889,0 -6.931707,0.0825 -7.330372,0.34939 -0.287041,0.19217 -0.956325,0.61115 -1.487297,0.93107 l -0.965405,0.58168 z m 19.693831,-3.77656 c 1.642819,-5.53197 1.122881,-13.18925 -1.338207,-19.70817 -1.441164,-3.81736 -4.397634,-9.10897 -6.772421,-12.12157 -0.752223,-0.95426 -0.816306,-0.9821 -1.284651,-0.55826 -0.929598,0.84128 -3.910487,5.53198 -5.364651,8.44178 -4.06468,8.13346 -5.238472,16.86296 -3.207046,23.85082 l 0.4119,1.41689 h 8.581317 8.581318 z m -27.27482,4.95951 c 0.07809,-0.32742 0.227441,-1.19063 0.331885,-1.91823 0.166252,-1.15819 0.398647,-1.53706 1.866366,-3.04271 l 1.676468,-1.71979 0.0047,1.06889 c 0.006,1.35276 0.636335,3.79378 1.331738,5.15689 l 0.535806,1.05026 h -2.944477 c -2.919214,0 -2.943259,-0.005 -2.80249,-0.59531 z m 31.514427,-0.79375 c 0.571111,-1.29272 1.115946,-3.40853 1.277477,-4.96094 0.06564,-0.63083 0.140046,-0.59382 1.606981,0.79916 1.468012,1.39401 1.555369,1.55087 1.915557,3.43959 0.207568,1.08842 0.377537,2.00873 0.377709,2.04511 1.72e-4,0.0364 -1.302825,0.0661 -2.895545,0.0661 h -2.895857 z" id="path1452" inkscape:connector-curvature="0" sodipodi:nodetypes="cscsscccsssccssccccscccsssccsscccscccccccscccccscscc"/>
    <circle style="opacity:1;fill:none;fill-opacity:1;stroke:#fd6500;stroke-width:1;stroke-linecap:round;stroke-linejoin:round;stroke-miterlimit:4;stroke-dasharray:none;stroke-opacity:1" id="path1454" cx="32.946342" cy="139.98453" r="4.07586"/>
    <circle style="opacity:1;fill:#fd6500;fill-opacity:1;stroke:none;stroke-width:1.296875;stroke-linecap:round;stroke-linejoin:round;stroke-miterlimit:4;stroke-dasharray:none;stroke-opacity:1" id="path1456" cx="28.046595" cy="134.34978" r="1.3864607"/>
    <circle style="opacity:1;fill:#fd6500;fill-opacity:1;stroke:none;stroke-width:1.57812512;stroke-linecap:round;stroke-linejoin:round;stroke-miterlimit:4;stroke-dasharray:none;stroke-opacity:1" id="path1456-3" cx="27.294901" cy="144.48932" r="1.6871389"/>
    <circle style="opacity:1;fill:#fd6500;fill-opacity:1;stroke:none;stroke-width:2.10937524;stroke-linecap:round;stroke-linejoin:round;stroke-miterlimit:4;stroke-dasharray:none;stroke-opacity:1" id="path1456-3-6" cx="38.286358" cy="134.13263" r="2.2550867"/>
    <circle style="opacity:1;fill:#fd6500;fill-opacity:1;stroke:none;stroke-width:2.79687524;stroke-linecap:round;stroke-linejoin:round;stroke-miterlimit:4;stroke-dasharray:none;stroke-opacity:1" id="path1456-3-7" cx="38.286358" cy="146.99496" r="2.9900777"/>
    <rect style="opacity:1;fill:#fd6500;fill-opacity:1;stroke:none;stroke-width:1.11355293;stroke-linecap:round;stroke-linejoin:round;stroke-miterlimit:4;stroke-dasharray:none;stroke-opacity:1" id="rect1494" width="1.4646578" height="2.1733632" x="-76.022507" y="115.6637" transform="rotate(-45)"/>
    <rect style="opacity:1;fill:#fd6500;fill-opacity:1;stroke:none;stroke-width:1.16619039;stroke-linecap:round;stroke-linejoin:round;stroke-miterlimit:4;stroke-dasharray:none;stroke-opacity:1" id="rect1494-5" width="1.6063988" height="2.1733632" x="121.22573" y="69.45945" transform="rotate(45)" inkscape:transform-center-x="2.2678571" inkscape:transform-center-y="1.0394345"/>
    <rect style="opacity:1;fill:#fd6500;fill-opacity:1;stroke:none;stroke-width:1.11355293;stroke-linecap:round;stroke-linejoin:round;stroke-miterlimit:4;stroke-dasharray:none;stroke-opacity:1" id="rect1494-5-3" width="1.4646578" height="2.1733632" x="120.91241" y="79.799446" transform="rotate(45)" inkscape:transform-center-y="0.094494048"/>
    <rect style="opacity:1;fill:#fd6500;fill-opacity:1;stroke:none;stroke-width:1.26225722;stroke-linecap:round;stroke-linejoin:round;stroke-miterlimit:4;stroke-dasharray:none;stroke-opacity:1" id="rect1494-5-5" width="1.7891369" height="2.2861192" x="-79.435722" y="127.87697" transform="matrix(0.71860536,-0.6954181,0.71860536,0.6954181,0,0)" inkscape:transform-center-x="-0.95962027" inkscape:transform-center-y="0.83090924"/>
    <circle style="opacity:1;fill:#fd6500;fill-opacity:1;stroke:none;stroke-width:2.53846145;stroke-linecap:round;stroke-linejoin:round;stroke-miterlimit:4;stroke-dasharray:none;stroke-opacity:1" id="path1543" cx="31.18894" cy="140.18452" r="0.58468193"/>
    <circle style="opacity:1;fill:#fd6500;fill-opacity:1;stroke:none;stroke-width:2.53846145;stroke-linecap:round;stroke-linejoin:round;stroke-miterlimit:4;stroke-dasharray:none;stroke-opacity:1" id="path1543-6" cx="32.863258" cy="140.18452" r="0.58468193"/>
    <circle style="opacity:1;fill:#fd6500;fill-opacity:1;stroke:none;stroke-width:2.53846145;stroke-linecap:round;stroke-linejoin:round;stroke-miterlimit:4;stroke-dasharray:none;stroke-opacity:1" id="path1543-2" cx="34.537575" cy="140.18452" r="0.58468193"/>
  </g>
</svg>
