<?xml version="1.0" encoding="UTF-8"?>
<svg width="40" height="40" className="icon" version="1.1" viewBox="0 0 112.5 98.75" xmlns="http://www.w3.org/2000/svg">
 <g transform="translate(-2 -1.9779)" stroke-width="1.3235">
  <path d="m36.412 9c5.22 0.77956 9.0318 2.3638 13.566 5.0466 1.1528 0.66176 2.3069 1.3262 3.4941 2.0104 3.1619 2.4988 3.5801 3.6132 4.1162 7.5018l1.3235 2.565c1.4956 3.0865 2.0846 5.9757 2.6471 9.3468l5.1287-0.16544c2.8853-0.09265 2.8853-0.09265 5.4596 0.16544 2.6471 2.6471 2.6471 2.6471 2.9051 6.3794l-0.09265 4.3743-0.07279 4.3941-0.092648 3.3816c-7.376-1.0059-7.376-1.0059-10.588-2.8125-3.8316-1.6769-6.4747-0.58235-10.588 0.16544-4.8547 0.12706-9.7028 0.07809-14.559 0l0.08338 3.8051c-0.08338 4.136-0.08338 4.136-1.4069 6.7831-5.1763-0.89206-9.094-3.3657-13.566-6.0393l-4.3226-2.5676-3.2876-1.9813 1.2574-2.4816c1.4029-2.8403 2.4154-4.946 2.7132-8.1066-1.8424-2.8231-1.8424-2.8231-3.9706-5.2941v-2.6471c-1.2666-0.11912-1.2666-0.11912-2.5597-0.24353l-3.3141-0.33485-3.3035-0.32691c-2.7344-0.41824-2.7344-0.41824-4.0579-1.7418a221.85 221.85 0 0 1-0.74515-8.6863l-0.33485-4.8018-0.24353-3.7178c6.2974 1.1382 6.2974 1.1382 9.1826 2.8125 3.8912 1.6518 6.6335 0.79941 10.67-0.16544l2.6471-1.3235c2.0382-0.09265 4.0804-0.1125 6.1213-0.08338l3.2784 0.03706 2.5121 0.04632z" fill="#795eaa"/>
  <path d="m61.559 52.676v3.9706c8.2853 1.5393 8.2853 1.5393 15.882-1.3235 4.3054 0.13897 5.6409 1.6306 8.9338 4.5503 2.9779 3.3909 2.9779 3.3909 2.9779 6.0379l-2.7556 0.63529c-7.4872 1.6981-7.4872 1.6981-12.961 6.6441l-1.489 3.3088c-2.8959 2.3996-2.8959 2.3996-5.2941 3.9706l1.3235 3.0613c1.3235 3.5563 1.3235 3.5563 1.3235 7.5269l-19.853 2.6471v-9.2647c-7.2424-1.6451-7.2424-1.6451-13.897 0.57971l-1.9853 2.0674c-5.0559-2.0594-8.2853-5.2359-11.912-9.2647v-2.6471c4.7912-1.7418 8.0682-2.6471 13.235-2.6471l0.33088-2.9779c0.99265-3.6397 0.99265-3.6397 3.7231-6.2868 2.9316-2.4724 2.9316-2.4724 2.8946-6.2868l-0.33088-2.9779c6.7103-0.94235 13.079-1.4651 19.853-1.3235z" fill="#136c2b"/>
  <path d="m78.765 10.324c1.9019-0.03574 3.8051-0.06088 5.7084-0.08338l3.2096-0.04632c2.9938 0.1297 2.9938 0.1297 6.9644 1.4532v3.9706c4.3571 1.6597 7.4647 2.6749 12.161 2.3996l3.7218 0.2475c3.0587 3.7721 3.9706 5.7097 3.9706 10.588l-2.3268 0.10324c-7.1074 0.51618-12.15 1.4149-17.526 6.5144v7.9412h-15.882c-1.3235-3.9706-1.3235-3.9706 0-7.9412-3.7085-2.3731-5.404-2.6418-9.9265-2.3996-4.6324-0.2475-4.6324-0.2475-7.8591-3.3909-2.0674-3.4743-2.0674-3.4743-2.0674-6.1213l5.0466-0.33088c4.586-0.50029 4.586-0.50029 7.9412-3.6397l1.571-2.6471 3.9706-1.3235c0.97015-2.6669 0.97015-2.6669 1.3235-5.2941z" fill="#5d76b5"/>
  <path d="m74.794 47.382h1.3235l1.3235 9.2647c-4.8574 2.0819-7.204 2.8376-12.408 1.489l-3.4743-1.489v-3.9706l-17.206 1.3235v-2.6471c11.791-3.1699 19.198-1.8119 30.441 2.6471z" fill="#e4eae9"/>
  <path d="m57.588 19.588 1.3235 2.6471h10.588v1.3235h-10.588c3.8118 6.0578 3.8118 6.0578 9.2647 10.588l-6.6176 1.3235c-2.0171-3.9481-3.8912-7.7003-5.2941-11.912z" fill="#d1d4e8"/>
  <path d="m39.059 51.353h5.2941v2.6471h-2.6471l1.3235 6.6176-5.2941 3.9706-2.6471-2.6471h2.6471z" fill="#f6f6f9"/>
 </g>
</svg>
