<?xml version="1.0" encoding="UTF-8"?>
<svg width="108.7" height="108.7" version="1.0" viewBox="0 0 108.7 108.7" xml:space="preserve" xmlns="http://www.w3.org/2000/svg">
<g id="stitcha" transform="translate(-81.1,-146.9)">
	<g id="stitchb" transform="translate(-29,-30)">
		<g id="stitchc" transform="translate(29,27)">
			<g id="stitchd" transform="translate(0,3)">
				<path id="stitche" fill="#1274BB" d="m115.4 197.6v-7.6h74.1v-43.1h-108.4v58.3h77.4v7.6h-77.4v42.8h108.7v-58.6h-74.4zm21-39.5c3 0 5.4 2.5 5.4 5.4 0 3-2.5 5.4-5.4 5.4s-5.4-2.5-5.4-5.4c-0.1-3.3 2.6-5.4 5.4-5.4zm-23.2 16.3h48.2l-2.2 7.6h-44.1zm23.2 69.8c-3 0-5.4-2.5-5.4-5.4s2.5-5.4 5.4-5.4 5.4 2.5 5.4 5.4-2.7 5.4-5.4 5.4zm-23.2-16.6 1.9-7.6h44.1l2.2 7.6z"/>
				
			</g>
		</g>
	</g>
</g>
</svg>
