<?xml version="1.0" encoding="UTF-8"?>
<!-- Created with Inkscape (http://www.inkscape.org/) -->
<svg width="40" height="40" version="1.1" xmlns="http://www.w3.org/2000/svg">
 <g transform="matrix(.21727 0 0 .21727 -15.159 -6.4156)">
  <circle cx="130.58" cy="854.57" r="0" fill="#fff"/>
  <rect x="69.923" y="29.528" width="183.79" height="184.1" ry="13.094" fill="#005f0f"/>
  <path d="m186.02 172.01a33.041 33.041 0 0 1-4e-3 0.0189" fill="#fff"/>
  <path d="m226.57 54.631c-22.635 27.737-50.278 50.968-79.758 71.106-9.5834 6.86-20.163 12.966-27.531 22.36-2.814 4.9439-3.4931 11.906 1.3181 15.918 8.0124 7.5508 20.493 9.1934 30.53 4.9662 14.053-5.3525 23.759-17.537 31.918-29.614 18.206-26.229 29.247-56.397 43.523-84.736z" fill="#fff"/>
  <path d="m213.58 64.222c-28.182 22.329-50.724 34.397-79.545 44.777-8.6985 3.722-18.021 8.4456-22.062 17.579-4.1606 8.6408-2.797 20.69 1.9759 28.691-0.35707-3.3681 1.4423-8.8096 4.1192-11.364 8.8829-9.8922 20.453-16.374 30.63-23.885l0.0243-0.0207 0.0244-0.0164c23.553-16.175 45.634-34.659 64.833-55.761z" fill="#aea99f"/>
 </g>
</svg>
