<?xml version="1.0" encoding="UTF-8"?>
<svg width="40" height="40" version="1.1" xmlns="http://www.w3.org/2000/svg">
 <!-- Block -->
 <path d="m24.575 0v0.21569c0 2.5333-2.0536 4.5863-4.5863 4.5863-2.5333 0-4.5863-2.0536-4.5863-4.5863v-0.21569h-15.403v40h40v-40z" fill="#654ff0" stroke-width=".06536"/>
 <!-- Letters -->
 <path d="m9.2915 21.556h2.651l1.8098 9.6386h0.03268l2.1752-9.6386h2.4797l1.9647 9.7569h0.03856l2.0627-9.7569h2.6l-3.3784 14.163h-2.6307l-1.9484-9.6386h-0.05098l-2.0856 9.6386h-2.6797zm18.803 0h4.1791l4.1503 14.163h-2.7346l-0.90261-3.1516h-4.7608l-0.69673 3.1516h-2.6634zm1.5908 3.4908-1.1562 5.1961h3.5987l-1.3275-5.1961z" fill="#fff" stroke-width=".06536"/>
</svg>
