<?xml version="1.0" encoding="UTF-8"?>
<svg width="40" height="40" fill="none" version="1.1" viewBox="0 0 40 40" xmlns="http://www.w3.org/2000/svg">
 <g transform="matrix(.68399 0 0 .68399 -8.2079 1.206)" clip-path="url(#weathera)" fill="#eb6d4a">
  <path d="m64.734 31.07c-0.671-0.0275-1.3475 0-2.024 0-2.75 0-2.75 0-2.6895-2.794 0.1175-3.2312-0.4644-6.4497-1.7061-9.4351-1.2416-2.9855-3.1136-5.6675-5.4879-7.8624v-0.0275l-0.495-0.44c-2.473-2.1692-5.3915-3.7699-8.55-4.6894s-6.4802-1.1354-9.7311-0.63258-6.3521 1.7122-9.0852 3.543c-2.7331 1.8308-5.0316 4.2385-6.7337 7.0535l-0.0385 0.0605c-0.1155 0.198-0.2365 0.396-0.3465 0.594-2.1904 3.8737-3.1765 8.3123-2.8325 12.749 0.044 0.737 0.55 1.826-0.946 1.9305-1.2925 0.088-2.2605 0.7315-2.035 2.2s1.353 1.65 2.6125 1.65c1.9525-0.0385 3.9105 0 5.863 0 1.254 0 2.156 0.506 2.2 1.8315 0.0385 1.199-0.726 1.8645-1.9085 1.881-1.4685 0-2.4255 0.6765-2.31 2.156s1.3255 1.65 2.574 1.617c3.5035-0.0275 7.007-0.033 10.516 0 1.2925 0 2.2495 0.55 2.1725 2.0515-0.0715 1.3695-0.957 1.804-2.2 1.7985h-6.4735c-1.3695 0-2.7115 0.0715-2.717 1.87s1.353 1.859 2.717 1.8535h21.84 9.504c1.287 0 2.354-0.2365 2.3925-1.771 0.044-1.65-1.1-1.98-2.442-1.947h-1.617-9.7075c-1.2705 0-2.112-0.55-2.1505-1.87s0.836-1.892 2.068-1.98c0.4015-0.033 0.8085 0 1.21 0 1.232 0 2.3815-0.1375 2.4805-1.694 0.11-1.65-0.99-2.0405-2.354-2.046-1.243-0.066-1.9635-0.792-1.9635-1.892 0-1.2485 0.8195-1.925 2.134-1.8865h2.431 15.774c1.3255 0 2.277-0.418 2.321-1.8975s-1.001-1.9195-2.266-1.9745z"/>
  <circle cx="63.95" cy="40.562" r="1.8543"/>
  <circle cx="68.626" cy="40.562" r="1.8543"/>
  <rect x="63.76" y="38.708" width="4.9812" height="3.7087"/>
  <circle cx="53.024" cy="40.562" r="1.8543"/>
  <circle cx="57.7" cy="40.562" r="1.8543"/>
  <rect x="52.835" y="38.708" width="4.9812" height="3.7087"/>
 </g>
 <defs>
  <clipPath id="weathera">
   <rect transform="translate(12 .9248)" width="58.504" height="55" fill="#fff"/>
  </clipPath>
 </defs>
</svg>
