<?xml version="1.0" encoding="UTF-8"?>
<!DOCTYPE svg PUBLIC "-//W3C//DTD SVG 1.1//EN" "http://www.w3.org/Graphics/SVG/1.1/DTD/svg11.dtd">
<svg version="1.2" width="16.05mm" height="10.1mm" viewBox="12959 4426 1605 1010" preserveAspectRatio="xMidYMid" fill-rule="evenodd" stroke-width="28.222" stroke-linejoin="round" xmlns="http://www.w3.org/2000/svg" xmlns:ooo="http://xml.openoffice.org/svg/export" xmlns:xlink="http://www.w3.org/1999/xlink" xmlns:presentation="http://sun.com/xmlns/staroffice/presentation" xmlns:smil="http://www.w3.org/2001/SMIL20/" xmlns:anim="urn:oasis:names:tc:opendocument:xmlns:animation:1.0" xmlns:svg="urn:oasis:names:tc:opendocument:xmlns:svg-compatible:1.0" xml:space="preserve">
 <defs class="EmbeddedBulletChars">
  <g id="bullet-char-template-57356" transform="scale(0.00048828125,-0.00048828125)">
   <path d="M 580,1141 L 1163,571 580,0 -4,571 580,1141 Z"/>
  </g>
  <g id="bullet-char-template-57354" transform="scale(0.00048828125,-0.00048828125)">
   <path d="M 8,1128 L 1137,1128 1137,0 8,0 8,1128 Z"/>
  </g>
  <g id="bullet-char-template-10146" transform="scale(0.00048828125,-0.00048828125)">
   <path d="M 174,0 L 602,739 174,1481 1456,739 174,0 Z M 1358,739 L 309,1346 659,739 1358,739 Z"/>
  </g>
  <g id="bullet-char-template-10132" transform="scale(0.00048828125,-0.00048828125)">
   <path d="M 2015,739 L 1276,0 717,0 1260,543 174,543 174,936 1260,936 717,1481 1274,1481 2015,739 Z"/>
  </g>
  <g id="bullet-char-template-10007" transform="scale(0.00048828125,-0.00048828125)">
   <path d="M 0,-2 C -7,14 -16,27 -25,37 L 356,567 C 262,823 215,952 215,954 215,979 228,992 255,992 264,992 276,990 289,987 310,991 331,999 354,1012 L 381,999 492,748 772,1049 836,1024 860,1049 C 881,1039 901,1025 922,1006 886,937 835,863 770,784 769,783 710,716 594,584 L 774,223 C 774,196 753,168 711,139 L 727,119 C 717,90 699,76 672,76 641,76 570,178 457,381 L 164,-76 C 142,-110 111,-127 72,-127 30,-127 9,-110 8,-76 1,-67 -2,-52 -2,-32 -2,-23 -1,-13 0,-2 Z"/>
  </g>
  <g id="bullet-char-template-10004" transform="scale(0.00048828125,-0.00048828125)">
   <path d="M 285,-33 C 182,-33 111,30 74,156 52,228 41,333 41,471 41,549 55,616 82,672 116,743 169,778 240,778 293,778 328,747 346,684 L 369,508 C 377,444 397,411 428,410 L 1163,1116 C 1174,1127 1196,1133 1229,1133 1271,1133 1292,1118 1292,1087 L 1292,965 C 1292,929 1282,901 1262,881 L 442,47 C 390,-6 338,-33 285,-33 Z"/>
  </g>
  <g id="bullet-char-template-9679" transform="scale(0.00048828125,-0.00048828125)">
   <path d="M 813,0 C 632,0 489,54 383,161 276,268 223,411 223,592 223,773 276,916 383,1023 489,1130 632,1184 813,1184 992,1184 1136,1130 1245,1023 1353,916 1407,772 1407,592 1407,412 1353,268 1245,161 1136,54 992,0 813,0 Z"/>
  </g>
  <g id="bullet-char-template-8226" transform="scale(0.00048828125,-0.00048828125)">
   <path d="M 346,457 C 273,457 209,483 155,535 101,586 74,649 74,723 74,796 101,859 155,911 209,963 273,989 346,989 419,989 480,963 531,910 582,859 608,796 608,723 608,648 583,586 532,535 482,483 420,457 346,457 Z"/>
  </g>
  <g id="bullet-char-template-8211" transform="scale(0.00048828125,-0.00048828125)">
   <path d="M -4,459 L 1135,459 1135,606 -4,606 -4,459 Z"/>
  </g>
  <g id="bullet-char-template-61548" transform="scale(0.00048828125,-0.00048828125)">
   <path d="M 173,740 C 173,903 231,1043 346,1159 462,1274 601,1332 765,1332 928,1332 1067,1274 1183,1159 1299,1043 1357,903 1357,740 1357,577 1299,437 1183,322 1067,206 928,148 765,148 601,148 462,206 346,322 231,437 173,577 173,740 Z"/>
  </g>
 </defs>
 <g class="Page">
  <g class="Group">
   <g class="com.sun.star.drawing.PolyPolygonShape">
    <g id="id3">
     <rect class="BoundingBox" stroke="none" fill="none" x="12959" y="4426" width="1605" height="1010"/>
     <path fill="rgb(204,255,153)" stroke="none" d="M 12985,5409 L 14537,5409 14537,4452 12985,4452 12985,5409 Z"/>
     <path fill="none" stroke="rgb(15,15,15)" stroke-width="51" stroke-linejoin="round" d="M 12985,5409 L 14537,5409 14537,4452 12985,4452 12985,5409 Z"/>
    </g>
   </g>
   <g class="com.sun.star.drawing.PolyPolygonShape">
    <g id="id4">
     <rect class="BoundingBox" stroke="none" fill="none" x="13133" y="4964" width="16" height="171"/>
     <path fill="rgb(15,15,15)" stroke="none" d="M 13147,4965 L 13134,5049 13147,5133 13147,4965 Z"/>
     <path fill="none" stroke="rgb(15,15,15)" d="M 13147,4965 L 13134,5049 13147,5133 13147,4965 Z"/>
    </g>
   </g>
   <g class="com.sun.star.drawing.PolyPolygonShape">
    <g id="id5">
     <rect class="BoundingBox" stroke="none" fill="none" x="13145" y="4964" width="32" height="207"/>
     <path fill="rgb(15,15,15)" stroke="none" d="M 13146,4965 L 13146,5133 13175,5169 13146,4965 Z"/>
     <path fill="none" stroke="rgb(15,15,15)" d="M 13146,4965 L 13146,5133 13175,5169 13146,4965 Z"/>
    </g>
   </g>
   <g class="com.sun.star.drawing.PolyPolygonShape">
    <g id="id6">
     <rect class="BoundingBox" stroke="none" fill="none" x="13145" y="4964" width="1214" height="207"/>
     <path fill="rgb(15,15,15)" stroke="none" d="M 13146,4965 L 13175,5169 14357,5169 13146,4965 Z"/>
     <path fill="none" stroke="rgb(15,15,15)" d="M 13146,4965 L 13175,5169 14357,5169 13146,4965 Z"/>
    </g>
   </g>
   <g class="com.sun.star.drawing.PolyPolygonShape">
    <g id="id7">
     <rect class="BoundingBox" stroke="none" fill="none" x="13145" y="4928" width="1214" height="243"/>
     <path fill="rgb(15,15,15)" stroke="none" d="M 13146,4965 L 14357,5169 14357,4929 13146,4965 Z"/>
     <path fill="none" stroke="rgb(15,15,15)" d="M 13146,4965 L 14357,5169 14357,4929 13146,4965 Z"/>
    </g>
   </g>
   <g class="com.sun.star.drawing.PolyPolygonShape">
    <g id="id8">
     <rect class="BoundingBox" stroke="none" fill="none" x="13145" y="4928" width="1214" height="39"/>
     <path fill="rgb(15,15,15)" stroke="none" d="M 13146,4965 L 14357,4929 13175,4929 13146,4965 Z"/>
     <path fill="none" stroke="rgb(15,15,15)" d="M 13146,4965 L 14357,4929 13175,4929 13146,4965 Z"/>
    </g>
   </g>
   <g class="com.sun.star.drawing.PolyPolygonShape">
    <g id="id9">
     <rect class="BoundingBox" stroke="none" fill="none" x="13133" y="4928" width="1227" height="243"/>
     <path fill="none" stroke="rgb(15,15,15)" d="M 13176,4929 L 13159,4940 13147,4965 13136,5003 13134,5049 13136,5095 13147,5133 13159,5160 13176,5169 14358,5169 14358,4929 13176,4929 Z"/>
    </g>
   </g>
   <g class="com.sun.star.drawing.PolyPolygonShape">
    <g id="id10">
     <rect class="BoundingBox" stroke="none" fill="none" x="14335" y="4928" width="45" height="39"/>
     <path fill="rgb(192,192,192)" stroke="none" d="M 14378,4965 L 14357,4929 14336,4965 14378,4965 Z"/>
     <path fill="none" stroke="rgb(192,192,192)" d="M 14378,4965 L 14357,4929 14336,4965 14378,4965 Z"/>
    </g>
   </g>
   <g class="com.sun.star.drawing.PolyPolygonShape">
    <g id="id11">
     <rect class="BoundingBox" stroke="none" fill="none" x="14327" y="4964" width="53" height="87"/>
     <path fill="rgb(192,192,192)" stroke="none" d="M 14378,4965 L 14336,4965 14328,5049 14378,4965 Z"/>
     <path fill="none" stroke="rgb(192,192,192)" d="M 14378,4965 L 14336,4965 14328,5049 14378,4965 Z"/>
    </g>
   </g>
   <g class="com.sun.star.drawing.PolyPolygonShape">
    <g id="id12">
     <rect class="BoundingBox" stroke="none" fill="none" x="14327" y="4964" width="53" height="171"/>
     <path fill="rgb(192,192,192)" stroke="none" d="M 14378,4965 L 14328,5049 14336,5133 14378,4965 Z"/>
     <path fill="none" stroke="rgb(192,192,192)" d="M 14378,4965 L 14328,5049 14336,5133 14378,4965 Z"/>
    </g>
   </g>
   <g class="com.sun.star.drawing.PolyPolygonShape">
    <g id="id13">
     <rect class="BoundingBox" stroke="none" fill="none" x="14335" y="4964" width="45" height="207"/>
     <path fill="rgb(192,192,192)" stroke="none" d="M 14378,4965 L 14336,5133 14357,5169 14378,4965 Z"/>
     <path fill="none" stroke="rgb(192,192,192)" d="M 14378,4965 L 14336,5133 14357,5169 14378,4965 Z"/>
    </g>
   </g>
   <g class="com.sun.star.drawing.PolyPolygonShape">
    <g id="id14">
     <rect class="BoundingBox" stroke="none" fill="none" x="14356" y="4964" width="24" height="207"/>
     <path fill="rgb(192,192,192)" stroke="none" d="M 14378,4965 L 14357,5169 14378,5133 14378,4965 Z"/>
     <path fill="none" stroke="rgb(192,192,192)" d="M 14378,4965 L 14357,5169 14378,5133 14378,4965 Z"/>
    </g>
   </g>
   <g class="com.sun.star.drawing.PolyPolygonShape">
    <g id="id15">
     <rect class="BoundingBox" stroke="none" fill="none" x="14377" y="4964" width="11" height="171"/>
     <path fill="rgb(192,192,192)" stroke="none" d="M 14378,4965 L 14378,5133 14386,5049 14378,4965 Z"/>
     <path fill="none" stroke="rgb(192,192,192)" d="M 14378,4965 L 14378,5133 14386,5049 14378,4965 Z"/>
    </g>
   </g>
   <g class="com.sun.star.drawing.PolyPolygonShape">
    <g id="id16">
     <rect class="BoundingBox" stroke="none" fill="none" x="14327" y="4928" width="62" height="243"/>
     <path fill="none" stroke="rgb(15,15,15)" d="M 14387,5049 L 14385,5003 14378,4965 14370,4940 14357,4929 14347,4940 14336,4965 14330,5003 14328,5049 14330,5095 14336,5133 14347,5160 14357,5169 14370,5160 14378,5133 14385,5095 14387,5049 Z"/>
    </g>
   </g>
   <g class="com.sun.star.drawing.LineShape">
    <g id="id17">
     <rect class="BoundingBox" stroke="none" fill="none" x="13221" y="4750" width="1079" height="3"/>
     <path fill="none" stroke="rgb(141,141,141)" d="M 13222,4751 L 14298,4751"/>
    </g>
   </g>
   <g class="com.sun.star.drawing.PolyPolygonShape">
    <g id="id18">
     <rect class="BoundingBox" stroke="none" fill="none" x="14207" y="4706" width="93" height="91"/>
     <path fill="rgb(141,141,141)" stroke="none" d="M 14208,4795 L 14208,4707 14298,4751 14208,4795 Z"/>
     <path fill="none" stroke="rgb(141,141,141)" d="M 14208,4795 L 14208,4707 14298,4751 14208,4795 Z"/>
    </g>
   </g>
   <g class="com.sun.star.drawing.PolyPolygonShape">
    <g id="id19">
     <rect class="BoundingBox" stroke="none" fill="none" x="14207" y="4706" width="93" height="91"/>
     <path fill="none" stroke="rgb(141,141,141)" d="M 14298,4751 L 14208,4795 14208,4707 14298,4751 Z"/>
    </g>
   </g>
   <g class="com.sun.star.drawing.PolyPolygonShape">
    <g id="id20">
     <rect class="BoundingBox" stroke="none" fill="none" x="13700" y="4989" width="123" height="121"/>
     <path fill="none" stroke="rgb(15,15,15)" d="M 13701,5108 L 13821,5108 13821,4990 13701,4990 13701,5108 Z"/>
    </g>
   </g>
   <g class="com.sun.star.drawing.CustomShape">
    <g id="id21">
     <rect class="BoundingBox" stroke="none" fill="none" x="13290" y="4991" width="124" height="124"/>
     <path fill="rgb(255,255,255)" stroke="none" d="M 13352,5113 L 13291,5113 13291,4992 13412,4992 13412,5113 13352,5113 Z"/>
     <path fill="none" stroke="rgb(0,0,0)" d="M 13352,5113 L 13291,5113 13291,4992 13412,4992 13412,5113 13352,5113 Z"/>
    </g>
   </g>
   <g class="com.sun.star.drawing.CustomShape">
    <g id="id22">
     <rect class="BoundingBox" stroke="none" fill="none" x="13699" y="4991" width="124" height="124"/>
     <path fill="rgb(255,255,255)" stroke="none" d="M 13761,5113 L 13700,5113 13700,4992 13821,4992 13821,5113 13761,5113 Z"/>
     <path fill="none" stroke="rgb(0,0,0)" d="M 13761,5113 L 13700,5113 13700,4992 13821,4992 13821,5113 13761,5113 Z"/>
    </g>
   </g>
   <g class="com.sun.star.drawing.CustomShape">
    <g id="id23">
     <rect class="BoundingBox" stroke="none" fill="none" x="14105" y="4991" width="124" height="124"/>
     <path fill="rgb(255,255,255)" stroke="none" d="M 14167,5113 L 14106,5113 14106,4992 14227,4992 14227,5113 14167,5113 Z"/>
     <path fill="none" stroke="rgb(0,0,0)" d="M 14167,5113 L 14106,5113 14106,4992 14227,4992 14227,5113 14167,5113 Z"/>
    </g>
   </g>
  </g>
 </g>
</svg>