<?xml version="1.0" encoding="UTF-8"?>
<!DOCTYPE svg PUBLIC "-//W3C//DTD SVG 1.1//EN" "http://www.w3.org/Graphics/SVG/1.1/DTD/svg11.dtd">
<svg version="1.2" width="16.05mm" height="10.1mm" viewBox="1655 12788 1605 1010" preserveAspectRatio="xMidYMid" fill-rule="evenodd" stroke-width="28.222" stroke-linejoin="round" xmlns="http://www.w3.org/2000/svg" xmlns:ooo="http://xml.openoffice.org/svg/export" xmlns:xlink="http://www.w3.org/1999/xlink" xmlns:presentation="http://sun.com/xmlns/staroffice/presentation" xmlns:smil="http://www.w3.org/2001/SMIL20/" xmlns:anim="urn:oasis:names:tc:opendocument:xmlns:animation:1.0" xmlns:svg="urn:oasis:names:tc:opendocument:xmlns:svg-compatible:1.0" xml:space="preserve">
 <defs class="EmbeddedBulletChars">
  <g id="bullet-char-template-57356" transform="scale(0.00048828125,-0.00048828125)">
   <path d="M 580,1141 L 1163,571 580,0 -4,571 580,1141 Z"/>
  </g>
  <g id="bullet-char-template-57354" transform="scale(0.00048828125,-0.00048828125)">
   <path d="M 8,1128 L 1137,1128 1137,0 8,0 8,1128 Z"/>
  </g>
  <g id="bullet-char-template-10146" transform="scale(0.00048828125,-0.00048828125)">
   <path d="M 174,0 L 602,739 174,1481 1456,739 174,0 Z M 1358,739 L 309,1346 659,739 1358,739 Z"/>
  </g>
  <g id="bullet-char-template-10132" transform="scale(0.00048828125,-0.00048828125)">
   <path d="M 2015,739 L 1276,0 717,0 1260,543 174,543 174,936 1260,936 717,1481 1274,1481 2015,739 Z"/>
  </g>
  <g id="bullet-char-template-10007" transform="scale(0.00048828125,-0.00048828125)">
   <path d="M 0,-2 C -7,14 -16,27 -25,37 L 356,567 C 262,823 215,952 215,954 215,979 228,992 255,992 264,992 276,990 289,987 310,991 331,999 354,1012 L 381,999 492,748 772,1049 836,1024 860,1049 C 881,1039 901,1025 922,1006 886,937 835,863 770,784 769,783 710,716 594,584 L 774,223 C 774,196 753,168 711,139 L 727,119 C 717,90 699,76 672,76 641,76 570,178 457,381 L 164,-76 C 142,-110 111,-127 72,-127 30,-127 9,-110 8,-76 1,-67 -2,-52 -2,-32 -2,-23 -1,-13 0,-2 Z"/>
  </g>
  <g id="bullet-char-template-10004" transform="scale(0.00048828125,-0.00048828125)">
   <path d="M 285,-33 C 182,-33 111,30 74,156 52,228 41,333 41,471 41,549 55,616 82,672 116,743 169,778 240,778 293,778 328,747 346,684 L 369,508 C 377,444 397,411 428,410 L 1163,1116 C 1174,1127 1196,1133 1229,1133 1271,1133 1292,1118 1292,1087 L 1292,965 C 1292,929 1282,901 1262,881 L 442,47 C 390,-6 338,-33 285,-33 Z"/>
  </g>
  <g id="bullet-char-template-9679" transform="scale(0.00048828125,-0.00048828125)">
   <path d="M 813,0 C 632,0 489,54 383,161 276,268 223,411 223,592 223,773 276,916 383,1023 489,1130 632,1184 813,1184 992,1184 1136,1130 1245,1023 1353,916 1407,772 1407,592 1407,412 1353,268 1245,161 1136,54 992,0 813,0 Z"/>
  </g>
  <g id="bullet-char-template-8226" transform="scale(0.00048828125,-0.00048828125)">
   <path d="M 346,457 C 273,457 209,483 155,535 101,586 74,649 74,723 74,796 101,859 155,911 209,963 273,989 346,989 419,989 480,963 531,910 582,859 608,796 608,723 608,648 583,586 532,535 482,483 420,457 346,457 Z"/>
  </g>
  <g id="bullet-char-template-8211" transform="scale(0.00048828125,-0.00048828125)">
   <path d="M -4,459 L 1135,459 1135,606 -4,606 -4,459 Z"/>
  </g>
  <g id="bullet-char-template-61548" transform="scale(0.00048828125,-0.00048828125)">
   <path d="M 173,740 C 173,903 231,1043 346,1159 462,1274 601,1332 765,1332 928,1332 1067,1274 1183,1159 1299,1043 1357,903 1357,740 1357,577 1299,437 1183,322 1067,206 928,148 765,148 601,148 462,206 346,322 231,437 173,577 173,740 Z"/>
  </g>
 </defs>
 <g class="Page">
  <g class="Group">
   <g class="com.sun.star.drawing.PolyPolygonShape">
    <g id="id3">
     <rect class="BoundingBox" stroke="none" fill="none" x="1655" y="12788" width="1605" height="1010"/>
     <path fill="rgb(204,255,153)" stroke="none" d="M 1681,13771 L 3233,13771 3233,12814 1681,12814 1681,13771 Z"/>
     <path fill="none" stroke="rgb(15,15,15)" stroke-width="51" stroke-linejoin="round" d="M 1681,13771 L 3233,13771 3233,12814 1681,12814 1681,13771 Z"/>
    </g>
   </g>
   <g class="com.sun.star.drawing.PolyPolygonShape">
    <g id="id4">
     <rect class="BoundingBox" stroke="none" fill="none" x="2035" y="13309" width="22" height="35"/>
     <path fill="rgb(15,15,15)" stroke="none" d="M 2036,13310 L 2044,13327 2055,13342 2036,13310 Z"/>
     <path fill="none" stroke="rgb(15,15,15)" d="M 2036,13310 L 2044,13327 2055,13342 2036,13310 Z"/>
    </g>
   </g>
   <g class="com.sun.star.drawing.PolyPolygonShape">
    <g id="id5">
     <rect class="BoundingBox" stroke="none" fill="none" x="2035" y="13309" width="39" height="43"/>
     <path fill="rgb(15,15,15)" stroke="none" d="M 2036,13310 L 2055,13342 2072,13350 2036,13310 Z"/>
     <path fill="none" stroke="rgb(15,15,15)" d="M 2036,13310 L 2055,13342 2072,13350 2036,13310 Z"/>
    </g>
   </g>
   <g class="com.sun.star.drawing.PolyPolygonShape">
    <g id="id6">
     <rect class="BoundingBox" stroke="none" fill="none" x="2035" y="13309" width="56" height="49"/>
     <path fill="rgb(15,15,15)" stroke="none" d="M 2036,13310 L 2072,13350 2089,13356 2036,13310 Z"/>
     <path fill="none" stroke="rgb(15,15,15)" d="M 2036,13310 L 2072,13350 2089,13356 2036,13310 Z"/>
    </g>
   </g>
   <g class="com.sun.star.drawing.PolyPolygonShape">
    <g id="id7">
     <rect class="BoundingBox" stroke="none" fill="none" x="2035" y="13309" width="74" height="49"/>
     <path fill="rgb(15,15,15)" stroke="none" d="M 2036,13310 L 2089,13356 2107,13356 2036,13310 Z"/>
     <path fill="none" stroke="rgb(15,15,15)" d="M 2036,13310 L 2089,13356 2107,13356 2036,13310 Z"/>
    </g>
   </g>
   <g class="com.sun.star.drawing.PolyPolygonShape">
    <g id="id8">
     <rect class="BoundingBox" stroke="none" fill="none" x="2035" y="13309" width="91" height="49"/>
     <path fill="rgb(15,15,15)" stroke="none" d="M 2036,13310 L 2107,13356 2124,13350 2036,13310 Z"/>
     <path fill="none" stroke="rgb(15,15,15)" d="M 2036,13310 L 2107,13356 2124,13350 2036,13310 Z"/>
    </g>
   </g>
   <g class="com.sun.star.drawing.PolyPolygonShape">
    <g id="id9">
     <rect class="BoundingBox" stroke="none" fill="none" x="2035" y="13309" width="106" height="43"/>
     <path fill="rgb(15,15,15)" stroke="none" d="M 2036,13310 L 2124,13350 2139,13342 2036,13310 Z"/>
     <path fill="none" stroke="rgb(15,15,15)" d="M 2036,13310 L 2124,13350 2139,13342 2036,13310 Z"/>
    </g>
   </g>
   <g class="com.sun.star.drawing.PolyPolygonShape">
    <g id="id10">
     <rect class="BoundingBox" stroke="none" fill="none" x="2035" y="13309" width="119" height="35"/>
     <path fill="rgb(15,15,15)" stroke="none" d="M 2036,13310 L 2139,13342 2152,13327 2036,13310 Z"/>
     <path fill="none" stroke="rgb(15,15,15)" d="M 2036,13310 L 2139,13342 2152,13327 2036,13310 Z"/>
    </g>
   </g>
   <g class="com.sun.star.drawing.PolyPolygonShape">
    <g id="id11">
     <rect class="BoundingBox" stroke="none" fill="none" x="2035" y="13309" width="127" height="20"/>
     <path fill="rgb(15,15,15)" stroke="none" d="M 2036,13310 L 2152,13327 2160,13310 2036,13310 Z"/>
     <path fill="none" stroke="rgb(15,15,15)" d="M 2036,13310 L 2152,13327 2160,13310 2036,13310 Z"/>
    </g>
   </g>
   <g class="com.sun.star.drawing.PolyPolygonShape">
    <g id="id12">
     <rect class="BoundingBox" stroke="none" fill="none" x="2035" y="13290" width="129" height="22"/>
     <path fill="rgb(15,15,15)" stroke="none" d="M 2036,13310 L 2160,13310 2162,13291 2036,13310 Z"/>
     <path fill="none" stroke="rgb(15,15,15)" d="M 2036,13310 L 2160,13310 2162,13291 2036,13310 Z"/>
    </g>
   </g>
   <g class="com.sun.star.drawing.PolyPolygonShape">
    <g id="id13">
     <rect class="BoundingBox" stroke="none" fill="none" x="2035" y="13273" width="129" height="39"/>
     <path fill="rgb(15,15,15)" stroke="none" d="M 2036,13310 L 2162,13291 2160,13274 2036,13310 Z"/>
     <path fill="none" stroke="rgb(15,15,15)" d="M 2036,13310 L 2162,13291 2160,13274 2036,13310 Z"/>
    </g>
   </g>
   <g class="com.sun.star.drawing.PolyPolygonShape">
    <g id="id14">
     <rect class="BoundingBox" stroke="none" fill="none" x="2035" y="13257" width="127" height="56"/>
     <path fill="rgb(15,15,15)" stroke="none" d="M 2036,13311 L 2160,13275 2152,13258 2036,13311 Z"/>
     <path fill="none" stroke="rgb(15,15,15)" d="M 2036,13311 L 2160,13275 2152,13258 2036,13311 Z"/>
    </g>
   </g>
   <g class="com.sun.star.drawing.PolyPolygonShape">
    <g id="id15">
     <rect class="BoundingBox" stroke="none" fill="none" x="2035" y="13242" width="119" height="70"/>
     <path fill="rgb(15,15,15)" stroke="none" d="M 2036,13310 L 2152,13258 2139,13243 2036,13310 Z"/>
     <path fill="none" stroke="rgb(15,15,15)" d="M 2036,13310 L 2152,13258 2139,13243 2036,13310 Z"/>
    </g>
   </g>
   <g class="com.sun.star.drawing.PolyPolygonShape">
    <g id="id16">
     <rect class="BoundingBox" stroke="none" fill="none" x="2035" y="13233" width="106" height="79"/>
     <path fill="rgb(15,15,15)" stroke="none" d="M 2036,13310 L 2139,13242 2124,13234 2036,13310 Z"/>
     <path fill="none" stroke="rgb(15,15,15)" d="M 2036,13310 L 2139,13242 2124,13234 2036,13310 Z"/>
    </g>
   </g>
   <g class="com.sun.star.drawing.PolyPolygonShape">
    <g id="id17">
     <rect class="BoundingBox" stroke="none" fill="none" x="2035" y="13227" width="91" height="85"/>
     <path fill="rgb(15,15,15)" stroke="none" d="M 2036,13310 L 2124,13234 2107,13228 2036,13310 Z"/>
     <path fill="none" stroke="rgb(15,15,15)" d="M 2036,13310 L 2124,13234 2107,13228 2036,13310 Z"/>
    </g>
   </g>
   <g class="com.sun.star.drawing.PolyPolygonShape">
    <g id="id18">
     <rect class="BoundingBox" stroke="none" fill="none" x="2035" y="13227" width="74" height="85"/>
     <path fill="rgb(15,15,15)" stroke="none" d="M 2036,13310 L 2107,13228 2089,13228 2036,13310 Z"/>
     <path fill="none" stroke="rgb(15,15,15)" d="M 2036,13310 L 2107,13228 2089,13228 2036,13310 Z"/>
    </g>
   </g>
   <g class="com.sun.star.drawing.PolyPolygonShape">
    <g id="id19">
     <rect class="BoundingBox" stroke="none" fill="none" x="2035" y="13227" width="56" height="85"/>
     <path fill="rgb(15,15,15)" stroke="none" d="M 2036,13310 L 2089,13228 2072,13234 2036,13310 Z"/>
     <path fill="none" stroke="rgb(15,15,15)" d="M 2036,13310 L 2089,13228 2072,13234 2036,13310 Z"/>
    </g>
   </g>
   <g class="com.sun.star.drawing.PolyPolygonShape">
    <g id="id20">
     <rect class="BoundingBox" stroke="none" fill="none" x="2035" y="13233" width="39" height="79"/>
     <path fill="rgb(15,15,15)" stroke="none" d="M 2036,13310 L 2072,13234 2055,13242 2036,13310 Z"/>
     <path fill="none" stroke="rgb(15,15,15)" d="M 2036,13310 L 2072,13234 2055,13242 2036,13310 Z"/>
    </g>
   </g>
   <g class="com.sun.star.drawing.PolyPolygonShape">
    <g id="id21">
     <rect class="BoundingBox" stroke="none" fill="none" x="2035" y="13242" width="22" height="70"/>
     <path fill="rgb(15,15,15)" stroke="none" d="M 2036,13310 L 2055,13243 2044,13258 2036,13310 Z"/>
     <path fill="none" stroke="rgb(15,15,15)" d="M 2036,13310 L 2055,13243 2044,13258 2036,13310 Z"/>
    </g>
   </g>
   <g class="com.sun.star.drawing.PolyPolygonShape">
    <g id="id22">
     <rect class="BoundingBox" stroke="none" fill="none" x="2035" y="13257" width="11" height="56"/>
     <path fill="rgb(15,15,15)" stroke="none" d="M 2036,13311 L 2044,13258 2036,13275 2036,13311 Z"/>
     <path fill="none" stroke="rgb(15,15,15)" d="M 2036,13311 L 2044,13258 2036,13275 2036,13311 Z"/>
    </g>
   </g>
   <g class="com.sun.star.drawing.PolyPolygonShape">
    <g id="id23">
     <rect class="BoundingBox" stroke="none" fill="none" x="2033" y="13273" width="5" height="39"/>
     <path fill="rgb(15,15,15)" stroke="none" d="M 2036,13310 L 2036,13274 2034,13291 2036,13310 Z"/>
     <path fill="none" stroke="rgb(15,15,15)" d="M 2036,13310 L 2036,13274 2034,13291 2036,13310 Z"/>
    </g>
   </g>
   <g class="com.sun.star.drawing.LineShape">
    <g id="id24">
     <rect class="BoundingBox" stroke="none" fill="none" x="1798" y="13290" width="302" height="3"/>
     <path fill="none" stroke="rgb(15,15,15)" d="M 1799,13291 L 2098,13291"/>
    </g>
   </g>
   <g class="com.sun.star.drawing.PolyPolygonShape">
    <g id="id25">
     <rect class="BoundingBox" stroke="none" fill="none" x="2855" y="12943" width="24" height="35"/>
     <path fill="rgb(15,15,15)" stroke="none" d="M 2877,12976 L 2869,12959 2856,12944 2877,12976 Z"/>
     <path fill="none" stroke="rgb(15,15,15)" d="M 2877,12976 L 2869,12959 2856,12944 2877,12976 Z"/>
    </g>
   </g>
   <g class="com.sun.star.drawing.PolyPolygonShape">
    <g id="id26">
     <rect class="BoundingBox" stroke="none" fill="none" x="2840" y="12933" width="39" height="45"/>
     <path fill="rgb(15,15,15)" stroke="none" d="M 2877,12976 L 2856,12945 2841,12934 2877,12976 Z"/>
     <path fill="none" stroke="rgb(15,15,15)" d="M 2877,12976 L 2856,12945 2841,12934 2877,12976 Z"/>
    </g>
   </g>
   <g class="com.sun.star.drawing.PolyPolygonShape">
    <g id="id27">
     <rect class="BoundingBox" stroke="none" fill="none" x="2824" y="12929" width="56" height="49"/>
     <path fill="rgb(15,15,15)" stroke="none" d="M 2878,12976 L 2842,12934 2825,12930 2878,12976 Z"/>
     <path fill="none" stroke="rgb(15,15,15)" d="M 2878,12976 L 2842,12934 2825,12930 2878,12976 Z"/>
    </g>
   </g>
   <g class="com.sun.star.drawing.PolyPolygonShape">
    <g id="id28">
     <rect class="BoundingBox" stroke="none" fill="none" x="2805" y="12929" width="74" height="49"/>
     <path fill="rgb(15,15,15)" stroke="none" d="M 2877,12976 L 2825,12930 2806,12930 2877,12976 Z"/>
     <path fill="none" stroke="rgb(15,15,15)" d="M 2877,12976 L 2825,12930 2806,12930 2877,12976 Z"/>
    </g>
   </g>
   <g class="com.sun.star.drawing.PolyPolygonShape">
    <g id="id29">
     <rect class="BoundingBox" stroke="none" fill="none" x="2788" y="12929" width="91" height="49"/>
     <path fill="rgb(15,15,15)" stroke="none" d="M 2877,12976 L 2806,12930 2789,12934 2877,12976 Z"/>
     <path fill="none" stroke="rgb(15,15,15)" d="M 2877,12976 L 2806,12930 2789,12934 2877,12976 Z"/>
    </g>
   </g>
   <g class="com.sun.star.drawing.PolyPolygonShape">
    <g id="id30">
     <rect class="BoundingBox" stroke="none" fill="none" x="2771" y="12933" width="108" height="45"/>
     <path fill="rgb(15,15,15)" stroke="none" d="M 2877,12976 L 2789,12934 2772,12945 2877,12976 Z"/>
     <path fill="none" stroke="rgb(15,15,15)" d="M 2877,12976 L 2789,12934 2772,12945 2877,12976 Z"/>
    </g>
   </g>
   <g class="com.sun.star.drawing.PolyPolygonShape">
    <g id="id31">
     <rect class="BoundingBox" stroke="none" fill="none" x="2758" y="12943" width="121" height="35"/>
     <path fill="rgb(15,15,15)" stroke="none" d="M 2877,12976 L 2772,12944 2759,12959 2877,12976 Z"/>
     <path fill="none" stroke="rgb(15,15,15)" d="M 2877,12976 L 2772,12944 2759,12959 2877,12976 Z"/>
    </g>
   </g>
   <g class="com.sun.star.drawing.PolyPolygonShape">
    <g id="id32">
     <rect class="BoundingBox" stroke="none" fill="none" x="2752" y="12958" width="127" height="20"/>
     <path fill="rgb(15,15,15)" stroke="none" d="M 2877,12976 L 2759,12959 2753,12976 2877,12976 Z"/>
     <path fill="none" stroke="rgb(15,15,15)" d="M 2877,12976 L 2759,12959 2753,12976 2877,12976 Z"/>
    </g>
   </g>
   <g class="com.sun.star.drawing.PolyPolygonShape">
    <g id="id33">
     <rect class="BoundingBox" stroke="none" fill="none" x="2750" y="12975" width="129" height="20"/>
     <path fill="rgb(15,15,15)" stroke="none" d="M 2877,12976 L 2753,12976 2751,12993 2877,12976 Z"/>
     <path fill="none" stroke="rgb(15,15,15)" d="M 2877,12976 L 2753,12976 2751,12993 2877,12976 Z"/>
    </g>
   </g>
   <g class="com.sun.star.drawing.PolyPolygonShape">
    <g id="id34">
     <rect class="BoundingBox" stroke="none" fill="none" x="2750" y="12975" width="129" height="39"/>
     <path fill="rgb(15,15,15)" stroke="none" d="M 2877,12976 L 2751,12993 2753,13012 2877,12976 Z"/>
     <path fill="none" stroke="rgb(15,15,15)" d="M 2877,12976 L 2751,12993 2753,13012 2877,12976 Z"/>
    </g>
   </g>
   <g class="com.sun.star.drawing.PolyPolygonShape">
    <g id="id35">
     <rect class="BoundingBox" stroke="none" fill="none" x="2752" y="12975" width="127" height="56"/>
     <path fill="rgb(15,15,15)" stroke="none" d="M 2877,12976 L 2753,13012 2759,13029 2877,12976 Z"/>
     <path fill="none" stroke="rgb(15,15,15)" d="M 2877,12976 L 2753,13012 2759,13029 2877,12976 Z"/>
    </g>
   </g>
   <g class="com.sun.star.drawing.PolyPolygonShape">
    <g id="id36">
     <rect class="BoundingBox" stroke="none" fill="none" x="2758" y="12975" width="121" height="70"/>
     <path fill="rgb(15,15,15)" stroke="none" d="M 2877,12976 L 2759,13029 2772,13043 2877,12976 Z"/>
     <path fill="none" stroke="rgb(15,15,15)" d="M 2877,12976 L 2759,13029 2772,13043 2877,12976 Z"/>
    </g>
   </g>
   <g class="com.sun.star.drawing.PolyPolygonShape">
    <g id="id37">
     <rect class="BoundingBox" stroke="none" fill="none" x="2771" y="12975" width="108" height="79"/>
     <path fill="rgb(15,15,15)" stroke="none" d="M 2877,12976 L 2772,13043 2789,13052 2877,12976 Z"/>
     <path fill="none" stroke="rgb(15,15,15)" d="M 2877,12976 L 2772,13043 2789,13052 2877,12976 Z"/>
    </g>
   </g>
   <g class="com.sun.star.drawing.PolyPolygonShape">
    <g id="id38">
     <rect class="BoundingBox" stroke="none" fill="none" x="2788" y="12975" width="91" height="85"/>
     <path fill="rgb(15,15,15)" stroke="none" d="M 2877,12976 L 2789,13052 2806,13058 2877,12976 Z"/>
     <path fill="none" stroke="rgb(15,15,15)" d="M 2877,12976 L 2789,13052 2806,13058 2877,12976 Z"/>
    </g>
   </g>
   <g class="com.sun.star.drawing.PolyPolygonShape">
    <g id="id39">
     <rect class="BoundingBox" stroke="none" fill="none" x="2805" y="12975" width="74" height="85"/>
     <path fill="rgb(15,15,15)" stroke="none" d="M 2877,12976 L 2806,13058 2825,13058 2877,12976 Z"/>
     <path fill="none" stroke="rgb(15,15,15)" d="M 2877,12976 L 2806,13058 2825,13058 2877,12976 Z"/>
    </g>
   </g>
   <g class="com.sun.star.drawing.PolyPolygonShape">
    <g id="id40">
     <rect class="BoundingBox" stroke="none" fill="none" x="2824" y="12975" width="56" height="85"/>
     <path fill="rgb(15,15,15)" stroke="none" d="M 2878,12976 L 2825,13058 2842,13052 2878,12976 Z"/>
     <path fill="none" stroke="rgb(15,15,15)" d="M 2878,12976 L 2825,13058 2842,13052 2878,12976 Z"/>
    </g>
   </g>
   <g class="com.sun.star.drawing.PolyPolygonShape">
    <g id="id41">
     <rect class="BoundingBox" stroke="none" fill="none" x="2840" y="12975" width="39" height="79"/>
     <path fill="rgb(15,15,15)" stroke="none" d="M 2877,12976 L 2841,13052 2856,13043 2877,12976 Z"/>
     <path fill="none" stroke="rgb(15,15,15)" d="M 2877,12976 L 2841,13052 2856,13043 2877,12976 Z"/>
    </g>
   </g>
   <g class="com.sun.star.drawing.PolyPolygonShape">
    <g id="id42">
     <rect class="BoundingBox" stroke="none" fill="none" x="2855" y="12975" width="24" height="70"/>
     <path fill="rgb(15,15,15)" stroke="none" d="M 2877,12976 L 2856,13043 2869,13029 2877,12976 Z"/>
     <path fill="none" stroke="rgb(15,15,15)" d="M 2877,12976 L 2856,13043 2869,13029 2877,12976 Z"/>
    </g>
   </g>
   <g class="com.sun.star.drawing.PolyPolygonShape">
    <g id="id43">
     <rect class="BoundingBox" stroke="none" fill="none" x="2868" y="12975" width="11" height="56"/>
     <path fill="rgb(15,15,15)" stroke="none" d="M 2877,12976 L 2869,13029 2877,13012 2877,12976 Z"/>
     <path fill="none" stroke="rgb(15,15,15)" d="M 2877,12976 L 2869,13029 2877,13012 2877,12976 Z"/>
    </g>
   </g>
   <g class="com.sun.star.drawing.PolyPolygonShape">
    <g id="id44">
     <rect class="BoundingBox" stroke="none" fill="none" x="2876" y="12975" width="5" height="39"/>
     <path fill="rgb(15,15,15)" stroke="none" d="M 2877,12976 L 2877,13012 2879,12993 2877,12976 Z"/>
     <path fill="none" stroke="rgb(15,15,15)" d="M 2877,12976 L 2877,13012 2879,12993 2877,12976 Z"/>
    </g>
   </g>
   <g class="com.sun.star.drawing.LineShape">
    <g id="id45">
     <rect class="BoundingBox" stroke="none" fill="none" x="2813" y="12992" width="302" height="3"/>
     <path fill="none" stroke="rgb(15,15,15)" d="M 2814,12993 L 3113,12993"/>
    </g>
   </g>
   <g class="com.sun.star.drawing.PolyPolygonShape">
    <g id="id46">
     <rect class="BoundingBox" stroke="none" fill="none" x="2855" y="13242" width="24" height="35"/>
     <path fill="rgb(15,15,15)" stroke="none" d="M 2877,13275 L 2869,13258 2856,13243 2877,13275 Z"/>
     <path fill="none" stroke="rgb(15,15,15)" d="M 2877,13275 L 2869,13258 2856,13243 2877,13275 Z"/>
    </g>
   </g>
   <g class="com.sun.star.drawing.PolyPolygonShape">
    <g id="id47">
     <rect class="BoundingBox" stroke="none" fill="none" x="2840" y="13233" width="39" height="43"/>
     <path fill="rgb(15,15,15)" stroke="none" d="M 2877,13274 L 2856,13242 2841,13234 2877,13274 Z"/>
     <path fill="none" stroke="rgb(15,15,15)" d="M 2877,13274 L 2856,13242 2841,13234 2877,13274 Z"/>
    </g>
   </g>
   <g class="com.sun.star.drawing.PolyPolygonShape">
    <g id="id48">
     <rect class="BoundingBox" stroke="none" fill="none" x="2824" y="13227" width="56" height="49"/>
     <path fill="rgb(15,15,15)" stroke="none" d="M 2878,13274 L 2842,13234 2825,13228 2878,13274 Z"/>
     <path fill="none" stroke="rgb(15,15,15)" d="M 2878,13274 L 2842,13234 2825,13228 2878,13274 Z"/>
    </g>
   </g>
   <g class="com.sun.star.drawing.PolyPolygonShape">
    <g id="id49">
     <rect class="BoundingBox" stroke="none" fill="none" x="2805" y="13227" width="74" height="49"/>
     <path fill="rgb(15,15,15)" stroke="none" d="M 2877,13274 L 2825,13228 2806,13228 2877,13274 Z"/>
     <path fill="none" stroke="rgb(15,15,15)" d="M 2877,13274 L 2825,13228 2806,13228 2877,13274 Z"/>
    </g>
   </g>
   <g class="com.sun.star.drawing.PolyPolygonShape">
    <g id="id50">
     <rect class="BoundingBox" stroke="none" fill="none" x="2788" y="13227" width="91" height="49"/>
     <path fill="rgb(15,15,15)" stroke="none" d="M 2877,13274 L 2806,13228 2789,13234 2877,13274 Z"/>
     <path fill="none" stroke="rgb(15,15,15)" d="M 2877,13274 L 2806,13228 2789,13234 2877,13274 Z"/>
    </g>
   </g>
   <g class="com.sun.star.drawing.PolyPolygonShape">
    <g id="id51">
     <rect class="BoundingBox" stroke="none" fill="none" x="2771" y="13233" width="108" height="43"/>
     <path fill="rgb(15,15,15)" stroke="none" d="M 2877,13274 L 2789,13234 2772,13242 2877,13274 Z"/>
     <path fill="none" stroke="rgb(15,15,15)" d="M 2877,13274 L 2789,13234 2772,13242 2877,13274 Z"/>
    </g>
   </g>
   <g class="com.sun.star.drawing.PolyPolygonShape">
    <g id="id52">
     <rect class="BoundingBox" stroke="none" fill="none" x="2758" y="13242" width="121" height="35"/>
     <path fill="rgb(15,15,15)" stroke="none" d="M 2877,13275 L 2772,13243 2759,13258 2877,13275 Z"/>
     <path fill="none" stroke="rgb(15,15,15)" d="M 2877,13275 L 2772,13243 2759,13258 2877,13275 Z"/>
    </g>
   </g>
   <g class="com.sun.star.drawing.PolyPolygonShape">
    <g id="id53">
     <rect class="BoundingBox" stroke="none" fill="none" x="2752" y="13257" width="127" height="20"/>
     <path fill="rgb(15,15,15)" stroke="none" d="M 2877,13275 L 2759,13258 2753,13275 2877,13275 Z"/>
     <path fill="none" stroke="rgb(15,15,15)" d="M 2877,13275 L 2759,13258 2753,13275 2877,13275 Z"/>
    </g>
   </g>
   <g class="com.sun.star.drawing.PolyPolygonShape">
    <g id="id54">
     <rect class="BoundingBox" stroke="none" fill="none" x="2750" y="13273" width="129" height="20"/>
     <path fill="rgb(15,15,15)" stroke="none" d="M 2877,13274 L 2753,13274 2751,13291 2877,13274 Z"/>
     <path fill="none" stroke="rgb(15,15,15)" d="M 2877,13274 L 2753,13274 2751,13291 2877,13274 Z"/>
    </g>
   </g>
   <g class="com.sun.star.drawing.PolyPolygonShape">
    <g id="id55">
     <rect class="BoundingBox" stroke="none" fill="none" x="2750" y="13273" width="129" height="39"/>
     <path fill="rgb(15,15,15)" stroke="none" d="M 2877,13274 L 2751,13291 2753,13310 2877,13274 Z"/>
     <path fill="none" stroke="rgb(15,15,15)" d="M 2877,13274 L 2751,13291 2753,13310 2877,13274 Z"/>
    </g>
   </g>
   <g class="com.sun.star.drawing.PolyPolygonShape">
    <g id="id56">
     <rect class="BoundingBox" stroke="none" fill="none" x="2752" y="13273" width="127" height="56"/>
     <path fill="rgb(15,15,15)" stroke="none" d="M 2877,13274 L 2753,13310 2759,13327 2877,13274 Z"/>
     <path fill="none" stroke="rgb(15,15,15)" d="M 2877,13274 L 2753,13310 2759,13327 2877,13274 Z"/>
    </g>
   </g>
   <g class="com.sun.star.drawing.PolyPolygonShape">
    <g id="id57">
     <rect class="BoundingBox" stroke="none" fill="none" x="2758" y="13273" width="121" height="70"/>
     <path fill="rgb(15,15,15)" stroke="none" d="M 2877,13274 L 2759,13327 2772,13341 2877,13274 Z"/>
     <path fill="none" stroke="rgb(15,15,15)" d="M 2877,13274 L 2759,13327 2772,13341 2877,13274 Z"/>
    </g>
   </g>
   <g class="com.sun.star.drawing.PolyPolygonShape">
    <g id="id58">
     <rect class="BoundingBox" stroke="none" fill="none" x="2771" y="13273" width="108" height="79"/>
     <path fill="rgb(15,15,15)" stroke="none" d="M 2877,13274 L 2772,13341 2789,13350 2877,13274 Z"/>
     <path fill="none" stroke="rgb(15,15,15)" d="M 2877,13274 L 2772,13341 2789,13350 2877,13274 Z"/>
    </g>
   </g>
   <g class="com.sun.star.drawing.PolyPolygonShape">
    <g id="id59">
     <rect class="BoundingBox" stroke="none" fill="none" x="2788" y="13273" width="91" height="85"/>
     <path fill="rgb(15,15,15)" stroke="none" d="M 2877,13274 L 2789,13350 2806,13356 2877,13274 Z"/>
     <path fill="none" stroke="rgb(15,15,15)" d="M 2877,13274 L 2789,13350 2806,13356 2877,13274 Z"/>
    </g>
   </g>
   <g class="com.sun.star.drawing.PolyPolygonShape">
    <g id="id60">
     <rect class="BoundingBox" stroke="none" fill="none" x="2805" y="13273" width="74" height="85"/>
     <path fill="rgb(15,15,15)" stroke="none" d="M 2877,13274 L 2806,13356 2825,13356 2877,13274 Z"/>
     <path fill="none" stroke="rgb(15,15,15)" d="M 2877,13274 L 2806,13356 2825,13356 2877,13274 Z"/>
    </g>
   </g>
   <g class="com.sun.star.drawing.PolyPolygonShape">
    <g id="id61">
     <rect class="BoundingBox" stroke="none" fill="none" x="2824" y="13273" width="56" height="85"/>
     <path fill="rgb(15,15,15)" stroke="none" d="M 2878,13274 L 2825,13356 2842,13350 2878,13274 Z"/>
     <path fill="none" stroke="rgb(15,15,15)" d="M 2878,13274 L 2825,13356 2842,13350 2878,13274 Z"/>
    </g>
   </g>
   <g class="com.sun.star.drawing.PolyPolygonShape">
    <g id="id62">
     <rect class="BoundingBox" stroke="none" fill="none" x="2840" y="13273" width="39" height="79"/>
     <path fill="rgb(15,15,15)" stroke="none" d="M 2877,13274 L 2841,13350 2856,13341 2877,13274 Z"/>
     <path fill="none" stroke="rgb(15,15,15)" d="M 2877,13274 L 2841,13350 2856,13341 2877,13274 Z"/>
    </g>
   </g>
   <g class="com.sun.star.drawing.PolyPolygonShape">
    <g id="id63">
     <rect class="BoundingBox" stroke="none" fill="none" x="2855" y="13273" width="24" height="70"/>
     <path fill="rgb(15,15,15)" stroke="none" d="M 2877,13274 L 2856,13341 2869,13327 2877,13274 Z"/>
     <path fill="none" stroke="rgb(15,15,15)" d="M 2877,13274 L 2856,13341 2869,13327 2877,13274 Z"/>
    </g>
   </g>
   <g class="com.sun.star.drawing.PolyPolygonShape">
    <g id="id64">
     <rect class="BoundingBox" stroke="none" fill="none" x="2868" y="13273" width="11" height="56"/>
     <path fill="rgb(15,15,15)" stroke="none" d="M 2877,13274 L 2869,13327 2877,13310 2877,13274 Z"/>
     <path fill="none" stroke="rgb(15,15,15)" d="M 2877,13274 L 2869,13327 2877,13310 2877,13274 Z"/>
    </g>
   </g>
   <g class="com.sun.star.drawing.PolyPolygonShape">
    <g id="id65">
     <rect class="BoundingBox" stroke="none" fill="none" x="2876" y="13273" width="5" height="39"/>
     <path fill="rgb(15,15,15)" stroke="none" d="M 2877,13274 L 2877,13310 2879,13291 2877,13274 Z"/>
     <path fill="none" stroke="rgb(15,15,15)" d="M 2877,13274 L 2877,13310 2879,13291 2877,13274 Z"/>
    </g>
   </g>
   <g class="com.sun.star.drawing.LineShape">
    <g id="id66">
     <rect class="BoundingBox" stroke="none" fill="none" x="2813" y="13290" width="302" height="3"/>
     <path fill="none" stroke="rgb(15,15,15)" d="M 2814,13291 L 3113,13291"/>
    </g>
   </g>
   <g class="com.sun.star.drawing.PolyPolygonShape">
    <g id="id67">
     <rect class="BoundingBox" stroke="none" fill="none" x="2855" y="13540" width="24" height="35"/>
     <path fill="rgb(15,15,15)" stroke="none" d="M 2877,13573 L 2869,13556 2856,13541 2877,13573 Z"/>
     <path fill="none" stroke="rgb(15,15,15)" d="M 2877,13573 L 2869,13556 2856,13541 2877,13573 Z"/>
    </g>
   </g>
   <g class="com.sun.star.drawing.PolyPolygonShape">
    <g id="id68">
     <rect class="BoundingBox" stroke="none" fill="none" x="2840" y="13532" width="39" height="43"/>
     <path fill="rgb(15,15,15)" stroke="none" d="M 2877,13573 L 2856,13541 2841,13533 2877,13573 Z"/>
     <path fill="none" stroke="rgb(15,15,15)" d="M 2877,13573 L 2856,13541 2841,13533 2877,13573 Z"/>
    </g>
   </g>
   <g class="com.sun.star.drawing.PolyPolygonShape">
    <g id="id69">
     <rect class="BoundingBox" stroke="none" fill="none" x="2824" y="13526" width="56" height="49"/>
     <path fill="rgb(15,15,15)" stroke="none" d="M 2878,13573 L 2842,13533 2825,13527 2878,13573 Z"/>
     <path fill="none" stroke="rgb(15,15,15)" d="M 2878,13573 L 2842,13533 2825,13527 2878,13573 Z"/>
    </g>
   </g>
   <g class="com.sun.star.drawing.PolyPolygonShape">
    <g id="id70">
     <rect class="BoundingBox" stroke="none" fill="none" x="2805" y="13526" width="74" height="49"/>
     <path fill="rgb(15,15,15)" stroke="none" d="M 2877,13573 L 2825,13527 2806,13527 2877,13573 Z"/>
     <path fill="none" stroke="rgb(15,15,15)" d="M 2877,13573 L 2825,13527 2806,13527 2877,13573 Z"/>
    </g>
   </g>
   <g class="com.sun.star.drawing.PolyPolygonShape">
    <g id="id71">
     <rect class="BoundingBox" stroke="none" fill="none" x="2788" y="13526" width="91" height="49"/>
     <path fill="rgb(15,15,15)" stroke="none" d="M 2877,13573 L 2806,13527 2789,13533 2877,13573 Z"/>
     <path fill="none" stroke="rgb(15,15,15)" d="M 2877,13573 L 2806,13527 2789,13533 2877,13573 Z"/>
    </g>
   </g>
   <g class="com.sun.star.drawing.PolyPolygonShape">
    <g id="id72">
     <rect class="BoundingBox" stroke="none" fill="none" x="2771" y="13532" width="108" height="43"/>
     <path fill="rgb(15,15,15)" stroke="none" d="M 2877,13573 L 2789,13533 2772,13541 2877,13573 Z"/>
     <path fill="none" stroke="rgb(15,15,15)" d="M 2877,13573 L 2789,13533 2772,13541 2877,13573 Z"/>
    </g>
   </g>
   <g class="com.sun.star.drawing.PolyPolygonShape">
    <g id="id73">
     <rect class="BoundingBox" stroke="none" fill="none" x="2758" y="13540" width="121" height="35"/>
     <path fill="rgb(15,15,15)" stroke="none" d="M 2877,13573 L 2772,13541 2759,13556 2877,13573 Z"/>
     <path fill="none" stroke="rgb(15,15,15)" d="M 2877,13573 L 2772,13541 2759,13556 2877,13573 Z"/>
    </g>
   </g>
   <g class="com.sun.star.drawing.PolyPolygonShape">
    <g id="id74">
     <rect class="BoundingBox" stroke="none" fill="none" x="2752" y="13555" width="127" height="20"/>
     <path fill="rgb(15,15,15)" stroke="none" d="M 2877,13573 L 2759,13556 2753,13573 2877,13573 Z"/>
     <path fill="none" stroke="rgb(15,15,15)" d="M 2877,13573 L 2759,13556 2753,13573 2877,13573 Z"/>
    </g>
   </g>
   <g class="com.sun.star.drawing.PolyPolygonShape">
    <g id="id75">
     <rect class="BoundingBox" stroke="none" fill="none" x="2750" y="13572" width="129" height="20"/>
     <path fill="rgb(15,15,15)" stroke="none" d="M 2877,13573 L 2753,13573 2751,13590 2877,13573 Z"/>
     <path fill="none" stroke="rgb(15,15,15)" d="M 2877,13573 L 2753,13573 2751,13590 2877,13573 Z"/>
    </g>
   </g>
   <g class="com.sun.star.drawing.PolyPolygonShape">
    <g id="id76">
     <rect class="BoundingBox" stroke="none" fill="none" x="2750" y="13572" width="129" height="39"/>
     <path fill="rgb(15,15,15)" stroke="none" d="M 2877,13573 L 2751,13590 2753,13609 2877,13573 Z"/>
     <path fill="none" stroke="rgb(15,15,15)" d="M 2877,13573 L 2751,13590 2753,13609 2877,13573 Z"/>
    </g>
   </g>
   <g class="com.sun.star.drawing.PolyPolygonShape">
    <g id="id77">
     <rect class="BoundingBox" stroke="none" fill="none" x="2752" y="13572" width="127" height="56"/>
     <path fill="rgb(15,15,15)" stroke="none" d="M 2877,13573 L 2753,13609 2759,13626 2877,13573 Z"/>
     <path fill="none" stroke="rgb(15,15,15)" d="M 2877,13573 L 2753,13609 2759,13626 2877,13573 Z"/>
    </g>
   </g>
   <g class="com.sun.star.drawing.PolyPolygonShape">
    <g id="id78">
     <rect class="BoundingBox" stroke="none" fill="none" x="2758" y="13572" width="121" height="70"/>
     <path fill="rgb(15,15,15)" stroke="none" d="M 2877,13573 L 2759,13626 2772,13640 2877,13573 Z"/>
     <path fill="none" stroke="rgb(15,15,15)" d="M 2877,13573 L 2759,13626 2772,13640 2877,13573 Z"/>
    </g>
   </g>
   <g class="com.sun.star.drawing.PolyPolygonShape">
    <g id="id79">
     <rect class="BoundingBox" stroke="none" fill="none" x="2771" y="13572" width="108" height="79"/>
     <path fill="rgb(15,15,15)" stroke="none" d="M 2877,13573 L 2772,13640 2789,13649 2877,13573 Z"/>
     <path fill="none" stroke="rgb(15,15,15)" d="M 2877,13573 L 2772,13640 2789,13649 2877,13573 Z"/>
    </g>
   </g>
   <g class="com.sun.star.drawing.PolyPolygonShape">
    <g id="id80">
     <rect class="BoundingBox" stroke="none" fill="none" x="2788" y="13572" width="91" height="85"/>
     <path fill="rgb(15,15,15)" stroke="none" d="M 2877,13573 L 2789,13649 2806,13655 2877,13573 Z"/>
     <path fill="none" stroke="rgb(15,15,15)" d="M 2877,13573 L 2789,13649 2806,13655 2877,13573 Z"/>
    </g>
   </g>
   <g class="com.sun.star.drawing.PolyPolygonShape">
    <g id="id81">
     <rect class="BoundingBox" stroke="none" fill="none" x="2805" y="13572" width="74" height="85"/>
     <path fill="rgb(15,15,15)" stroke="none" d="M 2877,13573 L 2806,13655 2825,13655 2877,13573 Z"/>
     <path fill="none" stroke="rgb(15,15,15)" d="M 2877,13573 L 2806,13655 2825,13655 2877,13573 Z"/>
    </g>
   </g>
   <g class="com.sun.star.drawing.PolyPolygonShape">
    <g id="id82">
     <rect class="BoundingBox" stroke="none" fill="none" x="2824" y="13572" width="56" height="85"/>
     <path fill="rgb(15,15,15)" stroke="none" d="M 2878,13573 L 2825,13655 2842,13649 2878,13573 Z"/>
     <path fill="none" stroke="rgb(15,15,15)" d="M 2878,13573 L 2825,13655 2842,13649 2878,13573 Z"/>
    </g>
   </g>
   <g class="com.sun.star.drawing.PolyPolygonShape">
    <g id="id83">
     <rect class="BoundingBox" stroke="none" fill="none" x="2840" y="13572" width="39" height="79"/>
     <path fill="rgb(15,15,15)" stroke="none" d="M 2877,13573 L 2841,13649 2856,13640 2877,13573 Z"/>
     <path fill="none" stroke="rgb(15,15,15)" d="M 2877,13573 L 2841,13649 2856,13640 2877,13573 Z"/>
    </g>
   </g>
   <g class="com.sun.star.drawing.PolyPolygonShape">
    <g id="id84">
     <rect class="BoundingBox" stroke="none" fill="none" x="2855" y="13572" width="24" height="70"/>
     <path fill="rgb(15,15,15)" stroke="none" d="M 2877,13573 L 2856,13640 2869,13626 2877,13573 Z"/>
     <path fill="none" stroke="rgb(15,15,15)" d="M 2877,13573 L 2856,13640 2869,13626 2877,13573 Z"/>
    </g>
   </g>
   <g class="com.sun.star.drawing.PolyPolygonShape">
    <g id="id85">
     <rect class="BoundingBox" stroke="none" fill="none" x="2868" y="13572" width="11" height="56"/>
     <path fill="rgb(15,15,15)" stroke="none" d="M 2877,13573 L 2869,13626 2877,13609 2877,13573 Z"/>
     <path fill="none" stroke="rgb(15,15,15)" d="M 2877,13573 L 2869,13626 2877,13609 2877,13573 Z"/>
    </g>
   </g>
   <g class="com.sun.star.drawing.PolyPolygonShape">
    <g id="id86">
     <rect class="BoundingBox" stroke="none" fill="none" x="2876" y="13572" width="5" height="39"/>
     <path fill="rgb(15,15,15)" stroke="none" d="M 2877,13573 L 2877,13609 2879,13590 2877,13573 Z"/>
     <path fill="none" stroke="rgb(15,15,15)" d="M 2877,13573 L 2877,13609 2879,13590 2877,13573 Z"/>
    </g>
   </g>
   <g class="com.sun.star.drawing.LineShape">
    <g id="id87">
     <rect class="BoundingBox" stroke="none" fill="none" x="2813" y="13589" width="302" height="3"/>
     <path fill="none" stroke="rgb(15,15,15)" d="M 2814,13590 L 3113,13590"/>
    </g>
   </g>
   <g class="com.sun.star.drawing.LineShape">
    <g id="id88">
     <rect class="BoundingBox" stroke="none" fill="none" x="2096" y="12992" width="720" height="302"/>
     <path fill="none" stroke="rgb(15,15,15)" d="M 2097,13292 L 2814,12993"/>
    </g>
   </g>
  </g>
 </g>
</svg>