<?xml version="1.0" encoding="UTF-8"?>
<!DOCTYPE svg PUBLIC "-//W3C//DTD SVG 1.1//EN" "http://www.w3.org/Graphics/SVG/1.1/DTD/svg11.dtd">
<svg version="1.2" width="16.07mm" height="10.07mm" viewBox="10111 12788 1607 1007" preserveAspectRatio="xMidYMid" fill-rule="evenodd" stroke-width="28.222" stroke-linejoin="round" xmlns="http://www.w3.org/2000/svg" xmlns:ooo="http://xml.openoffice.org/svg/export" xmlns:xlink="http://www.w3.org/1999/xlink" xmlns:presentation="http://sun.com/xmlns/staroffice/presentation" xmlns:smil="http://www.w3.org/2001/SMIL20/" xmlns:anim="urn:oasis:names:tc:opendocument:xmlns:animation:1.0" xmlns:svg="urn:oasis:names:tc:opendocument:xmlns:svg-compatible:1.0" xml:space="preserve">
 <defs class="EmbeddedBulletChars">
  <g id="bullet-char-template-57356" transform="scale(0.00048828125,-0.00048828125)">
   <path d="M 580,1141 L 1163,571 580,0 -4,571 580,1141 Z"/>
  </g>
  <g id="bullet-char-template-57354" transform="scale(0.00048828125,-0.00048828125)">
   <path d="M 8,1128 L 1137,1128 1137,0 8,0 8,1128 Z"/>
  </g>
  <g id="bullet-char-template-10146" transform="scale(0.00048828125,-0.00048828125)">
   <path d="M 174,0 L 602,739 174,1481 1456,739 174,0 Z M 1358,739 L 309,1346 659,739 1358,739 Z"/>
  </g>
  <g id="bullet-char-template-10132" transform="scale(0.00048828125,-0.00048828125)">
   <path d="M 2015,739 L 1276,0 717,0 1260,543 174,543 174,936 1260,936 717,1481 1274,1481 2015,739 Z"/>
  </g>
  <g id="bullet-char-template-10007" transform="scale(0.00048828125,-0.00048828125)">
   <path d="M 0,-2 C -7,14 -16,27 -25,37 L 356,567 C 262,823 215,952 215,954 215,979 228,992 255,992 264,992 276,990 289,987 310,991 331,999 354,1012 L 381,999 492,748 772,1049 836,1024 860,1049 C 881,1039 901,1025 922,1006 886,937 835,863 770,784 769,783 710,716 594,584 L 774,223 C 774,196 753,168 711,139 L 727,119 C 717,90 699,76 672,76 641,76 570,178 457,381 L 164,-76 C 142,-110 111,-127 72,-127 30,-127 9,-110 8,-76 1,-67 -2,-52 -2,-32 -2,-23 -1,-13 0,-2 Z"/>
  </g>
  <g id="bullet-char-template-10004" transform="scale(0.00048828125,-0.00048828125)">
   <path d="M 285,-33 C 182,-33 111,30 74,156 52,228 41,333 41,471 41,549 55,616 82,672 116,743 169,778 240,778 293,778 328,747 346,684 L 369,508 C 377,444 397,411 428,410 L 1163,1116 C 1174,1127 1196,1133 1229,1133 1271,1133 1292,1118 1292,1087 L 1292,965 C 1292,929 1282,901 1262,881 L 442,47 C 390,-6 338,-33 285,-33 Z"/>
  </g>
  <g id="bullet-char-template-9679" transform="scale(0.00048828125,-0.00048828125)">
   <path d="M 813,0 C 632,0 489,54 383,161 276,268 223,411 223,592 223,773 276,916 383,1023 489,1130 632,1184 813,1184 992,1184 1136,1130 1245,1023 1353,916 1407,772 1407,592 1407,412 1353,268 1245,161 1136,54 992,0 813,0 Z"/>
  </g>
  <g id="bullet-char-template-8226" transform="scale(0.00048828125,-0.00048828125)">
   <path d="M 346,457 C 273,457 209,483 155,535 101,586 74,649 74,723 74,796 101,859 155,911 209,963 273,989 346,989 419,989 480,963 531,910 582,859 608,796 608,723 608,648 583,586 532,535 482,483 420,457 346,457 Z"/>
  </g>
  <g id="bullet-char-template-8211" transform="scale(0.00048828125,-0.00048828125)">
   <path d="M -4,459 L 1135,459 1135,606 -4,606 -4,459 Z"/>
  </g>
  <g id="bullet-char-template-61548" transform="scale(0.00048828125,-0.00048828125)">
   <path d="M 173,740 C 173,903 231,1043 346,1159 462,1274 601,1332 765,1332 928,1332 1067,1274 1183,1159 1299,1043 1357,903 1357,740 1357,577 1299,437 1183,322 1067,206 928,148 765,148 601,148 462,206 346,322 231,437 173,577 173,740 Z"/>
  </g>
 </defs>
 <g class="Page">
  <g class="Group">
   <g class="com.sun.star.drawing.PolyPolygonShape">
    <g id="id3">
     <rect class="BoundingBox" stroke="none" fill="none" x="10111" y="12788" width="1607" height="1007"/>
     <path fill="rgb(204,255,153)" stroke="none" d="M 10137,13768 L 11691,13768 11691,12814 10137,12814 10137,13768 Z"/>
     <path fill="none" stroke="rgb(15,15,15)" stroke-width="51" stroke-linejoin="round" d="M 10137,13768 L 11691,13768 11691,12814 10137,12814 10137,13768 Z"/>
    </g>
   </g>
   <g class="com.sun.star.drawing.PolyPolygonShape">
    <g id="id4">
     <rect class="BoundingBox" stroke="none" fill="none" x="10674" y="13086" width="516" height="411"/>
     <path fill="rgb(179,179,179)" stroke="none" d="M 11188,13087 L 10675,13087 10675,13495 11188,13087 Z"/>
     <path fill="none" stroke="rgb(179,179,179)" d="M 11188,13087 L 10675,13087 10675,13495 11188,13087 Z"/>
    </g>
   </g>
   <g class="com.sun.star.drawing.PolyPolygonShape">
    <g id="id5">
     <rect class="BoundingBox" stroke="none" fill="none" x="10674" y="13086" width="516" height="447"/>
     <path fill="rgb(179,179,179)" stroke="none" d="M 11188,13087 L 10675,13495 10709,13531 11188,13087 Z"/>
     <path fill="none" stroke="rgb(179,179,179)" d="M 11188,13087 L 10675,13495 10709,13531 11188,13087 Z"/>
    </g>
   </g>
   <g class="com.sun.star.drawing.PolyPolygonShape">
    <g id="id6">
     <rect class="BoundingBox" stroke="none" fill="none" x="10708" y="13086" width="482" height="470"/>
     <path fill="rgb(179,179,179)" stroke="none" d="M 11188,13087 L 10709,13531 10804,13554 11188,13087 Z"/>
     <path fill="none" stroke="rgb(179,179,179)" d="M 11188,13087 L 10709,13531 10804,13554 11188,13087 Z"/>
    </g>
   </g>
   <g class="com.sun.star.drawing.PolyPolygonShape">
    <g id="id7">
     <rect class="BoundingBox" stroke="none" fill="none" x="10803" y="13086" width="388" height="480"/>
     <path fill="rgb(179,179,179)" stroke="none" d="M 11189,13087 L 10804,13554 10932,13564 11189,13087 Z"/>
     <path fill="none" stroke="rgb(179,179,179)" d="M 11189,13087 L 10804,13554 10932,13564 11189,13087 Z"/>
    </g>
   </g>
   <g class="com.sun.star.drawing.PolyPolygonShape">
    <g id="id8">
     <rect class="BoundingBox" stroke="none" fill="none" x="10931" y="13086" width="259" height="480"/>
     <path fill="rgb(179,179,179)" stroke="none" d="M 11188,13087 L 10932,13564 11060,13554 11188,13087 Z"/>
     <path fill="none" stroke="rgb(179,179,179)" d="M 11188,13087 L 10932,13564 11060,13554 11188,13087 Z"/>
    </g>
   </g>
   <g class="com.sun.star.drawing.PolyPolygonShape">
    <g id="id9">
     <rect class="BoundingBox" stroke="none" fill="none" x="11059" y="13086" width="131" height="470"/>
     <path fill="rgb(179,179,179)" stroke="none" d="M 11188,13087 L 11060,13554 11153,13531 11188,13087 Z"/>
     <path fill="none" stroke="rgb(179,179,179)" d="M 11188,13087 L 11060,13554 11153,13531 11188,13087 Z"/>
    </g>
   </g>
   <g class="com.sun.star.drawing.PolyPolygonShape">
    <g id="id10">
     <rect class="BoundingBox" stroke="none" fill="none" x="11152" y="13086" width="39" height="447"/>
     <path fill="rgb(179,179,179)" stroke="none" d="M 11189,13087 L 11153,13531 11189,13495 11189,13087 Z"/>
     <path fill="none" stroke="rgb(179,179,179)" d="M 11189,13087 L 11153,13531 11189,13495 11189,13087 Z"/>
    </g>
   </g>
   <g class="com.sun.star.drawing.PolyPolygonShape">
    <g id="id11">
     <rect class="BoundingBox" stroke="none" fill="none" x="10674" y="13086" width="516" height="480"/>
     <path fill="none" stroke="rgb(15,15,15)" d="M 11188,13495 L 11188,13087 10675,13087 10675,13495 10694,13522 10751,13543 10833,13558 10931,13564 11028,13558 11112,13543 11167,13522 11188,13495 Z"/>
    </g>
   </g>
   <g class="com.sun.star.drawing.PolyPolygonShape">
    <g id="id12">
     <rect class="BoundingBox" stroke="none" fill="none" x="10893" y="13019" width="251" height="32"/>
     <path fill="rgb(179,179,179)" stroke="none" d="M 11142,13049 L 11035,13024 10894,13020 11142,13049 Z"/>
     <path fill="none" stroke="rgb(179,179,179)" d="M 11142,13049 L 11035,13024 10894,13020 11142,13049 Z"/>
    </g>
   </g>
   <g class="com.sun.star.drawing.PolyPolygonShape">
    <g id="id13">
     <rect class="BoundingBox" stroke="none" fill="none" x="10763" y="13019" width="381" height="32"/>
     <path fill="rgb(179,179,179)" stroke="none" d="M 11142,13049 L 10894,13020 10764,13035 11142,13049 Z"/>
     <path fill="none" stroke="rgb(179,179,179)" d="M 11142,13049 L 10894,13020 10764,13035 11142,13049 Z"/>
    </g>
   </g>
   <g class="com.sun.star.drawing.PolyPolygonShape">
    <g id="id14">
     <rect class="BoundingBox" stroke="none" fill="none" x="10685" y="13034" width="459" height="35"/>
     <path fill="rgb(179,179,179)" stroke="none" d="M 11142,13050 L 10764,13035 10686,13067 11142,13050 Z"/>
     <path fill="none" stroke="rgb(179,179,179)" d="M 11142,13050 L 10764,13035 10686,13067 11142,13050 Z"/>
    </g>
   </g>
   <g class="com.sun.star.drawing.PolyPolygonShape">
    <g id="id15">
     <rect class="BoundingBox" stroke="none" fill="none" x="10685" y="13048" width="459" height="60"/>
     <path fill="rgb(179,179,179)" stroke="none" d="M 11142,13049 L 10686,13066 10686,13106 11142,13049 Z"/>
     <path fill="none" stroke="rgb(179,179,179)" d="M 11142,13049 L 10686,13066 10686,13106 11142,13049 Z"/>
    </g>
   </g>
   <g class="com.sun.star.drawing.PolyPolygonShape">
    <g id="id16">
     <rect class="BoundingBox" stroke="none" fill="none" x="10685" y="13048" width="459" height="91"/>
     <path fill="rgb(179,179,179)" stroke="none" d="M 11142,13049 L 10686,13106 10764,13137 11142,13049 Z"/>
     <path fill="none" stroke="rgb(179,179,179)" d="M 11142,13049 L 10686,13106 10764,13137 11142,13049 Z"/>
    </g>
   </g>
   <g class="com.sun.star.drawing.PolyPolygonShape">
    <g id="id17">
     <rect class="BoundingBox" stroke="none" fill="none" x="10763" y="13048" width="381" height="106"/>
     <path fill="rgb(179,179,179)" stroke="none" d="M 11142,13049 L 10764,13137 10894,13152 11142,13049 Z"/>
     <path fill="none" stroke="rgb(179,179,179)" d="M 11142,13049 L 10764,13137 10894,13152 11142,13049 Z"/>
    </g>
   </g>
   <g class="com.sun.star.drawing.PolyPolygonShape">
    <g id="id18">
     <rect class="BoundingBox" stroke="none" fill="none" x="10893" y="13048" width="251" height="106"/>
     <path fill="rgb(179,179,179)" stroke="none" d="M 11142,13049 L 10894,13152 11035,13148 11142,13049 Z"/>
     <path fill="none" stroke="rgb(179,179,179)" d="M 11142,13049 L 10894,13152 11035,13148 11142,13049 Z"/>
    </g>
   </g>
   <g class="com.sun.star.drawing.PolyPolygonShape">
    <g id="id19">
     <rect class="BoundingBox" stroke="none" fill="none" x="11034" y="13048" width="110" height="102"/>
     <path fill="rgb(179,179,179)" stroke="none" d="M 11142,13049 L 11035,13148 11142,13123 11142,13049 Z"/>
     <path fill="none" stroke="rgb(179,179,179)" d="M 11142,13049 L 11035,13148 11142,13123 11142,13049 Z"/>
    </g>
   </g>
   <g class="com.sun.star.drawing.PolyPolygonShape">
    <g id="id20">
     <rect class="BoundingBox" stroke="none" fill="none" x="11141" y="13048" width="45" height="77"/>
     <path fill="rgb(179,179,179)" stroke="none" d="M 11142,13049 L 11142,13123 11184,13087 11142,13049 Z"/>
     <path fill="none" stroke="rgb(179,179,179)" d="M 11142,13049 L 11142,13123 11184,13087 11142,13049 Z"/>
    </g>
   </g>
   <g class="com.sun.star.drawing.PolyPolygonShape">
    <g id="id21">
     <rect class="BoundingBox" stroke="none" fill="none" x="10674" y="13017" width="512" height="140"/>
     <path fill="none" stroke="rgb(15,15,15)" d="M 11184,13087 L 11163,13060 11108,13039 11026,13024 10929,13018 10833,13024 10749,13039 10694,13060 10675,13087 10694,13113 10749,13134 10833,13148 10929,13155 11026,13148 11108,13134 11163,13113 11184,13087 Z"/>
    </g>
   </g>
  </g>
 </g>
</svg>