<?xml version="1.0" encoding="UTF-8"?>
<!DOCTYPE svg PUBLIC "-//W3C//DTD SVG 1.1//EN" "http://www.w3.org/Graphics/SVG/1.1/DTD/svg11.dtd">
<svg version="1.2" width="18.59mm" height="10.07mm" viewBox="9918 9864 1859 1007" preserveAspectRatio="xMidYMid" fill-rule="evenodd" stroke-width="28.222" stroke-linejoin="round" xmlns="http://www.w3.org/2000/svg" xmlns:ooo="http://xml.openoffice.org/svg/export" xmlns:xlink="http://www.w3.org/1999/xlink" xmlns:presentation="http://sun.com/xmlns/staroffice/presentation" xmlns:smil="http://www.w3.org/2001/SMIL20/" xmlns:anim="urn:oasis:names:tc:opendocument:xmlns:animation:1.0" xmlns:svg="urn:oasis:names:tc:opendocument:xmlns:svg-compatible:1.0" xml:space="preserve">
 <defs class="EmbeddedBulletChars">
  <g id="bullet-char-template-57356" transform="scale(0.00048828125,-0.00048828125)">
   <path d="M 580,1141 L 1163,571 580,0 -4,571 580,1141 Z"/>
  </g>
  <g id="bullet-char-template-57354" transform="scale(0.00048828125,-0.00048828125)">
   <path d="M 8,1128 L 1137,1128 1137,0 8,0 8,1128 Z"/>
  </g>
  <g id="bullet-char-template-10146" transform="scale(0.00048828125,-0.00048828125)">
   <path d="M 174,0 L 602,739 174,1481 1456,739 174,0 Z M 1358,739 L 309,1346 659,739 1358,739 Z"/>
  </g>
  <g id="bullet-char-template-10132" transform="scale(0.00048828125,-0.00048828125)">
   <path d="M 2015,739 L 1276,0 717,0 1260,543 174,543 174,936 1260,936 717,1481 1274,1481 2015,739 Z"/>
  </g>
  <g id="bullet-char-template-10007" transform="scale(0.00048828125,-0.00048828125)">
   <path d="M 0,-2 C -7,14 -16,27 -25,37 L 356,567 C 262,823 215,952 215,954 215,979 228,992 255,992 264,992 276,990 289,987 310,991 331,999 354,1012 L 381,999 492,748 772,1049 836,1024 860,1049 C 881,1039 901,1025 922,1006 886,937 835,863 770,784 769,783 710,716 594,584 L 774,223 C 774,196 753,168 711,139 L 727,119 C 717,90 699,76 672,76 641,76 570,178 457,381 L 164,-76 C 142,-110 111,-127 72,-127 30,-127 9,-110 8,-76 1,-67 -2,-52 -2,-32 -2,-23 -1,-13 0,-2 Z"/>
  </g>
  <g id="bullet-char-template-10004" transform="scale(0.00048828125,-0.00048828125)">
   <path d="M 285,-33 C 182,-33 111,30 74,156 52,228 41,333 41,471 41,549 55,616 82,672 116,743 169,778 240,778 293,778 328,747 346,684 L 369,508 C 377,444 397,411 428,410 L 1163,1116 C 1174,1127 1196,1133 1229,1133 1271,1133 1292,1118 1292,1087 L 1292,965 C 1292,929 1282,901 1262,881 L 442,47 C 390,-6 338,-33 285,-33 Z"/>
  </g>
  <g id="bullet-char-template-9679" transform="scale(0.00048828125,-0.00048828125)">
   <path d="M 813,0 C 632,0 489,54 383,161 276,268 223,411 223,592 223,773 276,916 383,1023 489,1130 632,1184 813,1184 992,1184 1136,1130 1245,1023 1353,916 1407,772 1407,592 1407,412 1353,268 1245,161 1136,54 992,0 813,0 Z"/>
  </g>
  <g id="bullet-char-template-8226" transform="scale(0.00048828125,-0.00048828125)">
   <path d="M 346,457 C 273,457 209,483 155,535 101,586 74,649 74,723 74,796 101,859 155,911 209,963 273,989 346,989 419,989 480,963 531,910 582,859 608,796 608,723 608,648 583,586 532,535 482,483 420,457 346,457 Z"/>
  </g>
  <g id="bullet-char-template-8211" transform="scale(0.00048828125,-0.00048828125)">
   <path d="M -4,459 L 1135,459 1135,606 -4,606 -4,459 Z"/>
  </g>
  <g id="bullet-char-template-61548" transform="scale(0.00048828125,-0.00048828125)">
   <path d="M 173,740 C 173,903 231,1043 346,1159 462,1274 601,1332 765,1332 928,1332 1067,1274 1183,1159 1299,1043 1357,903 1357,740 1357,577 1299,437 1183,322 1067,206 928,148 765,148 601,148 462,206 346,322 231,437 173,577 173,740 Z"/>
  </g>
 </defs>
 <g class="Page">
  <g class="Group">
   <g class="com.sun.star.drawing.PolyPolygonShape">
    <g id="id3">
     <rect class="BoundingBox" stroke="none" fill="none" x="10170" y="9864" width="1607" height="1007"/>
     <path fill="rgb(204,255,153)" stroke="none" d="M 10196,10844 L 11750,10844 11750,9890 10196,9890 10196,10844 Z"/>
     <path fill="none" stroke="rgb(15,15,15)" stroke-width="51" stroke-linejoin="round" d="M 10196,10844 L 11750,10844 11750,9890 10196,9890 10196,10844 Z"/>
    </g>
   </g>
   <g class="com.sun.star.drawing.LineShape">
    <g id="id4">
     <rect class="BoundingBox" stroke="none" fill="none" x="9918" y="10366" width="757" height="3"/>
     <path fill="none" stroke="rgb(141,141,141)" d="M 9919,10367 L 10673,10367"/>
    </g>
   </g>
   <g class="com.sun.star.drawing.PolyPolygonShape">
    <g id="id5">
     <rect class="BoundingBox" stroke="none" fill="none" x="10555" y="10276" width="182" height="184"/>
     <path fill="rgb(141,141,141)" stroke="none" d="M 10556,10458 L 10556,10277 10735,10367 10556,10458 Z"/>
     <path fill="none" stroke="rgb(141,141,141)" d="M 10556,10458 L 10556,10277 10735,10367 10556,10458 Z"/>
    </g>
   </g>
   <g class="com.sun.star.drawing.PolyPolygonShape">
    <g id="id6">
     <rect class="BoundingBox" stroke="none" fill="none" x="10555" y="10276" width="182" height="184"/>
     <path fill="none" stroke="rgb(141,141,141)" d="M 10735,10367 L 10556,10458 10556,10277 10735,10367 Z"/>
    </g>
   </g>
   <g class="com.sun.star.drawing.PolyPolygonShape">
    <g id="id7">
     <rect class="BoundingBox" stroke="none" fill="none" x="11280" y="9958" width="173" height="87"/>
     <path fill="rgb(15,15,15)" stroke="none" d="M 11451,10043 L 11367,9959 11281,10043 11451,10043 Z"/>
     <path fill="none" stroke="rgb(15,15,15)" d="M 11451,10043 L 11367,9959 11281,10043 11451,10043 Z"/>
    </g>
   </g>
   <g class="com.sun.star.drawing.PolyPolygonShape">
    <g id="id8">
     <rect class="BoundingBox" stroke="none" fill="none" x="11280" y="10043" width="173" height="87"/>
     <path fill="rgb(15,15,15)" stroke="none" d="M 11451,10044 L 11281,10044 11367,10128 11451,10044 Z"/>
     <path fill="none" stroke="rgb(15,15,15)" d="M 11451,10044 L 11281,10044 11367,10128 11451,10044 Z"/>
    </g>
   </g>
   <g class="com.sun.star.drawing.PolyPolygonShape">
    <g id="id9">
     <rect class="BoundingBox" stroke="none" fill="none" x="11280" y="9958" width="173" height="171"/>
     <path fill="none" stroke="rgb(15,15,15)" d="M 11367,10127 L 11451,10043 11367,9959 11281,10043 11367,10127 Z"/>
    </g>
   </g>
   <g class="com.sun.star.drawing.PolyPolygonShape">
    <g id="id10">
     <rect class="BoundingBox" stroke="none" fill="none" x="11484" y="10282" width="173" height="87"/>
     <path fill="rgb(15,15,15)" stroke="none" d="M 11655,10367 L 11571,10283 11485,10367 11655,10367 Z"/>
     <path fill="none" stroke="rgb(15,15,15)" d="M 11655,10367 L 11571,10283 11485,10367 11655,10367 Z"/>
    </g>
   </g>
   <g class="com.sun.star.drawing.PolyPolygonShape">
    <g id="id11">
     <rect class="BoundingBox" stroke="none" fill="none" x="11484" y="10366" width="173" height="87"/>
     <path fill="rgb(15,15,15)" stroke="none" d="M 11655,10367 L 11485,10367 11571,10451 11655,10367 Z"/>
     <path fill="none" stroke="rgb(15,15,15)" d="M 11655,10367 L 11485,10367 11571,10451 11655,10367 Z"/>
    </g>
   </g>
   <g class="com.sun.star.drawing.PolyPolygonShape">
    <g id="id12">
     <rect class="BoundingBox" stroke="none" fill="none" x="11484" y="10282" width="173" height="171"/>
     <path fill="none" stroke="rgb(15,15,15)" d="M 11571,10451 L 11655,10367 11571,10283 11485,10367 11571,10451 Z"/>
    </g>
   </g>
   <g class="com.sun.star.drawing.PolyPolygonShape">
    <g id="id13">
     <rect class="BoundingBox" stroke="none" fill="none" x="11280" y="10606" width="173" height="87"/>
     <path fill="rgb(15,15,15)" stroke="none" d="M 11451,10691 L 11367,10607 11281,10691 11451,10691 Z"/>
     <path fill="none" stroke="rgb(15,15,15)" d="M 11451,10691 L 11367,10607 11281,10691 11451,10691 Z"/>
    </g>
   </g>
   <g class="com.sun.star.drawing.PolyPolygonShape">
    <g id="id14">
     <rect class="BoundingBox" stroke="none" fill="none" x="11280" y="10690" width="173" height="87"/>
     <path fill="rgb(15,15,15)" stroke="none" d="M 11451,10691 L 11281,10691 11367,10775 11451,10691 Z"/>
     <path fill="none" stroke="rgb(15,15,15)" d="M 11451,10691 L 11281,10691 11367,10775 11451,10691 Z"/>
    </g>
   </g>
   <g class="com.sun.star.drawing.PolyPolygonShape">
    <g id="id15">
     <rect class="BoundingBox" stroke="none" fill="none" x="11280" y="10606" width="173" height="171"/>
     <path fill="none" stroke="rgb(15,15,15)" d="M 11367,10775 L 11451,10691 11367,10607 11281,10691 11367,10775 Z"/>
    </g>
   </g>
   <g class="com.sun.star.drawing.LineShape">
    <g id="id16">
     <rect class="BoundingBox" stroke="none" fill="none" x="10858" y="10003" width="556" height="287"/>
     <path fill="none" stroke="rgb(15,15,15)" d="M 11412,10004 L 10859,10288"/>
    </g>
   </g>
   <g class="com.sun.star.drawing.LineShape">
    <g id="id17">
     <rect class="BoundingBox" stroke="none" fill="none" x="10912" y="10366" width="745" height="3"/>
     <path fill="none" stroke="rgb(15,15,15)" d="M 11655,10367 L 10913,10367"/>
    </g>
   </g>
   <g class="com.sun.star.drawing.LineShape">
    <g id="id18">
     <rect class="BoundingBox" stroke="none" fill="none" x="10868" y="10436" width="539" height="302"/>
     <path fill="none" stroke="rgb(15,15,15)" d="M 11405,10736 L 10869,10437"/>
    </g>
   </g>
   <g class="com.sun.star.drawing.PolyPolygonShape">
    <g id="id19">
     <rect class="BoundingBox" stroke="none" fill="none" x="11389" y="10322" width="93" height="91"/>
     <path fill="rgb(15,15,15)" stroke="none" d="M 11390,10411 L 11390,10323 11480,10367 11390,10411 Z"/>
     <path fill="none" stroke="rgb(15,15,15)" d="M 11390,10411 L 11390,10323 11480,10367 11390,10411 Z"/>
    </g>
   </g>
   <g class="com.sun.star.drawing.PolyPolygonShape">
    <g id="id20">
     <rect class="BoundingBox" stroke="none" fill="none" x="11389" y="10322" width="93" height="91"/>
     <path fill="none" stroke="rgb(15,15,15)" d="M 11480,10367 L 11390,10411 11390,10323 11480,10367 Z"/>
    </g>
   </g>
   <g class="com.sun.star.drawing.PolyPolygonShape">
    <g id="id21">
     <rect class="BoundingBox" stroke="none" fill="none" x="11186" y="10057" width="104" height="87"/>
     <path fill="rgb(15,15,15)" stroke="none" d="M 11187,10064 L 11233,10142 11288,10058 11187,10064 Z"/>
     <path fill="none" stroke="rgb(15,15,15)" d="M 11187,10064 L 11233,10142 11288,10058 11187,10064 Z"/>
    </g>
   </g>
   <g class="com.sun.star.drawing.PolyPolygonShape">
    <g id="id22">
     <rect class="BoundingBox" stroke="none" fill="none" x="11186" y="10057" width="104" height="87"/>
     <path fill="none" stroke="rgb(15,15,15)" d="M 11288,10058 L 11187,10064 11233,10142 11288,10058 Z"/>
    </g>
   </g>
   <g class="com.sun.star.drawing.PolyPolygonShape">
    <g id="id23">
     <rect class="BoundingBox" stroke="none" fill="none" x="11175" y="10581" width="104" height="87"/>
     <path fill="rgb(15,15,15)" stroke="none" d="M 11176,10660 L 11222,10582 11277,10666 11176,10660 Z"/>
     <path fill="none" stroke="rgb(15,15,15)" d="M 11176,10660 L 11222,10582 11277,10666 11176,10660 Z"/>
    </g>
   </g>
   <g class="com.sun.star.drawing.PolyPolygonShape">
    <g id="id24">
     <rect class="BoundingBox" stroke="none" fill="none" x="11175" y="10581" width="104" height="87"/>
     <path fill="none" stroke="rgb(15,15,15)" d="M 11277,10666 L 11176,10660 11222,10582 11277,10666 Z"/>
    </g>
   </g>
   <g class="com.sun.star.drawing.PolyPolygonShape">
    <g id="id25">
     <rect class="BoundingBox" stroke="none" fill="none" x="10767" y="10282" width="173" height="87"/>
     <path fill="rgb(15,15,15)" stroke="none" d="M 10938,10367 L 10854,10283 10768,10367 10938,10367 Z"/>
     <path fill="none" stroke="rgb(15,15,15)" d="M 10938,10367 L 10854,10283 10768,10367 10938,10367 Z"/>
    </g>
   </g>
   <g class="com.sun.star.drawing.PolyPolygonShape">
    <g id="id26">
     <rect class="BoundingBox" stroke="none" fill="none" x="10767" y="10366" width="173" height="87"/>
     <path fill="rgb(15,15,15)" stroke="none" d="M 10938,10367 L 10768,10367 10854,10451 10938,10367 Z"/>
     <path fill="none" stroke="rgb(15,15,15)" d="M 10938,10367 L 10768,10367 10854,10451 10938,10367 Z"/>
    </g>
   </g>
   <g class="com.sun.star.drawing.PolyPolygonShape">
    <g id="id27">
     <rect class="BoundingBox" stroke="none" fill="none" x="10767" y="10282" width="173" height="171"/>
     <path fill="none" stroke="rgb(15,15,15)" d="M 10854,10451 L 10938,10367 10854,10283 10768,10367 10854,10451 Z"/>
    </g>
   </g>
  </g>
 </g>
</svg>