<?xml version="1.0" encoding="UTF-8"?>
<!DOCTYPE svg PUBLIC "-//W3C//DTD SVG 1.1//EN" "http://www.w3.org/Graphics/SVG/1.1/DTD/svg11.dtd">
<svg version="1.2" width="18.62mm" height="10.07mm" viewBox="7083 15582 1862 1007" preserveAspectRatio="xMidYMid" fill-rule="evenodd" stroke-width="28.222" stroke-linejoin="round" xmlns="http://www.w3.org/2000/svg" xmlns:ooo="http://xml.openoffice.org/svg/export" xmlns:xlink="http://www.w3.org/1999/xlink" xmlns:presentation="http://sun.com/xmlns/staroffice/presentation" xmlns:smil="http://www.w3.org/2001/SMIL20/" xmlns:anim="urn:oasis:names:tc:opendocument:xmlns:animation:1.0" xmlns:svg="urn:oasis:names:tc:opendocument:xmlns:svg-compatible:1.0" xml:space="preserve">
 <defs class="EmbeddedBulletChars">
  <g id="bullet-char-template-57356" transform="scale(0.00048828125,-0.00048828125)">
   <path d="M 580,1141 L 1163,571 580,0 -4,571 580,1141 Z"/>
  </g>
  <g id="bullet-char-template-57354" transform="scale(0.00048828125,-0.00048828125)">
   <path d="M 8,1128 L 1137,1128 1137,0 8,0 8,1128 Z"/>
  </g>
  <g id="bullet-char-template-10146" transform="scale(0.00048828125,-0.00048828125)">
   <path d="M 174,0 L 602,739 174,1481 1456,739 174,0 Z M 1358,739 L 309,1346 659,739 1358,739 Z"/>
  </g>
  <g id="bullet-char-template-10132" transform="scale(0.00048828125,-0.00048828125)">
   <path d="M 2015,739 L 1276,0 717,0 1260,543 174,543 174,936 1260,936 717,1481 1274,1481 2015,739 Z"/>
  </g>
  <g id="bullet-char-template-10007" transform="scale(0.00048828125,-0.00048828125)">
   <path d="M 0,-2 C -7,14 -16,27 -25,37 L 356,567 C 262,823 215,952 215,954 215,979 228,992 255,992 264,992 276,990 289,987 310,991 331,999 354,1012 L 381,999 492,748 772,1049 836,1024 860,1049 C 881,1039 901,1025 922,1006 886,937 835,863 770,784 769,783 710,716 594,584 L 774,223 C 774,196 753,168 711,139 L 727,119 C 717,90 699,76 672,76 641,76 570,178 457,381 L 164,-76 C 142,-110 111,-127 72,-127 30,-127 9,-110 8,-76 1,-67 -2,-52 -2,-32 -2,-23 -1,-13 0,-2 Z"/>
  </g>
  <g id="bullet-char-template-10004" transform="scale(0.00048828125,-0.00048828125)">
   <path d="M 285,-33 C 182,-33 111,30 74,156 52,228 41,333 41,471 41,549 55,616 82,672 116,743 169,778 240,778 293,778 328,747 346,684 L 369,508 C 377,444 397,411 428,410 L 1163,1116 C 1174,1127 1196,1133 1229,1133 1271,1133 1292,1118 1292,1087 L 1292,965 C 1292,929 1282,901 1262,881 L 442,47 C 390,-6 338,-33 285,-33 Z"/>
  </g>
  <g id="bullet-char-template-9679" transform="scale(0.00048828125,-0.00048828125)">
   <path d="M 813,0 C 632,0 489,54 383,161 276,268 223,411 223,592 223,773 276,916 383,1023 489,1130 632,1184 813,1184 992,1184 1136,1130 1245,1023 1353,916 1407,772 1407,592 1407,412 1353,268 1245,161 1136,54 992,0 813,0 Z"/>
  </g>
  <g id="bullet-char-template-8226" transform="scale(0.00048828125,-0.00048828125)">
   <path d="M 346,457 C 273,457 209,483 155,535 101,586 74,649 74,723 74,796 101,859 155,911 209,963 273,989 346,989 419,989 480,963 531,910 582,859 608,796 608,723 608,648 583,586 532,535 482,483 420,457 346,457 Z"/>
  </g>
  <g id="bullet-char-template-8211" transform="scale(0.00048828125,-0.00048828125)">
   <path d="M -4,459 L 1135,459 1135,606 -4,606 -4,459 Z"/>
  </g>
  <g id="bullet-char-template-61548" transform="scale(0.00048828125,-0.00048828125)">
   <path d="M 173,740 C 173,903 231,1043 346,1159 462,1274 601,1332 765,1332 928,1332 1067,1274 1183,1159 1299,1043 1357,903 1357,740 1357,577 1299,437 1183,322 1067,206 928,148 765,148 601,148 462,206 346,322 231,437 173,577 173,740 Z"/>
  </g>
 </defs>
 <g class="Page">
  <g class="Group">
   <g class="com.sun.star.drawing.PolyPolygonShape">
    <g id="id3">
     <rect class="BoundingBox" stroke="none" fill="none" x="7338" y="15582" width="1607" height="1007"/>
     <path fill="rgb(204,255,153)" stroke="none" d="M 7364,16562 L 8918,16562 8918,15608 7364,15608 7364,16562 Z"/>
     <path fill="none" stroke="rgb(15,15,15)" stroke-width="51" stroke-linejoin="round" d="M 7364,16562 L 8918,16562 8918,15608 7364,15608 7364,16562 Z"/>
    </g>
   </g>
   <g class="com.sun.star.drawing.CustomShape">
    <g id="id4">
     <rect class="BoundingBox" stroke="none" fill="none" x="7818" y="15736" width="695" height="695"/>
     <path fill="none" stroke="rgb(0,0,0)" stroke-width="25" stroke-linejoin="round" d="M 8499,16083 C 8499,16142 8484,16199 8454,16250 8425,16301 8383,16343 8332,16372 8281,16402 8224,16417 8165,16417 8106,16417 8049,16402 7998,16372 7947,16343 7905,16301 7876,16250 7846,16199 7831,16142 7831,16083 7831,16024 7846,15967 7876,15916 7905,15865 7947,15823 7998,15794 8049,15764 8106,15749 8165,15749 8224,15749 8281,15764 8332,15794 8383,15823 8425,15865 8454,15916 8484,15967 8499,16024 8499,16083 Z"/>
    </g>
   </g>
   <g class="com.sun.star.drawing.LineShape">
    <g id="id5">
     <rect class="BoundingBox" stroke="none" fill="none" x="7083" y="16072" width="774" height="27"/>
     <path fill="none" stroke="rgb(141,141,141)" stroke-width="25" stroke-linejoin="round" d="M 7096,16085 L 7843,16085"/>
    </g>
   </g>
   <g class="com.sun.star.drawing.PolyPolygonShape">
    <g id="id6">
     <rect class="BoundingBox" stroke="none" fill="none" x="8509" y="16000" width="171" height="87"/>
     <path fill="rgb(15,15,15)" stroke="none" d="M 8678,16085 L 8594,16001 8510,16085 8678,16085 Z"/>
     <path fill="none" stroke="rgb(15,15,15)" d="M 8678,16085 L 8594,16001 8510,16085 8678,16085 Z"/>
    </g>
   </g>
   <g class="com.sun.star.drawing.PolyPolygonShape">
    <g id="id7">
     <rect class="BoundingBox" stroke="none" fill="none" x="8509" y="16084" width="171" height="87"/>
     <path fill="rgb(15,15,15)" stroke="none" d="M 8678,16085 L 8510,16085 8594,16169 8678,16085 Z"/>
     <path fill="none" stroke="rgb(15,15,15)" d="M 8678,16085 L 8510,16085 8594,16169 8678,16085 Z"/>
    </g>
   </g>
   <g class="com.sun.star.drawing.PolyPolygonShape">
    <g id="id8">
     <rect class="BoundingBox" stroke="none" fill="none" x="8509" y="16000" width="171" height="171"/>
     <path fill="none" stroke="rgb(15,15,15)" d="M 8594,16169 L 8678,16085 8594,16001 8510,16085 8594,16169 Z"/>
    </g>
   </g>
   <g class="com.sun.star.drawing.CustomShape">
    <g id="id9">
     <rect class="BoundingBox" stroke="none" fill="none" x="7748" y="15993" width="155" height="156"/>
     <path fill="rgb(204,255,153)" stroke="none" d="M 7902,16071 C 7902,16085 7898,16098 7892,16109 7885,16121 7875,16131 7864,16138 7852,16144 7839,16148 7825,16148 7811,16148 7798,16144 7787,16138 7775,16131 7765,16121 7758,16109 7752,16098 7748,16085 7748,16071 7748,16057 7752,16044 7758,16032 7765,16021 7775,16011 7787,16004 7798,15998 7811,15994 7825,15994 7839,15994 7852,15998 7864,16004 7875,16011 7885,16021 7892,16032 7898,16044 7902,16057 7902,16071 L 7902,16071 Z"/>
    </g>
   </g>
   <g class="com.sun.star.drawing.PolyPolygonShape">
    <g id="id10">
     <rect class="BoundingBox" stroke="none" fill="none" x="7723" y="15994" width="182" height="182"/>
     <path fill="rgb(141,141,141)" stroke="none" d="M 7724,16174 L 7724,15995 7903,16085 7724,16174 Z"/>
     <path fill="none" stroke="rgb(141,141,141)" d="M 7724,16174 L 7724,15995 7903,16085 7724,16174 Z"/>
    </g>
   </g>
   <g class="com.sun.star.drawing.PolyPolygonShape">
    <g id="id11">
     <rect class="BoundingBox" stroke="none" fill="none" x="7723" y="15994" width="182" height="182"/>
     <path fill="none" stroke="rgb(141,141,141)" d="M 7903,16085 L 7724,16174 7724,15995 7903,16085 Z"/>
    </g>
   </g>
   <g class="com.sun.star.drawing.PolyPolygonShape">
    <g id="id12">
     <rect class="BoundingBox" stroke="none" fill="none" x="7813" y="15932" width="87" height="102"/>
     <path fill="rgb(15,15,15)" stroke="none" d="M 7820,15933 L 7898,15977 7814,16032 7820,15933 Z"/>
     <path fill="none" stroke="rgb(15,15,15)" d="M 7820,15933 L 7898,15977 7814,16032 7820,15933 Z"/>
    </g>
   </g>
  </g>
 </g>
</svg>