<?xml version="1.0" encoding="UTF-8"?>
<!DOCTYPE svg PUBLIC "-//W3C//DTD SVG 1.1//EN" "http://www.w3.org/Graphics/SVG/1.1/DTD/svg11.dtd">
<svg version="1.2" width="16.05mm" height="10.07mm" viewBox="15836 15582 1605 1007" preserveAspectRatio="xMidYMid" fill-rule="evenodd" stroke-width="28.222" stroke-linejoin="round" xmlns="http://www.w3.org/2000/svg" xmlns:ooo="http://xml.openoffice.org/svg/export" xmlns:xlink="http://www.w3.org/1999/xlink" xmlns:presentation="http://sun.com/xmlns/staroffice/presentation" xmlns:smil="http://www.w3.org/2001/SMIL20/" xmlns:anim="urn:oasis:names:tc:opendocument:xmlns:animation:1.0" xmlns:svg="urn:oasis:names:tc:opendocument:xmlns:svg-compatible:1.0" xml:space="preserve">
 <defs class="EmbeddedBulletChars">
  <g id="bullet-char-template-57356" transform="scale(0.00048828125,-0.00048828125)">
   <path d="M 580,1141 L 1163,571 580,0 -4,571 580,1141 Z"/>
  </g>
  <g id="bullet-char-template-57354" transform="scale(0.00048828125,-0.00048828125)">
   <path d="M 8,1128 L 1137,1128 1137,0 8,0 8,1128 Z"/>
  </g>
  <g id="bullet-char-template-10146" transform="scale(0.00048828125,-0.00048828125)">
   <path d="M 174,0 L 602,739 174,1481 1456,739 174,0 Z M 1358,739 L 309,1346 659,739 1358,739 Z"/>
  </g>
  <g id="bullet-char-template-10132" transform="scale(0.00048828125,-0.00048828125)">
   <path d="M 2015,739 L 1276,0 717,0 1260,543 174,543 174,936 1260,936 717,1481 1274,1481 2015,739 Z"/>
  </g>
  <g id="bullet-char-template-10007" transform="scale(0.00048828125,-0.00048828125)">
   <path d="M 0,-2 C -7,14 -16,27 -25,37 L 356,567 C 262,823 215,952 215,954 215,979 228,992 255,992 264,992 276,990 289,987 310,991 331,999 354,1012 L 381,999 492,748 772,1049 836,1024 860,1049 C 881,1039 901,1025 922,1006 886,937 835,863 770,784 769,783 710,716 594,584 L 774,223 C 774,196 753,168 711,139 L 727,119 C 717,90 699,76 672,76 641,76 570,178 457,381 L 164,-76 C 142,-110 111,-127 72,-127 30,-127 9,-110 8,-76 1,-67 -2,-52 -2,-32 -2,-23 -1,-13 0,-2 Z"/>
  </g>
  <g id="bullet-char-template-10004" transform="scale(0.00048828125,-0.00048828125)">
   <path d="M 285,-33 C 182,-33 111,30 74,156 52,228 41,333 41,471 41,549 55,616 82,672 116,743 169,778 240,778 293,778 328,747 346,684 L 369,508 C 377,444 397,411 428,410 L 1163,1116 C 1174,1127 1196,1133 1229,1133 1271,1133 1292,1118 1292,1087 L 1292,965 C 1292,929 1282,901 1262,881 L 442,47 C 390,-6 338,-33 285,-33 Z"/>
  </g>
  <g id="bullet-char-template-9679" transform="scale(0.00048828125,-0.00048828125)">
   <path d="M 813,0 C 632,0 489,54 383,161 276,268 223,411 223,592 223,773 276,916 383,1023 489,1130 632,1184 813,1184 992,1184 1136,1130 1245,1023 1353,916 1407,772 1407,592 1407,412 1353,268 1245,161 1136,54 992,0 813,0 Z"/>
  </g>
  <g id="bullet-char-template-8226" transform="scale(0.00048828125,-0.00048828125)">
   <path d="M 346,457 C 273,457 209,483 155,535 101,586 74,649 74,723 74,796 101,859 155,911 209,963 273,989 346,989 419,989 480,963 531,910 582,859 608,796 608,723 608,648 583,586 532,535 482,483 420,457 346,457 Z"/>
  </g>
  <g id="bullet-char-template-8211" transform="scale(0.00048828125,-0.00048828125)">
   <path d="M -4,459 L 1135,459 1135,606 -4,606 -4,459 Z"/>
  </g>
  <g id="bullet-char-template-61548" transform="scale(0.00048828125,-0.00048828125)">
   <path d="M 173,740 C 173,903 231,1043 346,1159 462,1274 601,1332 765,1332 928,1332 1067,1274 1183,1159 1299,1043 1357,903 1357,740 1357,577 1299,437 1183,322 1067,206 928,148 765,148 601,148 462,206 346,322 231,437 173,577 173,740 Z"/>
  </g>
 </defs>
 <g class="Page">
  <g class="Group">
   <g class="com.sun.star.drawing.PolyPolygonShape">
    <g id="id3">
     <rect class="BoundingBox" stroke="none" fill="none" x="15836" y="15582" width="1605" height="1007"/>
     <path fill="rgb(204,255,153)" stroke="none" d="M 15862,16562 L 17414,16562 17414,15608 15862,15608 15862,16562 Z"/>
     <path fill="none" stroke="rgb(15,15,15)" stroke-width="51" stroke-linejoin="round" d="M 15862,16562 L 17414,16562 17414,15608 15862,15608 15862,16562 Z"/>
    </g>
   </g>
   <g class="com.sun.star.drawing.PolyPolygonShape">
    <g id="id4">
     <rect class="BoundingBox" stroke="none" fill="none" x="16217" y="16101" width="22" height="35"/>
     <path fill="rgb(15,15,15)" stroke="none" d="M 16218,16102 L 16226,16119 16237,16134 16218,16102 Z"/>
     <path fill="none" stroke="rgb(15,15,15)" d="M 16218,16102 L 16226,16119 16237,16134 16218,16102 Z"/>
    </g>
   </g>
   <g class="com.sun.star.drawing.PolyPolygonShape">
    <g id="id5">
     <rect class="BoundingBox" stroke="none" fill="none" x="16217" y="16101" width="39" height="45"/>
     <path fill="rgb(15,15,15)" stroke="none" d="M 16218,16102 L 16237,16134 16254,16144 16218,16102 Z"/>
     <path fill="none" stroke="rgb(15,15,15)" d="M 16218,16102 L 16237,16134 16254,16144 16218,16102 Z"/>
    </g>
   </g>
   <g class="com.sun.star.drawing.PolyPolygonShape">
    <g id="id6">
     <rect class="BoundingBox" stroke="none" fill="none" x="16217" y="16101" width="56" height="49"/>
     <path fill="rgb(15,15,15)" stroke="none" d="M 16218,16102 L 16254,16144 16271,16148 16218,16102 Z"/>
     <path fill="none" stroke="rgb(15,15,15)" d="M 16218,16102 L 16254,16144 16271,16148 16218,16102 Z"/>
    </g>
   </g>
   <g class="com.sun.star.drawing.PolyPolygonShape">
    <g id="id7">
     <rect class="BoundingBox" stroke="none" fill="none" x="16217" y="16101" width="74" height="49"/>
     <path fill="rgb(15,15,15)" stroke="none" d="M 16218,16102 L 16271,16148 16289,16148 16218,16102 Z"/>
     <path fill="none" stroke="rgb(15,15,15)" d="M 16218,16102 L 16271,16148 16289,16148 16218,16102 Z"/>
    </g>
   </g>
   <g class="com.sun.star.drawing.PolyPolygonShape">
    <g id="id8">
     <rect class="BoundingBox" stroke="none" fill="none" x="16217" y="16101" width="91" height="49"/>
     <path fill="rgb(15,15,15)" stroke="none" d="M 16218,16102 L 16289,16148 16306,16144 16218,16102 Z"/>
     <path fill="none" stroke="rgb(15,15,15)" d="M 16218,16102 L 16289,16148 16306,16144 16218,16102 Z"/>
    </g>
   </g>
   <g class="com.sun.star.drawing.PolyPolygonShape">
    <g id="id9">
     <rect class="BoundingBox" stroke="none" fill="none" x="16217" y="16101" width="108" height="45"/>
     <path fill="rgb(15,15,15)" stroke="none" d="M 16218,16102 L 16306,16144 16323,16134 16218,16102 Z"/>
     <path fill="none" stroke="rgb(15,15,15)" d="M 16218,16102 L 16306,16144 16323,16134 16218,16102 Z"/>
    </g>
   </g>
   <g class="com.sun.star.drawing.PolyPolygonShape">
    <g id="id10">
     <rect class="BoundingBox" stroke="none" fill="none" x="16217" y="16101" width="119" height="35"/>
     <path fill="rgb(15,15,15)" stroke="none" d="M 16218,16102 L 16323,16134 16334,16119 16218,16102 Z"/>
     <path fill="none" stroke="rgb(15,15,15)" d="M 16218,16102 L 16323,16134 16334,16119 16218,16102 Z"/>
    </g>
   </g>
   <g class="com.sun.star.drawing.PolyPolygonShape">
    <g id="id11">
     <rect class="BoundingBox" stroke="none" fill="none" x="16217" y="16101" width="127" height="20"/>
     <path fill="rgb(15,15,15)" stroke="none" d="M 16218,16102 L 16334,16119 16342,16102 16218,16102 Z"/>
     <path fill="none" stroke="rgb(15,15,15)" d="M 16218,16102 L 16334,16119 16342,16102 16218,16102 Z"/>
    </g>
   </g>
   <g class="com.sun.star.drawing.PolyPolygonShape">
    <g id="id12">
     <rect class="BoundingBox" stroke="none" fill="none" x="16217" y="16084" width="129" height="20"/>
     <path fill="rgb(15,15,15)" stroke="none" d="M 16218,16102 L 16342,16102 16344,16085 16218,16102 Z"/>
     <path fill="none" stroke="rgb(15,15,15)" d="M 16218,16102 L 16342,16102 16344,16085 16218,16102 Z"/>
    </g>
   </g>
   <g class="com.sun.star.drawing.PolyPolygonShape">
    <g id="id13">
     <rect class="BoundingBox" stroke="none" fill="none" x="16217" y="16065" width="129" height="39"/>
     <path fill="rgb(15,15,15)" stroke="none" d="M 16218,16102 L 16344,16085 16342,16066 16218,16102 Z"/>
     <path fill="none" stroke="rgb(15,15,15)" d="M 16218,16102 L 16344,16085 16342,16066 16218,16102 Z"/>
    </g>
   </g>
   <g class="com.sun.star.drawing.PolyPolygonShape">
    <g id="id14">
     <rect class="BoundingBox" stroke="none" fill="none" x="16217" y="16049" width="127" height="56"/>
     <path fill="rgb(15,15,15)" stroke="none" d="M 16218,16103 L 16342,16067 16334,16050 16218,16103 Z"/>
     <path fill="none" stroke="rgb(15,15,15)" d="M 16218,16103 L 16342,16067 16334,16050 16218,16103 Z"/>
    </g>
   </g>
   <g class="com.sun.star.drawing.PolyPolygonShape">
    <g id="id15">
     <rect class="BoundingBox" stroke="none" fill="none" x="16217" y="16036" width="119" height="68"/>
     <path fill="rgb(15,15,15)" stroke="none" d="M 16218,16102 L 16334,16050 16323,16037 16218,16102 Z"/>
     <path fill="none" stroke="rgb(15,15,15)" d="M 16218,16102 L 16334,16050 16323,16037 16218,16102 Z"/>
    </g>
   </g>
   <g class="com.sun.star.drawing.PolyPolygonShape">
    <g id="id16">
     <rect class="BoundingBox" stroke="none" fill="none" x="16217" y="16025" width="108" height="79"/>
     <path fill="rgb(15,15,15)" stroke="none" d="M 16218,16102 L 16323,16037 16306,16026 16218,16102 Z"/>
     <path fill="none" stroke="rgb(15,15,15)" d="M 16218,16102 L 16323,16037 16306,16026 16218,16102 Z"/>
    </g>
   </g>
   <g class="com.sun.star.drawing.PolyPolygonShape">
    <g id="id17">
     <rect class="BoundingBox" stroke="none" fill="none" x="16217" y="16019" width="91" height="85"/>
     <path fill="rgb(15,15,15)" stroke="none" d="M 16218,16102 L 16306,16026 16289,16020 16218,16102 Z"/>
     <path fill="none" stroke="rgb(15,15,15)" d="M 16218,16102 L 16306,16026 16289,16020 16218,16102 Z"/>
    </g>
   </g>
   <g class="com.sun.star.drawing.PolyPolygonShape">
    <g id="id18">
     <rect class="BoundingBox" stroke="none" fill="none" x="16217" y="16019" width="74" height="85"/>
     <path fill="rgb(15,15,15)" stroke="none" d="M 16218,16102 L 16289,16020 16271,16020 16218,16102 Z"/>
     <path fill="none" stroke="rgb(15,15,15)" d="M 16218,16102 L 16289,16020 16271,16020 16218,16102 Z"/>
    </g>
   </g>
   <g class="com.sun.star.drawing.PolyPolygonShape">
    <g id="id19">
     <rect class="BoundingBox" stroke="none" fill="none" x="16217" y="16019" width="56" height="85"/>
     <path fill="rgb(15,15,15)" stroke="none" d="M 16218,16102 L 16271,16020 16254,16026 16218,16102 Z"/>
     <path fill="none" stroke="rgb(15,15,15)" d="M 16218,16102 L 16271,16020 16254,16026 16218,16102 Z"/>
    </g>
   </g>
   <g class="com.sun.star.drawing.PolyPolygonShape">
    <g id="id20">
     <rect class="BoundingBox" stroke="none" fill="none" x="16217" y="16025" width="39" height="79"/>
     <path fill="rgb(15,15,15)" stroke="none" d="M 16218,16102 L 16254,16026 16237,16037 16218,16102 Z"/>
     <path fill="none" stroke="rgb(15,15,15)" d="M 16218,16102 L 16254,16026 16237,16037 16218,16102 Z"/>
    </g>
   </g>
   <g class="com.sun.star.drawing.PolyPolygonShape">
    <g id="id21">
     <rect class="BoundingBox" stroke="none" fill="none" x="16217" y="16036" width="22" height="68"/>
     <path fill="rgb(15,15,15)" stroke="none" d="M 16218,16102 L 16237,16037 16226,16050 16218,16102 Z"/>
     <path fill="none" stroke="rgb(15,15,15)" d="M 16218,16102 L 16237,16037 16226,16050 16218,16102 Z"/>
    </g>
   </g>
   <g class="com.sun.star.drawing.PolyPolygonShape">
    <g id="id22">
     <rect class="BoundingBox" stroke="none" fill="none" x="16217" y="16049" width="11" height="56"/>
     <path fill="rgb(15,15,15)" stroke="none" d="M 16218,16103 L 16226,16050 16218,16067 16218,16103 Z"/>
     <path fill="none" stroke="rgb(15,15,15)" d="M 16218,16103 L 16226,16050 16218,16067 16218,16103 Z"/>
    </g>
   </g>
   <g class="com.sun.star.drawing.PolyPolygonShape">
    <g id="id23">
     <rect class="BoundingBox" stroke="none" fill="none" x="16215" y="16065" width="5" height="39"/>
     <path fill="rgb(15,15,15)" stroke="none" d="M 16218,16102 L 16218,16066 16216,16085 16218,16102 Z"/>
     <path fill="none" stroke="rgb(15,15,15)" d="M 16218,16102 L 16218,16066 16216,16085 16218,16102 Z"/>
    </g>
   </g>
   <g class="com.sun.star.drawing.LineShape">
    <g id="id24">
     <rect class="BoundingBox" stroke="none" fill="none" x="15979" y="16084" width="302" height="3"/>
     <path fill="none" stroke="rgb(15,15,15)" d="M 15980,16085 L 16279,16085"/>
    </g>
   </g>
   <g class="com.sun.star.drawing.PolyPolygonShape">
    <g id="id25">
     <rect class="BoundingBox" stroke="none" fill="none" x="17037" y="15737" width="24" height="32"/>
     <path fill="rgb(15,15,15)" stroke="none" d="M 17059,15767 L 17051,15751 17038,15738 17059,15767 Z"/>
     <path fill="none" stroke="rgb(15,15,15)" d="M 17059,15767 L 17051,15751 17038,15738 17059,15767 Z"/>
    </g>
   </g>
   <g class="com.sun.star.drawing.PolyPolygonShape">
    <g id="id26">
     <rect class="BoundingBox" stroke="none" fill="none" x="17022" y="15727" width="39" height="43"/>
     <path fill="rgb(15,15,15)" stroke="none" d="M 17059,15768 L 17038,15739 17023,15728 17059,15768 Z"/>
     <path fill="none" stroke="rgb(15,15,15)" d="M 17059,15768 L 17038,15739 17023,15728 17059,15768 Z"/>
    </g>
   </g>
   <g class="com.sun.star.drawing.PolyPolygonShape">
    <g id="id27">
     <rect class="BoundingBox" stroke="none" fill="none" x="17005" y="15721" width="56" height="49"/>
     <path fill="rgb(15,15,15)" stroke="none" d="M 17059,15768 L 17023,15728 17006,15722 17059,15768 Z"/>
     <path fill="none" stroke="rgb(15,15,15)" d="M 17059,15768 L 17023,15728 17006,15722 17059,15768 Z"/>
    </g>
   </g>
   <g class="com.sun.star.drawing.PolyPolygonShape">
    <g id="id28">
     <rect class="BoundingBox" stroke="none" fill="none" x="16986" y="15721" width="74" height="49"/>
     <path fill="rgb(15,15,15)" stroke="none" d="M 17058,15768 L 17006,15722 16987,15722 17058,15768 Z"/>
     <path fill="none" stroke="rgb(15,15,15)" d="M 17058,15768 L 17006,15722 16987,15722 17058,15768 Z"/>
    </g>
   </g>
   <g class="com.sun.star.drawing.PolyPolygonShape">
    <g id="id29">
     <rect class="BoundingBox" stroke="none" fill="none" x="16969" y="15721" width="91" height="49"/>
     <path fill="rgb(15,15,15)" stroke="none" d="M 17058,15768 L 16987,15722 16970,15728 17058,15768 Z"/>
     <path fill="none" stroke="rgb(15,15,15)" d="M 17058,15768 L 16987,15722 16970,15728 17058,15768 Z"/>
    </g>
   </g>
   <g class="com.sun.star.drawing.PolyPolygonShape">
    <g id="id30">
     <rect class="BoundingBox" stroke="none" fill="none" x="16952" y="15727" width="108" height="43"/>
     <path fill="rgb(15,15,15)" stroke="none" d="M 17058,15768 L 16970,15728 16953,15739 17058,15768 Z"/>
     <path fill="none" stroke="rgb(15,15,15)" d="M 17058,15768 L 16970,15728 16953,15739 17058,15768 Z"/>
    </g>
   </g>
   <g class="com.sun.star.drawing.PolyPolygonShape">
    <g id="id31">
     <rect class="BoundingBox" stroke="none" fill="none" x="16942" y="15737" width="119" height="32"/>
     <path fill="rgb(15,15,15)" stroke="none" d="M 17059,15767 L 16954,15738 16943,15751 17059,15767 Z"/>
     <path fill="none" stroke="rgb(15,15,15)" d="M 17059,15767 L 16954,15738 16943,15751 17059,15767 Z"/>
    </g>
   </g>
   <g class="com.sun.star.drawing.PolyPolygonShape">
    <g id="id32">
     <rect class="BoundingBox" stroke="none" fill="none" x="16934" y="15750" width="127" height="20"/>
     <path fill="rgb(15,15,15)" stroke="none" d="M 17059,15768 L 16943,15751 16935,15768 17059,15768 Z"/>
     <path fill="none" stroke="rgb(15,15,15)" d="M 17059,15768 L 16943,15751 16935,15768 17059,15768 Z"/>
    </g>
   </g>
   <g class="com.sun.star.drawing.PolyPolygonShape">
    <g id="id33">
     <rect class="BoundingBox" stroke="none" fill="none" x="16931" y="15767" width="129" height="22"/>
     <path fill="rgb(15,15,15)" stroke="none" d="M 17058,15768 L 16934,15768 16932,15787 17058,15768 Z"/>
     <path fill="none" stroke="rgb(15,15,15)" d="M 17058,15768 L 16934,15768 16932,15787 17058,15768 Z"/>
    </g>
   </g>
   <g class="com.sun.star.drawing.PolyPolygonShape">
    <g id="id34">
     <rect class="BoundingBox" stroke="none" fill="none" x="16931" y="15767" width="129" height="39"/>
     <path fill="rgb(15,15,15)" stroke="none" d="M 17058,15768 L 16932,15787 16934,15804 17058,15768 Z"/>
     <path fill="none" stroke="rgb(15,15,15)" d="M 17058,15768 L 16932,15787 16934,15804 17058,15768 Z"/>
    </g>
   </g>
   <g class="com.sun.star.drawing.PolyPolygonShape">
    <g id="id35">
     <rect class="BoundingBox" stroke="none" fill="none" x="16934" y="15767" width="127" height="56"/>
     <path fill="rgb(15,15,15)" stroke="none" d="M 17059,15768 L 16935,15804 16943,15821 17059,15768 Z"/>
     <path fill="none" stroke="rgb(15,15,15)" d="M 17059,15768 L 16935,15804 16943,15821 17059,15768 Z"/>
    </g>
   </g>
   <g class="com.sun.star.drawing.PolyPolygonShape">
    <g id="id36">
     <rect class="BoundingBox" stroke="none" fill="none" x="16942" y="15767" width="119" height="70"/>
     <path fill="rgb(15,15,15)" stroke="none" d="M 17059,15768 L 16943,15821 16954,15835 17059,15768 Z"/>
     <path fill="none" stroke="rgb(15,15,15)" d="M 17059,15768 L 16943,15821 16954,15835 17059,15768 Z"/>
    </g>
   </g>
   <g class="com.sun.star.drawing.PolyPolygonShape">
    <g id="id37">
     <rect class="BoundingBox" stroke="none" fill="none" x="16952" y="15767" width="108" height="81"/>
     <path fill="rgb(15,15,15)" stroke="none" d="M 17058,15768 L 16953,15835 16970,15846 17058,15768 Z"/>
     <path fill="none" stroke="rgb(15,15,15)" d="M 17058,15768 L 16953,15835 16970,15846 17058,15768 Z"/>
    </g>
   </g>
   <g class="com.sun.star.drawing.PolyPolygonShape">
    <g id="id38">
     <rect class="BoundingBox" stroke="none" fill="none" x="16969" y="15767" width="91" height="85"/>
     <path fill="rgb(15,15,15)" stroke="none" d="M 17058,15768 L 16970,15846 16987,15850 17058,15768 Z"/>
     <path fill="none" stroke="rgb(15,15,15)" d="M 17058,15768 L 16970,15846 16987,15850 17058,15768 Z"/>
    </g>
   </g>
   <g class="com.sun.star.drawing.PolyPolygonShape">
    <g id="id39">
     <rect class="BoundingBox" stroke="none" fill="none" x="16986" y="15767" width="74" height="85"/>
     <path fill="rgb(15,15,15)" stroke="none" d="M 17058,15768 L 16987,15850 17006,15850 17058,15768 Z"/>
     <path fill="none" stroke="rgb(15,15,15)" d="M 17058,15768 L 16987,15850 17006,15850 17058,15768 Z"/>
    </g>
   </g>
   <g class="com.sun.star.drawing.PolyPolygonShape">
    <g id="id40">
     <rect class="BoundingBox" stroke="none" fill="none" x="17005" y="15767" width="56" height="85"/>
     <path fill="rgb(15,15,15)" stroke="none" d="M 17059,15768 L 17006,15850 17023,15846 17059,15768 Z"/>
     <path fill="none" stroke="rgb(15,15,15)" d="M 17059,15768 L 17006,15850 17023,15846 17059,15768 Z"/>
    </g>
   </g>
   <g class="com.sun.star.drawing.PolyPolygonShape">
    <g id="id41">
     <rect class="BoundingBox" stroke="none" fill="none" x="17022" y="15767" width="39" height="81"/>
     <path fill="rgb(15,15,15)" stroke="none" d="M 17059,15768 L 17023,15846 17038,15835 17059,15768 Z"/>
     <path fill="none" stroke="rgb(15,15,15)" d="M 17059,15768 L 17023,15846 17038,15835 17059,15768 Z"/>
    </g>
   </g>
   <g class="com.sun.star.drawing.PolyPolygonShape">
    <g id="id42">
     <rect class="BoundingBox" stroke="none" fill="none" x="17037" y="15767" width="24" height="70"/>
     <path fill="rgb(15,15,15)" stroke="none" d="M 17059,15768 L 17038,15835 17051,15821 17059,15768 Z"/>
     <path fill="none" stroke="rgb(15,15,15)" d="M 17059,15768 L 17038,15835 17051,15821 17059,15768 Z"/>
    </g>
   </g>
   <g class="com.sun.star.drawing.PolyPolygonShape">
    <g id="id43">
     <rect class="BoundingBox" stroke="none" fill="none" x="17049" y="15767" width="11" height="56"/>
     <path fill="rgb(15,15,15)" stroke="none" d="M 17058,15768 L 17050,15821 17058,15804 17058,15768 Z"/>
     <path fill="none" stroke="rgb(15,15,15)" d="M 17058,15768 L 17050,15821 17058,15804 17058,15768 Z"/>
    </g>
   </g>
   <g class="com.sun.star.drawing.PolyPolygonShape">
    <g id="id44">
     <rect class="BoundingBox" stroke="none" fill="none" x="17058" y="15767" width="5" height="39"/>
     <path fill="rgb(15,15,15)" stroke="none" d="M 17059,15768 L 17059,15804 17061,15787 17059,15768 Z"/>
     <path fill="none" stroke="rgb(15,15,15)" d="M 17059,15768 L 17059,15804 17061,15787 17059,15768 Z"/>
    </g>
   </g>
   <g class="com.sun.star.drawing.LineShape">
    <g id="id45">
     <rect class="BoundingBox" stroke="none" fill="none" x="16995" y="15786" width="302" height="3"/>
     <path fill="none" stroke="rgb(15,15,15)" d="M 16996,15787 L 17295,15787"/>
    </g>
   </g>
   <g class="com.sun.star.drawing.PolyPolygonShape">
    <g id="id46">
     <rect class="BoundingBox" stroke="none" fill="none" x="17037" y="16036" width="24" height="32"/>
     <path fill="rgb(15,15,15)" stroke="none" d="M 17059,16066 L 17051,16050 17038,16037 17059,16066 Z"/>
     <path fill="none" stroke="rgb(15,15,15)" d="M 17059,16066 L 17051,16050 17038,16037 17059,16066 Z"/>
    </g>
   </g>
   <g class="com.sun.star.drawing.PolyPolygonShape">
    <g id="id47">
     <rect class="BoundingBox" stroke="none" fill="none" x="17022" y="16025" width="39" height="43"/>
     <path fill="rgb(15,15,15)" stroke="none" d="M 17059,16066 L 17038,16037 17023,16026 17059,16066 Z"/>
     <path fill="none" stroke="rgb(15,15,15)" d="M 17059,16066 L 17038,16037 17023,16026 17059,16066 Z"/>
    </g>
   </g>
   <g class="com.sun.star.drawing.PolyPolygonShape">
    <g id="id48">
     <rect class="BoundingBox" stroke="none" fill="none" x="17005" y="16019" width="56" height="49"/>
     <path fill="rgb(15,15,15)" stroke="none" d="M 17059,16066 L 17023,16026 17006,16020 17059,16066 Z"/>
     <path fill="none" stroke="rgb(15,15,15)" d="M 17059,16066 L 17023,16026 17006,16020 17059,16066 Z"/>
    </g>
   </g>
   <g class="com.sun.star.drawing.PolyPolygonShape">
    <g id="id49">
     <rect class="BoundingBox" stroke="none" fill="none" x="16986" y="16019" width="74" height="49"/>
     <path fill="rgb(15,15,15)" stroke="none" d="M 17058,16066 L 17006,16020 16987,16020 17058,16066 Z"/>
     <path fill="none" stroke="rgb(15,15,15)" d="M 17058,16066 L 17006,16020 16987,16020 17058,16066 Z"/>
    </g>
   </g>
   <g class="com.sun.star.drawing.PolyPolygonShape">
    <g id="id50">
     <rect class="BoundingBox" stroke="none" fill="none" x="16969" y="16019" width="91" height="49"/>
     <path fill="rgb(15,15,15)" stroke="none" d="M 17058,16066 L 16987,16020 16970,16026 17058,16066 Z"/>
     <path fill="none" stroke="rgb(15,15,15)" d="M 17058,16066 L 16987,16020 16970,16026 17058,16066 Z"/>
    </g>
   </g>
   <g class="com.sun.star.drawing.PolyPolygonShape">
    <g id="id51">
     <rect class="BoundingBox" stroke="none" fill="none" x="16952" y="16025" width="108" height="43"/>
     <path fill="rgb(15,15,15)" stroke="none" d="M 17058,16066 L 16970,16026 16953,16037 17058,16066 Z"/>
     <path fill="none" stroke="rgb(15,15,15)" d="M 17058,16066 L 16970,16026 16953,16037 17058,16066 Z"/>
    </g>
   </g>
   <g class="com.sun.star.drawing.PolyPolygonShape">
    <g id="id52">
     <rect class="BoundingBox" stroke="none" fill="none" x="16942" y="16036" width="119" height="32"/>
     <path fill="rgb(15,15,15)" stroke="none" d="M 17059,16066 L 16954,16037 16943,16050 17059,16066 Z"/>
     <path fill="none" stroke="rgb(15,15,15)" d="M 17059,16066 L 16954,16037 16943,16050 17059,16066 Z"/>
    </g>
   </g>
   <g class="com.sun.star.drawing.PolyPolygonShape">
    <g id="id53">
     <rect class="BoundingBox" stroke="none" fill="none" x="16934" y="16049" width="127" height="20"/>
     <path fill="rgb(15,15,15)" stroke="none" d="M 17059,16067 L 16943,16050 16935,16067 17059,16067 Z"/>
     <path fill="none" stroke="rgb(15,15,15)" d="M 17059,16067 L 16943,16050 16935,16067 17059,16067 Z"/>
    </g>
   </g>
   <g class="com.sun.star.drawing.PolyPolygonShape">
    <g id="id54">
     <rect class="BoundingBox" stroke="none" fill="none" x="16931" y="16065" width="129" height="22"/>
     <path fill="rgb(15,15,15)" stroke="none" d="M 17058,16066 L 16934,16066 16932,16085 17058,16066 Z"/>
     <path fill="none" stroke="rgb(15,15,15)" d="M 17058,16066 L 16934,16066 16932,16085 17058,16066 Z"/>
    </g>
   </g>
   <g class="com.sun.star.drawing.PolyPolygonShape">
    <g id="id55">
     <rect class="BoundingBox" stroke="none" fill="none" x="16931" y="16065" width="129" height="39"/>
     <path fill="rgb(15,15,15)" stroke="none" d="M 17058,16066 L 16932,16085 16934,16102 17058,16066 Z"/>
     <path fill="none" stroke="rgb(15,15,15)" d="M 17058,16066 L 16932,16085 16934,16102 17058,16066 Z"/>
    </g>
   </g>
   <g class="com.sun.star.drawing.PolyPolygonShape">
    <g id="id56">
     <rect class="BoundingBox" stroke="none" fill="none" x="16934" y="16065" width="127" height="56"/>
     <path fill="rgb(15,15,15)" stroke="none" d="M 17059,16066 L 16935,16102 16943,16119 17059,16066 Z"/>
     <path fill="none" stroke="rgb(15,15,15)" d="M 17059,16066 L 16935,16102 16943,16119 17059,16066 Z"/>
    </g>
   </g>
   <g class="com.sun.star.drawing.PolyPolygonShape">
    <g id="id57">
     <rect class="BoundingBox" stroke="none" fill="none" x="16942" y="16065" width="119" height="70"/>
     <path fill="rgb(15,15,15)" stroke="none" d="M 17059,16066 L 16943,16119 16954,16133 17059,16066 Z"/>
     <path fill="none" stroke="rgb(15,15,15)" d="M 17059,16066 L 16943,16119 16954,16133 17059,16066 Z"/>
    </g>
   </g>
   <g class="com.sun.star.drawing.PolyPolygonShape">
    <g id="id58">
     <rect class="BoundingBox" stroke="none" fill="none" x="16952" y="16065" width="108" height="81"/>
     <path fill="rgb(15,15,15)" stroke="none" d="M 17058,16066 L 16953,16133 16970,16144 17058,16066 Z"/>
     <path fill="none" stroke="rgb(15,15,15)" d="M 17058,16066 L 16953,16133 16970,16144 17058,16066 Z"/>
    </g>
   </g>
   <g class="com.sun.star.drawing.PolyPolygonShape">
    <g id="id59">
     <rect class="BoundingBox" stroke="none" fill="none" x="16969" y="16065" width="91" height="85"/>
     <path fill="rgb(15,15,15)" stroke="none" d="M 17058,16066 L 16970,16144 16987,16148 17058,16066 Z"/>
     <path fill="none" stroke="rgb(15,15,15)" d="M 17058,16066 L 16970,16144 16987,16148 17058,16066 Z"/>
    </g>
   </g>
   <g class="com.sun.star.drawing.PolyPolygonShape">
    <g id="id60">
     <rect class="BoundingBox" stroke="none" fill="none" x="16986" y="16065" width="74" height="85"/>
     <path fill="rgb(15,15,15)" stroke="none" d="M 17058,16066 L 16987,16148 17006,16148 17058,16066 Z"/>
     <path fill="none" stroke="rgb(15,15,15)" d="M 17058,16066 L 16987,16148 17006,16148 17058,16066 Z"/>
    </g>
   </g>
   <g class="com.sun.star.drawing.PolyPolygonShape">
    <g id="id61">
     <rect class="BoundingBox" stroke="none" fill="none" x="17005" y="16065" width="56" height="85"/>
     <path fill="rgb(15,15,15)" stroke="none" d="M 17059,16066 L 17006,16148 17023,16144 17059,16066 Z"/>
     <path fill="none" stroke="rgb(15,15,15)" d="M 17059,16066 L 17006,16148 17023,16144 17059,16066 Z"/>
    </g>
   </g>
   <g class="com.sun.star.drawing.PolyPolygonShape">
    <g id="id62">
     <rect class="BoundingBox" stroke="none" fill="none" x="17022" y="16065" width="39" height="81"/>
     <path fill="rgb(15,15,15)" stroke="none" d="M 17059,16066 L 17023,16144 17038,16133 17059,16066 Z"/>
     <path fill="none" stroke="rgb(15,15,15)" d="M 17059,16066 L 17023,16144 17038,16133 17059,16066 Z"/>
    </g>
   </g>
   <g class="com.sun.star.drawing.PolyPolygonShape">
    <g id="id63">
     <rect class="BoundingBox" stroke="none" fill="none" x="17037" y="16065" width="24" height="70"/>
     <path fill="rgb(15,15,15)" stroke="none" d="M 17059,16066 L 17038,16133 17051,16119 17059,16066 Z"/>
     <path fill="none" stroke="rgb(15,15,15)" d="M 17059,16066 L 17038,16133 17051,16119 17059,16066 Z"/>
    </g>
   </g>
   <g class="com.sun.star.drawing.PolyPolygonShape">
    <g id="id64">
     <rect class="BoundingBox" stroke="none" fill="none" x="17049" y="16065" width="11" height="56"/>
     <path fill="rgb(15,15,15)" stroke="none" d="M 17058,16066 L 17050,16119 17058,16102 17058,16066 Z"/>
     <path fill="none" stroke="rgb(15,15,15)" d="M 17058,16066 L 17050,16119 17058,16102 17058,16066 Z"/>
    </g>
   </g>
   <g class="com.sun.star.drawing.PolyPolygonShape">
    <g id="id65">
     <rect class="BoundingBox" stroke="none" fill="none" x="17058" y="16065" width="5" height="39"/>
     <path fill="rgb(15,15,15)" stroke="none" d="M 17059,16066 L 17059,16102 17061,16085 17059,16066 Z"/>
     <path fill="none" stroke="rgb(15,15,15)" d="M 17059,16066 L 17059,16102 17061,16085 17059,16066 Z"/>
    </g>
   </g>
   <g class="com.sun.star.drawing.LineShape">
    <g id="id66">
     <rect class="BoundingBox" stroke="none" fill="none" x="16995" y="16084" width="302" height="3"/>
     <path fill="none" stroke="rgb(15,15,15)" d="M 16996,16085 L 17295,16085"/>
    </g>
   </g>
   <g class="com.sun.star.drawing.PolyPolygonShape">
    <g id="id67">
     <rect class="BoundingBox" stroke="none" fill="none" x="17037" y="16334" width="24" height="32"/>
     <path fill="rgb(15,15,15)" stroke="none" d="M 17059,16364 L 17051,16348 17038,16335 17059,16364 Z"/>
     <path fill="none" stroke="rgb(15,15,15)" d="M 17059,16364 L 17051,16348 17038,16335 17059,16364 Z"/>
    </g>
   </g>
   <g class="com.sun.star.drawing.PolyPolygonShape">
    <g id="id68">
     <rect class="BoundingBox" stroke="none" fill="none" x="17022" y="16324" width="39" height="43"/>
     <path fill="rgb(15,15,15)" stroke="none" d="M 17059,16365 L 17038,16336 17023,16325 17059,16365 Z"/>
     <path fill="none" stroke="rgb(15,15,15)" d="M 17059,16365 L 17038,16336 17023,16325 17059,16365 Z"/>
    </g>
   </g>
   <g class="com.sun.star.drawing.PolyPolygonShape">
    <g id="id69">
     <rect class="BoundingBox" stroke="none" fill="none" x="17005" y="16318" width="56" height="49"/>
     <path fill="rgb(15,15,15)" stroke="none" d="M 17059,16365 L 17023,16325 17006,16319 17059,16365 Z"/>
     <path fill="none" stroke="rgb(15,15,15)" d="M 17059,16365 L 17023,16325 17006,16319 17059,16365 Z"/>
    </g>
   </g>
   <g class="com.sun.star.drawing.PolyPolygonShape">
    <g id="id70">
     <rect class="BoundingBox" stroke="none" fill="none" x="16986" y="16318" width="74" height="49"/>
     <path fill="rgb(15,15,15)" stroke="none" d="M 17058,16365 L 17006,16319 16987,16319 17058,16365 Z"/>
     <path fill="none" stroke="rgb(15,15,15)" d="M 17058,16365 L 17006,16319 16987,16319 17058,16365 Z"/>
    </g>
   </g>
   <g class="com.sun.star.drawing.PolyPolygonShape">
    <g id="id71">
     <rect class="BoundingBox" stroke="none" fill="none" x="16969" y="16318" width="91" height="49"/>
     <path fill="rgb(15,15,15)" stroke="none" d="M 17058,16365 L 16987,16319 16970,16325 17058,16365 Z"/>
     <path fill="none" stroke="rgb(15,15,15)" d="M 17058,16365 L 16987,16319 16970,16325 17058,16365 Z"/>
    </g>
   </g>
   <g class="com.sun.star.drawing.PolyPolygonShape">
    <g id="id72">
     <rect class="BoundingBox" stroke="none" fill="none" x="16952" y="16324" width="108" height="43"/>
     <path fill="rgb(15,15,15)" stroke="none" d="M 17058,16365 L 16970,16325 16953,16336 17058,16365 Z"/>
     <path fill="none" stroke="rgb(15,15,15)" d="M 17058,16365 L 16970,16325 16953,16336 17058,16365 Z"/>
    </g>
   </g>
   <g class="com.sun.star.drawing.PolyPolygonShape">
    <g id="id73">
     <rect class="BoundingBox" stroke="none" fill="none" x="16942" y="16334" width="119" height="32"/>
     <path fill="rgb(15,15,15)" stroke="none" d="M 17059,16364 L 16954,16335 16943,16348 17059,16364 Z"/>
     <path fill="none" stroke="rgb(15,15,15)" d="M 17059,16364 L 16954,16335 16943,16348 17059,16364 Z"/>
    </g>
   </g>
   <g class="com.sun.star.drawing.PolyPolygonShape">
    <g id="id74">
     <rect class="BoundingBox" stroke="none" fill="none" x="16934" y="16347" width="127" height="20"/>
     <path fill="rgb(15,15,15)" stroke="none" d="M 17059,16365 L 16943,16348 16935,16365 17059,16365 Z"/>
     <path fill="none" stroke="rgb(15,15,15)" d="M 17059,16365 L 16943,16348 16935,16365 17059,16365 Z"/>
    </g>
   </g>
   <g class="com.sun.star.drawing.PolyPolygonShape">
    <g id="id75">
     <rect class="BoundingBox" stroke="none" fill="none" x="16931" y="16364" width="129" height="22"/>
     <path fill="rgb(15,15,15)" stroke="none" d="M 17058,16365 L 16934,16365 16932,16384 17058,16365 Z"/>
     <path fill="none" stroke="rgb(15,15,15)" d="M 17058,16365 L 16934,16365 16932,16384 17058,16365 Z"/>
    </g>
   </g>
   <g class="com.sun.star.drawing.PolyPolygonShape">
    <g id="id76">
     <rect class="BoundingBox" stroke="none" fill="none" x="16931" y="16364" width="129" height="41"/>
     <path fill="rgb(15,15,15)" stroke="none" d="M 17058,16365 L 16932,16384 16934,16403 17058,16365 Z"/>
     <path fill="none" stroke="rgb(15,15,15)" d="M 17058,16365 L 16932,16384 16934,16403 17058,16365 Z"/>
    </g>
   </g>
   <g class="com.sun.star.drawing.PolyPolygonShape">
    <g id="id77">
     <rect class="BoundingBox" stroke="none" fill="none" x="16934" y="16364" width="127" height="56"/>
     <path fill="rgb(15,15,15)" stroke="none" d="M 17059,16365 L 16935,16403 16943,16418 17059,16365 Z"/>
     <path fill="none" stroke="rgb(15,15,15)" d="M 17059,16365 L 16935,16403 16943,16418 17059,16365 Z"/>
    </g>
   </g>
   <g class="com.sun.star.drawing.PolyPolygonShape">
    <g id="id78">
     <rect class="BoundingBox" stroke="none" fill="none" x="16942" y="16364" width="119" height="70"/>
     <path fill="rgb(15,15,15)" stroke="none" d="M 17059,16365 L 16943,16418 16954,16432 17059,16365 Z"/>
     <path fill="none" stroke="rgb(15,15,15)" d="M 17059,16365 L 16943,16418 16954,16432 17059,16365 Z"/>
    </g>
   </g>
   <g class="com.sun.star.drawing.PolyPolygonShape">
    <g id="id79">
     <rect class="BoundingBox" stroke="none" fill="none" x="16952" y="16364" width="108" height="81"/>
     <path fill="rgb(15,15,15)" stroke="none" d="M 17058,16365 L 16953,16432 16970,16443 17058,16365 Z"/>
     <path fill="none" stroke="rgb(15,15,15)" d="M 17058,16365 L 16953,16432 16970,16443 17058,16365 Z"/>
    </g>
   </g>
   <g class="com.sun.star.drawing.PolyPolygonShape">
    <g id="id80">
     <rect class="BoundingBox" stroke="none" fill="none" x="16969" y="16364" width="91" height="85"/>
     <path fill="rgb(15,15,15)" stroke="none" d="M 17058,16365 L 16970,16443 16987,16447 17058,16365 Z"/>
     <path fill="none" stroke="rgb(15,15,15)" d="M 17058,16365 L 16970,16443 16987,16447 17058,16365 Z"/>
    </g>
   </g>
   <g class="com.sun.star.drawing.PolyPolygonShape">
    <g id="id81">
     <rect class="BoundingBox" stroke="none" fill="none" x="16986" y="16364" width="74" height="85"/>
     <path fill="rgb(15,15,15)" stroke="none" d="M 17058,16365 L 16987,16447 17006,16447 17058,16365 Z"/>
     <path fill="none" stroke="rgb(15,15,15)" d="M 17058,16365 L 16987,16447 17006,16447 17058,16365 Z"/>
    </g>
   </g>
   <g class="com.sun.star.drawing.PolyPolygonShape">
    <g id="id82">
     <rect class="BoundingBox" stroke="none" fill="none" x="17005" y="16364" width="56" height="85"/>
     <path fill="rgb(15,15,15)" stroke="none" d="M 17059,16365 L 17006,16447 17023,16443 17059,16365 Z"/>
     <path fill="none" stroke="rgb(15,15,15)" d="M 17059,16365 L 17006,16447 17023,16443 17059,16365 Z"/>
    </g>
   </g>
   <g class="com.sun.star.drawing.PolyPolygonShape">
    <g id="id83">
     <rect class="BoundingBox" stroke="none" fill="none" x="17022" y="16364" width="39" height="81"/>
     <path fill="rgb(15,15,15)" stroke="none" d="M 17059,16365 L 17023,16443 17038,16432 17059,16365 Z"/>
     <path fill="none" stroke="rgb(15,15,15)" d="M 17059,16365 L 17023,16443 17038,16432 17059,16365 Z"/>
    </g>
   </g>
   <g class="com.sun.star.drawing.PolyPolygonShape">
    <g id="id84">
     <rect class="BoundingBox" stroke="none" fill="none" x="17037" y="16364" width="24" height="70"/>
     <path fill="rgb(15,15,15)" stroke="none" d="M 17059,16365 L 17038,16432 17051,16418 17059,16365 Z"/>
     <path fill="none" stroke="rgb(15,15,15)" d="M 17059,16365 L 17038,16432 17051,16418 17059,16365 Z"/>
    </g>
   </g>
   <g class="com.sun.star.drawing.PolyPolygonShape">
    <g id="id85">
     <rect class="BoundingBox" stroke="none" fill="none" x="17049" y="16364" width="11" height="56"/>
     <path fill="rgb(15,15,15)" stroke="none" d="M 17058,16365 L 17050,16418 17058,16403 17058,16365 Z"/>
     <path fill="none" stroke="rgb(15,15,15)" d="M 17058,16365 L 17050,16418 17058,16403 17058,16365 Z"/>
    </g>
   </g>
   <g class="com.sun.star.drawing.PolyPolygonShape">
    <g id="id86">
     <rect class="BoundingBox" stroke="none" fill="none" x="17058" y="16364" width="5" height="41"/>
     <path fill="rgb(15,15,15)" stroke="none" d="M 17059,16365 L 17059,16403 17061,16384 17059,16365 Z"/>
     <path fill="none" stroke="rgb(15,15,15)" d="M 17059,16365 L 17059,16403 17061,16384 17059,16365 Z"/>
    </g>
   </g>
   <g class="com.sun.star.drawing.LineShape">
    <g id="id87">
     <rect class="BoundingBox" stroke="none" fill="none" x="16995" y="16383" width="302" height="3"/>
     <path fill="none" stroke="rgb(15,15,15)" d="M 16996,16384 L 17295,16384"/>
    </g>
   </g>
   <g class="com.sun.star.drawing.LineShape">
    <g id="id88">
     <rect class="BoundingBox" stroke="none" fill="none" x="16278" y="15786" width="720" height="302"/>
     <path fill="none" stroke="rgb(15,15,15)" d="M 16279,16086 L 16996,15787"/>
    </g>
   </g>
   <g class="com.sun.star.drawing.PolyLineShape">
    <g id="id89">
     <rect class="BoundingBox" stroke="none" fill="none" x="16278" y="16084" width="720" height="302"/>
     <path fill="none" stroke="rgb(15,15,15)" d="M 16996,16384 L 16279,16085 16996,16085"/>
    </g>
   </g>
  </g>
 </g>
</svg>